<svg version="1.1" viewBox="0.0 0.0 363.96587926509187 185.9501312335958" fill="none" stroke="none" stroke-linecap="square" stroke-miterlimit="10" xmlns:xlink="http://www.w3.org/1999/xlink" xmlns="http://www.w3.org/2000/svg"><clipPath id="p.0"><path d="m0 0l363.96588 0l0 185.95013l-363.96588 0l0 -185.95013z" clip-rule="nonzero"/></clipPath><g clip-path="url(#p.0)"><path fill="#000000" fill-opacity="0.0" d="m0 0l363.96588 0l0 185.95013l-363.96588 0z" fill-rule="evenodd"/><path fill="#20272b" d="m109.01543 0l155.0236 0l0 78.07874l-155.0236 0z" fill-rule="evenodd"/><path stroke="#000000" stroke-width="1.0" stroke-linejoin="round" stroke-linecap="butt" d="m109.01543 0l155.0236 0l0 78.07874l-155.0236 0z" fill-rule="evenodd"/><path fill="#f1f1f1" d="m173.0164 45.959366l0 -1.3125l1.828125 0l0 -10.40625l-1.828125 0l0 -1.296875l5.21875 0l0 1.296875l-1.828125 0l0 10.40625l1.828125 0l0 1.3125l-5.21875 0zm7.915634 0l0 -9.625l1.5 0l0 1.5625l0.078125 0q0.34375 -0.8125 0.984375 -1.296875q0.65625 -0.484375 1.734375 -0.484375q1.5 0 2.359375 0.96875q0.875 0.953125 0.875 2.703125l0 6.171875l-1.5 0l0 -5.90625q0 -2.59375 -2.1875 -2.59375q-0.4375 0 -0.859375 0.109375q-0.421875 0.109375 -0.765625 0.34375q-0.328125 0.21875 -0.53125 0.5625q-0.1875 0.34375 -0.1875 0.8125l0 6.671875l-1.5 0zm11.346756 -11.890625q-0.484375 0 -0.703125 -0.21875q-0.203125 -0.234375 -0.203125 -0.609375l0 -0.25q0 -0.375 0.203125 -0.609375q0.21875 -0.234375 0.703125 -0.234375q0.484375 0 0.703125 0.234375q0.21875 0.234375 0.21875 0.609375l0 0.25q0 0.375 -0.21875 0.609375q-0.21875 0.21875 -0.703125 0.21875zm-0.75 2.265625l1.5 0l0 9.625l-1.5 0l0 -9.625zm6.8046875 9.625q-0.796875 0 -1.203125 -0.4375q-0.390625 -0.4375 -0.390625 -1.140625l0 -6.75l-1.578125 0l0 -1.296875l0.890625 0q0.484375 0 0.65625 -0.1875q0.1875 -0.203125 0.1875 -0.6875l0 -1.796875l1.34375 0l0 2.671875l2.109375 0l0 1.296875l-2.109375 0l0 7.015625l1.953125 0l0 1.3125l-1.859375 0z" fill-rule="nonzero"/><path fill="#20272b" d="m208.42685 106.96956l155.02362 0l0 78.078735l-155.02362 0z" fill-rule="evenodd"/><path stroke="#000000" stroke-width="1.0" stroke-linejoin="round" stroke-linecap="butt" d="m208.42685 106.96956l155.02362 0l0 78.078735l-155.02362 0z" fill-rule="evenodd"/><path fill="#f1f1f1" d="m249.17934 152.92892l-1.3125 -3.84375l-5.25 0l-1.3125 3.84375l-1.59375 0l4.5625 -13.015625l2.0 0l4.546875 13.015625l-1.640625 0zm-3.90625 -11.5625l-0.09375 0l-2.203125 6.34375l4.5 0l-2.203125 -6.34375zm7.708664 11.5625l0 -13.015625l7.953125 0l0 1.375l-6.390625 0l0 4.359375l6.015625 0l0 1.390625l-6.015625 0l0 4.515625l6.390625 0l0 1.375l-7.953125 0zm14.532837 0.21875q-1.578125 0 -2.703125 -0.59375q-1.125 -0.609375 -1.90625 -1.671875l1.15625 -0.96875q0.6875 0.90625 1.53125 1.390625q0.84375 0.46875 1.984375 0.46875q1.390625 0 2.125 -0.671875q0.75 -0.671875 0.75 -1.796875q0 -0.921875 -0.5625 -1.421875q-0.5625 -0.515625 -1.859375 -0.8125l-1.0625 -0.234375q-1.78125 -0.421875 -2.734375 -1.25q-0.9375 -0.828125 -0.9375 -2.34375q0 -0.859375 0.3125 -1.53125q0.328125 -0.671875 0.890625 -1.109375q0.578125 -0.453125 1.359375 -0.6875q0.796875 -0.234375 1.75 -0.234375q1.46875 0 2.515625 0.546875q1.0625 0.546875 1.796875 1.578125l-1.171875 0.859375q-0.546875 -0.734375 -1.3125 -1.15625q-0.765625 -0.4375 -1.90625 -0.4375q-1.25 0 -1.96875 0.53125q-0.71875 0.53125 -0.71875 1.59375q0 0.921875 0.609375 1.40625q0.609375 0.46875 1.84375 0.75l1.0625 0.25q1.921875 0.421875 2.78125 1.296875q0.859375 0.875 0.859375 2.34375q0 0.890625 -0.3125 1.625q-0.3125 0.71875 -0.890625 1.234375q-0.578125 0.5 -1.40625 0.78125q-0.828125 0.265625 -1.875 0.265625zm11.585907 -13.234375l4.359375 0q1.21875 0 2.203125 0.40625q1.0 0.40625 1.6875 1.21875q0.703125 0.8125 1.078125 2.03125q0.375 1.21875 0.375 2.84375q0 1.625 -0.375 2.859375q-0.375 1.21875 -1.078125 2.03125q-0.6875 0.796875 -1.6875 1.21875q-0.984375 0.40625 -2.203125 0.40625l-4.359375 0l0 -13.015625zm4.359375 11.640625q0.8125 0 1.484375 -0.265625q0.671875 -0.28125 1.15625 -0.796875q0.484375 -0.53125 0.75 -1.28125q0.265625 -0.765625 0.265625 -1.734375l0 -2.125q0 -0.96875 -0.265625 -1.71875q-0.265625 -0.765625 -0.75 -1.28125q-0.484375 -0.515625 -1.15625 -0.78125q-0.671875 -0.28125 -1.484375 -0.28125l-2.796875 0l0 10.265625l2.796875 0zm15.002716 1.375q-0.828125 0 -1.203125 -0.4375q-0.359375 -0.453125 -0.453125 -1.125l-0.09375 0q-0.3125 0.890625 -1.046875 1.34375q-0.71875 0.4375 -1.734375 0.4375q-1.53125 0 -2.375 -0.78125q-0.84375 -0.78125 -0.84375 -2.125q0 -1.359375 0.984375 -2.078125q1.0 -0.734375 3.109375 -0.734375l1.90625 0l0 -0.953125q0 -1.03125 -0.5625 -1.5625q-0.5625 -0.546875 -1.71875 -0.546875q-0.875 0 -1.46875 0.390625q-0.578125 0.390625 -0.96875 1.046875l-0.890625 -0.84375q0.390625 -0.78125 1.25 -1.328125q0.859375 -0.546875 2.15625 -0.546875q1.75 0 2.71875 0.859375q0.984375 0.84375 0.984375 2.375l0 5.296875l1.09375 0l0 1.3125l-0.84375 0zm-4.28125 -1.046875q0.546875 0 1.015625 -0.125q0.46875 -0.140625 0.796875 -0.375q0.34375 -0.25 0.53125 -0.5625q0.1875 -0.3125 0.1875 -0.6875l0 -1.59375l-1.984375 0q-1.28125 0 -1.875 0.375q-0.578125 0.375 -0.578125 1.09375l0 0.390625q0 0.703125 0.515625 1.09375q0.515625 0.390625 1.390625 0.390625zm9.384308 1.046875q-0.796875 0 -1.203125 -0.4375q-0.390625 -0.4375 -0.390625 -1.140625l0 -6.75l-1.578125 0l0 -1.296875l0.890625 0q0.484375 0 0.65625 -0.1875q0.1875 -0.203125 0.1875 -0.6875l0 -1.796875l1.34375 0l0 2.671875l2.109375 0l0 1.296875l-2.109375 0l0 7.015625l1.953125 0l0 1.3125l-1.859375 0zm11.407715 0q-0.828125 0 -1.203125 -0.4375q-0.359375 -0.453125 -0.453125 -1.125l-0.09375 0q-0.3125 0.890625 -1.046875 1.34375q-0.71875 0.4375 -1.734375 0.4375q-1.53125 0 -2.375 -0.78125q-0.84375 -0.78125 -0.84375 -2.125q0 -1.359375 0.984375 -2.078125q1.0 -0.734375 3.109375 -0.734375l1.90625 0l0 -0.953125q0 -1.03125 -0.5625 -1.5625q-0.5625 -0.546875 -1.71875 -0.546875q-0.875 0 -1.46875 0.390625q-0.578125 0.390625 -0.96875 1.046875l-0.890625 -0.84375q0.390625 -0.78125 1.25 -1.328125q0.859375 -0.546875 2.15625 -0.546875q1.75 0 2.71875 0.859375q0.984375 0.84375 0.984375 2.375l0 5.296875l1.09375 0l0 1.3125l-0.84375 0zm-4.28125 -1.046875q0.546875 0 1.015625 -0.125q0.46875 -0.140625 0.796875 -0.375q0.34375 -0.25 0.53125 -0.5625q0.1875 -0.3125 0.1875 -0.6875l0 -1.59375l-1.984375 0q-1.28125 0 -1.875 0.375q-0.578125 0.375 -0.578125 1.09375l0 0.390625q0 0.703125 0.515625 1.09375q0.515625 0.390625 1.390625 0.390625zm15.224701 -5.359375l-1.859375 2.0625l0 4.34375l-1.5625 0l0 -13.015625l1.5625 0l0 6.921875l0.0625 0l1.859375 -2.265625l3.9375 -4.65625l1.921875 0l-4.84375 5.578125l5.1875 7.4375l-1.9375 0l-4.328125 -6.40625z" fill-rule="nonzero"/><path fill="#20272b" d="m0 106.96956l155.02362 0l0 78.078735l-155.02362 0z" fill-rule="evenodd"/><path stroke="#000000" stroke-width="1.0" stroke-linejoin="round" stroke-linecap="butt" d="m0 106.96956l155.02362 0l0 78.078735l-155.02362 0z" fill-rule="evenodd"/><path fill="#f1f1f1" d="m17.302933 152.92892l-1.5625 0l0 -13.015625l5.1875 0q1.71875 0 2.671875 0.953125q0.96875 0.9375 0.96875 2.734375q0 1.4375 -0.671875 2.359375q-0.65625 0.921875 -1.9375 1.21875l2.984375 5.75l-1.78125 0l-2.8125 -5.59375l-3.046875 0l0 5.59375zm3.625 -6.9375q0.9375 0 1.4375 -0.484375q0.515625 -0.484375 0.515625 -1.390625l0 -0.96875q0 -0.890625 -0.515625 -1.375q-0.5 -0.484375 -1.4375 -0.484375l-3.625 0l0 4.703125l3.625 0zm13.409592 6.9375q-0.828125 0 -1.203125 -0.4375q-0.359375 -0.453125 -0.453125 -1.125l-0.09375 0q-0.3125 0.890625 -1.046875 1.34375q-0.71875 0.4375 -1.734375 0.4375q-1.53125 0 -2.375 -0.78125q-0.84375 -0.78125 -0.84375 -2.125q0 -1.359375 0.984375 -2.078125q1.0 -0.734375 3.109375 -0.734375l1.90625 0l0 -0.953125q0 -1.03125 -0.5625 -1.5625q-0.5625 -0.546875 -1.71875 -0.546875q-0.875 0 -1.46875 0.390625q-0.578125 0.390625 -0.96875 1.046875l-0.890625 -0.84375q0.390625 -0.78125 1.25 -1.328125q0.859375 -0.546875 2.15625 -0.546875q1.75 0 2.71875 0.859375q0.984375 0.84375 0.984375 2.375l0 5.296875l1.09375 0l0 1.3125l-0.84375 0zm-4.28125 -1.046875q0.546875 0 1.015625 -0.125q0.46875 -0.140625 0.796875 -0.375q0.34375 -0.25 0.53125 -0.5625q0.1875 -0.3125 0.1875 -0.6875l0 -1.59375l-1.984375 0q-1.28125 0 -1.875 0.375q-0.578125 0.375 -0.578125 1.09375l0 0.390625q0 0.703125 0.515625 1.09375q0.515625 0.390625 1.390625 0.390625zm7.243683 1.046875l0 -9.625l1.5 0l0 1.5625l0.078125 0q0.34375 -0.8125 0.984375 -1.296875q0.65625 -0.484375 1.734375 -0.484375q1.5 0 2.359375 0.96875q0.875 0.953125 0.875 2.703125l0 6.171875l-1.5 0l0 -5.90625q0 -2.59375 -2.1875 -2.59375q-0.4375 0 -0.859375 0.109375q-0.421875 0.109375 -0.765625 0.34375q-0.328125 0.21875 -0.53125 0.5625q-0.1875 0.34375 -0.1875 0.8125l0 6.671875l-1.5 0zm16.768631 -1.5625l-0.078125 0q-0.875 1.78125 -2.828125 1.78125q-0.890625 0 -1.625 -0.34375q-0.71875 -0.359375 -1.234375 -1.015625q-0.515625 -0.65625 -0.78125 -1.578125q-0.265625 -0.9375 -0.265625 -2.09375q0 -1.15625 0.265625 -2.078125q0.265625 -0.9375 0.78125 -1.59375q0.515625 -0.65625 1.234375 -1.0q0.734375 -0.359375 1.625 -0.359375q1.015625 0 1.734375 0.4375q0.71875 0.4375 1.09375 1.34375l0.078125 0l0 -5.75l1.484375 0l0 13.8125l-1.484375 0l0 -1.5625zm-2.484375 0.4375q0.5 0 0.953125 -0.125q0.453125 -0.125 0.78125 -0.375q0.34375 -0.265625 0.546875 -0.625q0.203125 -0.359375 0.203125 -0.828125l0 -3.578125q0 -0.390625 -0.203125 -0.734375q-0.203125 -0.359375 -0.546875 -0.59375q-0.328125 -0.25 -0.78125 -0.375q-0.453125 -0.140625 -0.953125 -0.140625q-1.265625 0 -2.0 0.796875q-0.734375 0.78125 -0.734375 2.0625l0 1.640625q0 1.296875 0.734375 2.09375q0.734375 0.78125 2.0 0.78125zm10.773758 1.34375q-0.96875 0 -1.765625 -0.34375q-0.796875 -0.359375 -1.375 -1.015625q-0.5625 -0.671875 -0.890625 -1.59375q-0.3125 -0.921875 -0.3125 -2.078125q0 -1.140625 0.3125 -2.0625q0.328125 -0.9375 0.890625 -1.59375q0.578125 -0.671875 1.375 -1.015625q0.796875 -0.359375 1.765625 -0.359375q0.96875 0 1.765625 0.359375q0.796875 0.34375 1.375 1.015625q0.578125 0.65625 0.890625 1.59375q0.328125 0.921875 0.328125 2.0625q0 1.15625 -0.328125 2.078125q-0.3125 0.921875 -0.890625 1.59375q-0.578125 0.65625 -1.375 1.015625q-0.796875 0.34375 -1.765625 0.34375zm0 -1.3125q1.21875 0 1.984375 -0.75q0.765625 -0.75 0.765625 -2.28125l0 -1.375q0 -1.53125 -0.765625 -2.28125q-0.765625 -0.75 -1.984375 -0.75q-1.203125 0 -1.96875 0.75q-0.765625 0.75 -0.765625 2.28125l0 1.375q0 1.53125 0.765625 2.28125q0.765625 0.75 1.96875 0.75zm6.806885 1.09375l0 -9.625l1.5 0l0 1.5625l0.078125 0q0.171875 -0.375 0.375 -0.6875q0.21875 -0.328125 0.515625 -0.578125q0.3125 -0.25 0.71875 -0.375q0.421875 -0.140625 0.984375 -0.140625q0.953125 0 1.75 0.453125q0.796875 0.453125 1.1875 1.5l0.046875 0q0.265625 -0.78125 0.96875 -1.359375q0.71875 -0.59375 1.953125 -0.59375q1.484375 0 2.3125 0.96875q0.828125 0.953125 0.828125 2.703125l0 6.171875l-1.5 0l0 -5.90625q0 -1.296875 -0.5 -1.9375q-0.5 -0.65625 -1.609375 -0.65625q-0.4375 0 -0.84375 0.109375q-0.40625 0.109375 -0.71875 0.34375q-0.3125 0.21875 -0.5 0.5625q-0.1875 0.34375 -0.1875 0.8125l0 6.671875l-1.5 0l0 -5.90625q0 -1.296875 -0.5 -1.9375q-0.5 -0.65625 -1.5625 -0.65625q-0.453125 0 -0.859375 0.109375q-0.40625 0.109375 -0.734375 0.34375q-0.3125 0.21875 -0.515625 0.5625q-0.1875 0.34375 -0.1875 0.8125l0 6.671875l-1.5 0zm20.846039 0l0 -13.015625l5.1875 0q1.75 0 2.6875 1.0q0.953125 0.984375 0.953125 2.71875q0 1.734375 -0.953125 2.734375q-0.9375 1.0 -2.6875 1.0l-3.625 0l0 5.5625l-1.5625 0zm1.5625 -6.9375l3.625 0q0.9375 0 1.4375 -0.484375q0.515625 -0.484375 0.515625 -1.390625l0 -0.96875q0 -0.890625 -0.515625 -1.375q-0.5 -0.484375 -1.4375 -0.484375l-3.625 0l0 4.703125zm12.854233 7.15625q-0.96875 0 -1.765625 -0.34375q-0.796875 -0.359375 -1.375 -1.015625q-0.5625 -0.671875 -0.890625 -1.59375q-0.3125 -0.921875 -0.3125 -2.078125q0 -1.140625 0.3125 -2.0625q0.328125 -0.9375 0.890625 -1.59375q0.578125 -0.671875 1.375 -1.015625q0.796875 -0.359375 1.765625 -0.359375q0.96875 0 1.765625 0.359375q0.796875 0.34375 1.375 1.015625q0.578125 0.65625 0.890625 1.59375q0.328125 0.921875 0.328125 2.0625q0 1.15625 -0.328125 2.078125q-0.3125 0.921875 -0.890625 1.59375q-0.578125 0.65625 -1.375 1.015625q-0.796875 0.34375 -1.765625 0.34375zm0 -1.3125q1.21875 0 1.984375 -0.75q0.765625 -0.75 0.765625 -2.28125l0 -1.375q0 -1.53125 -0.765625 -2.28125q-0.765625 -0.75 -1.984375 -0.75q-1.203125 0 -1.96875 0.75q-0.765625 0.75 -0.765625 2.28125l0 1.375q0 1.53125 0.765625 2.28125q0.765625 0.75 1.96875 0.75zm10.44751 1.3125q-0.96875 0 -1.765625 -0.34375q-0.796875 -0.359375 -1.375 -1.015625q-0.5625 -0.671875 -0.890625 -1.59375q-0.3125 -0.921875 -0.3125 -2.078125q0 -1.140625 0.3125 -2.0625q0.328125 -0.9375 0.890625 -1.59375q0.578125 -0.671875 1.375 -1.015625q0.796875 -0.359375 1.765625 -0.359375q0.96875 0 1.765625 0.359375q0.796875 0.34375 1.375 1.015625q0.578125 0.65625 0.890625 1.59375q0.328125 0.921875 0.328125 2.0625q0 1.15625 -0.328125 2.078125q-0.3125 0.921875 -0.890625 1.59375q-0.578125 0.65625 -1.375 1.015625q-0.796875 0.34375 -1.765625 0.34375zm0 -1.3125q1.21875 0 1.984375 -0.75q0.765625 -0.75 0.765625 -2.28125l0 -1.375q0 -1.53125 -0.765625 -2.28125q-0.765625 -0.75 -1.984375 -0.75q-1.203125 0 -1.96875 0.75q-0.765625 0.75 -0.765625 2.28125l0 1.375q0 1.53125 0.765625 2.28125q0.765625 0.75 1.96875 0.75zm8.400635 1.09375q-0.78125 0 -1.1875 -0.4375q-0.40625 -0.4375 -0.40625 -1.109375l0 -12.265625l1.5 0l0 12.5l1.421875 0l0 1.3125l-1.328125 0zm17.289886 0l-1.875 0l-3.421875 -5.46875l-0.03125 0l-3.421875 5.46875l-1.78125 0l4.25 -6.625l-4.140625 -6.390625l1.875 0l3.265625 5.1875l0.046875 0l3.328125 -5.1875l1.796875 0l-4.171875 6.34375l4.28125 6.671875z" fill-rule="nonzero"/><path fill="#000000" fill-opacity="0.0" d="m126.13541 78.81481l0 28.031494" fill-rule="evenodd"/><path stroke="#000000" stroke-width="1.0" stroke-linejoin="round" stroke-linecap="butt" d="m126.13541 78.81481l0 22.031502" fill-rule="evenodd"/><path fill="#000000" stroke="#000000" stroke-width="1.0" stroke-linecap="butt" d="m124.48367 100.84631l1.6517334 4.538101l1.6517334 -4.538101z" fill-rule="evenodd"/><path fill="#000000" fill-opacity="0.0" d="m246.98567 78.81481l0 28.031494" fill-rule="evenodd"/><path stroke="#000000" stroke-width="1.0" stroke-linejoin="round" stroke-linecap="butt" d="m246.98567 78.81481l0 22.031502" fill-rule="evenodd"/><path fill="#000000" stroke="#000000" stroke-width="1.0" stroke-linecap="butt" d="m245.33394 100.84631l1.6517334 4.538101l1.6517334 -4.538101z" fill-rule="evenodd"/></g></svg>