<svg version="1.1" viewBox="0.0 0.0 837.8582677165355 117.85826771653544" fill="none" stroke="none" stroke-linecap="square" stroke-miterlimit="10" xmlns:xlink="http://www.w3.org/1999/xlink" xmlns="http://www.w3.org/2000/svg"><clipPath id="p.0"><path d="m0 0l837.8583 0l0 117.85827l-837.8583 0l0 -117.85827z" clip-rule="nonzero"/></clipPath><g clip-path="url(#p.0)"><path fill="#000000" fill-opacity="0.0" d="m0 0l837.8583 0l0 117.85827l-837.8583 0z" fill-rule="evenodd"/><path fill="#f1f1f1" d="m643.9974 19.47244l193.88977 0l0 97.51181l-193.88977 0z" fill-rule="evenodd"/><path stroke="#000000" stroke-width="1.0" stroke-linejoin="round" stroke-linecap="butt" d="m643.9974 19.47244l193.88977 0l0 97.51181l-193.88977 0z" fill-rule="evenodd"/><path fill="#000000" d="m725.9513 62.13272l5.359375 0q1.625 0 2.546875 0.921875q0.921875 0.90625 0.921875 2.4375q0 0.71875 -0.203125 1.234375q-0.203125 0.5 -0.53125 0.828125q-0.3125 0.3125 -0.6875 0.484375q-0.375 0.15625 -0.6875 0.203125l0 0.109375q0.359375 0.03125 0.796875 0.203125q0.4375 0.15625 0.828125 0.53125q0.390625 0.359375 0.65625 0.921875q0.265625 0.5625 0.265625 1.375q0 0.796875 -0.25 1.5q-0.25 0.6875 -0.703125 1.1875q-0.4375 0.5 -1.0625 0.796875q-0.609375 0.28125 -1.328125 0.28125l-5.921875 0l0 -13.015625zm1.5625 11.640625l3.859375 0q1.015625 0 1.59375 -0.515625q0.578125 -0.515625 0.578125 -1.5l0 -0.640625q0 -0.984375 -0.578125 -1.5q-0.578125 -0.515625 -1.59375 -0.515625l-3.859375 0l0 4.671875zm0 -6.015625l3.609375 0q0.921875 0 1.4375 -0.46875q0.53125 -0.46875 0.53125 -1.34375l0 -0.625q0 -0.875 -0.53125 -1.34375q-0.515625 -0.46875 -1.4375 -0.46875l-3.609375 0l0 4.25zm14.104431 7.609375q-0.96875 0 -1.765625 -0.34375q-0.796875 -0.359375 -1.375 -1.015625q-0.5625 -0.671875 -0.890625 -1.59375q-0.3125 -0.921875 -0.3125 -2.078125q0 -1.140625 0.3125 -2.0625q0.328125 -0.9375 0.890625 -1.59375q0.578125 -0.671875 1.375 -1.015625q0.796875 -0.359375 1.765625 -0.359375q0.96875 0 1.765625 0.359375q0.796875 0.34375 1.375 1.015625q0.578125 0.65625 0.890625 1.59375q0.328125 0.921875 0.328125 2.0625q0 1.15625 -0.328125 2.078125q-0.3125 0.921875 -0.890625 1.59375q-0.578125 0.65625 -1.375 1.015625q-0.796875 0.34375 -1.765625 0.34375zm0 -1.3125q1.21875 0 1.984375 -0.75q0.765625 -0.75 0.765625 -2.28125l0 -1.375q0 -1.53125 -0.765625 -2.28125q-0.765625 -0.75 -1.984375 -0.75q-1.203125 0 -1.96875 0.75q-0.765625 0.75 -0.765625 2.28125l0 1.375q0 1.53125 0.765625 2.28125q0.765625 0.75 1.96875 0.75zm6.806885 -12.71875l1.5 0l0 5.75l0.078125 0q0.375 -0.90625 1.09375 -1.34375q0.71875 -0.4375 1.71875 -0.4375q0.890625 0 1.625 0.359375q0.734375 0.34375 1.234375 1.0q0.515625 0.65625 0.78125 1.59375q0.28125 0.921875 0.28125 2.078125q0 1.15625 -0.28125 2.09375q-0.265625 0.921875 -0.78125 1.578125q-0.5 0.65625 -1.234375 1.015625q-0.734375 0.34375 -1.625 0.34375q-1.953125 0 -2.8125 -1.78125l-0.078125 0l0 1.5625l-1.5 0l0 -13.8125zm3.984375 12.6875q1.265625 0 1.984375 -0.78125q0.734375 -0.796875 0.734375 -2.09375l0 -1.640625q0 -1.28125 -0.734375 -2.0625q-0.71875 -0.796875 -1.984375 -0.796875q-0.5 0 -0.96875 0.140625q-0.453125 0.125 -0.796875 0.375q-0.328125 0.234375 -0.53125 0.59375q-0.1875 0.34375 -0.1875 0.734375l0 3.578125q0 0.46875 0.1875 0.828125q0.203125 0.359375 0.53125 0.625q0.34375 0.25 0.796875 0.375q0.46875 0.125 0.96875 0.125z" fill-rule="nonzero"/><path fill="#f1f1f1" d="m0 19.47244l193.88977 0l0 97.51181l-193.88977 0z" fill-rule="evenodd"/><path stroke="#000000" stroke-width="1.0" stroke-linejoin="round" stroke-linecap="butt" d="m0 19.47244l193.88977 0l0 97.51181l-193.88977 0z" fill-rule="evenodd"/><path fill="#000000" d="m86.229706 75.148346l-1.3125 -3.84375l-5.25 0l-1.3125 3.84375l-1.59375 0l4.5625 -13.015625l2.0 0l4.546875 13.015625l-1.640625 0zm-3.90625 -11.5625l-0.09375 0l-2.203125 6.34375l4.5 0l-2.203125 -6.34375zm9.146164 11.5625q-0.78125 0 -1.1875 -0.4375q-0.40625 -0.4375 -0.40625 -1.109375l0 -12.265625l1.5 0l0 12.5l1.421875 0l0 1.3125l-1.328125 0zm4.2307587 -11.890625q-0.484375 0 -0.703125 -0.21875q-0.203125 -0.234375 -0.203125 -0.609375l0 -0.25q0 -0.375 0.203125 -0.609375q0.21875 -0.234375 0.703125 -0.234375q0.484375 0 0.703125 0.234375q0.21875 0.234375 0.21875 0.609375l0 0.25q0 0.375 -0.21875 0.609375q-0.21875 0.21875 -0.703125 0.21875zm-0.75 2.265625l1.5 0l0 9.625l-1.5 0l0 -9.625zm8.2578125 9.84375q-1.015625 0 -1.8125 -0.34375q-0.796875 -0.359375 -1.359375 -1.015625q-0.546875 -0.65625 -0.84375 -1.578125q-0.28125 -0.9375 -0.28125 -2.09375q0 -1.15625 0.28125 -2.078125q0.296875 -0.9375 0.84375 -1.59375q0.5625 -0.65625 1.359375 -1.0q0.796875 -0.359375 1.8125 -0.359375q1.4375 0 2.296875 0.625q0.875 0.625 1.296875 1.625l-1.25 0.640625q-0.265625 -0.75 -0.859375 -1.15625q-0.59375 -0.421875 -1.484375 -0.421875q-0.671875 0 -1.1875 0.21875q-0.5 0.21875 -0.84375 0.609375q-0.328125 0.375 -0.5 0.90625q-0.15625 0.53125 -0.15625 1.15625l0 1.640625q0 1.28125 0.671875 2.09375q0.6875 0.8125 2.015625 0.8125q1.8125 0 2.609375 -1.6875l1.078125 0.734375q-0.46875 1.046875 -1.390625 1.65625q-0.921875 0.609375 -2.296875 0.609375zm9.303345 0q-0.984375 0 -1.78125 -0.34375q-0.796875 -0.359375 -1.359375 -1.015625q-0.5625 -0.671875 -0.875 -1.59375q-0.3125 -0.921875 -0.3125 -2.078125q0 -1.140625 0.3125 -2.0625q0.3125 -0.9375 0.875 -1.59375q0.5625 -0.671875 1.359375 -1.015625q0.796875 -0.359375 1.78125 -0.359375q0.96875 0 1.734375 0.359375q0.765625 0.34375 1.296875 0.96875q0.546875 0.625 0.828125 1.484375q0.296875 0.859375 0.296875 1.875l0 0.71875l-6.921875 0l0 0.4375q0 0.625 0.1875 1.15625q0.203125 0.53125 0.5625 0.921875q0.375 0.390625 0.90625 0.625q0.53125 0.21875 1.203125 0.21875q0.921875 0 1.59375 -0.421875q0.6875 -0.4375 1.0625 -1.25l1.0625 0.765625q-0.46875 1.0 -1.46875 1.609375q-0.984375 0.59375 -2.34375 0.59375zm0 -8.8125q-0.609375 0 -1.125 0.21875q-0.5 0.203125 -0.859375 0.59375q-0.359375 0.390625 -0.578125 0.921875q-0.203125 0.53125 -0.203125 1.171875l0 0.125l5.328125 0l0 -0.203125q0 -1.28125 -0.703125 -2.046875q-0.703125 -0.78125 -1.859375 -0.78125z" fill-rule="nonzero"/><path fill="#ff8500" d="m214.89633 40.929134l403.68503 0l0 -2.1574821l4.3149414 4.3149605l-4.3149414 4.3149605l0 -2.1574783l-403.68503 0z" fill-rule="evenodd"/><path stroke="#000000" stroke-width="1.0" stroke-linejoin="round" stroke-linecap="butt" d="m214.89633 40.929134l403.68503 0l0 -2.1574821l4.3149414 4.3149605l-4.3149414 4.3149605l0 -2.1574783l-403.68503 0z" fill-rule="evenodd"/><path fill="#ff8500" d="m622.9908 98.71391l-403.77948 0l0 -2.157486l-4.3149567 4.3149643l4.3149567 4.3149567l0 -2.1574783l403.77948 0z" fill-rule="evenodd"/><path stroke="#000000" stroke-width="1.0" stroke-linejoin="round" stroke-linecap="butt" d="m622.9908 98.71391l-403.77948 0l0 -2.157486l-4.3149567 4.3149643l4.3149567 4.3149567l0 -2.1574783l403.77948 0z" fill-rule="evenodd"/><path fill="#000000" fill-opacity="0.0" d="m286.2126 0l300.0 0l0 33.92126l-300.0 0z" fill-rule="evenodd"/><path fill="#000000" d="m354.70853 16.410625l-1.1875 1.3125l0 2.796875l-1.015625 0l0 -8.375l1.015625 0l0 4.453125l0.03125 0l1.203125 -1.453125l2.53125 -3.0l1.234375 0l-3.109375 3.59375l3.328125 4.78125l-1.25 0l-2.78125 -4.109375zm7.3392944 4.25q-0.625 0 -1.140625 -0.21875q-0.515625 -0.234375 -0.890625 -0.65625q-0.359375 -0.421875 -0.5625 -1.015625q-0.1875 -0.609375 -0.1875 -1.34375q0 -0.734375 0.1875 -1.328125q0.203125 -0.609375 0.5625 -1.03125q0.375 -0.421875 0.890625 -0.65625q0.515625 -0.234375 1.140625 -0.234375q0.625 0 1.109375 0.234375q0.5 0.234375 0.84375 0.640625q0.359375 0.390625 0.546875 0.953125q0.1875 0.546875 0.1875 1.203125l0 0.453125l-4.453125 0l0 0.296875q0 0.390625 0.125 0.734375q0.125 0.34375 0.359375 0.59375q0.234375 0.25 0.5625 0.390625q0.34375 0.140625 0.78125 0.140625q0.59375 0 1.03125 -0.265625q0.4375 -0.28125 0.671875 -0.796875l0.6875 0.5q-0.296875 0.625 -0.9375 1.015625q-0.640625 0.390625 -1.515625 0.390625zm0 -5.671875q-0.390625 0 -0.71875 0.140625q-0.328125 0.140625 -0.5625 0.390625q-0.21875 0.25 -0.359375 0.59375q-0.125 0.34375 -0.125 0.75l0 0.078125l3.40625 0l0 -0.125q0 -0.828125 -0.453125 -1.328125q-0.4375 -0.5 -1.1875 -0.5zm8.028046 -0.65625l0.9375 0l-2.765625 7.625q-0.109375 0.28125 -0.21875 0.46875q-0.109375 0.1875 -0.265625 0.28125q-0.15625 0.109375 -0.390625 0.15625q-0.234375 0.0625 -0.5625 0.0625l-0.5 0l0 -0.84375l0.96875 0l0.46875 -1.328125l-2.3125 -6.421875l0.953125 0l1.5 4.203125l0.28125 1.015625l0.0625 0l0.34375 -1.015625l1.5 -4.203125zm7.320038 6.328125q-0.625 0 -1.140625 -0.21875q-0.515625 -0.234375 -0.890625 -0.65625q-0.359375 -0.421875 -0.5625 -1.015625q-0.1875 -0.609375 -0.1875 -1.34375q0 -0.734375 0.1875 -1.328125q0.203125 -0.609375 0.5625 -1.03125q0.375 -0.421875 0.890625 -0.65625q0.515625 -0.234375 1.140625 -0.234375q0.625 0 1.109375 0.234375q0.5 0.234375 0.84375 0.640625q0.359375 0.390625 0.546875 0.953125q0.1875 0.546875 0.1875 1.203125l0 0.453125l-4.453125 0l0 0.296875q0 0.390625 0.125 0.734375q0.125 0.34375 0.359375 0.59375q0.234375 0.25 0.5625 0.390625q0.34375 0.140625 0.78125 0.140625q0.59375 0 1.03125 -0.265625q0.4375 -0.28125 0.671875 -0.796875l0.6875 0.5q-0.296875 0.625 -0.9375 1.015625q-0.640625 0.390625 -1.515625 0.390625zm0 -5.671875q-0.390625 0 -0.71875 0.140625q-0.328125 0.140625 -0.5625 0.390625q-0.21875 0.25 -0.359375 0.59375q-0.125 0.34375 -0.125 0.75l0 0.078125l3.40625 0l0 -0.125q0 -0.828125 -0.453125 -1.328125q-0.4375 -0.5 -1.1875 -0.5zm3.3503113 5.53125l2.296875 -3.125l-2.203125 -3.0625l1.125 0l1.578125 2.296875l0.03125 0l1.640625 -2.296875l1.0625 0l-2.1875 3.0l2.234375 3.1875l-1.125 0l-1.609375 -2.421875l-0.03125 0l-1.75 2.421875l-1.0625 0zm9.018158 0.140625q-0.65625 0 -1.171875 -0.21875q-0.515625 -0.234375 -0.875 -0.65625q-0.34375 -0.421875 -0.53125 -1.015625q-0.1875 -0.609375 -0.1875 -1.34375q0 -0.75 0.1875 -1.34375q0.1875 -0.609375 0.53125 -1.015625q0.359375 -0.421875 0.875 -0.65625q0.515625 -0.234375 1.171875 -0.234375q0.921875 0 1.46875 0.40625q0.5625 0.40625 0.84375 1.046875l-0.796875 0.421875q-0.171875 -0.484375 -0.5625 -0.75q-0.375 -0.265625 -0.953125 -0.265625q-0.4375 0 -0.765625 0.140625q-0.3125 0.140625 -0.53125 0.390625q-0.21875 0.234375 -0.328125 0.578125q-0.109375 0.34375 -0.109375 0.75l0 1.0625q0 0.8125 0.4375 1.34375q0.4375 0.515625 1.296875 0.515625q1.15625 0 1.671875 -1.078125l0.703125 0.46875q-0.296875 0.671875 -0.890625 1.0625q-0.59375 0.390625 -1.484375 0.390625zm3.7235413 -9.015625l0.96875 0l0 3.6875l0.046875 0q0.21875 -0.53125 0.625 -0.84375q0.421875 -0.3125 1.125 -0.3125q0.953125 0 1.515625 0.625q0.5625 0.625 0.5625 1.75l0 3.96875l-0.96875 0l0 -3.796875q0 -1.671875 -1.40625 -1.671875q-0.28125 0 -0.5625 0.078125q-0.265625 0.0625 -0.484375 0.203125q-0.203125 0.140625 -0.328125 0.375q-0.125 0.21875 -0.125 0.515625l0 4.296875l-0.96875 0l0 -8.875zm11.316071 8.875q-0.53125 0 -0.765625 -0.28125q-0.234375 -0.296875 -0.296875 -0.734375l-0.0625 0q-0.203125 0.578125 -0.671875 0.875q-0.46875 0.28125 -1.109375 0.28125q-0.984375 0 -1.53125 -0.5q-0.546875 -0.5 -0.546875 -1.375q0 -0.875 0.640625 -1.34375q0.640625 -0.46875 2.0 -0.46875l1.21875 0l0 -0.609375q0 -0.65625 -0.359375 -1.0q-0.359375 -0.359375 -1.109375 -0.359375q-0.5625 0 -0.9375 0.265625q-0.375 0.25 -0.625 0.671875l-0.578125 -0.546875q0.25 -0.5 0.796875 -0.859375q0.5625 -0.359375 1.390625 -0.359375q1.140625 0 1.765625 0.5625q0.625 0.546875 0.625 1.53125l0 3.40625l0.703125 0l0 0.84375l-0.546875 0zm-2.75 -0.671875q0.359375 0 0.65625 -0.078125q0.296875 -0.09375 0.515625 -0.25q0.21875 -0.15625 0.328125 -0.359375q0.125 -0.203125 0.125 -0.4375l0 -1.015625l-1.265625 0q-0.828125 0 -1.21875 0.234375q-0.375 0.234375 -0.375 0.6875l0 0.265625q0 0.453125 0.328125 0.703125q0.34375 0.25 0.90625 0.25zm4.6580505 0.671875l0 -6.1875l0.96875 0l0 1.0l0.046875 0q0.21875 -0.53125 0.625 -0.84375q0.421875 -0.3125 1.125 -0.3125q0.953125 0 1.515625 0.625q0.5625 0.625 0.5625 1.75l0 3.96875l-0.96875 0l0 -3.796875q0 -1.671875 -1.40625 -1.671875q-0.28125 0 -0.5625 0.078125q-0.265625 0.0625 -0.484375 0.203125q-0.203125 0.140625 -0.328125 0.375q-0.125 0.21875 -0.125 0.515625l0 4.296875l-0.96875 0zm12.03479 0.6875q0 0.953125 -0.75 1.40625q-0.75 0.453125 -2.25 0.453125q-1.453125 0 -2.09375 -0.40625q-0.625 -0.390625 -0.625 -1.125q0 -0.5 0.265625 -0.78125q0.265625 -0.28125 0.71875 -0.421875l0 -0.125q-0.546875 -0.265625 -0.546875 -0.859375q0 -0.46875 0.296875 -0.71875q0.296875 -0.25 0.765625 -0.359375l0 -0.046875q-0.546875 -0.265625 -0.859375 -0.75q-0.296875 -0.5 -0.296875 -1.15625q0 -0.46875 0.15625 -0.859375q0.171875 -0.390625 0.46875 -0.671875q0.3125 -0.296875 0.734375 -0.453125q0.4375 -0.15625 0.96875 -0.15625q0.65625 0 1.171875 0.25l0 -0.109375q0 -0.359375 0.15625 -0.59375q0.171875 -0.234375 0.5625 -0.234375l0.921875 0l0 0.84375l-1.171875 0l0 0.390625q0.328125 0.28125 0.515625 0.6875q0.1875 0.40625 0.1875 0.90625q0 0.46875 -0.171875 0.875q-0.15625 0.390625 -0.46875 0.671875q-0.3125 0.28125 -0.75 0.4375q-0.421875 0.15625 -0.953125 0.15625q-0.296875 0 -0.59375 -0.0625q-0.3125 0.078125 -0.5625 0.25q-0.25 0.15625 -0.25 0.453125q0 0.265625 0.25 0.375q0.265625 0.09375 0.6875 0.09375l1.328125 0q1.15625 0 1.671875 0.4375q0.515625 0.4375 0.515625 1.203125zm-0.890625 0.0625q0 -0.359375 -0.28125 -0.59375q-0.28125 -0.21875 -1.0 -0.21875l-2.078125 0q-0.5625 0.265625 -0.5625 0.84375q0 0.40625 0.296875 0.6875q0.3125 0.296875 1.046875 0.296875l0.875 0q0.8125 0 1.25 -0.25q0.453125 -0.25 0.453125 -0.765625zm-2.15625 -3.578125q0.609375 0 0.96875 -0.296875q0.375 -0.296875 0.375 -0.90625l0 -0.34375q0 -0.609375 -0.375 -0.890625q-0.359375 -0.296875 -0.96875 -0.296875q-0.609375 0 -0.96875 0.296875q-0.359375 0.28125 -0.359375 0.890625l0 0.34375q0 0.609375 0.359375 0.90625q0.359375 0.296875 0.96875 0.296875zm6.420288 2.96875q-0.625 0 -1.140625 -0.21875q-0.515625 -0.234375 -0.890625 -0.65625q-0.359375 -0.421875 -0.5625 -1.015625q-0.1875 -0.609375 -0.1875 -1.34375q0 -0.734375 0.1875 -1.328125q0.203125 -0.609375 0.5625 -1.03125q0.375 -0.421875 0.890625 -0.65625q0.515625 -0.234375 1.140625 -0.234375q0.625 0 1.109375 0.234375q0.5 0.234375 0.84375 0.640625q0.359375 0.390625 0.546875 0.953125q0.1875 0.546875 0.1875 1.203125l0 0.453125l-4.453125 0l0 0.296875q0 0.390625 0.125 0.734375q0.125 0.34375 0.359375 0.59375q0.234375 0.25 0.5625 0.390625q0.34375 0.140625 0.78125 0.140625q0.59375 0 1.03125 -0.265625q0.4375 -0.28125 0.671875 -0.796875l0.6875 0.5q-0.296875 0.625 -0.9375 1.015625q-0.640625 0.390625 -1.515625 0.390625zm0 -5.671875q-0.390625 0 -0.71875 0.140625q-0.328125 0.140625 -0.5625 0.390625q-0.21875 0.25 -0.359375 0.59375q-0.125 0.34375 -0.125 0.75l0 0.078125l3.40625 0l0 -0.125q0 -0.828125 -0.453125 -1.328125q-0.4375 -0.5 -1.1875 -0.5zm9.435669 5.671875q-0.625 0 -1.140625 -0.21875q-0.515625 -0.234375 -0.890625 -0.65625q-0.359375 -0.421875 -0.5625 -1.015625q-0.203125 -0.609375 -0.203125 -1.34375q0 -0.734375 0.203125 -1.328125q0.203125 -0.609375 0.5625 -1.03125q0.375 -0.421875 0.890625 -0.65625q0.515625 -0.234375 1.140625 -0.234375q0.625 0 1.125 0.234375q0.515625 0.234375 0.890625 0.65625q0.375 0.421875 0.578125 1.03125q0.203125 0.59375 0.203125 1.328125q0 0.734375 -0.203125 1.34375q-0.203125 0.59375 -0.578125 1.015625q-0.375 0.421875 -0.890625 0.65625q-0.5 0.21875 -1.125 0.21875zm0 -0.84375q0.78125 0 1.265625 -0.484375q0.5 -0.484375 0.5 -1.46875l0 -0.890625q0 -0.984375 -0.5 -1.453125q-0.484375 -0.484375 -1.265625 -0.484375q-0.78125 0 -1.28125 0.484375q-0.484375 0.46875 -0.484375 1.453125l0 0.890625q0 0.984375 0.484375 1.46875q0.5 0.484375 1.28125 0.484375zm4.648041 -4.65625l-1.015625 0l0 -0.828125l1.015625 0l0 -1.25q0 -0.65625 0.328125 -1.046875q0.34375 -0.390625 1.03125 -0.390625l0.921875 0l0 0.828125l-1.328125 0l0 1.859375l1.328125 0l0 0.828125l-1.328125 0l0 5.359375l-0.953125 0l0 -5.359375zm8.235687 5.5q-0.859375 0 -1.4375 -0.328125q-0.578125 -0.328125 -1.0 -0.875l0.671875 -0.5625q0.359375 0.46875 0.796875 0.71875q0.453125 0.234375 1.046875 0.234375q0.609375 0 0.953125 -0.265625q0.34375 -0.265625 0.34375 -0.75q0 -0.359375 -0.234375 -0.609375q-0.234375 -0.265625 -0.84375 -0.359375l-0.5 -0.0625q-0.421875 -0.0625 -0.78125 -0.1875q-0.359375 -0.125 -0.640625 -0.328125q-0.265625 -0.21875 -0.421875 -0.53125q-0.140625 -0.3125 -0.140625 -0.75q0 -0.453125 0.15625 -0.796875q0.171875 -0.34375 0.46875 -0.5625q0.296875 -0.234375 0.703125 -0.34375q0.40625 -0.125 0.875 -0.125q0.75 0 1.265625 0.265625q0.515625 0.265625 0.890625 0.734375l-0.625 0.578125q-0.203125 -0.28125 -0.609375 -0.515625q-0.390625 -0.234375 -1.0 -0.234375q-0.59375 0 -0.90625 0.265625q-0.296875 0.25 -0.296875 0.6875q0 0.453125 0.296875 0.65625q0.3125 0.203125 0.890625 0.3125l0.484375 0.0625q1.03125 0.15625 1.453125 0.59375q0.4375 0.4375 0.4375 1.15625q0 0.890625 -0.609375 1.40625q-0.609375 0.515625 -1.6875 0.515625zm7.5967712 -6.328125l0.9375 0l-2.765625 7.625q-0.109375 0.28125 -0.21875 0.46875q-0.109375 0.1875 -0.265625 0.28125q-0.15625 0.109375 -0.390625 0.15625q-0.234375 0.0625 -0.5625 0.0625l-0.5 0l0 -0.84375l0.96875 0l0.46875 -1.328125l-2.3125 -6.421875l0.953125 0l1.5 4.203125l0.28125 1.015625l0.0625 0l0.34375 -1.015625l1.5 -4.203125zm2.159912 6.1875l0 -6.1875l0.96875 0l0 1.0l0.046875 0q0.109375 -0.234375 0.234375 -0.4375q0.140625 -0.21875 0.34375 -0.375q0.203125 -0.15625 0.46875 -0.25q0.265625 -0.09375 0.625 -0.09375q0.609375 0 1.125 0.296875q0.515625 0.296875 0.765625 0.96875l0.015625 0q0.171875 -0.5 0.625 -0.875q0.46875 -0.390625 1.265625 -0.390625q0.953125 0 1.484375 0.625q0.53125 0.625 0.53125 1.75l0 3.96875l-0.953125 0l0 -3.796875q0 -0.828125 -0.328125 -1.25q-0.328125 -0.421875 -1.03125 -0.421875q-0.296875 0 -0.5625 0.078125q-0.25 0.0625 -0.453125 0.203125q-0.203125 0.140625 -0.328125 0.375q-0.109375 0.21875 -0.109375 0.515625l0 4.296875l-0.96875 0l0 -3.796875q0 -0.828125 -0.328125 -1.25q-0.3125 -0.421875 -1.0 -0.421875q-0.28125 0 -0.546875 0.078125q-0.265625 0.0625 -0.46875 0.203125q-0.203125 0.140625 -0.328125 0.375q-0.125 0.21875 -0.125 0.515625l0 4.296875l-0.96875 0zm10.476074 0l0 -6.1875l0.96875 0l0 1.0l0.046875 0q0.109375 -0.234375 0.234375 -0.4375q0.140625 -0.21875 0.34375 -0.375q0.203125 -0.15625 0.46875 -0.25q0.265625 -0.09375 0.625 -0.09375q0.609375 0 1.125 0.296875q0.515625 0.296875 0.765625 0.96875l0.015625 0q0.171875 -0.5 0.625 -0.875q0.46875 -0.390625 1.265625 -0.390625q0.953125 0 1.484375 0.625q0.53125 0.625 0.53125 1.75l0 3.96875l-0.953125 0l0 -3.796875q0 -0.828125 -0.328125 -1.25q-0.328125 -0.421875 -1.03125 -0.421875q-0.296875 0 -0.5625 0.078125q-0.25 0.0625 -0.453125 0.203125q-0.203125 0.140625 -0.328125 0.375q-0.109375 0.21875 -0.109375 0.515625l0 4.296875l-0.96875 0l0 -3.796875q0 -0.828125 -0.328125 -1.25q-0.3125 -0.421875 -1.0 -0.421875q-0.28125 0 -0.546875 0.078125q-0.265625 0.0625 -0.46875 0.203125q-0.203125 0.140625 -0.328125 0.375q-0.125 0.21875 -0.125 0.515625l0 4.296875l-0.96875 0zm12.804199 0.140625q-0.625 0 -1.140625 -0.21875q-0.515625 -0.234375 -0.890625 -0.65625q-0.359375 -0.421875 -0.5625 -1.015625q-0.1875 -0.609375 -0.1875 -1.34375q0 -0.734375 0.1875 -1.328125q0.203125 -0.609375 0.5625 -1.03125q0.375 -0.421875 0.890625 -0.65625q0.515625 -0.234375 1.140625 -0.234375q0.625 0 1.109375 0.234375q0.5 0.234375 0.84375 0.640625q0.359375 0.390625 0.546875 0.953125q0.1875 0.546875 0.1875 1.203125l0 0.453125l-4.453125 0l0 0.296875q0 0.390625 0.125 0.734375q0.125 0.34375 0.359375 0.59375q0.234375 0.25 0.5625 0.390625q0.34375 0.140625 0.78125 0.140625q0.59375 0 1.03125 -0.265625q0.4375 -0.28125 0.671875 -0.796875l0.6875 0.5q-0.296875 0.625 -0.9375 1.015625q-0.640625 0.390625 -1.515625 0.390625zm0 -5.671875q-0.390625 0 -0.71875 0.140625q-0.328125 0.140625 -0.5625 0.390625q-0.21875 0.25 -0.359375 0.59375q-0.125 0.34375 -0.125 0.75l0 0.078125l3.40625 0l0 -0.125q0 -0.828125 -0.453125 -1.328125q-0.4375 -0.5 -1.1875 -0.5zm5.634918 5.53125q-0.5 0 -0.765625 -0.28125q-0.25 -0.28125 -0.25 -0.734375l0 -4.34375l-1.03125 0l0 -0.828125l0.578125 0q0.3125 0 0.421875 -0.125q0.125 -0.125 0.125 -0.4375l0 -1.15625l0.859375 0l0 1.71875l1.359375 0l0 0.828125l-1.359375 0l0 4.515625l1.265625 0l0 0.84375l-1.203125 0zm2.8370361 0l0 -6.1875l0.96875 0l0 1.140625l0.0625 0q0.15625 -0.453125 0.59375 -0.796875q0.4375 -0.34375 1.1875 -0.34375l0.375 0l0 0.953125l-0.5625 0q-0.78125 0 -1.21875 0.296875q-0.4375 0.296875 -0.4375 0.734375l0 4.203125l-0.96875 0zm4.8884277 -7.640625q-0.3125 0 -0.453125 -0.140625q-0.140625 -0.15625 -0.140625 -0.40625l0 -0.15625q0 -0.234375 0.140625 -0.375q0.140625 -0.15625 0.453125 -0.15625q0.3125 0 0.453125 0.15625q0.140625 0.140625 0.140625 0.375l0 0.15625q0 0.25 -0.140625 0.40625q-0.140625 0.140625 -0.453125 0.140625zm-0.484375 1.453125l0.96875 0l0 6.1875l-0.96875 0l0 -6.1875zm5.3125 6.328125q-0.65625 0 -1.171875 -0.21875q-0.515625 -0.234375 -0.875 -0.65625q-0.34375 -0.421875 -0.53125 -1.015625q-0.1875 -0.609375 -0.1875 -1.34375q0 -0.75 0.1875 -1.34375q0.1875 -0.609375 0.53125 -1.015625q0.359375 -0.421875 0.875 -0.65625q0.515625 -0.234375 1.171875 -0.234375q0.921875 0 1.46875 0.40625q0.5625 0.40625 0.84375 1.046875l-0.796875 0.421875q-0.171875 -0.484375 -0.5625 -0.75q-0.375 -0.265625 -0.953125 -0.265625q-0.4375 0 -0.765625 0.140625q-0.3125 0.140625 -0.53125 0.390625q-0.21875 0.234375 -0.328125 0.578125q-0.109375 0.34375 -0.109375 0.75l0 1.0625q0 0.8125 0.4375 1.34375q0.4375 0.515625 1.296875 0.515625q1.15625 0 1.671875 -1.078125l0.703125 0.46875q-0.296875 0.671875 -0.890625 1.0625q-0.59375 0.390625 -1.484375 0.390625zm8.8524475 -4.25l-1.1875 1.3125l0 2.796875l-1.015625 0l0 -8.375l1.015625 0l0 4.453125l0.03125 0l1.203125 -1.453125l2.53125 -3.0l1.234375 0l-3.109375 3.59375l3.328125 4.78125l-1.25 0l-2.78125 -4.109375zm7.3392944 4.25q-0.625 0 -1.140625 -0.21875q-0.515625 -0.234375 -0.890625 -0.65625q-0.359375 -0.421875 -0.5625 -1.015625q-0.1875 -0.609375 -0.1875 -1.34375q0 -0.734375 0.1875 -1.328125q0.203125 -0.609375 0.5625 -1.03125q0.375 -0.421875 0.890625 -0.65625q0.515625 -0.234375 1.140625 -0.234375q0.6250305 0 1.1094055 0.234375q0.5 0.234375 0.84375 0.640625q0.359375 0.390625 0.546875 0.953125q0.1875 0.546875 0.1875 1.203125l0 0.453125l-4.4531555 0l0 0.296875q0 0.390625 0.125 0.734375q0.125 0.34375 0.359375 0.59375q0.234375 0.25 0.5625 0.390625q0.34375 0.140625 0.78125 0.140625q0.5937805 0 1.0312805 -0.265625q0.4375 -0.28125 0.671875 -0.796875l0.6875 0.5q-0.296875 0.625 -0.9375 1.015625q-0.640625 0.390625 -1.5156555 0.390625zm0 -5.671875q-0.390625 0 -0.71875 0.140625q-0.328125 0.140625 -0.5625 0.390625q-0.21875 0.25 -0.359375 0.59375q-0.125 0.34375 -0.125 0.75l0 0.078125l3.4062805 0l0 -0.125q0 -0.828125 -0.453125 -1.328125q-0.4375 -0.5 -1.1875305 -0.5zm8.028046 -0.65625l0.9375 0l-2.765625 7.625q-0.109375 0.28125 -0.21875 0.46875q-0.109375 0.1875 -0.265625 0.28125q-0.15625 0.109375 -0.390625 0.15625q-0.234375 0.0625 -0.5625 0.0625l-0.5 0l0 -0.84375l0.96875 0l0.46875 -1.328125l-2.3125 -6.421875l0.953125 0l1.5 4.203125l0.28125 1.015625l0.0625 0l0.34375 -1.015625l1.5 -4.203125z" fill-rule="nonzero"/><path fill="#000000" fill-opacity="0.0" d="m286.2126 62.63517l300.0 0l0 33.921257l-300.0 0z" fill-rule="evenodd"/><path fill="#000000" d="m420.24905 76.092674l-0.0625 0l-0.703125 1.40625l-2.0 3.65625l-2.0 -3.65625l-0.71875 -1.40625l-0.0625 0l0 7.0625l-0.984375 0l0 -8.375l1.34375 0l2.40625 4.515625l0.0625 0l2.40625 -4.515625l1.296875 0l0 8.375l-0.984375 0l0 -7.0625zm5.4472046 7.203125q-0.625 0 -1.140625 -0.21875q-0.515625 -0.234375 -0.890625 -0.65625q-0.359375 -0.421875 -0.5625 -1.015625q-0.1875 -0.609375 -0.1875 -1.34375q0 -0.734375 0.1875 -1.328125q0.203125 -0.609375 0.5625 -1.03125q0.375 -0.421875 0.890625 -0.65625q0.515625 -0.234375 1.140625 -0.234375q0.625 0 1.109375 0.234375q0.5 0.234375 0.84375 0.640625q0.359375 0.390625 0.546875 0.953125q0.1875 0.546875 0.1875 1.203125l0 0.453125l-4.453125 0l0 0.296875q0 0.390625 0.125 0.734375q0.125 0.34375 0.359375 0.59375q0.234375 0.25 0.5625 0.390625q0.34375 0.140625 0.78125 0.140625q0.59375 0 1.03125 -0.265625q0.4375 -0.28125 0.671875 -0.796875l0.6875 0.5q-0.296875 0.625 -0.9375 1.015625q-0.640625 0.390625 -1.515625 0.390625zm0 -5.671875q-0.390625 0 -0.71875 0.140625q-0.328125 0.140625 -0.5625 0.390625q-0.21875 0.25 -0.359375 0.59375q-0.125 0.34375 -0.125 0.75l0 0.078125l3.40625 0l0 -0.125q0 -0.828125 -0.453125 -1.328125q-0.4375 -0.5 -1.1875 -0.5zm6.119293 5.671875q-0.859375 0 -1.4375 -0.328125q-0.578125 -0.328125 -1.0 -0.875l0.671875 -0.5625q0.359375 0.46875 0.796875 0.71875q0.453125 0.234375 1.046875 0.234375q0.609375 0 0.953125 -0.265625q0.34375 -0.265625 0.34375 -0.75q0 -0.359375 -0.234375 -0.609375q-0.234375 -0.265625 -0.84375 -0.359375l-0.5 -0.0625q-0.421875 -0.0625 -0.78125 -0.1875q-0.359375 -0.125 -0.640625 -0.328125q-0.265625 -0.21875 -0.421875 -0.53125q-0.140625 -0.3125 -0.140625 -0.75q0 -0.453125 0.15625 -0.796875q0.171875 -0.34375 0.46875 -0.5625q0.296875 -0.234375 0.703125 -0.34375q0.40625 -0.125 0.875 -0.125q0.75 0 1.265625 0.265625q0.515625 0.265625 0.890625 0.734375l-0.625 0.578125q-0.203125 -0.28125 -0.609375 -0.515625q-0.390625 -0.234375 -1.0 -0.234375q-0.59375 0 -0.90625 0.265625q-0.296875 0.25 -0.296875 0.6875q0 0.453125 0.296875 0.65625q0.3125 0.203125 0.890625 0.3125l0.484375 0.0625q1.03125 0.15625 1.453125 0.59375q0.4375 0.4375 0.4375 1.15625q0 0.890625 -0.609375 1.40625q-0.609375 0.515625 -1.6875 0.515625zm5.7720337 0q-0.859375 0 -1.4375 -0.328125q-0.578125 -0.328125 -1.0 -0.875l0.671875 -0.5625q0.359375 0.46875 0.796875 0.71875q0.453125 0.234375 1.046875 0.234375q0.609375 0 0.953125 -0.265625q0.34375 -0.265625 0.34375 -0.75q0 -0.359375 -0.234375 -0.609375q-0.234375 -0.265625 -0.84375 -0.359375l-0.5 -0.0625q-0.421875 -0.0625 -0.78125 -0.1875q-0.359375 -0.125 -0.640625 -0.328125q-0.265625 -0.21875 -0.421875 -0.53125q-0.140625 -0.3125 -0.140625 -0.75q0 -0.453125 0.15625 -0.796875q0.171875 -0.34375 0.46875 -0.5625q0.296875 -0.234375 0.703125 -0.34375q0.40625 -0.125 0.875 -0.125q0.75 0 1.265625 0.265625q0.515625 0.265625 0.890625 0.734375l-0.625 0.578125q-0.203125 -0.28125 -0.609375 -0.515625q-0.390625 -0.234375 -1.0 -0.234375q-0.59375 0 -0.90625 0.265625q-0.296875 0.25 -0.296875 0.6875q0 0.453125 0.296875 0.65625q0.3125 0.203125 0.890625 0.3125l0.484375 0.0625q1.03125 0.15625 1.453125 0.59375q0.4375 0.4375 0.4375 1.15625q0 0.890625 -0.609375 1.40625q-0.609375 0.515625 -1.6875 0.515625zm8.48465 -0.140625q-0.53125 0 -0.765625 -0.28125q-0.234375 -0.296875 -0.296875 -0.734375l-0.0625 0q-0.203125 0.578125 -0.671875 0.875q-0.46875 0.28125 -1.109375 0.28125q-0.984375 0 -1.53125 -0.5q-0.546875 -0.5 -0.546875 -1.375q0 -0.875 0.640625 -1.34375q0.640625 -0.46875 2.0 -0.46875l1.21875 0l0 -0.609375q0 -0.65625 -0.359375 -1.0q-0.359375 -0.359375 -1.109375 -0.359375q-0.5625 0 -0.9375 0.265625q-0.375 0.25 -0.625 0.671875l-0.578125 -0.546875q0.25 -0.5 0.796875 -0.859375q0.5625 -0.359375 1.390625 -0.359375q1.140625 0 1.765625 0.5625q0.625 0.546875 0.625 1.53125l0 3.40625l0.703125 0l0 0.84375l-0.546875 0zm-2.75 -0.671875q0.359375 0 0.65625 -0.078125q0.296875 -0.09375 0.515625 -0.25q0.21875 -0.15625 0.328125 -0.359375q0.125 -0.203125 0.125 -0.4375l0 -1.015625l-1.265625 0q-0.828125 0 -1.21875 0.234375q-0.375 0.234375 -0.375 0.6875l0 0.265625q0 0.453125 0.328125 0.703125q0.34375 0.25 0.90625 0.25zm9.876801 1.359375q0 0.953125 -0.75 1.40625q-0.75 0.453125 -2.25 0.453125q-1.453125 0 -2.09375 -0.40625q-0.625 -0.390625 -0.625 -1.125q0 -0.5 0.265625 -0.78125q0.265625 -0.28125 0.71875 -0.421875l0 -0.125q-0.546875 -0.265625 -0.546875 -0.859375q0 -0.46875 0.296875 -0.71875q0.296875 -0.25 0.765625 -0.359375l0 -0.046875q-0.546875 -0.265625 -0.859375 -0.75q-0.296875 -0.5 -0.296875 -1.15625q0 -0.46875 0.15625 -0.859375q0.171875 -0.390625 0.46875 -0.671875q0.3125 -0.296875 0.734375 -0.453125q0.4375 -0.15625 0.96875 -0.15625q0.65625 0 1.171875 0.25l0 -0.109375q0 -0.359375 0.15625 -0.59375q0.171875 -0.234375 0.5625 -0.234375l0.921875 0l0 0.84375l-1.171875 0l0 0.390625q0.328125 0.28125 0.515625 0.6875q0.1875 0.40625 0.1875 0.90625q0 0.46875 -0.171875 0.875q-0.15625 0.390625 -0.46875 0.671875q-0.3125 0.28125 -0.75 0.4375q-0.421875 0.15625 -0.953125 0.15625q-0.296875 0 -0.59375 -0.0625q-0.3125 0.078125 -0.5625 0.25q-0.25 0.15625 -0.25 0.453125q0 0.265625 0.25 0.375q0.265625 0.09375 0.6875 0.09375l1.328125 0q1.15625 0 1.671875 0.4375q0.515625 0.4375 0.515625 1.203125zm-0.890625 0.0625q0 -0.359375 -0.28125 -0.59375q-0.28125 -0.21875 -1.0 -0.21875l-2.078125 0q-0.5625 0.265625 -0.5625 0.84375q0 0.40625 0.296875 0.6875q0.3125 0.296875 1.046875 0.296875l0.875 0q0.8125 0 1.25 -0.25q0.453125 -0.25 0.453125 -0.765625zm-2.15625 -3.578125q0.609375 0 0.96875 -0.296875q0.375 -0.296875 0.375 -0.90625l0 -0.34375q0 -0.609375 -0.375 -0.890625q-0.359375 -0.296875 -0.96875 -0.296875q-0.609375 0 -0.96875 0.296875q-0.359375 0.28125 -0.359375 0.890625l0 0.34375q0 0.609375 0.359375 0.90625q0.359375 0.296875 0.96875 0.296875zm6.420288 2.96875q-0.625 0 -1.140625 -0.21875q-0.515625 -0.234375 -0.890625 -0.65625q-0.359375 -0.421875 -0.5625 -1.015625q-0.1875 -0.609375 -0.1875 -1.34375q0 -0.734375 0.1875 -1.328125q0.203125 -0.609375 0.5625 -1.03125q0.375 -0.421875 0.890625 -0.65625q0.515625 -0.234375 1.140625 -0.234375q0.625 0 1.109375 0.234375q0.5 0.234375 0.84375 0.640625q0.359375 0.390625 0.546875 0.953125q0.1875 0.546875 0.1875 1.203125l0 0.453125l-4.453125 0l0 0.296875q0 0.390625 0.125 0.734375q0.125 0.34375 0.359375 0.59375q0.234375 0.25 0.5625 0.390625q0.34375 0.140625 0.78125 0.140625q0.59375 0 1.03125 -0.265625q0.4375 -0.28125 0.671875 -0.796875l0.6875 0.5q-0.296875 0.625 -0.9375 1.015625q-0.640625 0.390625 -1.515625 0.390625zm0 -5.671875q-0.390625 0 -0.71875 0.140625q-0.328125 0.140625 -0.5625 0.390625q-0.21875 0.25 -0.359375 0.59375q-0.125 0.34375 -0.125 0.75l0 0.078125l3.40625 0l0 -0.125q0 -0.828125 -0.453125 -1.328125q-0.4375 -0.5 -1.1875 -0.5z" fill-rule="nonzero"/></g></svg>