<svg version="1.1" viewBox="0.0 0.0 838.0 492.0" fill="none" stroke="none" stroke-linecap="square" stroke-miterlimit="10" xmlns:xlink="http://www.w3.org/1999/xlink" xmlns="http://www.w3.org/2000/svg"><clipPath id="p.0"><path d="m0 0l838.0 0l0 492.0l-838.0 0l0 -492.0z" clip-rule="nonzero"/></clipPath><g clip-path="url(#p.0)"><path fill="#000000" fill-opacity="0.0" d="m0 0l838.0 0l0 492.0l-838.0 0z" fill-rule="evenodd"/><path fill="#f1f1f1" d="m643.9974 394.41733l193.88977 0l0 97.51181l-193.88977 0z" fill-rule="evenodd"/><path stroke="#000000" stroke-width="1.0" stroke-linejoin="round" stroke-linecap="butt" d="m643.9974 394.41733l193.88977 0l0 97.51181l-193.88977 0z" fill-rule="evenodd"/><path fill="#000000" d="m725.9513 437.0776l5.359375 0q1.625 0 2.546875 0.921875q0.921875 0.90625 0.921875 2.4375q0 0.71875 -0.203125 1.234375q-0.203125 0.5 -0.53125 0.828125q-0.3125 0.3125 -0.6875 0.484375q-0.375 0.15625 -0.6875 0.203125l0 0.109375q0.359375 0.03125 0.796875 0.203125q0.4375 0.15625 0.828125 0.53125q0.390625 0.359375 0.65625 0.921875q0.265625 0.5625 0.265625 1.375q0 0.796875 -0.25 1.5q-0.25 0.6875 -0.703125 1.1875q-0.4375 0.5 -1.0625 0.796875q-0.609375 0.28125 -1.328125 0.28125l-5.921875 0l0 -13.015625zm1.5625 11.640625l3.859375 0q1.015625 0 1.59375 -0.515625q0.578125 -0.515625 0.578125 -1.5l0 -0.640625q0 -0.984375 -0.578125 -1.5q-0.578125 -0.515625 -1.59375 -0.515625l-3.859375 0l0 4.671875zm0 -6.015625l3.609375 0q0.921875 0 1.4375 -0.46875q0.53125 -0.46875 0.53125 -1.34375l0 -0.625q0 -0.875 -0.53125 -1.34375q-0.515625 -0.46875 -1.4375 -0.46875l-3.609375 0l0 4.25zm14.104431 7.609375q-0.96875 0 -1.765625 -0.34375q-0.796875 -0.359375 -1.375 -1.015625q-0.5625 -0.671875 -0.890625 -1.59375q-0.3125 -0.921875 -0.3125 -2.078125q0 -1.140625 0.3125 -2.0625q0.328125 -0.9375 0.890625 -1.59375q0.578125 -0.671875 1.375 -1.015625q0.796875 -0.359375 1.765625 -0.359375q0.96875 0 1.765625 0.359375q0.796875 0.34375 1.375 1.015625q0.578125 0.65625 0.890625 1.59375q0.328125 0.921875 0.328125 2.0625q0 1.15625 -0.328125 2.078125q-0.3125 0.921875 -0.890625 1.59375q-0.578125 0.65625 -1.375 1.015625q-0.796875 0.34375 -1.765625 0.34375zm0 -1.3125q1.21875 0 1.984375 -0.75q0.765625 -0.75 0.765625 -2.28125l0 -1.375q0 -1.53125 -0.765625 -2.28125q-0.765625 -0.75 -1.984375 -0.75q-1.203125 0 -1.96875 0.75q-0.765625 0.75 -0.765625 2.28125l0 1.375q0 1.53125 0.765625 2.28125q0.765625 0.75 1.96875 0.75zm6.806885 -12.71875l1.5 0l0 5.75l0.078125 0q0.375 -0.90625 1.09375 -1.34375q0.71875 -0.4375 1.71875 -0.4375q0.890625 0 1.625 0.359375q0.734375 0.34375 1.234375 1.0q0.515625 0.65625 0.78125 1.59375q0.28125 0.921875 0.28125 2.078125q0 1.15625 -0.28125 2.09375q-0.265625 0.921875 -0.78125 1.578125q-0.5 0.65625 -1.234375 1.015625q-0.734375 0.34375 -1.625 0.34375q-1.953125 0 -2.8125 -1.78125l-0.078125 0l0 1.5625l-1.5 0l0 -13.8125zm3.984375 12.6875q1.265625 0 1.984375 -0.78125q0.734375 -0.796875 0.734375 -2.09375l0 -1.640625q0 -1.28125 -0.734375 -2.0625q-0.71875 -0.796875 -1.984375 -0.796875q-0.5 0 -0.96875 0.140625q-0.453125 0.125 -0.796875 0.375q-0.328125 0.234375 -0.53125 0.59375q-0.1875 0.34375 -0.1875 0.734375l0 3.578125q0 0.46875 0.1875 0.828125q0.203125 0.359375 0.53125 0.625q0.34375 0.25 0.796875 0.375q0.46875 0.125 0.96875 0.125z" fill-rule="nonzero"/><path fill="#f1f1f1" d="m0 394.41733l193.88977 0l0 97.51181l-193.88977 0z" fill-rule="evenodd"/><path stroke="#000000" stroke-width="1.0" stroke-linejoin="round" stroke-linecap="butt" d="m0 394.41733l193.88977 0l0 97.51181l-193.88977 0z" fill-rule="evenodd"/><path fill="#000000" d="m86.229706 450.09323l-1.3125 -3.84375l-5.25 0l-1.3125 3.84375l-1.59375 0l4.5625 -13.015625l2.0 0l4.546875 13.015625l-1.640625 0zm-3.90625 -11.5625l-0.09375 0l-2.203125 6.34375l4.5 0l-2.203125 -6.34375zm9.146164 11.5625q-0.78125 0 -1.1875 -0.4375q-0.40625 -0.4375 -0.40625 -1.109375l0 -12.265625l1.5 0l0 12.5l1.421875 0l0 1.3125l-1.328125 0zm4.2307587 -11.890625q-0.484375 0 -0.703125 -0.21875q-0.203125 -0.234375 -0.203125 -0.609375l0 -0.25q0 -0.375 0.203125 -0.609375q0.21875 -0.234375 0.703125 -0.234375q0.484375 0 0.703125 0.234375q0.21875 0.234375 0.21875 0.609375l0 0.25q0 0.375 -0.21875 0.609375q-0.21875 0.21875 -0.703125 0.21875zm-0.75 2.265625l1.5 0l0 9.625l-1.5 0l0 -9.625zm8.2578125 9.84375q-1.015625 0 -1.8125 -0.34375q-0.796875 -0.359375 -1.359375 -1.015625q-0.546875 -0.65625 -0.84375 -1.578125q-0.28125 -0.9375 -0.28125 -2.09375q0 -1.15625 0.28125 -2.078125q0.296875 -0.9375 0.84375 -1.59375q0.5625 -0.65625 1.359375 -1.0q0.796875 -0.359375 1.8125 -0.359375q1.4375 0 2.296875 0.625q0.875 0.625 1.296875 1.625l-1.25 0.640625q-0.265625 -0.75 -0.859375 -1.15625q-0.59375 -0.421875 -1.484375 -0.421875q-0.671875 0 -1.1875 0.21875q-0.5 0.21875 -0.84375 0.609375q-0.328125 0.375 -0.5 0.90625q-0.15625 0.53125 -0.15625 1.15625l0 1.640625q0 1.28125 0.671875 2.09375q0.6875 0.8125 2.015625 0.8125q1.8125 0 2.609375 -1.6875l1.078125 0.734375q-0.46875 1.046875 -1.390625 1.65625q-0.921875 0.609375 -2.296875 0.609375zm9.303345 0q-0.984375 0 -1.78125 -0.34375q-0.796875 -0.359375 -1.359375 -1.015625q-0.5625 -0.671875 -0.875 -1.59375q-0.3125 -0.921875 -0.3125 -2.078125q0 -1.140625 0.3125 -2.0625q0.3125 -0.9375 0.875 -1.59375q0.5625 -0.671875 1.359375 -1.015625q0.796875 -0.359375 1.78125 -0.359375q0.96875 0 1.734375 0.359375q0.765625 0.34375 1.296875 0.96875q0.546875 0.625 0.828125 1.484375q0.296875 0.859375 0.296875 1.875l0 0.71875l-6.921875 0l0 0.4375q0 0.625 0.1875 1.15625q0.203125 0.53125 0.5625 0.921875q0.375 0.390625 0.90625 0.625q0.53125 0.21875 1.203125 0.21875q0.921875 0 1.59375 -0.421875q0.6875 -0.4375 1.0625 -1.25l1.0625 0.765625q-0.46875 1.0 -1.46875 1.609375q-0.984375 0.59375 -2.34375 0.59375zm0 -8.8125q-0.609375 0 -1.125 0.21875q-0.5 0.203125 -0.859375 0.59375q-0.359375 0.390625 -0.578125 0.921875q-0.203125 0.53125 -0.203125 1.171875l0 0.125l5.328125 0l0 -0.203125q0 -1.28125 -0.703125 -2.046875q-0.703125 -0.78125 -1.859375 -0.78125z" fill-rule="nonzero"/><path fill="#ff8500" d="m622.8963 415.87402l-403.685 0l0 -2.1575012l-4.3149567 4.314972l4.3149567 4.314972l0 -2.1575012l403.685 0z" fill-rule="evenodd"/><path stroke="#000000" stroke-width="1.0" stroke-linejoin="round" stroke-linecap="butt" d="m622.8963 415.87402l-403.685 0l0 -2.1575012l-4.3149567 4.314972l4.3149567 4.314972l0 -2.1575012l403.685 0z" fill-rule="evenodd"/><path fill="#ff8500" d="m214.89633 473.65878l403.7795 0l0 -2.1574707l4.3149414 4.314972l-4.3149414 4.3149414l0 -2.1574707l-403.7795 0z" fill-rule="evenodd"/><path stroke="#000000" stroke-width="1.0" stroke-linejoin="round" stroke-linecap="butt" d="m214.89633 473.65878l403.7795 0l0 -2.1574707l4.3149414 4.314972l-4.3149414 4.3149414l0 -2.1574707l-403.7795 0z" fill-rule="evenodd"/><path fill="#000000" fill-opacity="0.0" d="m268.94357 370.85828l299.99997 0l0 33.921265l-299.99997 0z" fill-rule="evenodd"/><path fill="#000000" d="m364.18167 387.2689l-1.1875 1.3125l0 2.796875l-1.015625 0l0 -8.375l1.015625 0l0 4.453125l0.03125 0l1.203125 -1.453125l2.53125 -3.0l1.234375 0l-3.109375 3.59375l3.328125 4.78125l-1.25 0l-2.78125 -4.109375zm7.3392944 4.25q-0.625 0 -1.140625 -0.21875q-0.515625 -0.234375 -0.890625 -0.65625q-0.359375 -0.421875 -0.5625 -1.015625q-0.1875 -0.609375 -0.1875 -1.34375q0 -0.734375 0.1875 -1.328125q0.203125 -0.609375 0.5625 -1.03125q0.375 -0.421875 0.890625 -0.65625q0.515625 -0.234375 1.140625 -0.234375q0.625 0 1.109375 0.234375q0.5 0.234375 0.84375 0.640625q0.359375 0.390625 0.546875 0.953125q0.1875 0.546875 0.1875 1.203125l0 0.453125l-4.453125 0l0 0.296875q0 0.390625 0.125 0.734375q0.125 0.34375 0.359375 0.59375q0.234375 0.25 0.5625 0.390625q0.34375 0.140625 0.78125 0.140625q0.59375 0 1.03125 -0.265625q0.4375 -0.28125 0.671875 -0.796875l0.6875 0.5q-0.296875 0.625 -0.9375 1.015625q-0.640625 0.390625 -1.515625 0.390625zm0 -5.671875q-0.390625 0 -0.71875 0.140625q-0.328125 0.140625 -0.5625 0.390625q-0.21875 0.25 -0.359375 0.59375q-0.125 0.34375 -0.125 0.75l0 0.078125l3.40625 0l0 -0.125q0 -0.828125 -0.453125 -1.328125q-0.4375 -0.5 -1.1875 -0.5zm8.028046 -0.65625l0.9375 0l-2.765625 7.625q-0.109375 0.28125 -0.21875 0.46875q-0.109375 0.1875 -0.265625 0.28125q-0.15625 0.109375 -0.390625 0.15625q-0.234375 0.0625 -0.5625 0.0625l-0.5 0l0 -0.84375l0.96875 0l0.46875 -1.328125l-2.3125 -6.421875l0.953125 0l1.5 4.203125l0.28125 1.015625l0.0625 0l0.34375 -1.015625l1.5 -4.203125zm7.320038 6.328125q-0.625 0 -1.140625 -0.21875q-0.515625 -0.234375 -0.890625 -0.65625q-0.359375 -0.421875 -0.5625 -1.015625q-0.1875 -0.609375 -0.1875 -1.34375q0 -0.734375 0.1875 -1.328125q0.203125 -0.609375 0.5625 -1.03125q0.375 -0.421875 0.890625 -0.65625q0.515625 -0.234375 1.140625 -0.234375q0.625 0 1.109375 0.234375q0.5 0.234375 0.84375 0.640625q0.359375 0.390625 0.546875 0.953125q0.1875 0.546875 0.1875 1.203125l0 0.453125l-4.453125 0l0 0.296875q0 0.390625 0.125 0.734375q0.125 0.34375 0.359375 0.59375q0.234375 0.25 0.5625 0.390625q0.34375 0.140625 0.78125 0.140625q0.59375 0 1.03125 -0.265625q0.4375 -0.28125 0.671875 -0.796875l0.6875 0.5q-0.296875 0.625 -0.9375 1.015625q-0.640625 0.390625 -1.515625 0.390625zm0 -5.671875q-0.390625 0 -0.71875 0.140625q-0.328125 0.140625 -0.5625 0.390625q-0.21875 0.25 -0.359375 0.59375q-0.125 0.34375 -0.125 0.75l0 0.078125l3.40625 0l0 -0.125q0 -0.828125 -0.453125 -1.328125q-0.4375 -0.5 -1.1875 -0.5zm3.3503113 5.53125l2.296875 -3.125l-2.203125 -3.0625l1.125 0l1.578125 2.296875l0.03125 0l1.640625 -2.296875l1.0625 0l-2.1875 3.0l2.234375 3.1875l-1.125 0l-1.609375 -2.421875l-0.03125 0l-1.75 2.421875l-1.0625 0zm9.018158 0.140625q-0.65625 0 -1.171875 -0.21875q-0.515625 -0.234375 -0.875 -0.65625q-0.34375 -0.421875 -0.53125 -1.015625q-0.1875 -0.609375 -0.1875 -1.34375q0 -0.75 0.1875 -1.34375q0.1875 -0.609375 0.53125 -1.015625q0.359375 -0.421875 0.875 -0.65625q0.515625 -0.234375 1.171875 -0.234375q0.921875 0 1.46875 0.40625q0.5625 0.40625 0.84375 1.046875l-0.796875 0.421875q-0.171875 -0.484375 -0.5625 -0.75q-0.375 -0.265625 -0.953125 -0.265625q-0.4375 0 -0.765625 0.140625q-0.3125 0.140625 -0.53125 0.390625q-0.21875 0.234375 -0.328125 0.578125q-0.109375 0.34375 -0.109375 0.75l0 1.0625q0 0.8125 0.4375 1.34375q0.4375 0.515625 1.296875 0.515625q1.15625 0 1.671875 -1.078125l0.703125 0.46875q-0.296875 0.671875 -0.890625 1.0625q-0.59375 0.390625 -1.484375 0.390625zm3.7235413 -9.015625l0.96875 0l0 3.6875l0.046875 0q0.21875 -0.53125 0.625 -0.84375q0.421875 -0.3125 1.125 -0.3125q0.953125 0 1.515625 0.625q0.5625 0.625 0.5625 1.75l0 3.96875l-0.96875 0l0 -3.796875q0 -1.671875 -1.40625 -1.671875q-0.28125 0 -0.5625 0.078125q-0.265625 0.0625 -0.484375 0.203125q-0.203125 0.140625 -0.328125 0.375q-0.125 0.21875 -0.125 0.515625l0 4.296875l-0.96875 0l0 -8.875zm11.316071 8.875q-0.53125 0 -0.765625 -0.28125q-0.234375 -0.296875 -0.296875 -0.734375l-0.0625 0q-0.203125 0.578125 -0.671875 0.875q-0.46875 0.28125 -1.109375 0.28125q-0.984375 0 -1.53125 -0.5q-0.546875 -0.5 -0.546875 -1.375q0 -0.875 0.640625 -1.34375q0.640625 -0.46875 2.0 -0.46875l1.21875 0l0 -0.609375q0 -0.65625 -0.359375 -1.0q-0.359375 -0.359375 -1.109375 -0.359375q-0.5625 0 -0.9375 0.265625q-0.375 0.25 -0.625 0.671875l-0.578125 -0.546875q0.25 -0.5 0.796875 -0.859375q0.5625 -0.359375 1.390625 -0.359375q1.140625 0 1.765625 0.5625q0.625 0.546875 0.625 1.53125l0 3.40625l0.703125 0l0 0.84375l-0.546875 0zm-2.75 -0.671875q0.359375 0 0.65625 -0.078125q0.296875 -0.09375 0.515625 -0.25q0.21875 -0.15625 0.328125 -0.359375q0.125 -0.203125 0.125 -0.4375l0 -1.015625l-1.265625 0q-0.828125 0 -1.21875 0.234375q-0.375 0.234375 -0.375 0.6875l0 0.265625q0 0.453125 0.328125 0.703125q0.34375 0.25 0.90625 0.25zm4.6580505 0.671875l0 -6.1875l0.96875 0l0 1.0l0.046875 0q0.21875 -0.53125 0.625 -0.84375q0.421875 -0.3125 1.125 -0.3125q0.953125 0 1.515625 0.625q0.5625 0.625 0.5625 1.75l0 3.96875l-0.96875 0l0 -3.796875q0 -1.671875 -1.40625 -1.671875q-0.28125 0 -0.5625 0.078125q-0.265625 0.0625 -0.484375 0.203125q-0.203125 0.140625 -0.328125 0.375q-0.125 0.21875 -0.125 0.515625l0 4.296875l-0.96875 0zm12.03479 0.6875q0 0.953125 -0.75 1.40625q-0.75 0.453125 -2.25 0.453125q-1.453125 0 -2.09375 -0.40625q-0.625 -0.390625 -0.625 -1.125q0 -0.5 0.265625 -0.78125q0.265625 -0.28125 0.71875 -0.421875l0 -0.125q-0.546875 -0.265625 -0.546875 -0.859375q0 -0.46875 0.296875 -0.71875q0.296875 -0.25 0.765625 -0.359375l0 -0.046875q-0.546875 -0.265625 -0.859375 -0.75q-0.296875 -0.5 -0.296875 -1.15625q0 -0.46875 0.15625 -0.859375q0.171875 -0.390625 0.46875 -0.671875q0.3125 -0.296875 0.734375 -0.453125q0.4375 -0.15625 0.96875 -0.15625q0.65625 0 1.171875 0.25l0 -0.109375q0 -0.359375 0.15625 -0.59375q0.171875 -0.234375 0.5625 -0.234375l0.921875 0l0 0.84375l-1.171875 0l0 0.390625q0.328125 0.28125 0.515625 0.6875q0.1875 0.40625 0.1875 0.90625q0 0.46875 -0.171875 0.875q-0.15625 0.390625 -0.46875 0.671875q-0.3125 0.28125 -0.75 0.4375q-0.421875 0.15625 -0.953125 0.15625q-0.296875 0 -0.59375 -0.0625q-0.3125 0.078125 -0.5625 0.25q-0.25 0.15625 -0.25 0.453125q0 0.265625 0.25 0.375q0.265625 0.09375 0.6875 0.09375l1.328125 0q1.15625 0 1.671875 0.4375q0.515625 0.4375 0.515625 1.203125zm-0.890625 0.0625q0 -0.359375 -0.28125 -0.59375q-0.28125 -0.21875 -1.0 -0.21875l-2.078125 0q-0.5625 0.265625 -0.5625 0.84375q0 0.40625 0.296875 0.6875q0.3125 0.296875 1.046875 0.296875l0.875 0q0.8125 0 1.25 -0.25q0.453125 -0.25 0.453125 -0.765625zm-2.15625 -3.578125q0.609375 0 0.96875 -0.296875q0.375 -0.296875 0.375 -0.90625l0 -0.34375q0 -0.609375 -0.375 -0.890625q-0.359375 -0.296875 -0.96875 -0.296875q-0.609375 0 -0.96875 0.296875q-0.359375 0.28125 -0.359375 0.890625l0 0.34375q0 0.609375 0.359375 0.90625q0.359375 0.296875 0.96875 0.296875zm6.420288 2.96875q-0.625 0 -1.140625 -0.21875q-0.515625 -0.234375 -0.890625 -0.65625q-0.359375 -0.421875 -0.5625 -1.015625q-0.1875 -0.609375 -0.1875 -1.34375q0 -0.734375 0.1875 -1.328125q0.203125 -0.609375 0.5625 -1.03125q0.375 -0.421875 0.890625 -0.65625q0.515625 -0.234375 1.140625 -0.234375q0.625 0 1.109375 0.234375q0.5 0.234375 0.84375 0.640625q0.359375 0.390625 0.546875 0.953125q0.1875 0.546875 0.1875 1.203125l0 0.453125l-4.453125 0l0 0.296875q0 0.390625 0.125 0.734375q0.125 0.34375 0.359375 0.59375q0.234375 0.25 0.5625 0.390625q0.34375 0.140625 0.78125 0.140625q0.59375 0 1.03125 -0.265625q0.4375 -0.28125 0.671875 -0.796875l0.6875 0.5q-0.296875 0.625 -0.9375 1.015625q-0.640625 0.390625 -1.515625 0.390625zm0 -5.671875q-0.390625 0 -0.71875 0.140625q-0.328125 0.140625 -0.5625 0.390625q-0.21875 0.25 -0.359375 0.59375q-0.125 0.34375 -0.125 0.75l0 0.078125l3.40625 0l0 -0.125q0 -0.828125 -0.453125 -1.328125q-0.4375 -0.5 -1.1875 -0.5zm9.435699 5.671875q-0.625 0 -1.140625 -0.21875q-0.515625 -0.234375 -0.890625 -0.65625q-0.359375 -0.421875 -0.5625 -1.015625q-0.203125 -0.609375 -0.203125 -1.34375q0 -0.734375 0.203125 -1.328125q0.203125 -0.609375 0.5625 -1.03125q0.375 -0.421875 0.890625 -0.65625q0.515625 -0.234375 1.140625 -0.234375q0.625 0 1.125 0.234375q0.515625 0.234375 0.890625 0.65625q0.375 0.421875 0.578125 1.03125q0.203125 0.59375 0.203125 1.328125q0 0.734375 -0.203125 1.34375q-0.203125 0.59375 -0.578125 1.015625q-0.375 0.421875 -0.890625 0.65625q-0.5 0.21875 -1.125 0.21875zm0 -0.84375q0.78125 0 1.265625 -0.484375q0.5 -0.484375 0.5 -1.46875l0 -0.890625q0 -0.984375 -0.5 -1.453125q-0.484375 -0.484375 -1.265625 -0.484375q-0.78125 0 -1.28125 0.484375q-0.484375 0.46875 -0.484375 1.453125l0 0.890625q0 0.984375 0.484375 1.46875q0.5 0.484375 1.28125 0.484375zm4.648041 -4.65625l-1.015625 0l0 -0.828125l1.015625 0l0 -1.25q0 -0.65625 0.328125 -1.046875q0.34375 -0.390625 1.03125 -0.390625l0.921875 0l0 0.828125l-1.328125 0l0 1.859375l1.328125 0l0 0.828125l-1.328125 0l0 5.359375l-0.953125 0l0 -5.359375zm8.235657 5.5q-0.859375 0 -1.4375 -0.328125q-0.578125 -0.328125 -1.0 -0.875l0.671875 -0.5625q0.359375 0.46875 0.796875 0.71875q0.453125 0.234375 1.046875 0.234375q0.609375 0 0.953125 -0.265625q0.34375 -0.265625 0.34375 -0.75q0 -0.359375 -0.234375 -0.609375q-0.234375 -0.265625 -0.84375 -0.359375l-0.5 -0.0625q-0.421875 -0.0625 -0.78125 -0.1875q-0.359375 -0.125 -0.640625 -0.328125q-0.265625 -0.21875 -0.421875 -0.53125q-0.140625 -0.3125 -0.140625 -0.75q0 -0.453125 0.15625 -0.796875q0.171875 -0.34375 0.46875 -0.5625q0.296875 -0.234375 0.703125 -0.34375q0.40625 -0.125 0.875 -0.125q0.75 0 1.265625 0.265625q0.515625 0.265625 0.890625 0.734375l-0.625 0.578125q-0.203125 -0.28125 -0.609375 -0.515625q-0.390625 -0.234375 -1.0 -0.234375q-0.59375 0 -0.90625 0.265625q-0.296875 0.25 -0.296875 0.6875q0 0.453125 0.296875 0.65625q0.3125 0.203125 0.890625 0.3125l0.484375 0.0625q1.03125 0.15625 1.453125 0.59375q0.4375 0.4375 0.4375 1.15625q0 0.890625 -0.609375 1.40625q-0.609375 0.515625 -1.6875 0.515625zm6.312805 0q-0.625 0 -1.140625 -0.21875q-0.515625 -0.234375 -0.890625 -0.65625q-0.359375 -0.421875 -0.5625 -1.015625q-0.1875 -0.609375 -0.1875 -1.34375q0 -0.734375 0.1875 -1.328125q0.203125 -0.609375 0.5625 -1.03125q0.375 -0.421875 0.890625 -0.65625q0.515625 -0.234375 1.140625 -0.234375q0.625 0 1.109375 0.234375q0.5 0.234375 0.84375 0.640625q0.359375 0.390625 0.546875 0.953125q0.1875 0.546875 0.1875 1.203125l0 0.453125l-4.453125 0l0 0.296875q0 0.390625 0.125 0.734375q0.125 0.34375 0.359375 0.59375q0.234375 0.25 0.5625 0.390625q0.34375 0.140625 0.78125 0.140625q0.59375 0 1.03125 -0.265625q0.4375 -0.28125 0.671875 -0.796875l0.6875 0.5q-0.296875 0.625 -0.9375 1.015625q-0.640625 0.390625 -1.515625 0.390625zm0 -5.671875q-0.390625 0 -0.71875 0.140625q-0.328125 0.140625 -0.5625 0.390625q-0.21875 0.25 -0.359375 0.59375q-0.125 0.34375 -0.125 0.75l0 0.078125l3.40625 0l0 -0.125q0 -0.828125 -0.453125 -1.328125q-0.4375 -0.5 -1.1875 -0.5zm6.588043 5.671875q-0.625 0 -1.140625 -0.21875q-0.515625 -0.234375 -0.890625 -0.65625q-0.359375 -0.421875 -0.5625 -1.015625q-0.1875 -0.609375 -0.1875 -1.34375q0 -0.734375 0.1875 -1.328125q0.203125 -0.609375 0.5625 -1.03125q0.375 -0.421875 0.890625 -0.65625q0.515625 -0.234375 1.140625 -0.234375q0.625 0 1.109375 0.234375q0.5 0.234375 0.84375 0.640625q0.359375 0.390625 0.546875 0.953125q0.1875 0.546875 0.1875 1.203125l0 0.453125l-4.453125 0l0 0.296875q0 0.390625 0.125 0.734375q0.125 0.34375 0.359375 0.59375q0.234375 0.25 0.5625 0.390625q0.34375 0.140625 0.78125 0.140625q0.59375 0 1.03125 -0.265625q0.4375 -0.28125 0.671875 -0.796875l0.6875 0.5q-0.296875 0.625 -0.9375 1.015625q-0.640625 0.390625 -1.515625 0.390625zm0 -5.671875q-0.390625 0 -0.71875 0.140625q-0.328125 0.140625 -0.5625 0.390625q-0.21875 0.25 -0.359375 0.59375q-0.125 0.34375 -0.125 0.75l0 0.078125l3.40625 0l0 -0.125q0 -0.828125 -0.453125 -1.328125q-0.4375 -0.5 -1.1875 -0.5zm8.228668 4.515625l-0.046875 0q-0.5625 1.15625 -1.8125 1.15625q-0.578125 0 -1.046875 -0.21875q-0.46875 -0.234375 -0.796875 -0.65625q-0.328125 -0.421875 -0.515625 -1.015625q-0.171875 -0.609375 -0.171875 -1.34375q0 -0.75 0.171875 -1.34375q0.1875 -0.609375 0.515625 -1.015625q0.328125 -0.421875 0.796875 -0.65625q0.46875 -0.234375 1.046875 -0.234375q0.640625 0 1.09375 0.296875q0.46875 0.28125 0.71875 0.859375l0.046875 0l0 -3.6875l0.953125 0l0 8.875l-0.953125 0l0 -1.015625zm-1.59375 0.296875q0.3125 0 0.609375 -0.078125q0.296875 -0.09375 0.515625 -0.25q0.21875 -0.171875 0.34375 -0.40625q0.125 -0.234375 0.125 -0.53125l0 -2.296875q0 -0.25 -0.125 -0.46875q-0.125 -0.234375 -0.34375 -0.390625q-0.21875 -0.15625 -0.515625 -0.234375q-0.296875 -0.09375 -0.609375 -0.09375q-0.828125 0 -1.296875 0.515625q-0.46875 0.5 -0.46875 1.328125l0 1.0625q0 0.828125 0.46875 1.34375q0.46875 0.5 1.296875 0.5z" fill-rule="nonzero"/><path fill="#000000" fill-opacity="0.0" d="m267.69815 429.96326l300.00003 0l0 33.921265l-300.00003 0z" fill-rule="evenodd"/><path fill="#000000" d="m401.73462 443.42075l-0.0625 0l-0.703125 1.40625l-2.0 3.65625l-2.0 -3.65625l-0.71875 -1.40625l-0.0625 0l0 7.0625l-0.984375 0l0 -8.375l1.34375 0l2.40625 4.515625l0.0625 0l2.40625 -4.515625l1.296875 0l0 8.375l-0.984375 0l0 -7.0625zm5.4472046 7.203125q-0.625 0 -1.140625 -0.21875q-0.515625 -0.234375 -0.890625 -0.65625q-0.359375 -0.421875 -0.5625 -1.015625q-0.1875 -0.609375 -0.1875 -1.34375q0 -0.734375 0.1875 -1.328125q0.203125 -0.609375 0.5625 -1.03125q0.375 -0.421875 0.890625 -0.65625q0.515625 -0.234375 1.140625 -0.234375q0.625 0 1.109375 0.234375q0.5 0.234375 0.84375 0.640625q0.359375 0.390625 0.546875 0.953125q0.1875 0.546875 0.1875 1.203125l0 0.453125l-4.453125 0l0 0.296875q0 0.390625 0.125 0.734375q0.125 0.34375 0.359375 0.59375q0.234375 0.25 0.5625 0.390625q0.34375 0.140625 0.78125 0.140625q0.59375 0 1.03125 -0.265625q0.4375 -0.28125 0.671875 -0.796875l0.6875 0.5q-0.296875 0.625 -0.9375 1.015625q-0.640625 0.390625 -1.515625 0.390625zm0 -5.671875q-0.390625 0 -0.71875 0.140625q-0.328125 0.140625 -0.5625 0.390625q-0.21875 0.25 -0.359375 0.59375q-0.125 0.34375 -0.125 0.75l0 0.078125l3.40625 0l0 -0.125q0 -0.828125 -0.453125 -1.328125q-0.4375 -0.5 -1.1875 -0.5zm6.119293 5.671875q-0.859375 0 -1.4375 -0.328125q-0.578125 -0.328125 -1.0 -0.875l0.671875 -0.5625q0.359375 0.46875 0.796875 0.71875q0.453125 0.234375 1.046875 0.234375q0.609375 0 0.953125 -0.265625q0.34375 -0.265625 0.34375 -0.75q0 -0.359375 -0.234375 -0.609375q-0.234375 -0.265625 -0.84375 -0.359375l-0.5 -0.0625q-0.421875 -0.0625 -0.78125 -0.1875q-0.359375 -0.125 -0.640625 -0.328125q-0.265625 -0.21875 -0.421875 -0.53125q-0.140625 -0.3125 -0.140625 -0.75q0 -0.453125 0.15625 -0.796875q0.171875 -0.34375 0.46875 -0.5625q0.296875 -0.234375 0.703125 -0.34375q0.40625 -0.125 0.875 -0.125q0.75 0 1.265625 0.265625q0.515625 0.265625 0.890625 0.734375l-0.625 0.578125q-0.203125 -0.28125 -0.609375 -0.515625q-0.390625 -0.234375 -1.0 -0.234375q-0.59375 0 -0.90625 0.265625q-0.296875 0.25 -0.296875 0.6875q0 0.453125 0.296875 0.65625q0.3125 0.203125 0.890625 0.3125l0.484375 0.0625q1.03125 0.15625 1.453125 0.59375q0.4375 0.4375 0.4375 1.15625q0 0.890625 -0.609375 1.40625q-0.609375 0.515625 -1.6875 0.515625zm5.7720337 0q-0.859375 0 -1.4375 -0.328125q-0.578125 -0.328125 -1.0 -0.875l0.671875 -0.5625q0.359375 0.46875 0.796875 0.71875q0.453125 0.234375 1.046875 0.234375q0.609375 0 0.953125 -0.265625q0.34375 -0.265625 0.34375 -0.75q0 -0.359375 -0.234375 -0.609375q-0.234375 -0.265625 -0.84375 -0.359375l-0.5 -0.0625q-0.421875 -0.0625 -0.78125 -0.1875q-0.359375 -0.125 -0.640625 -0.328125q-0.265625 -0.21875 -0.421875 -0.53125q-0.140625 -0.3125 -0.140625 -0.75q0 -0.453125 0.15625 -0.796875q0.171875 -0.34375 0.46875 -0.5625q0.296875 -0.234375 0.703125 -0.34375q0.40625 -0.125 0.875 -0.125q0.75 0 1.265625 0.265625q0.515625 0.265625 0.890625 0.734375l-0.625 0.578125q-0.203125 -0.28125 -0.609375 -0.515625q-0.390625 -0.234375 -1.0 -0.234375q-0.59375 0 -0.90625 0.265625q-0.296875 0.25 -0.296875 0.6875q0 0.453125 0.296875 0.65625q0.3125 0.203125 0.890625 0.3125l0.484375 0.0625q1.03125 0.15625 1.453125 0.59375q0.4375 0.4375 0.4375 1.15625q0 0.890625 -0.609375 1.40625q-0.609375 0.515625 -1.6875 0.515625zm8.48465 -0.140625q-0.53125 0 -0.765625 -0.28125q-0.234375 -0.296875 -0.296875 -0.734375l-0.0625 0q-0.203125 0.578125 -0.671875 0.875q-0.46875 0.28125 -1.109375 0.28125q-0.984375 0 -1.53125 -0.5q-0.546875 -0.5 -0.546875 -1.375q0 -0.875 0.640625 -1.34375q0.640625 -0.46875 2.0 -0.46875l1.21875 0l0 -0.609375q0 -0.65625 -0.359375 -1.0q-0.359375 -0.359375 -1.109375 -0.359375q-0.5625 0 -0.9375 0.265625q-0.375 0.25 -0.625 0.671875l-0.578125 -0.546875q0.25 -0.5 0.796875 -0.859375q0.5625 -0.359375 1.390625 -0.359375q1.140625 0 1.765625 0.5625q0.625 0.546875 0.625 1.53125l0 3.40625l0.703125 0l0 0.84375l-0.546875 0zm-2.75 -0.671875q0.359375 0 0.65625 -0.078125q0.296875 -0.09375 0.515625 -0.25q0.21875 -0.15625 0.328125 -0.359375q0.125 -0.203125 0.125 -0.4375l0 -1.015625l-1.265625 0q-0.828125 0 -1.21875 0.234375q-0.375 0.234375 -0.375 0.6875l0 0.265625q0 0.453125 0.328125 0.703125q0.34375 0.25 0.90625 0.25zm9.876801 1.359375q0 0.953125 -0.75 1.40625q-0.75 0.453125 -2.25 0.453125q-1.453125 0 -2.09375 -0.40625q-0.625 -0.390625 -0.625 -1.125q0 -0.5 0.265625 -0.78125q0.265625 -0.28125 0.71875 -0.421875l0 -0.125q-0.546875 -0.265625 -0.546875 -0.859375q0 -0.46875 0.296875 -0.71875q0.296875 -0.25 0.765625 -0.359375l0 -0.046875q-0.546875 -0.265625 -0.859375 -0.75q-0.296875 -0.5 -0.296875 -1.15625q0 -0.46875 0.15625 -0.859375q0.171875 -0.390625 0.46875 -0.671875q0.3125 -0.296875 0.734375 -0.453125q0.4375 -0.15625 0.96875 -0.15625q0.65625 0 1.171875 0.25l0 -0.109375q0 -0.359375 0.15625 -0.59375q0.171875 -0.234375 0.5625 -0.234375l0.921875 0l0 0.84375l-1.171875 0l0 0.390625q0.328125 0.28125 0.515625 0.6875q0.1875 0.40625 0.1875 0.90625q0 0.46875 -0.171875 0.875q-0.15625 0.390625 -0.46875 0.671875q-0.3125 0.28125 -0.75 0.4375q-0.421875 0.15625 -0.953125 0.15625q-0.296875 0 -0.59375 -0.0625q-0.3125 0.078125 -0.5625 0.25q-0.25 0.15625 -0.25 0.453125q0 0.265625 0.25 0.375q0.265625 0.09375 0.6875 0.09375l1.328125 0q1.15625 0 1.671875 0.4375q0.515625 0.4375 0.515625 1.203125zm-0.890625 0.0625q0 -0.359375 -0.28125 -0.59375q-0.28125 -0.21875 -1.0 -0.21875l-2.078125 0q-0.5625 0.265625 -0.5625 0.84375q0 0.40625 0.296875 0.6875q0.3125 0.296875 1.046875 0.296875l0.875 0q0.8125 0 1.25 -0.25q0.453125 -0.25 0.453125 -0.765625zm-2.15625 -3.578125q0.609375 0 0.96875 -0.296875q0.375 -0.296875 0.375 -0.90625l0 -0.34375q0 -0.609375 -0.375 -0.890625q-0.359375 -0.296875 -0.96875 -0.296875q-0.609375 0 -0.96875 0.296875q-0.359375 0.28125 -0.359375 0.890625l0 0.34375q0 0.609375 0.359375 0.90625q0.359375 0.296875 0.96875 0.296875zm6.420288 2.96875q-0.625 0 -1.140625 -0.21875q-0.515625 -0.234375 -0.890625 -0.65625q-0.359375 -0.421875 -0.5625 -1.015625q-0.1875 -0.609375 -0.1875 -1.34375q0 -0.734375 0.1875 -1.328125q0.203125 -0.609375 0.5625 -1.03125q0.375 -0.421875 0.890625 -0.65625q0.515625 -0.234375 1.140625 -0.234375q0.625 0 1.109375 0.234375q0.5 0.234375 0.84375 0.640625q0.359375 0.390625 0.546875 0.953125q0.1875 0.546875 0.1875 1.203125l0 0.453125l-4.453125 0l0 0.296875q0 0.390625 0.125 0.734375q0.125 0.34375 0.359375 0.59375q0.234375 0.25 0.5625 0.390625q0.34375 0.140625 0.78125 0.140625q0.59375 0 1.03125 -0.265625q0.4375 -0.28125 0.671875 -0.796875l0.6875 0.5q-0.296875 0.625 -0.9375 1.015625q-0.640625 0.390625 -1.515625 0.390625zm0 -5.671875q-0.390625 0 -0.71875 0.140625q-0.328125 0.140625 -0.5625 0.390625q-0.21875 0.25 -0.359375 0.59375q-0.125 0.34375 -0.125 0.75l0 0.078125l3.40625 0l0 -0.125q0 -0.828125 -0.453125 -1.328125q-0.4375 -0.5 -1.1875 -0.5z" fill-rule="nonzero"/><path fill="#20272b" d="m0 0l193.88977 0l0 97.51181l-193.88977 0z" fill-rule="evenodd"/><path stroke="#000000" stroke-width="1.0" stroke-linejoin="round" stroke-linecap="butt" d="m0 0l193.88977 0l0 97.51181l-193.88977 0z" fill-rule="evenodd"/><path fill="#f1f1f1" d="m45.031517 58.738403l-1.921875 0q-0.796875 0 -1.1875 -0.4375q-0.390625 -0.4375 -0.390625 -1.09375l0 -1.328125q-1.109375 -0.109375 -2.03125 -0.59375q-0.90625 -0.484375 -1.546875 -1.328125q-0.640625 -0.859375 -0.984375 -2.0625q-0.34375 -1.203125 -0.34375 -2.734375q0 -1.640625 0.390625 -2.890625q0.390625 -1.25 1.109375 -2.109375q0.71875 -0.859375 1.734375 -1.296875q1.015625 -0.4375 2.296875 -0.4375q1.25 0 2.265625 0.4375q1.03125 0.4375 1.75 1.296875q0.71875 0.859375 1.109375 2.109375q0.390625 1.25 0.390625 2.890625q0 3.015625 -1.25 4.703125q-1.25 1.6875 -3.390625 1.984375l0 1.578125l2.0 0l0 1.3125zm-2.875 -4.234375q0.828125 0 1.53125 -0.296875q0.71875 -0.296875 1.234375 -0.859375q0.515625 -0.5625 0.796875 -1.34375q0.28125 -0.78125 0.28125 -1.75l0 -2.171875q0 -0.96875 -0.28125 -1.75q-0.28125 -0.78125 -0.796875 -1.34375q-0.515625 -0.5625 -1.234375 -0.859375q-0.703125 -0.296875 -1.53125 -0.296875q-0.84375 0 -1.5625 0.296875q-0.703125 0.296875 -1.21875 0.859375q-0.5 0.5625 -0.78125 1.34375q-0.28125 0.78125 -0.28125 1.75l0 2.171875q0 0.96875 0.28125 1.75q0.28125 0.78125 0.78125 1.34375q0.515625 0.5625 1.21875 0.859375q0.71875 0.296875 1.5625 0.296875zm8.333633 -11.84375l4.359375 0q1.21875 0 2.203125 0.40625q1.0 0.40625 1.6875 1.21875q0.703125 0.8125 1.078125 2.03125q0.375 1.21875 0.375 2.84375q0 1.625 -0.375 2.859375q-0.375 1.21875 -1.078125 2.03125q-0.6875 0.796875 -1.6875 1.21875q-0.984375 0.40625 -2.203125 0.40625l-4.359375 0l0 -13.015625zm4.359375 11.640625q0.8125 0 1.484375 -0.265625q0.671875 -0.28125 1.15625 -0.796875q0.484375 -0.53125 0.75 -1.28125q0.265625 -0.765625 0.265625 -1.734375l0 -2.125q0 -0.96875 -0.265625 -1.71875q-0.265625 -0.765625 -0.75 -1.28125q-0.484375 -0.515625 -1.15625 -0.78125q-0.671875 -0.28125 -1.484375 -0.28125l-2.796875 0l0 10.265625l2.796875 0zm8.158966 1.375l0 -13.015625l7.953125 0l0 1.375l-6.390625 0l0 4.359375l6.015625 0l0 1.390625l-6.015625 0l0 4.515625l6.390625 0l0 1.375l-7.953125 0zm19.032852 0l-1.3125 -3.84375l-5.25 0l-1.3125 3.84375l-1.59375 0l4.5625 -13.015625l2.0 0l4.546875 13.015625l-1.640625 0zm-3.90625 -11.5625l-0.09375 0l-2.203125 6.34375l4.5 0l-2.203125 -6.34375zm15.767792 11.78125q-1.578125 0 -2.703125 -0.59375q-1.125 -0.609375 -1.90625 -1.671875l1.15625 -0.96875q0.6875 0.90625 1.53125 1.390625q0.84375 0.46875 1.984375 0.46875q1.390625 0 2.125 -0.671875q0.75 -0.671875 0.75 -1.796875q0 -0.921875 -0.5625 -1.421875q-0.5625 -0.515625 -1.859375 -0.8125l-1.0625 -0.234375q-1.78125 -0.421875 -2.734375 -1.25q-0.9375 -0.828125 -0.9375 -2.34375q0 -0.859375 0.3125 -1.53125q0.328125 -0.671875 0.890625 -1.109375q0.578125 -0.453125 1.359375 -0.6875q0.796875 -0.234375 1.75 -0.234375q1.46875 0 2.515625 0.546875q1.0625 0.546875 1.796875 1.578125l-1.171875 0.859375q-0.546875 -0.734375 -1.3125 -1.15625q-0.765625 -0.4375 -1.90625 -0.4375q-1.25 0 -1.96875 0.53125q-0.71875 0.53125 -0.71875 1.59375q0 0.921875 0.609375 1.40625q0.609375 0.46875 1.84375 0.75l1.0625 0.25q1.921875 0.421875 2.78125 1.296875q0.859375 0.875 0.859375 2.34375q0 0.890625 -0.3125 1.625q-0.3125 0.71875 -0.890625 1.234375q-0.578125 0.5 -1.40625 0.78125q-0.828125 0.265625 -1.875 0.265625zm10.651779 0q-0.984375 0 -1.78125 -0.34375q-0.796875 -0.359375 -1.359375 -1.015625q-0.5625 -0.671875 -0.875 -1.59375q-0.3125 -0.921875 -0.3125 -2.078125q0 -1.140625 0.3125 -2.0625q0.3125 -0.9375 0.875 -1.59375q0.5625 -0.671875 1.359375 -1.015625q0.796875 -0.359375 1.78125 -0.359375q0.96875 0 1.734375 0.359375q0.765625 0.34375 1.296875 0.96875q0.546875 0.625 0.828125 1.484375q0.296875 0.859375 0.296875 1.875l0 0.71875l-6.921875 0l0 0.4375q0 0.625 0.1875 1.15625q0.203125 0.53125 0.5625 0.921875q0.375 0.390625 0.90625 0.625q0.53125 0.21875 1.203125 0.21875q0.921875 0 1.59375 -0.421875q0.6875 -0.4375 1.0625 -1.25l1.0625 0.765625q-0.46875 1.0 -1.46875 1.609375q-0.984375 0.59375 -2.34375 0.59375zm0 -8.8125q-0.609375 0 -1.125 0.21875q-0.5 0.203125 -0.859375 0.59375q-0.359375 0.390625 -0.578125 0.921875q-0.203125 0.53125 -0.203125 1.171875l0 0.125l5.328125 0l0 -0.203125q0 -1.28125 -0.703125 -2.046875q-0.703125 -0.78125 -1.859375 -0.78125zm6.617279 8.59375l0 -9.625l1.5 0l0 1.765625l0.09375 0q0.265625 -0.6875 0.9375 -1.21875q0.671875 -0.546875 1.84375 -0.546875l0.578125 0l0 1.484375l-0.875 0q-1.21875 0 -1.90625 0.46875q-0.671875 0.453125 -0.671875 1.140625l0 6.53125l-1.5 0zm9.174133 0l-3.390625 -9.625l1.5 0l1.671875 4.78125l1.046875 3.28125l0.09375 0l1.046875 -3.28125l1.71875 -4.78125l1.4375 0l-3.390625 9.625l-1.734375 0zm10.513908 0.21875q-0.984375 0 -1.78125 -0.34375q-0.796875 -0.359375 -1.3593674 -1.015625q-0.5625 -0.671875 -0.875 -1.59375q-0.3125 -0.921875 -0.3125 -2.078125q0 -1.140625 0.3125 -2.0625q0.3125 -0.9375 0.875 -1.59375q0.5624924 -0.671875 1.3593674 -1.015625q0.796875 -0.359375 1.78125 -0.359375q0.96875 0 1.734375 0.359375q0.765625 0.34375 1.296875 0.96875q0.546875 0.625 0.828125 1.484375q0.296875 0.859375 0.296875 1.875l0 0.71875l-6.921875 0l0 0.4375q0 0.625 0.1875 1.15625q0.203125 0.53125 0.5625 0.921875q0.375 0.390625 0.90625 0.625q0.53125 0.21875 1.203125 0.21875q0.921875 0 1.59375 -0.421875q0.6875 -0.4375 1.0625 -1.25l1.0625 0.765625q-0.46875 1.0 -1.46875 1.609375q-0.984375 0.59375 -2.34375 0.59375zm0 -8.8125q-0.609375 0 -1.125 0.21875q-0.5 0.203125 -0.859375 0.59375q-0.359375 0.390625 -0.578125 0.921875q-0.203125 0.53125 -0.203125 1.171875l0 0.125l5.328125 0l0 -0.203125q0 -1.28125 -0.703125 -2.046875q-0.703125 -0.78125 -1.859375 -0.78125zm6.617279 8.59375l0 -9.625l1.5 0l0 1.765625l0.09375 0q0.265625 -0.6875 0.9375 -1.21875q0.671875 -0.546875 1.84375 -0.546875l0.578125 0l0 1.484375l-0.875 0q-1.21875 0 -1.90625 0.46875q-0.671875 0.453125 -0.671875 1.140625l0 6.53125l-1.5 0zm11.312225 0l0 -1.375l3.640625 0l0 -10.484375l-0.125 0l-3.296875 3.046875l-0.90625 -0.984375l3.453125 -3.21875l2.4375 0l0 11.640625l3.359375 0l0 1.375l-8.5625 0z" fill-rule="nonzero"/><path fill="#20272b" d="m321.9987 0l193.88974 0l0 97.51181l-193.88974 0z" fill-rule="evenodd"/><path stroke="#000000" stroke-width="1.0" stroke-linejoin="round" stroke-linecap="butt" d="m321.9987 0l193.88974 0l0 97.51181l-193.88974 0z" fill-rule="evenodd"/><path fill="#f1f1f1" d="m367.0302 58.738403l-1.921875 0q-0.796875 0 -1.1875 -0.4375q-0.390625 -0.4375 -0.390625 -1.09375l0 -1.328125q-1.109375 -0.109375 -2.03125 -0.59375q-0.90625 -0.484375 -1.546875 -1.328125q-0.640625 -0.859375 -0.984375 -2.0625q-0.34375 -1.203125 -0.34375 -2.734375q0 -1.640625 0.390625 -2.890625q0.390625 -1.25 1.109375 -2.109375q0.71875 -0.859375 1.734375 -1.296875q1.015625 -0.4375 2.296875 -0.4375q1.25 0 2.265625 0.4375q1.03125 0.4375 1.75 1.296875q0.71875 0.859375 1.109375 2.109375q0.390625 1.25 0.390625 2.890625q0 3.015625 -1.25 4.703125q-1.25 1.6875 -3.390625 1.984375l0 1.578125l2.0 0l0 1.3125zm-2.875 -4.234375q0.828125 0 1.53125 -0.296875q0.71875 -0.296875 1.234375 -0.859375q0.515625 -0.5625 0.796875 -1.34375q0.28125 -0.78125 0.28125 -1.75l0 -2.171875q0 -0.96875 -0.28125 -1.75q-0.28125 -0.78125 -0.796875 -1.34375q-0.515625 -0.5625 -1.234375 -0.859375q-0.703125 -0.296875 -1.53125 -0.296875q-0.84375 0 -1.5625 0.296875q-0.703125 0.296875 -1.21875 0.859375q-0.5 0.5625 -0.78125 1.34375q-0.28125 0.78125 -0.28125 1.75l0 2.171875q0 0.96875 0.28125 1.75q0.28125 0.78125 0.78125 1.34375q0.515625 0.5625 1.21875 0.859375q0.71875 0.296875 1.5625 0.296875zm8.333618 -11.84375l4.359375 0q1.21875 0 2.203125 0.40625q1.0 0.40625 1.6875 1.21875q0.703125 0.8125 1.078125 2.03125q0.375 1.21875 0.375 2.84375q0 1.625 -0.375 2.859375q-0.375 1.21875 -1.078125 2.03125q-0.6875 0.796875 -1.6875 1.21875q-0.984375 0.40625 -2.203125 0.40625l-4.359375 0l0 -13.015625zm4.359375 11.640625q0.8125 0 1.484375 -0.265625q0.671875 -0.28125 1.15625 -0.796875q0.484375 -0.53125 0.75 -1.28125q0.265625 -0.765625 0.265625 -1.734375l0 -2.125q0 -0.96875 -0.265625 -1.71875q-0.265625 -0.765625 -0.75 -1.28125q-0.484375 -0.515625 -1.15625 -0.78125q-0.671875 -0.28125 -1.484375 -0.28125l-2.796875 0l0 10.265625l2.796875 0zm8.158966 1.375l0 -13.015625l7.953125 0l0 1.375l-6.390625 0l0 4.359375l6.015625 0l0 1.390625l-6.015625 0l0 4.515625l6.390625 0l0 1.375l-7.953125 0zm19.032867 0l-1.3125 -3.84375l-5.25 0l-1.3125 3.84375l-1.59375 0l4.5625 -13.015625l2.0 0l4.546875 13.015625l-1.640625 0zm-3.90625 -11.5625l-0.09375 0l-2.203125 6.34375l4.5 0l-2.203125 -6.34375zm15.767792 11.78125q-1.578125 0 -2.703125 -0.59375q-1.125 -0.609375 -1.90625 -1.671875l1.15625 -0.96875q0.6875 0.90625 1.53125 1.390625q0.84375 0.46875 1.984375 0.46875q1.390625 0 2.125 -0.671875q0.75 -0.671875 0.75 -1.796875q0 -0.921875 -0.5625 -1.421875q-0.5625 -0.515625 -1.859375 -0.8125l-1.0625 -0.234375q-1.78125 -0.421875 -2.734375 -1.25q-0.9375 -0.828125 -0.9375 -2.34375q0 -0.859375 0.3125 -1.53125q0.328125 -0.671875 0.890625 -1.109375q0.578125 -0.453125 1.359375 -0.6875q0.796875 -0.234375 1.75 -0.234375q1.46875 0 2.515625 0.546875q1.0625 0.546875 1.796875 1.578125l-1.171875 0.859375q-0.546875 -0.734375 -1.3125 -1.15625q-0.765625 -0.4375 -1.90625 -0.4375q-1.25 0 -1.96875 0.53125q-0.71875 0.53125 -0.71875 1.59375q0 0.921875 0.609375 1.40625q0.609375 0.46875 1.84375 0.75l1.0625 0.25q1.921875 0.421875 2.78125 1.296875q0.859375 0.875 0.859375 2.34375q0 0.890625 -0.3125 1.625q-0.3125 0.71875 -0.890625 1.234375q-0.578125 0.5 -1.40625 0.78125q-0.828125 0.265625 -1.875 0.265625zm10.651764 0q-0.984375 0 -1.78125 -0.34375q-0.796875 -0.359375 -1.359375 -1.015625q-0.5625 -0.671875 -0.875 -1.59375q-0.3125 -0.921875 -0.3125 -2.078125q0 -1.140625 0.3125 -2.0625q0.3125 -0.9375 0.875 -1.59375q0.5625 -0.671875 1.359375 -1.015625q0.796875 -0.359375 1.78125 -0.359375q0.96875 0 1.734375 0.359375q0.765625 0.34375 1.296875 0.96875q0.546875 0.625 0.828125 1.484375q0.296875 0.859375 0.296875 1.875l0 0.71875l-6.921875 0l0 0.4375q0 0.625 0.1875 1.15625q0.203125 0.53125 0.5625 0.921875q0.375 0.390625 0.90625 0.625q0.53125 0.21875 1.203125 0.21875q0.921875 0 1.59375 -0.421875q0.6875 -0.4375 1.0625 -1.25l1.0625 0.765625q-0.46875 1.0 -1.46875 1.609375q-0.984375 0.59375 -2.34375 0.59375zm0 -8.8125q-0.609375 0 -1.125 0.21875q-0.5 0.203125 -0.859375 0.59375q-0.359375 0.390625 -0.578125 0.921875q-0.203125 0.53125 -0.203125 1.171875l0 0.125l5.328125 0l0 -0.203125q0 -1.28125 -0.703125 -2.046875q-0.703125 -0.78125 -1.859375 -0.78125zm6.617279 8.59375l0 -9.625l1.5 0l0 1.765625l0.09375 0q0.265625 -0.6875 0.9375 -1.21875q0.671875 -0.546875 1.84375 -0.546875l0.578125 0l0 1.484375l-0.875 0q-1.21875 0 -1.90625 0.46875q-0.671875 0.453125 -0.671875 1.140625l0 6.53125l-1.5 0zm9.174133 0l-3.390625 -9.625l1.5 0l1.671875 4.78125l1.046875 3.28125l0.09375 0l1.046875 -3.28125l1.71875 -4.78125l1.4375 0l-3.390625 9.625l-1.734375 0zm10.513916 0.21875q-0.984375 0 -1.78125 -0.34375q-0.796875 -0.359375 -1.359375 -1.015625q-0.5625 -0.671875 -0.875 -1.59375q-0.3125 -0.921875 -0.3125 -2.078125q0 -1.140625 0.3125 -2.0625q0.3125 -0.9375 0.875 -1.59375q0.5625 -0.671875 1.359375 -1.015625q0.796875 -0.359375 1.78125 -0.359375q0.96875 0 1.734375 0.359375q0.765625 0.34375 1.296875 0.96875q0.546875 0.625 0.828125 1.484375q0.296875 0.859375 0.296875 1.875l0 0.71875l-6.921875 0l0 0.4375q0 0.625 0.1875 1.15625q0.203125 0.53125 0.5625 0.921875q0.375 0.390625 0.90625 0.625q0.53125 0.21875 1.203125 0.21875q0.921875 0 1.59375 -0.421875q0.6875 -0.4375 1.0625 -1.25l1.0625 0.765625q-0.46875 1.0 -1.46875 1.609375q-0.984375 0.59375 -2.34375 0.59375zm0 -8.8125q-0.609375 0 -1.125 0.21875q-0.5 0.203125 -0.859375 0.59375q-0.359375 0.390625 -0.578125 0.921875q-0.203125 0.53125 -0.203125 1.171875l0 0.125l5.328125 0l0 -0.203125q0 -1.28125 -0.703125 -2.046875q-0.703125 -0.78125 -1.859375 -0.78125zm6.617279 8.59375l0 -9.625l1.5 0l0 1.765625l0.09375 0q0.265625 -0.6875 0.9375 -1.21875q0.671875 -0.546875 1.84375 -0.546875l0.578125 0l0 1.484375l-0.875 0q-1.21875 0 -1.90625 0.46875q-0.671875 0.453125 -0.671875 1.140625l0 6.53125l-1.5 0zm19.6091 0l-8.53125 0l0 -1.609375l4.25 -3.90625q0.90625 -0.84375 1.515625 -1.78125q0.625 -0.953125 0.625 -1.90625l0 -0.21875q0 -1.078125 -0.59375 -1.75q-0.59375 -0.671875 -1.8125 -0.671875q-0.59375 0 -1.046875 0.171875q-0.4375 0.15625 -0.765625 0.46875q-0.328125 0.296875 -0.546875 0.703125q-0.21875 0.390625 -0.34375 0.859375l-1.40625 -0.546875q0.1875 -0.578125 0.515625 -1.125q0.328125 -0.546875 0.8125 -0.96875q0.5 -0.4375 1.203125 -0.703125q0.703125 -0.265625 1.65625 -0.265625q0.953125 0 1.6875 0.28125q0.75 0.28125 1.25 0.796875q0.515625 0.5 0.78125 1.1875q0.265625 0.6875 0.265625 1.53125q0 0.765625 -0.21875 1.421875q-0.203125 0.640625 -0.578125 1.234375q-0.375 0.578125 -0.90625 1.140625q-0.53125 0.5625 -1.140625 1.125l-3.515625 3.15625l6.84375 0l0 1.375z" fill-rule="nonzero"/><path fill="#20272b" d="m643.9974 0l193.88977 0l0 97.51181l-193.88977 0z" fill-rule="evenodd"/><path stroke="#000000" stroke-width="1.0" stroke-linejoin="round" stroke-linecap="butt" d="m643.9974 0l193.88977 0l0 97.51181l-193.88977 0z" fill-rule="evenodd"/><path fill="#f1f1f1" d="m689.2901 58.738403l-1.921875 0q-0.796875 0 -1.1875 -0.4375q-0.390625 -0.4375 -0.390625 -1.09375l0 -1.328125q-1.109375 -0.109375 -2.03125 -0.59375q-0.90625 -0.484375 -1.546875 -1.328125q-0.640625 -0.859375 -0.984375 -2.0625q-0.34375 -1.203125 -0.34375 -2.734375q0 -1.640625 0.390625 -2.890625q0.390625 -1.25 1.109375 -2.109375q0.71875 -0.859375 1.734375 -1.296875q1.015625 -0.4375 2.296875 -0.4375q1.25 0 2.265625 0.4375q1.03125 0.4375 1.75 1.296875q0.71875 0.859375 1.109375 2.109375q0.390625 1.25 0.390625 2.890625q0 3.015625 -1.25 4.703125q-1.25 1.6875 -3.390625 1.984375l0 1.578125l2.0 0l0 1.3125zm-2.875 -4.234375q0.828125 0 1.53125 -0.296875q0.71875 -0.296875 1.234375 -0.859375q0.515625 -0.5625 0.796875 -1.34375q0.28125 -0.78125 0.28125 -1.75l0 -2.171875q0 -0.96875 -0.28125 -1.75q-0.28125 -0.78125 -0.796875 -1.34375q-0.515625 -0.5625 -1.234375 -0.859375q-0.703125 -0.296875 -1.53125 -0.296875q-0.84375 0 -1.5625 0.296875q-0.703125 0.296875 -1.21875 0.859375q-0.5 0.5625 -0.78125 1.34375q-0.28125 0.78125 -0.28125 1.75l0 2.171875q0 0.96875 0.28125 1.75q0.28125 0.78125 0.78125 1.34375q0.515625 0.5625 1.21875 0.859375q0.71875 0.296875 1.5625 0.296875zm8.333618 -11.84375l4.359375 0q1.21875 0 2.203125 0.40625q1.0 0.40625 1.6875 1.21875q0.703125 0.8125 1.078125 2.03125q0.375 1.21875 0.375 2.84375q0 1.625 -0.375 2.859375q-0.375 1.21875 -1.078125 2.03125q-0.6875 0.796875 -1.6875 1.21875q-0.984375 0.40625 -2.203125 0.40625l-4.359375 0l0 -13.015625zm4.359375 11.640625q0.8125 0 1.484375 -0.265625q0.671875 -0.28125 1.15625 -0.796875q0.484375 -0.53125 0.75 -1.28125q0.265625 -0.765625 0.265625 -1.734375l0 -2.125q0 -0.96875 -0.265625 -1.71875q-0.265625 -0.765625 -0.75 -1.28125q-0.484375 -0.515625 -1.15625 -0.78125q-0.671875 -0.28125 -1.484375 -0.28125l-2.796875 0l0 10.265625l2.796875 0zm8.158936 1.375l0 -13.015625l7.953125 0l0 1.375l-6.390625 0l0 4.359375l6.015625 0l0 1.390625l-6.015625 0l0 4.515625l6.390625 0l0 1.375l-7.953125 0zm19.032898 0l-1.3125 -3.84375l-5.25 0l-1.3125 3.84375l-1.59375 0l4.5625 -13.015625l2.0 0l4.546875 13.015625l-1.640625 0zm-3.90625 -11.5625l-0.09375 0l-2.203125 6.34375l4.5 0l-2.203125 -6.34375zm15.767761 11.78125q-1.578125 0 -2.703125 -0.59375q-1.125 -0.609375 -1.90625 -1.671875l1.15625 -0.96875q0.6875 0.90625 1.53125 1.390625q0.84375 0.46875 1.984375 0.46875q1.390625 0 2.125 -0.671875q0.75 -0.671875 0.75 -1.796875q0 -0.921875 -0.5625 -1.421875q-0.5625 -0.515625 -1.859375 -0.8125l-1.0625 -0.234375q-1.78125 -0.421875 -2.734375 -1.25q-0.9375 -0.828125 -0.9375 -2.34375q0 -0.859375 0.3125 -1.53125q0.328125 -0.671875 0.890625 -1.109375q0.578125 -0.453125 1.359375 -0.6875q0.796875 -0.234375 1.75 -0.234375q1.46875 0 2.515625 0.546875q1.0625 0.546875 1.796875 1.578125l-1.171875 0.859375q-0.546875 -0.734375 -1.3125 -1.15625q-0.765625 -0.4375 -1.90625 -0.4375q-1.25 0 -1.96875 0.53125q-0.71875 0.53125 -0.71875 1.59375q0 0.921875 0.609375 1.40625q0.609375 0.46875 1.84375 0.75l1.0625 0.25q1.921875 0.421875 2.78125 1.296875q0.859375 0.875 0.859375 2.34375q0 0.890625 -0.3125 1.625q-0.3125 0.71875 -0.890625 1.234375q-0.578125 0.5 -1.40625 0.78125q-0.828125 0.265625 -1.875 0.265625zm10.651794 0q-0.984375 0 -1.78125 -0.34375q-0.796875 -0.359375 -1.359375 -1.015625q-0.5625 -0.671875 -0.875 -1.59375q-0.3125 -0.921875 -0.3125 -2.078125q0 -1.140625 0.3125 -2.0625q0.3125 -0.9375 0.875 -1.59375q0.5625 -0.671875 1.359375 -1.015625q0.796875 -0.359375 1.78125 -0.359375q0.96875 0 1.734375 0.359375q0.765625 0.34375 1.296875 0.96875q0.546875 0.625 0.828125 1.484375q0.296875 0.859375 0.296875 1.875l0 0.71875l-6.921875 0l0 0.4375q0 0.625 0.1875 1.15625q0.203125 0.53125 0.5625 0.921875q0.375 0.390625 0.90625 0.625q0.53125 0.21875 1.203125 0.21875q0.921875 0 1.59375 -0.421875q0.6875 -0.4375 1.0625 -1.25l1.0625 0.765625q-0.46875 1.0 -1.46875 1.609375q-0.984375 0.59375 -2.34375 0.59375zm0 -8.8125q-0.609375 0 -1.125 0.21875q-0.5 0.203125 -0.859375 0.59375q-0.359375 0.390625 -0.578125 0.921875q-0.203125 0.53125 -0.203125 1.171875l0 0.125l5.328125 0l0 -0.203125q0 -1.28125 -0.703125 -2.046875q-0.703125 -0.78125 -1.859375 -0.78125zm6.6172485 8.59375l0 -9.625l1.5 0l0 1.765625l0.09375 0q0.265625 -0.6875 0.9375 -1.21875q0.671875 -0.546875 1.84375 -0.546875l0.578125 0l0 1.484375l-0.875 0q-1.21875 0 -1.90625 0.46875q-0.671875 0.453125 -0.671875 1.140625l0 6.53125l-1.5 0zm9.174133 0l-3.390625 -9.625l1.5 0l1.671875 4.78125l1.046875 3.28125l0.09375 0l1.046875 -3.28125l1.71875 -4.78125l1.4375 0l-3.390625 9.625l-1.734375 0zm10.513916 0.21875q-0.984375 0 -1.78125 -0.34375q-0.796875 -0.359375 -1.359375 -1.015625q-0.5625 -0.671875 -0.875 -1.59375q-0.3125 -0.921875 -0.3125 -2.078125q0 -1.140625 0.3125 -2.0625q0.3125 -0.9375 0.875 -1.59375q0.5625 -0.671875 1.359375 -1.015625q0.796875 -0.359375 1.78125 -0.359375q0.96875 0 1.734375 0.359375q0.765625 0.34375 1.296875 0.96875q0.546875 0.625 0.828125 1.484375q0.296875 0.859375 0.296875 1.875l0 0.71875l-6.921875 0l0 0.4375q0 0.625 0.1875 1.15625q0.203125 0.53125 0.5625 0.921875q0.375 0.390625 0.90625 0.625q0.53125 0.21875 1.203125 0.21875q0.921875 0 1.59375 -0.421875q0.6875 -0.4375 1.0625 -1.25l1.0625 0.765625q-0.46875 1.0 -1.46875 1.609375q-0.984375 0.59375 -2.34375 0.59375zm0 -8.8125q-0.609375 0 -1.125 0.21875q-0.5 0.203125 -0.859375 0.59375q-0.359375 0.390625 -0.578125 0.921875q-0.203125 0.53125 -0.203125 1.171875l0 0.125l5.328125 0l0 -0.203125q0 -1.28125 -0.703125 -2.046875q-0.703125 -0.78125 -1.859375 -0.78125zm6.6173096 8.59375l0 -9.625l1.5 0l0 1.765625l0.09375 0q0.265625 -0.6875 0.9375 -1.21875q0.671875 -0.546875 1.84375 -0.546875l0.578125 0l0 1.484375l-0.875 0q-1.21875 0 -1.90625 0.46875q-0.671875 0.453125 -0.671875 1.140625l0 6.53125l-1.5 0zm15.79657 -11.640625l0 11.640625l-1.578125 0l0 -11.640625l-4.140625 0l0 -1.375l9.859375 0l0 1.375l-4.140625 0z" fill-rule="nonzero"/><path fill="#000000" fill-opacity="0.0" d="m543.1877 48.34646l73.51178 0.81889725" fill-rule="evenodd"/><path stroke="#000000" stroke-width="4.0" stroke-linejoin="round" stroke-linecap="butt" stroke-dasharray="4.0,12.0" d="m543.1877 48.34646l73.51178 0.81889725" fill-rule="evenodd"/><path fill="#000000" fill-opacity="0.0" d="m96.944885 97.51181l-2.4881897 244.40945" fill-rule="evenodd"/><path stroke="#000000" stroke-width="1.0" stroke-linejoin="round" stroke-linecap="butt" d="m96.944885 97.51181l-2.4271164 238.40976" fill-rule="evenodd"/><path fill="#000000" stroke="#000000" stroke-width="1.0" stroke-linecap="butt" d="m92.86613 335.90475l1.6054459 4.5546875l1.6978455 -4.521057z" fill-rule="evenodd"/><path fill="#000000" fill-opacity="0.0" d="m418.94357 97.51181l-306.4882 254.4252" fill-rule="evenodd"/><path stroke="#000000" stroke-width="1.0" stroke-linejoin="round" stroke-linecap="butt" d="m418.94357 97.51181l-301.87158 250.5928" fill-rule="evenodd"/><path fill="#000000" stroke="#000000" stroke-width="1.0" stroke-linecap="butt" d="m116.01696 346.83374l-2.4367447 4.1694946l4.546768 -1.6277161z" fill-rule="evenodd"/><path fill="#000000" fill-opacity="0.0" d="m740.94226 97.51181l-610.48816 264.40945" fill-rule="evenodd"/><path stroke="#000000" stroke-width="1.0" stroke-linejoin="round" stroke-linecap="butt" d="m740.94226 97.51181l-604.9824 262.02484" fill-rule="evenodd"/><path fill="#000000" stroke="#000000" stroke-width="1.0" stroke-linecap="butt" d="m135.30339 358.02097l-3.507843 3.319275l4.820755 -0.28790283z" fill-rule="evenodd"/><path fill="#000000" fill-opacity="0.0" d="m96.944885 97.51181l603.5275 264.40945" fill-rule="evenodd"/><path stroke="#000000" stroke-width="1.0" stroke-linejoin="round" stroke-linecap="butt" d="m96.944885 97.51181l598.0318 262.0017" fill-rule="evenodd"/><path fill="#000000" stroke="#000000" stroke-width="1.0" stroke-linecap="butt" d="m694.3139 361.02646l4.819519 0.3081665l-3.4938965 -3.3339844z" fill-rule="evenodd"/><path fill="#000000" fill-opacity="0.0" d="m418.94357 97.51181l301.5118 250.4252" fill-rule="evenodd"/><path stroke="#000000" stroke-width="1.0" stroke-linejoin="round" stroke-linecap="butt" d="m418.94357 97.51181l296.8962 246.59161" fill-rule="evenodd"/><path fill="#000000" stroke="#000000" stroke-width="1.0" stroke-linecap="butt" d="m714.7844 345.37408l4.5463867 1.6288757l-2.435669 -4.1701355z" fill-rule="evenodd"/><path fill="#000000" fill-opacity="0.0" d="m740.94226 97.51181l-2.4882202 242.4252" fill-rule="evenodd"/><path stroke="#000000" stroke-width="1.0" stroke-linejoin="round" stroke-linecap="butt" d="m740.94226 97.51181l-2.4265747 236.4255" fill-rule="evenodd"/><path fill="#000000" stroke="#000000" stroke-width="1.0" stroke-linecap="butt" d="m736.864 333.92038l1.6050415 4.5548096l1.6982422 -4.5209045z" fill-rule="evenodd"/><path fill="#000000" fill-opacity="0.0" d="m348.58005 162.00787l138.23624 0l0 33.921265l-138.23624 0z" fill-rule="evenodd"/><path fill="#000000" d="m358.68942 174.15288l2.8125 0q0.78125 0 1.40625 0.265625q0.640625 0.265625 1.09375 0.796875q0.453125 0.515625 0.6875 1.296875q0.25 0.78125 0.25 1.828125q0 1.046875 -0.25 1.828125q-0.234375 0.78125 -0.6875 1.3125q-0.453125 0.515625 -1.09375 0.78125q-0.625 0.265625 -1.40625 0.265625l-2.8125 0l0 -8.375zm2.8125 7.484375q0.515625 0 0.9375 -0.171875q0.4375 -0.171875 0.75 -0.5q0.3125 -0.34375 0.484375 -0.828125q0.1875 -0.484375 0.1875 -1.109375l0 -1.375q0 -0.625 -0.1875 -1.109375q-0.171875 -0.484375 -0.484375 -0.8125q-0.3125 -0.34375 -0.75 -0.515625q-0.421875 -0.171875 -0.9375 -0.171875l-1.796875 0l0 6.59375l1.796875 0zm7.489563 1.03125q-0.625 0 -1.140625 -0.21875q-0.515625 -0.234375 -0.890625 -0.65625q-0.359375 -0.421875 -0.5625 -1.015625q-0.203125 -0.609375 -0.203125 -1.34375q0 -0.734375 0.203125 -1.328125q0.203125 -0.609375 0.5625 -1.03125q0.375 -0.421875 0.890625 -0.65625q0.515625 -0.234375 1.140625 -0.234375q0.625 0 1.125 0.234375q0.515625 0.234375 0.890625 0.65625q0.375 0.421875 0.578125 1.03125q0.203125 0.59375 0.203125 1.328125q0 0.734375 -0.203125 1.34375q-0.203125 0.59375 -0.578125 1.015625q-0.375 0.421875 -0.890625 0.65625q-0.5 0.21875 -1.125 0.21875zm0 -0.84375q0.78125 0 1.265625 -0.484375q0.5 -0.484375 0.5 -1.46875l0 -0.890625q0 -0.984375 -0.5 -1.453125q-0.484375 -0.484375 -1.265625 -0.484375q-0.78125 0 -1.28125 0.484375q-0.484375 0.46875 -0.484375 1.453125l0 0.890625q0 0.984375 0.484375 1.46875q0.5 0.484375 1.28125 0.484375zm3.6756897 -5.484375l0.9375 0l0.65625 2.671875l0.65625 2.71875l0.03125 0l0.75 -2.71875l0.78125 -2.671875l0.859375 0l0.796875 2.671875l0.765625 2.71875l0.03125 0l0.625 -2.71875l0.671875 -2.671875l0.90625 0l-1.640625 6.1875l-1.1875 0l-0.875 -2.96875l-0.53125 -1.890625l-0.03125 0l-0.515625 1.890625l-0.875 2.96875l-1.15625 0l-1.65625 -6.1875zm9.856689 6.1875l0 -6.1875l0.96875 0l0 1.0l0.046875 0q0.21875 -0.53125 0.625 -0.84375q0.421875 -0.3125 1.125 -0.3125q0.953125 0 1.515625 0.625q0.5625 0.625 0.5625 1.75l0 3.96875l-0.96875 0l0 -3.796875q0 -1.671875 -1.40625 -1.671875q-0.28125 0 -0.5625 0.078125q-0.265625 0.0625 -0.484375 0.203125q-0.203125 0.140625 -0.328125 0.375q-0.125 0.21875 -0.125 0.515625l0 4.296875l-0.96875 0zm7.84729 0q-0.515625 0 -0.78125 -0.28125q-0.25 -0.28125 -0.25 -0.71875l0 -7.875l0.96875 0l0 8.03125l0.90625 0l0 0.84375l-0.84375 0zm4.576538 0.140625q-0.625 0 -1.140625 -0.21875q-0.515625 -0.234375 -0.890625 -0.65625q-0.359375 -0.421875 -0.5625 -1.015625q-0.203125 -0.609375 -0.203125 -1.34375q0 -0.734375 0.203125 -1.328125q0.203125 -0.609375 0.5625 -1.03125q0.375 -0.421875 0.890625 -0.65625q0.515625 -0.234375 1.140625 -0.234375q0.625 0 1.125 0.234375q0.515625 0.234375 0.890625 0.65625q0.375 0.421875 0.578125 1.03125q0.203125 0.59375 0.203125 1.328125q0 0.734375 -0.203125 1.34375q-0.203125 0.59375 -0.578125 1.015625q-0.375 0.421875 -0.890625 0.65625q-0.5 0.21875 -1.125 0.21875zm0 -0.84375q0.78125 0 1.265625 -0.484375q0.5 -0.484375 0.5 -1.46875l0 -0.890625q0 -0.984375 -0.5 -1.453125q-0.484375 -0.484375 -1.265625 -0.484375q-0.78125 0 -1.28125 0.484375q-0.484375 0.46875 -0.484375 1.453125l0 0.890625q0 0.984375 0.484375 1.46875q0.5 0.484375 1.28125 0.484375zm8.876282 0.703125q-0.53125 0 -0.765625 -0.28125q-0.234375 -0.296875 -0.296875 -0.734375l-0.0625 0q-0.203125 0.578125 -0.671875 0.875q-0.46875 0.28125 -1.109375 0.28125q-0.984375 0 -1.53125 -0.5q-0.546875 -0.5 -0.546875 -1.375q0 -0.875 0.640625 -1.34375q0.640625 -0.46875 2.0 -0.46875l1.21875 0l0 -0.609375q0 -0.65625 -0.359375 -1.0q-0.359375 -0.359375 -1.109375 -0.359375q-0.5625 0 -0.9375 0.265625q-0.375 0.25 -0.625 0.671875l-0.578125 -0.546875q0.25 -0.5 0.796875 -0.859375q0.5625 -0.359375 1.390625 -0.359375q1.140625 0 1.765625 0.5625q0.625 0.546875 0.625 1.53125l0 3.40625l0.703125 0l0 0.84375l-0.546875 0zm-2.75 -0.671875q0.359375 0 0.65625 -0.078125q0.296875 -0.09375 0.515625 -0.25q0.21875 -0.15625 0.328125 -0.359375q0.125 -0.203125 0.125 -0.4375l0 -1.015625l-1.265625 0q-0.828125 0 -1.21875 0.234375q-0.375 0.234375 -0.375 0.6875l0 0.265625q0 0.453125 0.328125 0.703125q0.34375 0.25 0.90625 0.25zm8.626801 -0.34375l-0.046875 0q-0.5625 1.15625 -1.8125 1.15625q-0.578125 0 -1.046875 -0.21875q-0.46875 -0.234375 -0.796875 -0.65625q-0.328125 -0.421875 -0.515625 -1.015625q-0.171875 -0.609375 -0.171875 -1.34375q0 -0.75 0.171875 -1.34375q0.1875 -0.609375 0.515625 -1.015625q0.328125 -0.421875 0.796875 -0.65625q0.46875 -0.234375 1.046875 -0.234375q0.640625 0 1.09375 0.296875q0.46875 0.28125 0.71875 0.859375l0.046875 0l0 -3.6875l0.953125 0l0 8.875l-0.953125 0l0 -1.015625zm-1.59375 0.296875q0.3125 0 0.609375 -0.078125q0.296875 -0.09375 0.515625 -0.25q0.21875 -0.171875 0.34375 -0.40625q0.125 -0.234375 0.125 -0.53125l0 -2.296875q0 -0.25 -0.125 -0.46875q-0.125 -0.234375 -0.34375 -0.390625q-0.21875 -0.15625 -0.515625 -0.234375q-0.296875 -0.09375 -0.609375 -0.09375q-0.828125 0 -1.296875 0.515625q-0.46875 0.5 -0.46875 1.328125l0 1.0625q0 0.828125 0.46875 1.34375q0.46875 0.5 1.296875 0.5zm5.0694275 -6.921875q-0.3125 0 -0.453125 -0.140625q-0.140625 -0.15625 -0.140625 -0.40625l0 -0.15625q0 -0.234375 0.140625 -0.375q0.140625 -0.15625 0.453125 -0.15625q0.3125 0 0.453125 0.15625q0.140625 0.140625 0.140625 0.375l0 0.15625q0 0.25 -0.140625 0.40625q-0.140625 0.140625 -0.453125 0.140625zm-0.484375 1.453125l0.96875 0l0 6.1875l-0.96875 0l0 -6.1875zm3.0000305 6.1875l0 -6.1875l0.96875 0l0 1.0l0.046875 0q0.21875 -0.53125 0.625 -0.84375q0.421875 -0.3125 1.125 -0.3125q0.953125 0 1.515625 0.625q0.5625 0.625 0.5625 1.75l0 3.96875l-0.96875 0l0 -3.796875q0 -1.671875 -1.40625 -1.671875q-0.28125 0 -0.5625 0.078125q-0.265625 0.0625 -0.484375 0.203125q-0.203125 0.140625 -0.328125 0.375q-0.125 0.21875 -0.125 0.515625l0 4.296875l-0.96875 0zm12.03479 0.6875q0 0.953125 -0.75 1.40625q-0.75 0.453125 -2.25 0.453125q-1.453125 0 -2.09375 -0.40625q-0.625 -0.390625 -0.625 -1.125q0 -0.5 0.265625 -0.78125q0.265625 -0.28125 0.71875 -0.421875l0 -0.125q-0.546875 -0.265625 -0.546875 -0.859375q0 -0.46875 0.296875 -0.71875q0.296875 -0.25 0.765625 -0.359375l0 -0.046875q-0.546875 -0.265625 -0.859375 -0.75q-0.296875 -0.5 -0.296875 -1.15625q0 -0.46875 0.15625 -0.859375q0.171875 -0.390625 0.46875 -0.671875q0.3125 -0.296875 0.734375 -0.453125q0.4375 -0.15625 0.96875 -0.15625q0.65625 0 1.171875 0.25l0 -0.109375q0 -0.359375 0.15625 -0.59375q0.171875 -0.234375 0.5625 -0.234375l0.921875 0l0 0.84375l-1.171875 0l0 0.390625q0.328125 0.28125 0.515625 0.6875q0.1875 0.40625 0.1875 0.90625q0 0.46875 -0.171875 0.875q-0.15625 0.390625 -0.46875 0.671875q-0.3125 0.28125 -0.75 0.4375q-0.421875 0.15625 -0.953125 0.15625q-0.296875 0 -0.59375 -0.0625q-0.3125 0.078125 -0.5625 0.25q-0.25 0.15625 -0.25 0.453125q0 0.265625 0.25 0.375q0.265625 0.09375 0.6875 0.09375l1.328125 0q1.15625 0 1.671875 0.4375q0.515625 0.4375 0.515625 1.203125zm-0.890625 0.0625q0 -0.359375 -0.28125 -0.59375q-0.28125 -0.21875 -1.0 -0.21875l-2.078125 0q-0.5625 0.265625 -0.5625 0.84375q0 0.40625 0.296875 0.6875q0.3125 0.296875 1.046875 0.296875l0.875 0q0.8125 0 1.25 -0.25q0.453125 -0.25 0.453125 -0.765625zm-2.15625 -3.578125q0.609375 0 0.96875 -0.296875q0.375 -0.296875 0.375 -0.90625l0 -0.34375q0 -0.609375 -0.375 -0.890625q-0.359375 -0.296875 -0.96875 -0.296875q-0.609375 0 -0.96875 0.296875q-0.359375 0.28125 -0.359375 0.890625l0 0.34375q0 0.609375 0.359375 0.90625q0.359375 0.296875 0.96875 0.296875zm8.10556 2.828125l-1.015625 0l0 -8.375l3.34375 0q1.109375 0 1.71875 0.609375q0.625 0.609375 0.625 1.765625q0 0.921875 -0.4375 1.515625q-0.421875 0.59375 -1.25 0.78125l1.921875 3.703125l-1.140625 0l-1.8125 -3.59375l-1.953125 0l0 3.59375zm2.328125 -4.46875q0.59375 0 0.921875 -0.3125q0.34375 -0.3125 0.34375 -0.875l0 -0.625q0 -0.578125 -0.34375 -0.890625q-0.328125 -0.3125 -0.921875 -0.3125l-2.328125 0l0 3.015625l2.328125 0zm8.622559 4.46875q-0.53125 0 -0.765625 -0.28125q-0.234375 -0.296875 -0.296875 -0.734375l-0.0625 0q-0.203125 0.578125 -0.671875 0.875q-0.46875 0.28125 -1.109375 0.28125q-0.984375 0 -1.53125 -0.5q-0.546875 -0.5 -0.546875 -1.375q0 -0.875 0.640625 -1.34375q0.640625 -0.46875 2.0 -0.46875l1.21875 0l0 -0.609375q0 -0.65625 -0.359375 -1.0q-0.359375 -0.359375 -1.109375 -0.359375q-0.5625 0 -0.9375 0.265625q-0.375 0.25 -0.625 0.671875l-0.578125 -0.546875q0.25 -0.5 0.796875 -0.859375q0.5625 -0.359375 1.390625 -0.359375q1.140625 0 1.765625 0.5625q0.625 0.546875 0.625 1.53125l0 3.40625l0.703125 0l0 0.84375l-0.546875 0zm-2.75 -0.671875q0.359375 0 0.65625 -0.078125q0.296875 -0.09375 0.515625 -0.25q0.21875 -0.15625 0.328125 -0.359375q0.125 -0.203125 0.125 -0.4375l0 -1.015625l-1.265625 0q-0.828125 0 -1.21875 0.234375q-0.375 0.234375 -0.375 0.6875l0 0.265625q0 0.453125 0.328125 0.703125q0.34375 0.25 0.90625 0.25zm4.6580505 0.671875l0 -6.1875l0.96875 0l0 1.0l0.046875 0q0.21875 -0.53125 0.625 -0.84375q0.421875 -0.3125 1.125 -0.3125q0.953125 0 1.515625 0.625q0.5625 0.625 0.5625 1.75l0 3.96875l-0.96875 0l0 -3.796875q0 -1.671875 -1.40625 -1.671875q-0.28125 0 -0.5625 0.078125q-0.265625 0.0625 -0.484375 0.203125q-0.203125 0.140625 -0.328125 0.375q-0.125 0.21875 -0.125 0.515625l0 4.296875l-0.96875 0zm10.784821 -1.015625l-0.046875 0q-0.5625 1.15625 -1.8125 1.15625q-0.578125 0 -1.046875 -0.21875q-0.46875 -0.234375 -0.796875 -0.65625q-0.328125 -0.421875 -0.515625 -1.015625q-0.171875 -0.609375 -0.171875 -1.34375q0 -0.75 0.171875 -1.34375q0.1875 -0.609375 0.515625 -1.015625q0.328125 -0.421875 0.796875 -0.65625q0.46875 -0.234375 1.046875 -0.234375q0.640625 0 1.09375 0.296875q0.46875 0.28125 0.71875 0.859375l0.046875 0l0 -3.6875l0.953125 0l0 8.875l-0.953125 0l0 -1.015625zm-1.59375 0.296875q0.3125 0 0.609375 -0.078125q0.296875 -0.09375 0.515625 -0.25q0.21875 -0.171875 0.34375 -0.40625q0.125 -0.234375 0.125 -0.53125l0 -2.296875q0 -0.25 -0.125 -0.46875q-0.125 -0.234375 -0.34375 -0.390625q-0.21875 -0.15625 -0.515625 -0.234375q-0.296875 -0.09375 -0.609375 -0.09375q-0.828125 0 -1.296875 0.515625q-0.46875 0.5 -0.46875 1.328125l0 1.0625q0 0.828125 0.46875 1.34375q0.46875 0.5 1.296875 0.5zm6.9288025 0.859375q-0.625 0 -1.140625 -0.21875q-0.515625 -0.234375 -0.890625 -0.65625q-0.359375 -0.421875 -0.5625 -1.015625q-0.203125 -0.609375 -0.203125 -1.34375q0 -0.734375 0.203125 -1.328125q0.203125 -0.609375 0.5625 -1.03125q0.375 -0.421875 0.890625 -0.65625q0.515625 -0.234375 1.140625 -0.234375q0.625 0 1.125 0.234375q0.515625 0.234375 0.890625 0.65625q0.375 0.421875 0.578125 1.03125q0.203125 0.59375 0.203125 1.328125q0 0.734375 -0.203125 1.34375q-0.203125 0.59375 -0.578125 1.015625q-0.375 0.421875 -0.890625 0.65625q-0.5 0.21875 -1.125 0.21875zm0 -0.84375q0.78125 0 1.265625 -0.484375q0.5 -0.484375 0.5 -1.46875l0 -0.890625q0 -0.984375 -0.5 -1.453125q-0.484375 -0.484375 -1.265625 -0.484375q-0.78125 0 -1.28125 0.484375q-0.484375 0.46875 -0.484375 1.453125l0 0.890625q0 0.984375 0.484375 1.46875q0.5 0.484375 1.28125 0.484375zm4.3762817 0.703125l0 -6.1875l0.96875 0l0 1.0l0.046875 0q0.109375 -0.234375 0.234375 -0.4375q0.140625 -0.21875 0.34375 -0.375q0.203125 -0.15625 0.46875 -0.25q0.265625 -0.09375 0.625 -0.09375q0.609375 0 1.125 0.296875q0.515625 0.296875 0.765625 0.96875l0.015625 0q0.171875 -0.5 0.625 -0.875q0.46875 -0.390625 1.265625 -0.390625q0.953125 0 1.484375 0.625q0.53125 0.625 0.53125 1.75l0 3.96875l-0.953125 0l0 -3.796875q0 -0.828125 -0.328125 -1.25q-0.328125 -0.421875 -1.03125 -0.421875q-0.296875 0 -0.5625 0.078125q-0.25 0.0625 -0.453125 0.203125q-0.203125 0.140625 -0.328125 0.375q-0.109375 0.21875 -0.109375 0.515625l0 4.296875l-0.96875 0l0 -3.796875q0 -0.828125 -0.328125 -1.25q-0.3125 -0.421875 -1.0 -0.421875q-0.28125 0 -0.546875 0.078125q-0.265625 0.0625 -0.46875 0.203125q-0.203125 0.140625 -0.328125 0.375q-0.125 0.21875 -0.125 0.515625l0 4.296875l-0.96875 0z" fill-rule="nonzero"/></g></svg>