<svg version="1.1" viewBox="0.0 0.0 1310.6876640419948 776.0839895013123" fill="none" stroke="none" stroke-linecap="square" stroke-miterlimit="10" xmlns:xlink="http://www.w3.org/1999/xlink" xmlns="http://www.w3.org/2000/svg"><clipPath id="p.0"><path d="m0 0l1310.6876 0l0 776.084l-1310.6876 0l0 -776.084z" clip-rule="nonzero"/></clipPath><g clip-path="url(#p.0)"><path fill="#000000" fill-opacity="0.0" d="m0 0l1310.6876 0l0 776.084l-1310.6876 0z" fill-rule="evenodd"/><path fill="#000000" fill-opacity="0.0" d="m228.38321 621.30707l1082.0157 0l0 154.01575l-1082.0157 0z" fill-rule="evenodd"/><path stroke="#5654e5" stroke-width="2.0" stroke-linejoin="round" stroke-linecap="butt" d="m228.38321 621.30707l1082.0157 0l0 154.01575l-1082.0157 0z" fill-rule="evenodd"/><path fill="#20272b" d="m279.60367 471.0105l193.88977 0l0 97.51184l-193.88977 0z" fill-rule="evenodd"/><path stroke="#000000" stroke-width="1.0" stroke-linejoin="round" stroke-linecap="butt" d="m279.60367 471.0105l193.88977 0l0 97.51184l-193.88977 0z" fill-rule="evenodd"/><path fill="#f1f1f1" d="m328.3062 515.6864l-1.3125 -3.84375l-5.25 0l-1.3125 3.84375l-1.59375 0l4.5625 -13.015625l2.0 0l4.546875 13.015625l-1.640625 0zm-3.90625 -11.5625l-0.09375 0l-2.203125 6.34375l4.5 0l-2.203125 -6.34375zm7.708679 11.5625l0 -13.015625l7.953125 0l0 1.375l-6.390625 0l0 4.359375l6.015625 0l0 1.390625l-6.015625 0l0 4.515625l6.390625 0l0 1.375l-7.953125 0zm14.532837 0.21875q-1.578125 0 -2.703125 -0.59375q-1.125 -0.609375 -1.90625 -1.671875l1.15625 -0.96875q0.6875 0.90625 1.53125 1.390625q0.84375 0.46875 1.984375 0.46875q1.390625 0 2.125 -0.671875q0.75 -0.671875 0.75 -1.796875q0 -0.921875 -0.5625 -1.421875q-0.5625 -0.515625 -1.859375 -0.8125l-1.0625 -0.234375q-1.78125 -0.421875 -2.734375 -1.25q-0.9375 -0.828125 -0.9375 -2.34375q0 -0.859375 0.3125 -1.53125q0.328125 -0.671875 0.890625 -1.109375q0.578125 -0.453125 1.359375 -0.6875q0.796875 -0.234375 1.75 -0.234375q1.46875 0 2.515625 0.546875q1.0625 0.546875 1.796875 1.578125l-1.171875 0.859375q-0.546875 -0.734375 -1.3125 -1.15625q-0.765625 -0.4375 -1.90625 -0.4375q-1.25 0 -1.96875 0.53125q-0.71875 0.53125 -0.71875 1.59375q0 0.921875 0.609375 1.40625q0.609375 0.46875 1.84375 0.75l1.0625 0.25q1.921875 0.421875 2.78125 1.296875q0.859375 0.875 0.859375 2.34375q0 0.890625 -0.3125 1.625q-0.3125 0.71875 -0.890625 1.234375q-0.578125 0.5 -1.40625 0.78125q-0.828125 0.265625 -1.875 0.265625zm6.916565 -5.09375l0 -1.59375l4.875 0l0 1.59375l-4.875 0zm16.100098 4.875l-8.53125 0l0 -1.609375l4.25 -3.90625q0.90625 -0.84375 1.515625 -1.78125q0.625 -0.953125 0.625 -1.90625l0 -0.21875q0 -1.078125 -0.59375 -1.75q-0.59375 -0.671875 -1.8125 -0.671875q-0.59375 0 -1.046875 0.171875q-0.4375 0.15625 -0.765625 0.46875q-0.328125 0.296875 -0.546875 0.703125q-0.21875 0.390625 -0.34375 0.859375l-1.40625 -0.546875q0.1875 -0.578125 0.515625 -1.125q0.328125 -0.546875 0.8125 -0.96875q0.5 -0.4375 1.203125 -0.703125q0.703125 -0.265625 1.65625 -0.265625q0.953125 0 1.6875 0.28125q0.75 0.28125 1.25 0.796875q0.515625 0.5 0.78125 1.1875q0.265625 0.6875 0.265625 1.53125q0 0.765625 -0.21875 1.421875q-0.203125 0.640625 -0.578125 1.234375q-0.375 0.578125 -0.90625 1.140625q-0.53125 0.5625 -1.140625 1.125l-3.515625 3.15625l6.84375 0l0 1.375zm10.553131 -11.640625l-5.71875 0l-0.375 4.96875l0.140625 0q0.46875 -0.65625 1.046875 -1.046875q0.59375 -0.390625 1.609375 -0.390625q0.84375 0 1.546875 0.28125q0.71875 0.265625 1.234375 0.78125q0.53125 0.515625 0.8125 1.265625q0.296875 0.75 0.296875 1.703125q0 0.9375 -0.296875 1.734375q-0.296875 0.796875 -0.875 1.375q-0.5625 0.5625 -1.375 0.875q-0.8125 0.3125 -1.84375 0.3125q-0.8125 0 -1.4375 -0.1875q-0.625 -0.1875 -1.109375 -0.5q-0.484375 -0.3125 -0.859375 -0.703125q-0.359375 -0.390625 -0.65625 -0.828125l1.171875 -0.890625q0.25 0.390625 0.515625 0.71875q0.265625 0.3125 0.59375 0.53125q0.328125 0.21875 0.75 0.34375q0.4375 0.125 1.03125 0.125q1.34375 0 2.03125 -0.703125q0.703125 -0.71875 0.703125 -2.0l0 -0.1875q0 -1.296875 -0.703125 -2.0q-0.6875 -0.703125 -2.03125 -0.703125q-0.890625 0 -1.40625 0.328125q-0.515625 0.3125 -0.921875 0.765625l-1.328125 -0.1875l0.46875 -7.15625l6.984375 0l0 1.375zm7.506256 11.859375q-1.0 0 -1.8125 -0.34375q-0.8125 -0.34375 -1.390625 -0.984375q-0.5625 -0.640625 -0.859375 -1.578125q-0.296875 -0.9375 -0.296875 -2.09375q0 -1.453125 0.421875 -2.71875q0.4375 -1.28125 1.109375 -2.328125q0.6875 -1.0625 1.5 -1.875q0.828125 -0.8125 1.609375 -1.3125l2.015625 0q-1.046875 0.765625 -1.875 1.5q-0.8125 0.71875 -1.421875 1.515625q-0.609375 0.78125 -1.046875 1.6875q-0.421875 0.90625 -0.6875 2.046875l0.09375 0.03125q0.46875 -0.796875 1.203125 -1.328125q0.734375 -0.53125 1.921875 -0.53125q0.84375 0 1.546875 0.28125q0.71875 0.28125 1.21875 0.796875q0.5 0.515625 0.78125 1.265625q0.296875 0.75 0.296875 1.671875q0 0.9375 -0.3125 1.734375q-0.296875 0.796875 -0.875 1.375q-0.5625 0.5625 -1.375 0.875q-0.796875 0.3125 -1.765625 0.3125zm-0.015625 -1.359375q1.296875 0 2.015625 -0.703125q0.71875 -0.71875 0.71875 -2.03125l0 -0.15625q0 -1.328125 -0.71875 -2.03125q-0.71875 -0.703125 -2.015625 -0.703125q-1.28125 0 -2.0 0.703125q-0.71875 0.703125 -0.71875 2.03125l0 0.15625q0 1.3125 0.71875 2.03125q0.71875 0.703125 2.0 0.703125zm16.612274 1.359375q-1.28125 0 -2.296875 -0.4375q-1.015625 -0.4375 -1.734375 -1.28125q-0.71875 -0.84375 -1.109375 -2.109375q-0.390625 -1.265625 -0.390625 -2.90625q0 -1.640625 0.390625 -2.890625q0.390625 -1.25 1.109375 -2.109375q0.71875 -0.859375 1.734375 -1.296875q1.015625 -0.4375 2.296875 -0.4375q1.25 0 2.265625 0.4375q1.03125 0.4375 1.75 1.296875q0.71875 0.859375 1.109375 2.109375q0.390625 1.25 0.390625 2.890625q0 1.640625 -0.390625 2.90625q-0.390625 1.265625 -1.109375 2.109375q-0.71875 0.84375 -1.75 1.28125q-1.015625 0.4375 -2.265625 0.4375zm0 -1.390625q0.828125 0 1.53125 -0.296875q0.71875 -0.296875 1.234375 -0.859375q0.515625 -0.5625 0.796875 -1.34375q0.28125 -0.78125 0.28125 -1.75l0 -2.171875q0 -0.96875 -0.28125 -1.75q-0.28125 -0.78125 -0.796875 -1.34375q-0.515625 -0.5625 -1.234375 -0.859375q-0.703125 -0.296875 -1.53125 -0.296875q-0.84375 0 -1.5625 0.296875q-0.703125 0.296875 -1.21875 0.859375q-0.5 0.5625 -0.78125 1.34375q-0.28125 0.78125 -0.28125 1.75l0 2.171875q0 0.96875 0.28125 1.75q0.28125 0.78125 0.78125 1.34375q0.515625 0.5625 1.21875 0.859375q0.71875 0.296875 1.5625 0.296875zm12.927368 1.390625q-2.484375 0 -3.875 -1.6875q-1.375 -1.6875 -1.375 -4.96875q0 -3.28125 1.375 -5.046875q1.390625 -1.765625 3.875 -1.765625q1.640625 0 2.75 0.75q1.109375 0.75 1.71875 2.109375l-1.265625 0.765625q-0.390625 -1.015625 -1.203125 -1.609375q-0.796875 -0.609375 -2.0 -0.609375q-0.84375 0 -1.515625 0.3125q-0.65625 0.3125 -1.109375 0.90625q-0.453125 0.59375 -0.703125 1.40625q-0.234375 0.8125 -0.234375 1.8125l0 1.9375q0 2.015625 0.921875 3.15625q0.9375 1.140625 2.640625 1.140625q1.25 0 2.078125 -0.640625q0.84375 -0.65625 1.234375 -1.71875l1.25 0.78125q-0.609375 1.390625 -1.765625 2.1875q-1.15625 0.78125 -2.796875 0.78125zm6.991791 -13.234375l5.359375 0q1.625 0 2.546875 0.921875q0.921875 0.90625 0.921875 2.4375q0 0.71875 -0.203125 1.234375q-0.203125 0.5 -0.53125 0.828125q-0.3125 0.3125 -0.6875 0.484375q-0.375 0.15625 -0.6875 0.203125l0 0.109375q0.359375 0.03125 0.796875 0.203125q0.4375 0.15625 0.828125 0.53125q0.390625 0.359375 0.65625 0.921875q0.265625 0.5625 0.265625 1.375q0 0.796875 -0.25 1.5q-0.25 0.6875 -0.703125 1.1875q-0.4375 0.5 -1.0625 0.796875q-0.609375 0.28125 -1.328125 0.28125l-5.921875 0l0 -13.015625zm1.5625 11.640625l3.859375 0q1.015625 0 1.59375 -0.515625q0.578125 -0.515625 0.578125 -1.5l0 -0.640625q0 -0.984375 -0.578125 -1.5q-0.578125 -0.515625 -1.59375 -0.515625l-3.859375 0l0 4.671875zm0 -6.015625l3.609375 0q0.921875 0 1.4375 -0.46875q0.53125 -0.46875 0.53125 -1.34375l0 -0.625q0 -0.875 -0.53125 -1.34375q-0.515625 -0.46875 -1.4375 -0.46875l-3.609375 0l0 4.25z" fill-rule="nonzero"/><path fill="#f1f1f1" d="m365.10953 526.71765l-0.09375 0l-1.109375 2.1875l-3.109375 5.671875l-3.125 -5.671875l-1.09375 -2.1875l-0.09375 0l0 10.96875l-1.53125 0l0 -13.015625l2.09375 0l3.734375 7.015625l0.09375 0l3.75 -7.015625l2.0 0l0 13.015625l-1.515625 0l0 -10.96875zm8.47702 11.1875q-0.96875 0 -1.765625 -0.34375q-0.796875 -0.359375 -1.375 -1.015625q-0.5625 -0.671875 -0.890625 -1.59375q-0.3125 -0.921875 -0.3125 -2.078125q0 -1.140625 0.3125 -2.0625q0.328125 -0.9375 0.890625 -1.59375q0.578125 -0.671875 1.375 -1.015625q0.796875 -0.359375 1.765625 -0.359375q0.96875 0 1.765625 0.359375q0.796875 0.34375 1.375 1.015625q0.578125 0.65625 0.890625 1.59375q0.328125 0.921875 0.328125 2.0625q0 1.15625 -0.328125 2.078125q-0.3125 0.921875 -0.890625 1.59375q-0.578125 0.65625 -1.375 1.015625q-0.796875 0.34375 -1.765625 0.34375zm0 -1.3125q1.21875 0 1.984375 -0.75q0.765625 -0.75 0.765625 -2.28125l0 -1.375q0 -1.53125 -0.765625 -2.28125q-0.765625 -0.75 -1.984375 -0.75q-1.203125 0 -1.96875 0.75q-0.765625 0.75 -0.765625 2.28125l0 1.375q0 1.53125 0.765625 2.28125q0.765625 0.75 1.96875 0.75zm12.97876 -0.46875l-0.078125 0q-0.875 1.78125 -2.828125 1.78125q-0.890625 0 -1.625 -0.34375q-0.71875 -0.359375 -1.234375 -1.015625q-0.515625 -0.65625 -0.78125 -1.578125q-0.265625 -0.9375 -0.265625 -2.09375q0 -1.15625 0.265625 -2.078125q0.265625 -0.9375 0.78125 -1.59375q0.515625 -0.65625 1.234375 -1.0q0.734375 -0.359375 1.625 -0.359375q1.015625 0 1.734375 0.4375q0.71875 0.4375 1.09375 1.34375l0.078125 0l0 -5.75l1.484375 0l0 13.8125l-1.484375 0l0 -1.5625zm-2.484375 0.4375q0.5 0 0.953125 -0.125q0.453125 -0.125 0.78125 -0.375q0.34375 -0.265625 0.546875 -0.625q0.203125 -0.359375 0.203125 -0.828125l0 -3.578125q0 -0.390625 -0.203125 -0.734375q-0.203125 -0.359375 -0.546875 -0.59375q-0.328125 -0.25 -0.78125 -0.375q-0.453125 -0.140625 -0.953125 -0.140625q-1.265625 0 -2.0 0.796875q-0.734375 0.78125 -0.734375 2.0625l0 1.640625q0 1.296875 0.734375 2.09375q0.734375 0.78125 2.0 0.78125zm10.758118 1.34375q-0.984375 0 -1.78125 -0.34375q-0.796875 -0.359375 -1.359375 -1.015625q-0.5625 -0.671875 -0.875 -1.59375q-0.3125 -0.921875 -0.3125 -2.078125q0 -1.140625 0.3125 -2.0625q0.3125 -0.9375 0.875 -1.59375q0.5625 -0.671875 1.359375 -1.015625q0.796875 -0.359375 1.78125 -0.359375q0.96875 0 1.734375 0.359375q0.765625 0.34375 1.296875 0.96875q0.546875 0.625 0.828125 1.484375q0.296875 0.859375 0.296875 1.875l0 0.71875l-6.921875 0l0 0.4375q0 0.625 0.1875 1.15625q0.203125 0.53125 0.5625 0.921875q0.375 0.390625 0.90625 0.625q0.53125 0.21875 1.203125 0.21875q0.921875 0 1.59375 -0.421875q0.6875 -0.4375 1.0625 -1.25l1.0625 0.765625q-0.46875 1.0 -1.46875 1.609375q-0.984375 0.59375 -2.34375 0.59375zm0 -8.8125q-0.609375 0 -1.125 0.21875q-0.5 0.203125 -0.859375 0.59375q-0.359375 0.390625 -0.578125 0.921875q-0.203125 0.53125 -0.203125 1.171875l0 0.125l5.328125 0l0 -0.203125q0 -1.28125 -0.703125 -2.046875q-0.703125 -0.78125 -1.859375 -0.78125z" fill-rule="nonzero"/><path fill="#20272b" d="m0 471.0105l193.88977 0l0 97.51184l-193.88977 0z" fill-rule="evenodd"/><path stroke="#000000" stroke-width="1.0" stroke-linejoin="round" stroke-linecap="butt" d="m0 471.0105l193.88977 0l0 97.51184l-193.88977 0z" fill-rule="evenodd"/><path fill="#f1f1f1" d="m60.185555 526.6864l-1.3125 -3.84375l-5.25 0l-1.3125 3.84375l-1.59375 0l4.5625 -13.015625l2.0 0l4.546875 13.015625l-1.640625 0zm-3.90625 -11.5625l-0.09375 0l-2.203125 6.34375l4.5 0l-2.203125 -6.34375zm7.708664 11.5625l0 -13.015625l7.953125 0l0 1.375l-6.390625 0l0 4.359375l6.015625 0l0 1.390625l-6.015625 0l0 4.515625l6.390625 0l0 1.375l-7.953125 0zm14.532852 0.21875q-1.578125 0 -2.703125 -0.59375q-1.125 -0.609375 -1.90625 -1.671875l1.15625 -0.96875q0.6875 0.90625 1.53125 1.390625q0.84375 0.46875 1.984375 0.46875q1.390625 0 2.125 -0.671875q0.75 -0.671875 0.75 -1.796875q0 -0.921875 -0.5625 -1.421875q-0.5625 -0.515625 -1.859375 -0.8125l-1.0625 -0.234375q-1.78125 -0.421875 -2.734375 -1.25q-0.9375 -0.828125 -0.9375 -2.34375q0 -0.859375 0.3125 -1.53125q0.328125 -0.671875 0.890625 -1.109375q0.578125 -0.453125 1.359375 -0.6875q0.796875 -0.234375 1.75 -0.234375q1.46875 0 2.515625 0.546875q1.0625 0.546875 1.796875 1.578125l-1.171875 0.859375q-0.546875 -0.734375 -1.3125 -1.15625q-0.765625 -0.4375 -1.90625 -0.4375q-1.25 0 -1.96875 0.53125q-0.71875 0.53125 -0.71875 1.59375q0 0.921875 0.609375 1.40625q0.609375 0.46875 1.84375 0.75l1.0625 0.25q1.921875 0.421875 2.78125 1.296875q0.859375 0.875 0.859375 2.34375q0 0.890625 -0.3125 1.625q-0.3125 0.71875 -0.890625 1.234375q-0.578125 0.5 -1.40625 0.78125q-0.828125 0.265625 -1.875 0.265625zm11.585907 -13.234375l4.359375 0q1.21875 0 2.203125 0.40625q1.0 0.40625 1.6875 1.21875q0.703125 0.8125 1.078125 2.03125q0.375 1.21875 0.375 2.84375q0 1.625 -0.375 2.859375q-0.375 1.21875 -1.078125 2.03125q-0.6875 0.796875 -1.6875 1.21875q-0.984375 0.40625 -2.203125 0.40625l-4.359375 0l0 -13.015625zm4.359375 11.640625q0.8125 0 1.484375 -0.265625q0.671875 -0.28125 1.15625 -0.796875q0.484375 -0.53125 0.75 -1.28125q0.265625 -0.765625 0.265625 -1.734375l0 -2.125q0 -0.96875 -0.265625 -1.71875q-0.265625 -0.765625 -0.75 -1.28125q-0.484375 -0.515625 -1.15625 -0.78125q-0.671875 -0.28125 -1.484375 -0.28125l-2.796875 0l0 10.265625l2.796875 0zm15.002716 1.375q-0.828125 0 -1.203125 -0.4375q-0.359375 -0.453125 -0.453125 -1.125l-0.09375 0q-0.3125 0.890625 -1.046875 1.34375q-0.71875 0.4375 -1.734375 0.4375q-1.53125 0 -2.375 -0.78125q-0.84375 -0.78125 -0.84375 -2.125q0 -1.359375 0.984375 -2.078125q1.0 -0.734375 3.109375 -0.734375l1.90625 0l0 -0.953125q0 -1.03125 -0.5625 -1.5625q-0.5625 -0.546875 -1.71875 -0.546875q-0.875 0 -1.46875 0.390625q-0.578125 0.390625 -0.96875 1.046875l-0.890625 -0.84375q0.390625 -0.78125 1.25 -1.328125q0.859375 -0.546875 2.15625 -0.546875q1.75 0 2.71875 0.859375q0.984375 0.84375 0.984375 2.375l0 5.296875l1.09375 0l0 1.3125l-0.84375 0zm-4.28125 -1.046875q0.546875 0 1.015625 -0.125q0.46875 -0.140625 0.796875 -0.375q0.34375 -0.25 0.53125 -0.5625q0.1875 -0.3125 0.1875 -0.6875l0 -1.59375l-1.984375 0q-1.28125 0 -1.875 0.375q-0.578125 0.375 -0.578125 1.09375l0 0.390625q0 0.703125 0.515625 1.09375q0.515625 0.390625 1.390625 0.390625zm9.384308 1.046875q-0.796875 0 -1.203125 -0.4375q-0.390625 -0.4375 -0.390625 -1.140625l0 -6.75l-1.578125 0l0 -1.296875l0.890625 0q0.484375 0 0.65625 -0.1875q0.1875 -0.203125 0.1875 -0.6875l0 -1.796875l1.34375 0l0 2.671875l2.109375 0l0 1.296875l-2.109375 0l0 7.015625l1.953125 0l0 1.3125l-1.859375 0zm11.407715 0q-0.828125 0 -1.203125 -0.4375q-0.359375 -0.453125 -0.453125 -1.125l-0.09375 0q-0.3125 0.890625 -1.046875 1.34375q-0.71875 0.4375 -1.734375 0.4375q-1.53125 0 -2.375 -0.78125q-0.84375 -0.78125 -0.84375 -2.125q0 -1.359375 0.984375 -2.078125q1.0 -0.734375 3.109375 -0.734375l1.90625 0l0 -0.953125q0 -1.03125 -0.5625 -1.5625q-0.5625 -0.546875 -1.71875 -0.546875q-0.875 0 -1.46875 0.390625q-0.578125 0.390625 -0.96875 1.046875l-0.890625 -0.84375q0.390625 -0.78125 1.25 -1.328125q0.859375 -0.546875 2.15625 -0.546875q1.75 0 2.71875 0.859375q0.984375 0.84375 0.984375 2.375l0 5.296875l1.09375 0l0 1.3125l-0.84375 0zm-4.28125 -1.046875q0.546875 0 1.015625 -0.125q0.46875 -0.140625 0.796875 -0.375q0.34375 -0.25 0.53125 -0.5625q0.1875 -0.3125 0.1875 -0.6875l0 -1.59375l-1.984375 0q-1.28125 0 -1.875 0.375q-0.578125 0.375 -0.578125 1.09375l0 0.390625q0 0.703125 0.515625 1.09375q0.515625 0.390625 1.390625 0.390625zm15.224693 -5.359375l-1.859375 2.0625l0 4.34375l-1.5625 0l0 -13.015625l1.5625 0l0 6.921875l0.0625 0l1.859375 -2.265625l3.9375 -4.65625l1.921875 0l-4.84375 5.578125l5.1875 7.4375l-1.9375 0l-4.328125 -6.40625z" fill-rule="nonzero"/><path fill="#20272b" d="m279.60367 169.74278l193.88977 0l0 97.511826l-193.88977 0z" fill-rule="evenodd"/><path stroke="#000000" stroke-width="1.0" stroke-linejoin="round" stroke-linecap="butt" d="m279.60367 169.74278l193.88977 0l0 97.511826l-193.88977 0z" fill-rule="evenodd"/><path fill="#f1f1f1" d="m349.85037 225.63744q-1.578125 0 -2.703125 -0.59375q-1.125 -0.609375 -1.90625 -1.671875l1.15625 -0.96875q0.6875 0.90625 1.53125 1.390625q0.84375 0.46875 1.984375 0.46875q1.390625 0 2.125 -0.671875q0.75 -0.671875 0.75 -1.796875q0 -0.921875 -0.5625 -1.421875q-0.5625 -0.515625 -1.859375 -0.8125l-1.0625 -0.234375q-1.78125 -0.421875 -2.734375 -1.25q-0.9375 -0.828125 -0.9375 -2.34375q0 -0.859375 0.3125 -1.53125q0.328125 -0.671875 0.890625 -1.109375q0.578125 -0.453125 1.359375 -0.6875q0.796875 -0.234375 1.75 -0.234375q1.46875 0 2.515625 0.546875q1.0625 0.546875 1.796875 1.578125l-1.171875 0.859375q-0.546875 -0.734375 -1.3125 -1.15625q-0.765625 -0.4375 -1.90625 -0.4375q-1.25 0 -1.96875 0.53125q-0.71875 0.53125 -0.71875 1.59375q0 0.921875 0.609375 1.40625q0.609375 0.46875 1.84375 0.75l1.0625 0.25q1.921875 0.421875 2.78125 1.296875q0.859375 0.875 0.859375 2.34375q0 0.890625 -0.3125 1.625q-0.3125 0.71875 -0.890625 1.234375q-0.578125 0.5 -1.40625 0.78125q-0.828125 0.265625 -1.875 0.265625zm10.651794 0q-0.984375 0 -1.78125 -0.34375q-0.796875 -0.359375 -1.359375 -1.015625q-0.5625 -0.671875 -0.875 -1.59375q-0.3125 -0.921875 -0.3125 -2.078125q0 -1.140625 0.3125 -2.0625q0.3125 -0.9375 0.875 -1.59375q0.5625 -0.671875 1.359375 -1.015625q0.796875 -0.359375 1.78125 -0.359375q0.96875 0 1.734375 0.359375q0.765625 0.34375 1.296875 0.96875q0.546875 0.625 0.828125 1.484375q0.296875 0.859375 0.296875 1.875l0 0.71875l-6.921875 0l0 0.4375q0 0.625 0.1875 1.15625q0.203125 0.53125 0.5625 0.921875q0.375 0.390625 0.90625 0.625q0.53125 0.21875 1.203125 0.21875q0.921875 0 1.59375 -0.421875q0.6875 -0.4375 1.0625 -1.25l1.0625 0.765625q-0.46875 1.0 -1.46875 1.609375q-0.984375 0.59375 -2.34375 0.59375zm0 -8.8125q-0.609375 0 -1.125 0.21875q-0.5 0.203125 -0.859375 0.59375q-0.359375 0.390625 -0.578125 0.921875q-0.203125 0.53125 -0.203125 1.171875l0 0.125l5.328125 0l0 -0.203125q0 -1.28125 -0.703125 -2.046875q-0.703125 -0.78125 -1.859375 -0.78125zm10.242279 8.8125q-0.984375 0 -1.78125 -0.34375q-0.796875 -0.359375 -1.359375 -1.015625q-0.5625 -0.671875 -0.875 -1.59375q-0.3125 -0.921875 -0.3125 -2.078125q0 -1.140625 0.3125 -2.0625q0.3125 -0.9375 0.875 -1.59375q0.5625 -0.671875 1.359375 -1.015625q0.796875 -0.359375 1.78125 -0.359375q0.96875 0 1.734375 0.359375q0.765625 0.34375 1.296875 0.96875q0.546875 0.625 0.828125 1.484375q0.296875 0.859375 0.296875 1.875l0 0.71875l-6.921875 0l0 0.4375q0 0.625 0.1875 1.15625q0.203125 0.53125 0.5625 0.921875q0.375 0.390625 0.90625 0.625q0.53125 0.21875 1.203125 0.21875q0.921875 0 1.59375 -0.421875q0.6875 -0.4375 1.0625 -1.25l1.0625 0.765625q-0.46875 1.0 -1.46875 1.609375q-0.984375 0.59375 -2.34375 0.59375zm0 -8.8125q-0.609375 0 -1.125 0.21875q-0.5 0.203125 -0.859375 0.59375q-0.359375 0.390625 -0.578125 0.921875q-0.203125 0.53125 -0.203125 1.171875l0 0.125l5.328125 0l0 -0.203125q0 -1.28125 -0.703125 -2.046875q-0.703125 -0.78125 -1.859375 -0.78125zm12.789154 7.03125l-0.078125 0q-0.875 1.78125 -2.828125 1.78125q-0.890625 0 -1.625 -0.34375q-0.71875 -0.359375 -1.234375 -1.015625q-0.515625 -0.65625 -0.78125 -1.578125q-0.265625 -0.9375 -0.265625 -2.09375q0 -1.15625 0.265625 -2.078125q0.265625 -0.9375 0.78125 -1.59375q0.515625 -0.65625 1.234375 -1.0q0.734375 -0.359375 1.625 -0.359375q1.015625 0 1.734375 0.4375q0.71875 0.4375 1.09375 1.34375l0.078125 0l0 -5.75l1.484375 0l0 13.8125l-1.484375 0l0 -1.5625zm-2.484375 0.4375q0.5 0 0.953125 -0.125q0.453125 -0.125 0.78125 -0.375q0.34375 -0.265625 0.546875 -0.625q0.203125 -0.359375 0.203125 -0.828125l0 -3.578125q0 -0.390625 -0.203125 -0.734375q-0.203125 -0.359375 -0.546875 -0.59375q-0.328125 -0.25 -0.78125 -0.375q-0.453125 -0.140625 -0.953125 -0.140625q-1.265625 0 -2.0 0.796875q-0.734375 0.78125 -0.734375 2.0625l0 1.640625q0 1.296875 0.734375 2.09375q0.734375 0.78125 2.0 0.78125z" fill-rule="nonzero"/><path fill="#f1f1f1" d="m395.64774 225.63744q-1.4375 0 -2.625 -0.546875q-1.1875 -0.5625 -1.8125 -1.78125l1.15625 -0.84375q0.578125 1.0 1.421875 1.40625q0.84375 0.40625 1.90625 0.40625q0.8125 0 1.4375 -0.203125q0.640625 -0.21875 1.0625 -0.59375q0.421875 -0.390625 0.640625 -0.890625q0.21875 -0.515625 0.21875 -1.09375q0 -0.828125 -0.46875 -1.328125q-0.46875 -0.515625 -1.515625 -0.71875l-1.25 -0.25q-1.375 -0.25 -2.125 -1.078125q-0.734375 -0.84375 -0.734375 -2.109375q0 -0.78125 0.296875 -1.46875q0.3125 -0.703125 0.875 -1.21875q0.5625 -0.53125 1.40625 -0.84375q0.84375 -0.3125 1.921875 -0.3125q1.515625 0 2.53125 0.5625q1.015625 0.5625 1.671875 1.453125l-1.109375 0.921875q-0.53125 -0.734375 -1.296875 -1.15625q-0.765625 -0.421875 -1.890625 -0.421875q-1.328125 0 -2.109375 0.625q-0.78125 0.609375 -0.78125 1.75q0 1.640625 1.984375 2.03125l1.25 0.25q1.375 0.25 2.109375 1.078125q0.734375 0.828125 0.734375 2.15625q0 0.890625 -0.328125 1.65625q-0.3125 0.765625 -0.9375 1.34375q-0.625 0.578125 -1.546875 0.90625q-0.90625 0.3125 -2.09375 0.3125zm8.810699 -0.109375q-1.0625 0 -1.65625 -0.65625q-0.578125 -0.671875 -0.578125 -1.859375q0 -0.890625 0.21875 -1.71875q0.21875 -0.84375 0.640625 -1.46875q0.421875 -0.640625 1.046875 -1.015625q0.625 -0.390625 1.421875 -0.390625q1.078125 0 1.65625 0.671875q0.59375 0.65625 0.59375 1.84375q0 0.90625 -0.234375 1.734375q-0.21875 0.828125 -0.640625 1.46875q-0.421875 0.625 -1.046875 1.015625q-0.625 0.375 -1.421875 0.375zm0.09375 -0.9375q0.703125 0 1.125 -0.5q0.4375 -0.515625 0.609375 -1.375l0.296875 -1.5q0.046875 -0.140625 0.0625 -0.296875q0.015625 -0.171875 0.015625 -0.3125q0 -1.25 -1.203125 -1.25q-0.703125 0 -1.140625 0.515625q-0.421875 0.515625 -0.59375 1.375l-0.296875 1.484375q-0.03125 0.15625 -0.046875 0.3125q-0.015625 0.15625 -0.015625 0.296875q0 1.25 1.1875 1.25z" fill-rule="nonzero"/><path fill="#000000" fill-opacity="0.0" d="m193.88977 519.49866l85.79526 0.5354614" fill-rule="evenodd"/><path stroke="#000000" stroke-width="2.0" stroke-linejoin="round" stroke-linecap="butt" d="m193.88977 519.49866l73.7955 0.4605713" fill-rule="evenodd"/><path fill="#000000" stroke="#000000" stroke-width="2.0" stroke-linecap="butt" d="m267.66464 523.26263l9.096649 -3.2467651l-9.055389 -3.3600464z" fill-rule="evenodd"/><path fill="#20272b" d="m529.17584 169.74278l193.88977 0l0 97.511826l-193.88977 0z" fill-rule="evenodd"/><path stroke="#000000" stroke-width="1.0" stroke-linejoin="round" stroke-linecap="butt" d="m529.17584 169.74278l193.88977 0l0 97.511826l-193.88977 0z" fill-rule="evenodd"/><path fill="#f1f1f1" d="m600.2998 212.40306l5.359375 0q1.625 0 2.546875 0.921875q0.921875 0.90625 0.921875 2.4375q0 0.71875 -0.203125 1.234375q-0.203125 0.5 -0.53125 0.828125q-0.3125 0.3125 -0.6875 0.484375q-0.375 0.15625 -0.6875 0.203125l0 0.109375q0.359375 0.03125 0.796875 0.203125q0.4375 0.15625 0.828125 0.53125q0.390625 0.359375 0.65625 0.921875q0.265625 0.5625 0.265625 1.375q0 0.796875 -0.25 1.5q-0.25 0.6875 -0.703125 1.1875q-0.4375 0.5 -1.0625 0.796875q-0.609375 0.28125 -1.328125 0.28125l-5.921875 0l0 -13.015625zm1.5625 11.640625l3.859375 0q1.015625 0 1.59375 -0.515625q0.578125 -0.515625 0.578125 -1.5l0 -0.640625q0 -0.984375 -0.578125 -1.5q-0.578125 -0.515625 -1.59375 -0.515625l-3.859375 0l0 4.671875zm0 -6.015625l3.609375 0q0.921875 0 1.4375 -0.46875q0.53125 -0.46875 0.53125 -1.34375l0 -0.625q0 -0.875 -0.53125 -1.34375q-0.515625 -0.46875 -1.4375 -0.46875l-3.609375 0l0 4.25zm10.620056 7.390625l0 -13.015625l1.5625 0l0 11.640625l5.546875 0l0 1.375l-7.109375 0zm17.857666 0l-1.3125 -3.84375l-5.25 0l-1.3125 3.84375l-1.59375 0l4.5625 -13.015625l2.0 0l4.546875 13.015625l-1.640625 0zm-3.90625 -11.5625l-0.09375 0l-2.203125 6.34375l4.5 0l-2.203125 -6.34375zm11.364929 11.78125q-1.578125 0 -2.703125 -0.59375q-1.125 -0.609375 -1.90625 -1.671875l1.15625 -0.96875q0.6875 0.90625 1.53125 1.390625q0.84375 0.46875 1.984375 0.46875q1.390625 0 2.125 -0.671875q0.75 -0.671875 0.75 -1.796875q0 -0.921875 -0.5625 -1.421875q-0.5625 -0.515625 -1.859375 -0.8125l-1.0625 -0.234375q-1.78125 -0.421875 -2.734375 -1.25q-0.9375 -0.828125 -0.9375 -2.34375q0 -0.859375 0.3125 -1.53125q0.328125 -0.671875 0.890625 -1.109375q0.578125 -0.453125 1.359375 -0.6875q0.796875 -0.234375 1.75 -0.234375q1.46875 0 2.515625 0.546875q1.0625 0.546875 1.796875 1.578125l-1.171875 0.859375q-0.546875 -0.734375 -1.3125 -1.15625q-0.765625 -0.4375 -1.90625 -0.4375q-1.25 0 -1.96875 0.53125q-0.71875 0.53125 -0.71875 1.59375q0 0.921875 0.609375 1.40625q0.609375 0.46875 1.84375 0.75l1.0625 0.25q1.921875 0.421875 2.78125 1.296875q0.859375 0.875 0.859375 2.34375q0 0.890625 -0.3125 1.625q-0.3125 0.71875 -0.890625 1.234375q-0.578125 0.5 -1.40625 0.78125q-0.828125 0.265625 -1.875 0.265625zm11.330994 -11.859375l0 11.640625l-1.578125 0l0 -11.640625l-4.140625 0l0 -1.375l9.859375 0l0 1.375l-4.140625 0z" fill-rule="nonzero"/><path fill="#000000" fill-opacity="0.0" d="m473.49344 218.49869l52.944855 -0.03149414" fill-rule="evenodd"/><path stroke="#000000" stroke-width="2.0" stroke-linejoin="round" stroke-linecap="butt" d="m473.49344 218.49869l40.944855 -0.024353027" fill-rule="evenodd"/><path fill="#000000" stroke="#000000" stroke-width="2.0" stroke-linecap="butt" d="m514.4403 221.7778l9.074219 -3.3088684l-9.078186 -3.2980652z" fill-rule="evenodd"/><path fill="#000000" fill-opacity="0.0" d="m375.91864 267.26248l0.62991333 203.74802" fill-rule="evenodd"/><path stroke="#000000" stroke-width="2.0" stroke-linejoin="round" stroke-linecap="butt" d="m375.91864 267.26248l0.59280396 191.74805" fill-rule="evenodd"/><path fill="#000000" stroke="#000000" stroke-width="2.0" stroke-linecap="butt" d="m373.208 459.02078l3.3315125 9.065918l3.2753906 -9.086365z" fill-rule="evenodd"/><path fill="#20272b" d="m529.17584 0l193.88977 0l0 97.51181l-193.88977 0z" fill-rule="evenodd"/><path stroke="#000000" stroke-width="1.0" stroke-linejoin="round" stroke-linecap="butt" d="m529.17584 0l193.88977 0l0 97.51181l-193.88977 0z" fill-rule="evenodd"/><path fill="#f1f1f1" d="m566.07043 55.675903l-1.5625 0l0 -13.015625l5.1875 0q1.71875 0 2.671875 0.953125q0.96875 0.9375 0.96875 2.734375q0 1.4375 -0.671875 2.359375q-0.65625 0.921875 -1.9375 1.21875l2.984375 5.75l-1.78125 0l-2.8125 -5.59375l-3.046875 0l0 5.59375zm3.625 -6.9375q0.9375 0 1.4375 -0.484375q0.515625 -0.484375 0.515625 -1.390625l0 -0.96875q0 -0.890625 -0.515625 -1.375q-0.5 -0.484375 -1.4375 -0.484375l-3.625 0l0 4.703125l3.625 0zm13.409607 6.9375q-0.828125 0 -1.203125 -0.4375q-0.359375 -0.453125 -0.453125 -1.125l-0.09375 0q-0.3125 0.890625 -1.046875 1.34375q-0.71875 0.4375 -1.734375 0.4375q-1.53125 0 -2.375 -0.78125q-0.84375 -0.78125 -0.84375 -2.125q0 -1.359375 0.984375 -2.078125q1.0 -0.734375 3.109375 -0.734375l1.90625 0l0 -0.953125q0 -1.03125 -0.5625 -1.5625q-0.5625 -0.546875 -1.71875 -0.546875q-0.875 0 -1.46875 0.390625q-0.578125 0.390625 -0.96875 1.046875l-0.890625 -0.84375q0.390625 -0.78125 1.25 -1.328125q0.859375 -0.546875 2.15625 -0.546875q1.75 0 2.71875 0.859375q0.984375 0.84375 0.984375 2.375l0 5.296875l1.09375 0l0 1.3125l-0.84375 0zm-4.28125 -1.046875q0.546875 0 1.015625 -0.125q0.46875 -0.140625 0.796875 -0.375q0.34375 -0.25 0.53125 -0.5625q0.1875 -0.3125 0.1875 -0.6875l0 -1.59375l-1.984375 0q-1.28125 0 -1.875 0.375q-0.578125 0.375 -0.578125 1.09375l0 0.390625q0 0.703125 0.515625 1.09375q0.515625 0.390625 1.390625 0.390625zm7.2436523 1.046875l0 -9.625l1.5 0l0 1.5625l0.078125 0q0.34375 -0.8125 0.984375 -1.296875q0.65625 -0.484375 1.734375 -0.484375q1.5 0 2.359375 0.96875q0.875 0.953125 0.875 2.703125l0 6.171875l-1.5 0l0 -5.90625q0 -2.59375 -2.1875 -2.59375q-0.4375 0 -0.859375 0.109375q-0.421875 0.109375 -0.765625 0.34375q-0.328125 0.21875 -0.53125 0.5625q-0.1875 0.34375 -0.1875 0.8125l0 6.671875l-1.5 0zm16.768677 -1.5625l-0.078125 0q-0.875 1.78125 -2.828125 1.78125q-0.890625 0 -1.625 -0.34375q-0.71875 -0.359375 -1.234375 -1.015625q-0.515625 -0.65625 -0.78125 -1.578125q-0.265625 -0.9375 -0.265625 -2.09375q0 -1.15625 0.265625 -2.078125q0.265625 -0.9375 0.78125 -1.59375q0.515625 -0.65625 1.234375 -1.0q0.734375 -0.359375 1.625 -0.359375q1.015625 0 1.734375 0.4375q0.71875 0.4375 1.09375 1.34375l0.078125 0l0 -5.75l1.484375 0l0 13.8125l-1.484375 0l0 -1.5625zm-2.484375 0.4375q0.5 0 0.953125 -0.125q0.453125 -0.125 0.78125 -0.375q0.34375 -0.265625 0.546875 -0.625q0.203125 -0.359375 0.203125 -0.828125l0 -3.578125q0 -0.390625 -0.203125 -0.734375q-0.203125 -0.359375 -0.546875 -0.59375q-0.328125 -0.25 -0.78125 -0.375q-0.453125 -0.140625 -0.953125 -0.140625q-1.265625 0 -2.0 0.796875q-0.734375 0.78125 -0.734375 2.0625l0 1.640625q0 1.296875 0.734375 2.09375q0.734375 0.78125 2.0 0.78125zm10.773743 1.34375q-0.96875 0 -1.765625 -0.34375q-0.796875 -0.359375 -1.375 -1.015625q-0.5625 -0.671875 -0.890625 -1.59375q-0.3125 -0.921875 -0.3125 -2.078125q0 -1.140625 0.3125 -2.0625q0.328125 -0.9375 0.890625 -1.59375q0.578125 -0.671875 1.375 -1.015625q0.796875 -0.359375 1.765625 -0.359375q0.96875 0 1.765625 0.359375q0.796875 0.34375 1.375 1.015625q0.578125 0.65625 0.890625 1.59375q0.328125 0.921875 0.328125 2.0625q0 1.15625 -0.328125 2.078125q-0.3125 0.921875 -0.890625 1.59375q-0.578125 0.65625 -1.375 1.015625q-0.796875 0.34375 -1.765625 0.34375zm0 -1.3125q1.21875 0 1.984375 -0.75q0.765625 -0.75 0.765625 -2.28125l0 -1.375q0 -1.53125 -0.765625 -2.28125q-0.765625 -0.75 -1.984375 -0.75q-1.203125 0 -1.96875 0.75q-0.765625 0.75 -0.765625 2.28125l0 1.375q0 1.53125 0.765625 2.28125q0.765625 0.75 1.96875 0.75zm6.806885 1.09375l0 -9.625l1.5 0l0 1.5625l0.078125 0q0.171875 -0.375 0.375 -0.6875q0.21875 -0.328125 0.515625 -0.578125q0.3125 -0.25 0.71875 -0.375q0.421875 -0.140625 0.984375 -0.140625q0.953125 0 1.75 0.453125q0.796875 0.453125 1.1875 1.5l0.046875 0q0.265625 -0.78125 0.96875 -1.359375q0.71875 -0.59375 1.953125 -0.59375q1.484375 0 2.3125 0.96875q0.828125 0.953125 0.828125 2.703125l0 6.171875l-1.5 0l0 -5.90625q0 -1.296875 -0.5 -1.9375q-0.5 -0.65625 -1.609375 -0.65625q-0.4375 0 -0.84375 0.109375q-0.40625 0.109375 -0.71875 0.34375q-0.3125 0.21875 -0.5 0.5625q-0.1875 0.34375 -0.1875 0.8125l0 6.671875l-1.5 0l0 -5.90625q0 -1.296875 -0.5 -1.9375q-0.5 -0.65625 -1.5625 -0.65625q-0.453125 0 -0.859375 0.109375q-0.40625 0.109375 -0.734375 0.34375q-0.3125 0.21875 -0.515625 0.5625q-0.1875 0.34375 -0.1875 0.8125l0 6.671875l-1.5 0zm20.846008 0l0 -13.015625l5.1875 0q1.75 0 2.6875 1.0q0.953125 0.984375 0.953125 2.71875q0 1.734375 -0.953125 2.734375q-0.9375 1.0 -2.6875 1.0l-3.625 0l0 5.5625l-1.5625 0zm1.5625 -6.9375l3.625 0q0.9375 0 1.4375 -0.484375q0.515625 -0.484375 0.515625 -1.390625l0 -0.96875q0 -0.890625 -0.515625 -1.375q-0.5 -0.484375 -1.4375 -0.484375l-3.625 0l0 4.703125zm12.854248 7.15625q-0.96875 0 -1.765625 -0.34375q-0.796875 -0.359375 -1.375 -1.015625q-0.5625 -0.671875 -0.890625 -1.59375q-0.3125 -0.921875 -0.3125 -2.078125q0 -1.140625 0.3125 -2.0625q0.328125 -0.9375 0.890625 -1.59375q0.578125 -0.671875 1.375 -1.015625q0.796875 -0.359375 1.765625 -0.359375q0.96875 0 1.765625 0.359375q0.796875 0.34375 1.375 1.015625q0.578125 0.65625 0.890625 1.59375q0.328125 0.921875 0.328125 2.0625q0 1.15625 -0.328125 2.078125q-0.3125 0.921875 -0.890625 1.59375q-0.578125 0.65625 -1.375 1.015625q-0.796875 0.34375 -1.765625 0.34375zm0 -1.3125q1.21875 0 1.984375 -0.75q0.765625 -0.75 0.765625 -2.28125l0 -1.375q0 -1.53125 -0.765625 -2.28125q-0.765625 -0.75 -1.984375 -0.75q-1.203125 0 -1.96875 0.75q-0.765625 0.75 -0.765625 2.28125l0 1.375q0 1.53125 0.765625 2.28125q0.765625 0.75 1.96875 0.75zm10.44751 1.3125q-0.96875 0 -1.765625 -0.34375q-0.796875 -0.359375 -1.375 -1.015625q-0.5625 -0.671875 -0.890625 -1.59375q-0.3125 -0.921875 -0.3125 -2.078125q0 -1.140625 0.3125 -2.0625q0.328125 -0.9375 0.890625 -1.59375q0.578125 -0.671875 1.375 -1.015625q0.796875 -0.359375 1.765625 -0.359375q0.96875 0 1.765625 0.359375q0.796875 0.34375 1.375 1.015625q0.578125 0.65625 0.890625 1.59375q0.328125 0.921875 0.328125 2.0625q0 1.15625 -0.328125 2.078125q-0.3125 0.921875 -0.890625 1.59375q-0.578125 0.65625 -1.375 1.015625q-0.796875 0.34375 -1.765625 0.34375zm0 -1.3125q1.21875 0 1.984375 -0.75q0.765625 -0.75 0.765625 -2.28125l0 -1.375q0 -1.53125 -0.765625 -2.28125q-0.765625 -0.75 -1.984375 -0.75q-1.203125 0 -1.96875 0.75q-0.765625 0.75 -0.765625 2.28125l0 1.375q0 1.53125 0.765625 2.28125q0.765625 0.75 1.96875 0.75zm8.400635 1.09375q-0.78125 0 -1.1875 -0.4375q-0.40625 -0.4375 -0.40625 -1.109375l0 -12.265625l1.5 0l0 12.5l1.421875 0l0 1.3125l-1.328125 0z" fill-rule="nonzero"/><path fill="#f1f1f1" d="m687.8332 55.675903l-1.59375 0l-2.234375 -5.328125l-0.078125 0l-4.296875 5.328125l-1.75 0l5.375 -6.671875l-2.671875 -6.34375l1.59375 0l2.21875 5.34375l0.078125 0l4.296875 -5.34375l1.765625 0l-5.46875 6.609375l2.765625 6.40625z" fill-rule="nonzero"/><path fill="#20272b" d="m778.74805 169.74278l193.88977 0l0 97.511826l-193.88977 0z" fill-rule="evenodd"/><path stroke="#000000" stroke-width="1.0" stroke-linejoin="round" stroke-linecap="butt" d="m778.74805 169.74278l193.88977 0l0 97.511826l-193.88977 0z" fill-rule="evenodd"/><path fill="#f1f1f1" d="m815.9607 225.63744q-1.28125 0 -2.296875 -0.4375q-1.015625 -0.4375 -1.734375 -1.28125q-0.71875 -0.84375 -1.109375 -2.109375q-0.390625 -1.265625 -0.390625 -2.90625q0 -1.640625 0.390625 -2.890625q0.390625 -1.25 1.109375 -2.109375q0.71875 -0.859375 1.734375 -1.296875q1.015625 -0.4375 2.296875 -0.4375q1.25 0 2.265625 0.4375q1.03125 0.4375 1.75 1.296875q0.71875 0.859375 1.109375 2.109375q0.390625 1.25 0.390625 2.890625q0 1.640625 -0.390625 2.90625q-0.390625 1.265625 -1.109375 2.109375q-0.71875 0.84375 -1.75 1.28125q-1.015625 0.4375 -2.265625 0.4375zm0 -1.390625q0.828125 0 1.53125 -0.296875q0.71875 -0.296875 1.234375 -0.859375q0.515625 -0.5625 0.796875 -1.34375q0.28125 -0.78125 0.28125 -1.75l0 -2.171875q0 -0.96875 -0.28125 -1.75q-0.28125 -0.78125 -0.796875 -1.34375q-0.515625 -0.5625 -1.234375 -0.859375q-0.703125 -0.296875 -1.53125 -0.296875q-0.84375 0 -1.5625 0.296875q-0.703125 0.296875 -1.21875 0.859375q-0.5 0.5625 -0.78125 1.34375q-0.28125 0.78125 -0.28125 1.75l0 2.171875q0 0.96875 0.28125 1.75q0.28125 0.78125 0.78125 1.34375q0.515625 0.5625 1.21875 0.859375q0.71875 0.296875 1.5625 0.296875zm8.177368 1.171875l0 -9.625l1.5 0l0 1.5625l0.078125 0q0.34375 -0.8125 0.984375 -1.296875q0.65625 -0.484375 1.734375 -0.484375q1.5 0 2.359375 0.96875q0.875 0.953125 0.875 2.703125l0 6.171875l-1.5 0l0 -5.90625q0 -2.59375 -2.1875 -2.59375q-0.4375 0 -0.859375 0.109375q-0.421875 0.109375 -0.765625 0.34375q-0.328125 0.21875 -0.53125 0.5625q-0.1875 0.34375 -0.1875 0.8125l0 6.671875l-1.5 0zm14.221802 0.21875q-0.984375 0 -1.78125 -0.34375q-0.796875 -0.359375 -1.359375 -1.015625q-0.5625 -0.671875 -0.875 -1.59375q-0.3125 -0.921875 -0.3125 -2.078125q0 -1.140625 0.3125 -2.0625q0.3125 -0.9375 0.875 -1.59375q0.5625 -0.671875 1.359375 -1.015625q0.796875 -0.359375 1.78125 -0.359375q0.96875 0 1.734375 0.359375q0.765625 0.34375 1.296875 0.96875q0.546875 0.625 0.828125 1.484375q0.296875 0.859375 0.296875 1.875l0 0.71875l-6.921875 0l0 0.4375q0 0.625 0.1875 1.15625q0.203125 0.53125 0.5625 0.921875q0.375 0.390625 0.90625 0.625q0.53125 0.21875 1.203125 0.21875q0.921875 0 1.59375 -0.421875q0.6875 -0.4375 1.0625 -1.25l1.0625 0.765625q-0.46875 1.0 -1.46875 1.609375q-0.984375 0.59375 -2.34375 0.59375zm0 -8.8125q-0.609375 0 -1.125 0.21875q-0.5 0.203125 -0.859375 0.59375q-0.359375 0.390625 -0.578125 0.921875q-0.203125 0.53125 -0.203125 1.171875l0 0.125l5.328125 0l0 -0.203125q0 -1.28125 -0.703125 -2.046875q-0.703125 -0.78125 -1.859375 -0.78125zm15.567017 -3.046875l0 11.640625l-1.578125 0l0 -11.640625l-4.140625 0l0 -1.375l9.859375 0l0 1.375l-4.140625 0zm6.8745117 -0.25q-0.484375 0 -0.703125 -0.21875q-0.203125 -0.234375 -0.203125 -0.609375l0 -0.25q0 -0.375 0.203125 -0.609375q0.21875 -0.234375 0.703125 -0.234375q0.484375 0 0.703125 0.234375q0.21875 0.234375 0.21875 0.609375l0 0.25q0 0.375 -0.21875 0.609375q-0.21875 0.21875 -0.703125 0.21875zm-0.75 2.265625l1.5 0l0 9.625l-1.5 0l0 -9.625zm4.6640625 9.625l0 -9.625l1.5 0l0 1.5625l0.078125 0q0.171875 -0.375 0.375 -0.6875q0.21875 -0.328125 0.515625 -0.578125q0.3125 -0.25 0.71875 -0.375q0.421875 -0.140625 0.984375 -0.140625q0.953125 0 1.75 0.453125q0.796875 0.453125 1.1875 1.5l0.046875 0q0.265625 -0.78125 0.96875 -1.359375q0.71875 -0.59375 1.953125 -0.59375q1.484375 0 2.3125 0.96875q0.828125 0.953125 0.828125 2.703125l0 6.171875l-1.5 0l0 -5.90625q0 -1.296875 -0.5 -1.9375q-0.5 -0.65625 -1.609375 -0.65625q-0.4375 0 -0.84375 0.109375q-0.40625 0.109375 -0.71875 0.34375q-0.3125 0.21875 -0.5 0.5625q-0.1875 0.34375 -0.1875 0.8125l0 6.671875l-1.5 0l0 -5.90625q0 -1.296875 -0.5 -1.9375q-0.5 -0.65625 -1.5625 -0.65625q-0.453125 0 -0.859375 0.109375q-0.40625 0.109375 -0.734375 0.34375q-0.3125 0.21875 -0.515625 0.5625q-0.1875 0.34375 -0.1875 0.8125l0 6.671875l-1.5 0zm19.911865 0.21875q-0.984375 0 -1.78125 -0.34375q-0.796875 -0.359375 -1.359375 -1.015625q-0.5625 -0.671875 -0.875 -1.59375q-0.3125 -0.921875 -0.3125 -2.078125q0 -1.140625 0.3125 -2.0625q0.3125 -0.9375 0.875 -1.59375q0.5625 -0.671875 1.359375 -1.015625q0.796875 -0.359375 1.78125 -0.359375q0.96875 0 1.734375 0.359375q0.765625 0.34375 1.296875 0.96875q0.546875 0.625 0.828125 1.484375q0.296875 0.859375 0.296875 1.875l0 0.71875l-6.921875 0l0 0.4375q0 0.625 0.1875 1.15625q0.203125 0.53125 0.5625 0.921875q0.375 0.390625 0.90625 0.625q0.53125 0.21875 1.203125 0.21875q0.921875 0 1.59375 -0.421875q0.6875 -0.4375 1.0625 -1.25l1.0625 0.765625q-0.46875 1.0 -1.46875 1.609375q-0.984375 0.59375 -2.34375 0.59375zm0 -8.8125q-0.609375 0 -1.125 0.21875q-0.5 0.203125 -0.859375 0.59375q-0.359375 0.390625 -0.578125 0.921875q-0.203125 0.53125 -0.203125 1.171875l0 0.125l5.328125 0l0 -0.203125q0 -1.28125 -0.703125 -2.046875q-0.703125 -0.78125 -1.859375 -0.78125zm11.176453 8.59375l0 -13.015625l5.1875 0q1.75 0 2.6875 1.0q0.953125 0.984375 0.953125 2.71875q0 1.734375 -0.953125 2.734375q-0.9375 1.0 -2.6875 1.0l-3.625 0l0 5.5625l-1.5625 0zm1.5625 -6.9375l3.625 0q0.9375 0 1.4375 -0.484375q0.515625 -0.484375 0.515625 -1.390625l0 -0.96875q0 -0.890625 -0.515625 -1.375q-0.5 -0.484375 -1.4375 -0.484375l-3.625 0l0 4.703125zm16.400269 6.9375q-0.828125 0 -1.203125 -0.4375q-0.359375 -0.453125 -0.453125 -1.125l-0.09375 0q-0.3125 0.890625 -1.046875 1.34375q-0.71875 0.4375 -1.734375 0.4375q-1.53125 0 -2.375 -0.78125q-0.84375 -0.78125 -0.84375 -2.125q0 -1.359375 0.984375 -2.078125q1.0 -0.734375 3.109375 -0.734375l1.90625 0l0 -0.953125q0 -1.03125 -0.5625 -1.5625q-0.5625 -0.546875 -1.71875 -0.546875q-0.875 0 -1.46875 0.390625q-0.578125 0.390625 -0.96875 1.046875l-0.890625 -0.84375q0.390625 -0.78125 1.25 -1.328125q0.859375 -0.546875 2.15625 -0.546875q1.75 0 2.71875 0.859375q0.984375 0.84375 0.984375 2.375l0 5.296875l1.09375 0l0 1.3125l-0.84375 0zm-4.28125 -1.046875q0.546875 0 1.015625 -0.125q0.46875 -0.140625 0.796875 -0.375q0.34375 -0.25 0.53125 -0.5625q0.1875 -0.3125 0.1875 -0.6875l0 -1.59375l-1.984375 0q-1.28125 0 -1.875 0.375q-0.578125 0.375 -0.578125 1.09375l0 0.390625q0 0.703125 0.515625 1.09375q0.515625 0.390625 1.390625 0.390625zm13.415527 -0.515625l-0.078125 0q-0.875 1.78125 -2.828125 1.78125q-0.890625 0 -1.625 -0.34375q-0.71875 -0.359375 -1.234375 -1.015625q-0.515625 -0.65625 -0.78125 -1.578125q-0.265625 -0.9375 -0.265625 -2.09375q0 -1.15625 0.265625 -2.078125q0.265625 -0.9375 0.78125 -1.59375q0.515625 -0.65625 1.234375 -1.0q0.734375 -0.359375 1.625 -0.359375q1.015625 0 1.734375 0.4375q0.71875 0.4375 1.09375 1.34375l0.078125 0l0 -5.75l1.484375 0l0 13.8125l-1.484375 0l0 -1.5625zm-2.484375 0.4375q0.5 0 0.953125 -0.125q0.453125 -0.125 0.78125 -0.375q0.34375 -0.265625 0.546875 -0.625q0.203125 -0.359375 0.203125 -0.828125l0 -3.578125q0 -0.390625 -0.203125 -0.734375q-0.203125 -0.359375 -0.546875 -0.59375q-0.328125 -0.25 -0.78125 -0.375q-0.453125 -0.140625 -0.953125 -0.140625q-1.265625 0 -2.0 0.796875q-0.734375 0.78125 -0.734375 2.0625l0 1.640625q0 1.296875 0.734375 2.09375q0.734375 0.78125 2.0 0.78125z" fill-rule="nonzero"/><path fill="#f1f1f1" d="m932.6087 225.41869l-1.5 0l2.609375 -13.015625l4.640625 0q0.859375 0 1.46875 0.234375q0.625 0.21875 1.015625 0.640625q0.390625 0.421875 0.5625 1.0q0.1875 0.5625 0.1875 1.234375q0 0.75 -0.25 1.4375q-0.234375 0.6875 -0.6875 1.25q-0.4375 0.546875 -1.078125 0.9375q-0.625 0.390625 -1.40625 0.53125l1.90625 5.75l-1.625 0l-1.765625 -5.59375l-2.953125 0l-1.125 5.59375zm4.84375 -6.921875q0.921875 0 1.53125 -0.46875q0.625 -0.484375 0.8125 -1.390625q0.125 -0.640625 0.171875 -0.890625q0.046875 -0.265625 0.046875 -0.5q0 -0.671875 -0.390625 -1.078125q-0.390625 -0.421875 -1.375 -0.421875l-3.296875 0l-0.9375 4.75l3.4375 0z" fill-rule="nonzero"/><path fill="#000000" fill-opacity="0.0" d="m723.0656 218.49869l52.944885 -0.03149414" fill-rule="evenodd"/><path stroke="#000000" stroke-width="2.0" stroke-linejoin="round" stroke-linecap="butt" d="m723.0656 218.49869l40.944885 -0.024353027" fill-rule="evenodd"/><path fill="#000000" stroke="#000000" stroke-width="2.0" stroke-linecap="butt" d="m764.01245 221.7778l9.074219 -3.3088684l-9.078125 -3.2980652z" fill-rule="evenodd"/><path fill="#20272b" d="m1076.748 16.0l193.88977 0l0 97.51181l-193.88977 0z" fill-rule="evenodd"/><path stroke="#000000" stroke-width="1.0" stroke-linejoin="round" stroke-linecap="butt" d="m1076.748 16.0l193.88977 0l0 97.51181l-193.88977 0z" fill-rule="evenodd"/><path fill="#f1f1f1" d="m1134.6824 71.6759l0 -13.015625l5.1875 0q1.75 0 2.6875 1.0q0.953125 0.984375 0.953125 2.71875q0 1.734375 -0.953125 2.734375q-0.9375 1.0 -2.6875 1.0l-3.625 0l0 5.5625l-1.5625 0zm1.5625 -6.9375l3.625 0q0.9375 0 1.4375 -0.484375q0.515625 -0.484375 0.515625 -1.390625l0 -0.96875q0 -0.890625 -0.515625 -1.375q-0.5 -0.484375 -1.4375 -0.484375l-3.625 0l0 4.703125zm11.180786 6.9375q-0.78125 0 -1.1875 -0.4375q-0.40625 -0.4375 -0.40625 -1.109375l0 -12.265625l1.5 0l0 12.5l1.421875 0l0 1.3125l-1.328125 0zm10.480713 0q-0.828125 0 -1.203125 -0.4375q-0.359375 -0.453125 -0.453125 -1.125l-0.09375 0q-0.3125 0.890625 -1.046875 1.34375q-0.71875 0.4375 -1.734375 0.4375q-1.53125 0 -2.375 -0.78125q-0.84375 -0.78125 -0.84375 -2.125q0 -1.359375 0.984375 -2.078125q1.0 -0.734375 3.109375 -0.734375l1.90625 0l0 -0.953125q0 -1.03125 -0.5625 -1.5625q-0.5625 -0.546875 -1.71875 -0.546875q-0.875 0 -1.46875 0.390625q-0.578125 0.390625 -0.96875 1.046875l-0.890625 -0.84375q0.390625 -0.78125 1.25 -1.328125q0.859375 -0.546875 2.15625 -0.546875q1.75 0 2.71875 0.859375q0.984375 0.84375 0.984375 2.375l0 5.296875l1.09375 0l0 1.3125l-0.84375 0zm-4.28125 -1.046875q0.546875 0 1.015625 -0.125q0.46875 -0.140625 0.796875 -0.375q0.34375 -0.25 0.53125 -0.5625q0.1875 -0.3125 0.1875 -0.6875l0 -1.59375l-1.984375 0q-1.28125 0 -1.875 0.375q-0.578125 0.375 -0.578125 1.09375l0 0.390625q0 0.703125 0.515625 1.09375q0.515625 0.390625 1.390625 0.390625zm7.9936523 -10.84375q-0.484375 0 -0.703125 -0.21875q-0.203125 -0.234375 -0.203125 -0.609375l0 -0.25q0 -0.375 0.203125 -0.609375q0.21875 -0.234375 0.703125 -0.234375q0.484375 0 0.703125 0.234375q0.21875 0.234375 0.21875 0.609375l0 0.25q0 0.375 -0.21875 0.609375q-0.21875 0.21875 -0.703125 0.21875zm-0.75 2.265625l1.5 0l0 9.625l-1.5 0l0 -9.625zm4.6640625 9.625l0 -9.625l1.5 0l0 1.5625l0.078125 0q0.34375 -0.8125 0.984375 -1.296875q0.65625 -0.484375 1.734375 -0.484375q1.5 0 2.359375 0.96875q0.875 0.953125 0.875 2.703125l0 6.171875l-1.5 0l0 -5.90625q0 -2.59375 -2.1875 -2.59375q-0.4375 0 -0.859375 0.109375q-0.421875 0.109375 -0.765625 0.34375q-0.328125 0.21875 -0.53125 0.5625q-0.1875 0.34375 -0.1875 0.8125l0 6.671875l-1.5 0zm19.546509 -11.640625l0 11.640625l-1.578125 0l0 -11.640625l-4.140625 0l0 -1.375l9.859375 0l0 1.375l-4.140625 0zm8.536255 11.859375q-0.984375 0 -1.78125 -0.34375q-0.796875 -0.359375 -1.359375 -1.015625q-0.5625 -0.671875 -0.875 -1.59375q-0.3125 -0.921875 -0.3125 -2.078125q0 -1.140625 0.3125 -2.0625q0.3125 -0.9375 0.875 -1.59375q0.5625 -0.671875 1.359375 -1.015625q0.796875 -0.359375 1.78125 -0.359375q0.96875 0 1.734375 0.359375q0.765625 0.34375 1.296875 0.96875q0.546875 0.625 0.828125 1.484375q0.296875 0.859375 0.296875 1.875l0 0.71875l-6.921875 0l0 0.4375q0 0.625 0.1875 1.15625q0.203125 0.53125 0.5625 0.921875q0.375 0.390625 0.90625 0.625q0.53125 0.21875 1.203125 0.21875q0.921875 0 1.59375 -0.421875q0.6875 -0.4375 1.0625 -1.25l1.0625 0.765625q-0.46875 1.0 -1.46875 1.609375q-0.984375 0.59375 -2.34375 0.59375zm0 -8.8125q-0.609375 0 -1.125 0.21875q-0.5 0.203125 -0.859375 0.59375q-0.359375 0.390625 -0.578125 0.921875q-0.203125 0.53125 -0.203125 1.171875l0 0.125l5.328125 0l0 -0.203125q0 -1.28125 -0.703125 -2.046875q-0.703125 -0.78125 -1.859375 -0.78125zm5.2056885 8.59375l3.5625 -4.84375l-3.40625 -4.78125l1.75 0l2.4375 3.578125l0.0625 0l2.53125 -3.578125l1.671875 0l-3.40625 4.65625l3.46875 4.96875l-1.75 0l-2.5 -3.765625l-0.0625 0l-2.703125 3.765625l-1.65625 0zm12.786865 0q-0.796875 0 -1.203125 -0.4375q-0.390625 -0.4375 -0.390625 -1.140625l0 -6.75l-1.578125 0l0 -1.296875l0.890625 0q0.484375 0 0.65625 -0.1875q0.1875 -0.203125 0.1875 -0.6875l0 -1.796875l1.34375 0l0 2.671875l2.109375 0l0 1.296875l-2.109375 0l0 7.015625l1.953125 0l0 1.3125l-1.859375 0z" fill-rule="nonzero"/><path fill="#000000" fill-opacity="0.0" d="m626.1207 97.51181l0 72.220474" fill-rule="evenodd"/><path stroke="#000000" stroke-width="2.0" stroke-linejoin="round" stroke-linecap="butt" d="m626.1207 97.51181l0 60.220474" fill-rule="evenodd"/><path fill="#000000" stroke="#000000" stroke-width="2.0" stroke-linecap="butt" d="m622.81726 157.73228l3.3034668 9.076187l3.3034668 -9.076187z" fill-rule="evenodd"/><path fill="#000000" fill-opacity="0.0" d="m1173.6929 113.51181l0.03149414 83.52756" fill-rule="evenodd"/><path stroke="#000000" stroke-width="2.0" stroke-linejoin="round" stroke-linecap="butt" d="m1173.6929 113.51181l0.026977539 71.52756" fill-rule="evenodd"/><path fill="#000000" stroke="#000000" stroke-width="2.0" stroke-linecap="butt" d="m1170.4164 185.04062l3.3068848 9.074951l3.3000488 -9.077438z" fill-rule="evenodd"/><path fill="#20272b" d="m1076.748 287.0656l193.88977 0l0 97.51181l-193.88977 0z" fill-rule="evenodd"/><path stroke="#000000" stroke-width="1.0" stroke-linejoin="round" stroke-linecap="butt" d="m1076.748 287.0656l193.88977 0l0 97.51181l-193.88977 0z" fill-rule="evenodd"/><path fill="#f1f1f1" d="m1098.4862 342.74152l0 -1.3125l1.828125 0l0 -10.40625l-1.828125 0l0 -1.296875l5.21875 0l0 1.296875l-1.828125 0l0 10.40625l1.828125 0l0 1.3125l-5.21875 0zm7.9156494 0l0 -9.625l1.5 0l0 1.5625l0.078125 0q0.34375 -0.8125 0.984375 -1.296875q0.65625 -0.484375 1.734375 -0.484375q1.5 0 2.359375 0.96875q0.875 0.953125 0.875 2.703125l0 6.171875l-1.5 0l0 -5.90625q0 -2.59375 -2.1875 -2.59375q-0.4375 0 -0.859375 0.109375q-0.421875 0.109375 -0.765625 0.34375q-0.328125 0.21875 -0.53125 0.5625q-0.1875 0.34375 -0.1875 0.8125l0 6.671875l-1.5 0zm11.346802 -11.890625q-0.484375 0 -0.703125 -0.21875q-0.203125 -0.234375 -0.203125 -0.609375l0 -0.25q0 -0.375 0.203125 -0.609375q0.21875 -0.234375 0.703125 -0.234375q0.484375 0 0.703125 0.234375q0.21875 0.234375 0.21875 0.609375l0 0.25q0 0.375 -0.21875 0.609375q-0.21875 0.21875 -0.703125 0.21875zm-0.75 2.265625l1.5 0l0 9.625l-1.5 0l0 -9.625zm6.8046875 9.625q-0.796875 0 -1.203125 -0.4375q-0.390625 -0.4375 -0.390625 -1.140625l0 -6.75l-1.578125 0l0 -1.296875l0.890625 0q0.484375 0 0.65625 -0.1875q0.1875 -0.203125 0.1875 -0.6875l0 -1.796875l1.34375 0l0 2.671875l2.109375 0l0 1.296875l-2.109375 0l0 7.015625l1.953125 0l0 1.3125l-1.859375 0zm5.157715 -11.890625q-0.484375 0 -0.703125 -0.21875q-0.203125 -0.234375 -0.203125 -0.609375l0 -0.25q0 -0.375 0.203125 -0.609375q0.21875 -0.234375 0.703125 -0.234375q0.484375 0 0.703125 0.234375q0.21875 0.234375 0.21875 0.609375l0 0.25q0 0.375 -0.21875 0.609375q-0.21875 0.21875 -0.703125 0.21875zm-0.75 2.265625l1.5 0l0 9.625l-1.5 0l0 -9.625zm11.6640625 9.625q-0.828125 0 -1.203125 -0.4375q-0.359375 -0.453125 -0.453125 -1.125l-0.09375 0q-0.3125 0.890625 -1.046875 1.34375q-0.71875 0.4375 -1.734375 0.4375q-1.53125 0 -2.375 -0.78125q-0.84375 -0.78125 -0.84375 -2.125q0 -1.359375 0.984375 -2.078125q1.0 -0.734375 3.109375 -0.734375l1.90625 0l0 -0.953125q0 -1.03125 -0.5625 -1.5625q-0.5625 -0.546875 -1.71875 -0.546875q-0.875 0 -1.46875 0.390625q-0.578125 0.390625 -0.96875 1.046875l-0.890625 -0.84375q0.390625 -0.78125 1.25 -1.328125q0.859375 -0.546875 2.15625 -0.546875q1.75 0 2.71875 0.859375q0.984375 0.84375 0.984375 2.375l0 5.296875l1.09375 0l0 1.3125l-0.84375 0zm-4.28125 -1.046875q0.546875 0 1.015625 -0.125q0.46875 -0.140625 0.796875 -0.375q0.34375 -0.25 0.53125 -0.5625q0.1875 -0.3125 0.1875 -0.6875l0 -1.59375l-1.984375 0q-1.28125 0 -1.875 0.375q-0.578125 0.375 -0.578125 1.09375l0 0.390625q0 0.703125 0.515625 1.09375q0.515625 0.390625 1.390625 0.390625zm8.837402 1.046875q-0.78125 0 -1.1875 -0.4375q-0.40625 -0.4375 -0.40625 -1.109375l0 -12.265625l1.5 0l0 12.5l1.421875 0l0 1.3125l-1.328125 0zm12.633667 0.21875q-2.484375 0 -3.875 -1.6875q-1.375 -1.6875 -1.375 -4.96875q0 -3.28125 1.375 -5.046875q1.390625 -1.765625 3.875 -1.765625q1.640625 0 2.75 0.75q1.109375 0.75 1.71875 2.109375l-1.265625 0.765625q-0.390625 -1.015625 -1.203125 -1.609375q-0.796875 -0.609375 -2.0 -0.609375q-0.84375 0 -1.515625 0.3125q-0.65625 0.3125 -1.109375 0.90625q-0.453125 0.59375 -0.703125 1.40625q-0.234375 0.8125 -0.234375 1.8125l0 1.9375q0 2.015625 0.921875 3.15625q0.9375 1.140625 2.640625 1.140625q1.25 0 2.078125 -0.640625q0.84375 -0.65625 1.234375 -1.71875l1.25 0.78125q-0.609375 1.390625 -1.765625 2.1875q-1.15625 0.78125 -2.796875 0.78125zm12.773071 -9.84375l1.484375 0l-4.3125 11.859375q-0.171875 0.4375 -0.34375 0.71875q-0.171875 0.296875 -0.421875 0.453125q-0.234375 0.171875 -0.59375 0.25q-0.359375 0.078125 -0.890625 0.078125l-0.765625 0l0 -1.3125l1.515625 0l0.734375 -2.046875l-3.609375 -10.0l1.5 0l2.3125 6.546875l0.453125 1.5625l0.09375 0l0.515625 -1.5625l2.328125 -6.546875zm3.3719482 0l1.5 0l0 1.5625l0.078125 0q0.375 -0.90625 1.09375 -1.34375q0.71875 -0.4375 1.71875 -0.4375q0.890625 0 1.625 0.359375q0.734375 0.34375 1.234375 1.0q0.515625 0.65625 0.78125 1.59375q0.28125 0.921875 0.28125 2.078125q0 1.15625 -0.28125 2.09375q-0.265625 0.921875 -0.78125 1.578125q-0.5 0.65625 -1.234375 1.015625q-0.734375 0.34375 -1.625 0.34375q-1.953125 0 -2.8125 -1.78125l-0.078125 0l0 5.296875l-1.5 0l0 -13.359375zm3.984375 8.5q1.265625 0 1.984375 -0.78125q0.734375 -0.796875 0.734375 -2.09375l0 -1.640625q0 -1.28125 -0.734375 -2.0625q-0.71875 -0.796875 -1.984375 -0.796875q-0.5 0 -0.96875 0.140625q-0.453125 0.125 -0.796875 0.375q-0.328125 0.234375 -0.53125 0.59375q-0.1875 0.34375 -0.1875 0.734375l0 3.578125q0 0.46875 0.1875 0.828125q0.203125 0.359375 0.53125 0.625q0.34375 0.25 0.796875 0.375q0.46875 0.125 0.96875 0.125zm6.8361816 -12.6875l1.5 0l0 5.75l0.078125 0q0.34375 -0.8125 0.984375 -1.296875q0.65625 -0.484375 1.734375 -0.484375q1.5 0 2.359375 0.96875q0.875 0.953125 0.875 2.703125l0 6.171875l-1.5 0l0 -5.90625q0 -2.59375 -2.1875 -2.59375q-0.4375 0 -0.859375 0.109375q-0.421875 0.109375 -0.765625 0.34375q-0.328125 0.21875 -0.53125 0.5625q-0.1875 0.34375 -0.1875 0.8125l0 6.671875l-1.5 0l0 -13.8125zm14.221802 14.03125q-0.984375 0 -1.78125 -0.34375q-0.796875 -0.359375 -1.359375 -1.015625q-0.5625 -0.671875 -0.875 -1.59375q-0.3125 -0.921875 -0.3125 -2.078125q0 -1.140625 0.3125 -2.0625q0.3125 -0.9375 0.875 -1.59375q0.5625 -0.671875 1.359375 -1.015625q0.796875 -0.359375 1.78125 -0.359375q0.96875 0 1.734375 0.359375q0.765625 0.34375 1.296875 0.96875q0.546875 0.625 0.828125 1.484375q0.296875 0.859375 0.296875 1.875l0 0.71875l-6.921875 0l0 0.4375q0 0.625 0.1875 1.15625q0.203125 0.53125 0.5625 0.921875q0.375 0.390625 0.90625 0.625q0.53125 0.21875 1.203125 0.21875q0.921875 0 1.59375 -0.421875q0.6875 -0.4375 1.0625 -1.25l1.0625 0.765625q-0.46875 1.0 -1.46875 1.609375q-0.984375 0.59375 -2.34375 0.59375zm0 -8.8125q-0.609375 0 -1.125 0.21875q-0.5 0.203125 -0.859375 0.59375q-0.359375 0.390625 -0.578125 0.921875q-0.203125 0.53125 -0.203125 1.171875l0 0.125l5.328125 0l0 -0.203125q0 -1.28125 -0.703125 -2.046875q-0.703125 -0.78125 -1.859375 -0.78125zm6.6173096 8.59375l0 -9.625l1.5 0l0 1.765625l0.09375 0q0.265625 -0.6875 0.9375 -1.21875q0.671875 -0.546875 1.84375 -0.546875l0.578125 0l0 1.484375l-0.875 0q-1.21875 0 -1.90625 0.46875q-0.671875 0.453125 -0.671875 1.140625l0 6.53125l-1.5 0zm15.796509 -11.640625l0 11.640625l-1.578125 0l0 -11.640625l-4.140625 0l0 -1.375l9.859375 0l0 1.375l-4.140625 0zm8.536255 11.859375q-0.984375 0 -1.78125 -0.34375q-0.796875 -0.359375 -1.359375 -1.015625q-0.5625 -0.671875 -0.875 -1.59375q-0.3125 -0.921875 -0.3125 -2.078125q0 -1.140625 0.3125 -2.0625q0.3125 -0.9375 0.875 -1.59375q0.5625 -0.671875 1.359375 -1.015625q0.796875 -0.359375 1.78125 -0.359375q0.96875 0 1.734375 0.359375q0.765625 0.34375 1.296875 0.96875q0.546875 0.625 0.828125 1.484375q0.296875 0.859375 0.296875 1.875l0 0.71875l-6.921875 0l0 0.4375q0 0.625 0.1875 1.15625q0.203125 0.53125 0.5625 0.921875q0.375 0.390625 0.90625 0.625q0.53125 0.21875 1.203125 0.21875q0.921875 0 1.59375 -0.421875q0.6875 -0.4375 1.0625 -1.25l1.0625 0.765625q-0.46875 1.0 -1.46875 1.609375q-0.984375 0.59375 -2.34375 0.59375zm0 -8.8125q-0.609375 0 -1.125 0.21875q-0.5 0.203125 -0.859375 0.59375q-0.359375 0.390625 -0.578125 0.921875q-0.203125 0.53125 -0.203125 1.171875l0 0.125l5.328125 0l0 -0.203125q0 -1.28125 -0.703125 -2.046875q-0.703125 -0.78125 -1.859375 -0.78125zm5.2056885 8.59375l3.5625 -4.84375l-3.40625 -4.78125l1.75 0l2.4375 3.578125l0.0625 0l2.53125 -3.578125l1.671875 0l-3.40625 4.65625l3.46875 4.96875l-1.75 0l-2.5 -3.765625l-0.0625 0l-2.703125 3.765625l-1.65625 0zm12.786865 0q-0.796875 0 -1.203125 -0.4375q-0.390625 -0.4375 -0.390625 -1.140625l0 -6.75l-1.578125 0l0 -1.296875l0.890625 0q0.484375 0 0.65625 -0.1875q0.1875 -0.203125 0.1875 -0.6875l0 -1.796875l1.34375 0l0 2.671875l2.109375 0l0 1.296875l-2.109375 0l0 7.015625l1.953125 0l0 1.3125l-1.859375 0z" fill-rule="nonzero"/><path fill="#000000" fill-opacity="0.0" d="m1173.7244 239.91864l-0.03149414 47.149597" fill-rule="evenodd"/><path stroke="#000000" stroke-width="2.0" stroke-linejoin="round" stroke-linecap="butt" d="m1173.7244 239.91864l-0.0234375 35.149597" fill-rule="evenodd"/><path fill="#000000" stroke="#000000" stroke-width="2.0" stroke-linecap="butt" d="m1170.3975 275.06604l3.2973633 9.0784l3.3095703 -9.073975z" fill-rule="evenodd"/><path fill="#20272b" d="m778.7467 471.0105l193.88977 0l0 97.51184l-193.88977 0z" fill-rule="evenodd"/><path stroke="#000000" stroke-width="1.0" stroke-linejoin="round" stroke-linecap="butt" d="m778.7467 471.0105l193.88977 0l0 97.51184l-193.88977 0z" fill-rule="evenodd"/><path fill="#f1f1f1" d="m835.8167 526.6864l-1.3125 -3.84375l-5.25 0l-1.3125 3.84375l-1.59375 0l4.5625 -13.015625l2.0 0l4.546875 13.015625l-1.640625 0zm-3.90625 -11.5625l-0.09375 0l-2.203125 6.34375l4.5 0l-2.203125 -6.34375zm7.708679 11.5625l0 -13.015625l7.953125 0l0 1.375l-6.390625 0l0 4.359375l6.015625 0l0 1.390625l-6.015625 0l0 4.515625l6.390625 0l0 1.375l-7.953125 0zm14.532837 0.21875q-1.578125 0 -2.703125 -0.59375q-1.125 -0.609375 -1.90625 -1.671875l1.15625 -0.96875q0.6875 0.90625 1.53125 1.390625q0.84375 0.46875 1.984375 0.46875q1.390625 0 2.125 -0.671875q0.75 -0.671875 0.75 -1.796875q0 -0.921875 -0.5625 -1.421875q-0.5625 -0.515625 -1.859375 -0.8125l-1.0625 -0.234375q-1.78125 -0.421875 -2.734375 -1.25q-0.9375 -0.828125 -0.9375 -2.34375q0 -0.859375 0.3125 -1.53125q0.328125 -0.671875 0.890625 -1.109375q0.578125 -0.453125 1.359375 -0.6875q0.796875 -0.234375 1.75 -0.234375q1.46875 0 2.515625 0.546875q1.0625 0.546875 1.796875 1.578125l-1.171875 0.859375q-0.546875 -0.734375 -1.3125 -1.15625q-0.765625 -0.4375 -1.90625 -0.4375q-1.25 0 -1.96875 0.53125q-0.71875 0.53125 -0.71875 1.59375q0 0.921875 0.609375 1.40625q0.609375 0.46875 1.84375 0.75l1.0625 0.25q1.921875 0.421875 2.78125 1.296875q0.859375 0.875 0.859375 2.34375q0 0.890625 -0.3125 1.625q-0.3125 0.71875 -0.890625 1.234375q-0.578125 0.5 -1.40625 0.78125q-0.828125 0.265625 -1.875 0.265625zm11.585876 -13.234375l4.359375 0q1.21875 0 2.203125 0.40625q1.0 0.40625 1.6875 1.21875q0.703125 0.8125 1.078125 2.03125q0.375 1.21875 0.375 2.84375q0 1.625 -0.375 2.859375q-0.375 1.21875 -1.078125 2.03125q-0.6875 0.796875 -1.6875 1.21875q-0.984375 0.40625 -2.203125 0.40625l-4.359375 0l0 -13.015625zm4.359375 11.640625q0.8125 0 1.484375 -0.265625q0.671875 -0.28125 1.15625 -0.796875q0.484375 -0.53125 0.75 -1.28125q0.265625 -0.765625 0.265625 -1.734375l0 -2.125q0 -0.96875 -0.265625 -1.71875q-0.265625 -0.765625 -0.75 -1.28125q-0.484375 -0.515625 -1.15625 -0.78125q-0.671875 -0.28125 -1.484375 -0.28125l-2.796875 0l0 10.265625l2.796875 0zm15.002747 1.375q-0.828125 0 -1.203125 -0.4375q-0.359375 -0.453125 -0.453125 -1.125l-0.09375 0q-0.3125 0.890625 -1.046875 1.34375q-0.71875 0.4375 -1.734375 0.4375q-1.53125 0 -2.375 -0.78125q-0.84375 -0.78125 -0.84375 -2.125q0 -1.359375 0.984375 -2.078125q1.0 -0.734375 3.109375 -0.734375l1.90625 0l0 -0.953125q0 -1.03125 -0.5625 -1.5625q-0.5625 -0.546875 -1.71875 -0.546875q-0.875 0 -1.46875 0.390625q-0.578125 0.390625 -0.96875 1.046875l-0.890625 -0.84375q0.390625 -0.78125 1.25 -1.328125q0.859375 -0.546875 2.15625 -0.546875q1.75 0 2.71875 0.859375q0.984375 0.84375 0.984375 2.375l0 5.296875l1.09375 0l0 1.3125l-0.84375 0zm-4.28125 -1.046875q0.546875 0 1.015625 -0.125q0.46875 -0.140625 0.796875 -0.375q0.34375 -0.25 0.53125 -0.5625q0.1875 -0.3125 0.1875 -0.6875l0 -1.59375l-1.984375 0q-1.28125 0 -1.875 0.375q-0.578125 0.375 -0.578125 1.09375l0 0.390625q0 0.703125 0.515625 1.09375q0.515625 0.390625 1.390625 0.390625zm9.384277 1.046875q-0.796875 0 -1.203125 -0.4375q-0.390625 -0.4375 -0.390625 -1.140625l0 -6.75l-1.578125 0l0 -1.296875l0.890625 0q0.484375 0 0.65625 -0.1875q0.1875 -0.203125 0.1875 -0.6875l0 -1.796875l1.34375 0l0 2.671875l2.109375 0l0 1.296875l-2.109375 0l0 7.015625l1.953125 0l0 1.3125l-1.859375 0zm11.407715 0q-0.828125 0 -1.203125 -0.4375q-0.359375 -0.453125 -0.453125 -1.125l-0.09375 0q-0.3125 0.890625 -1.046875 1.34375q-0.71875 0.4375 -1.734375 0.4375q-1.53125 0 -2.375 -0.78125q-0.84375 -0.78125 -0.84375 -2.125q0 -1.359375 0.984375 -2.078125q1.0 -0.734375 3.109375 -0.734375l1.90625 0l0 -0.953125q0 -1.03125 -0.5625 -1.5625q-0.5625 -0.546875 -1.71875 -0.546875q-0.875 0 -1.46875 0.390625q-0.578125 0.390625 -0.96875 1.046875l-0.890625 -0.84375q0.390625 -0.78125 1.25 -1.328125q0.859375 -0.546875 2.15625 -0.546875q1.75 0 2.71875 0.859375q0.984375 0.84375 0.984375 2.375l0 5.296875l1.09375 0l0 1.3125l-0.84375 0zm-4.28125 -1.046875q0.546875 0 1.015625 -0.125q0.46875 -0.140625 0.796875 -0.375q0.34375 -0.25 0.53125 -0.5625q0.1875 -0.3125 0.1875 -0.6875l0 -1.59375l-1.984375 0q-1.28125 0 -1.875 0.375q-0.578125 0.375 -0.578125 1.09375l0 0.390625q0 0.703125 0.515625 1.09375q0.515625 0.390625 1.390625 0.390625z" fill-rule="nonzero"/><path fill="#f1f1f1" d="m912.8042 520.28015l-2.328125 2.1875l-0.84375 4.21875l-1.5 0l2.609375 -13.015625l1.5 0l-1.3125 6.640625l0.09375 0l2.21875 -2.15625l4.640625 -4.484375l1.921875 0l-5.84375 5.640625l3.6875 7.375l-1.65625 0l-3.1875 -6.40625zm8.473999 6.515625q-1.0625 0 -1.65625 -0.65625q-0.578125 -0.671875 -0.578125 -1.859375q0 -0.890625 0.21875 -1.71875q0.21875 -0.84375 0.640625 -1.46875q0.421875 -0.640625 1.046875 -1.015625q0.625 -0.390625 1.421875 -0.390625q1.078125 0 1.65625 0.671875q0.59375 0.65625 0.59375 1.84375q0 0.90625 -0.234375 1.734375q-0.21875 0.828125 -0.640625 1.46875q-0.421875 0.625 -1.046875 1.015625q-0.625 0.375 -1.421875 0.375zm0.09375 -0.9375q0.703125 0 1.125 -0.5q0.4375 -0.515625 0.609375 -1.375l0.296875 -1.5q0.046875 -0.140625 0.0625 -0.296875q0.015625 -0.171875 0.015625 -0.3125q0 -1.25 -1.203125 -1.25q-0.703125 0 -1.140625 0.515625q-0.421875 0.515625 -0.59375 1.375l-0.296875 1.484375q-0.03125 0.15625 -0.046875 0.3125q-0.015625 0.15625 -0.015625 0.296875q0 1.25 1.1875 1.25z" fill-rule="nonzero"/><path fill="#000000" fill-opacity="0.0" d="m778.7533 519.7664l-305.25986 0" fill-rule="evenodd"/><path stroke="#000000" stroke-width="2.0" stroke-linejoin="round" stroke-linecap="butt" d="m778.7533 519.7664l-293.25986 0" fill-rule="evenodd"/><path fill="#000000" stroke="#000000" stroke-width="2.0" stroke-linecap="butt" d="m485.49344 516.46295l-9.076202 3.3034668l9.076202 3.3034668z" fill-rule="evenodd"/><path fill="#20272b" d="m1076.748 471.0105l193.88977 0l0 97.51184l-193.88977 0z" fill-rule="evenodd"/><path stroke="#000000" stroke-width="1.0" stroke-linejoin="round" stroke-linecap="butt" d="m1076.748 471.0105l193.88977 0l0 97.51184l-193.88977 0z" fill-rule="evenodd"/><path fill="#f1f1f1" d="m1125.4506 515.6864l-1.3125 -3.84375l-5.25 0l-1.3125 3.84375l-1.59375 0l4.5625 -13.015625l2.0 0l4.546875 13.015625l-1.640625 0zm-3.90625 -11.5625l-0.09375 0l-2.203125 6.34375l4.5 0l-2.203125 -6.34375zm7.70874 11.5625l0 -13.015625l7.953125 0l0 1.375l-6.390625 0l0 4.359375l6.015625 0l0 1.390625l-6.015625 0l0 4.515625l6.390625 0l0 1.375l-7.953125 0zm14.532837 0.21875q-1.578125 0 -2.703125 -0.59375q-1.125 -0.609375 -1.90625 -1.671875l1.15625 -0.96875q0.6875 0.90625 1.53125 1.390625q0.84375 0.46875 1.984375 0.46875q1.390625 0 2.125 -0.671875q0.75 -0.671875 0.75 -1.796875q0 -0.921875 -0.5625 -1.421875q-0.5625 -0.515625 -1.859375 -0.8125l-1.0625 -0.234375q-1.78125 -0.421875 -2.734375 -1.25q-0.9375 -0.828125 -0.9375 -2.34375q0 -0.859375 0.3125 -1.53125q0.328125 -0.671875 0.890625 -1.109375q0.578125 -0.453125 1.359375 -0.6875q0.796875 -0.234375 1.75 -0.234375q1.46875 0 2.515625 0.546875q1.0625 0.546875 1.796875 1.578125l-1.171875 0.859375q-0.546875 -0.734375 -1.3125 -1.15625q-0.765625 -0.4375 -1.90625 -0.4375q-1.25 0 -1.96875 0.53125q-0.71875 0.53125 -0.71875 1.59375q0 0.921875 0.609375 1.40625q0.609375 0.46875 1.84375 0.75l1.0625 0.25q1.921875 0.421875 2.78125 1.296875q0.859375 0.875 0.859375 2.34375q0 0.890625 -0.3125 1.625q-0.3125 0.71875 -0.890625 1.234375q-0.578125 0.5 -1.40625 0.78125q-0.828125 0.265625 -1.875 0.265625zm6.916504 -5.09375l0 -1.59375l4.875 0l0 1.59375l-4.875 0zm16.100098 4.875l-8.53125 0l0 -1.609375l4.25 -3.90625q0.90625 -0.84375 1.515625 -1.78125q0.625 -0.953125 0.625 -1.90625l0 -0.21875q0 -1.078125 -0.59375 -1.75q-0.59375 -0.671875 -1.8125 -0.671875q-0.59375 0 -1.046875 0.171875q-0.4375 0.15625 -0.765625 0.46875q-0.328125 0.296875 -0.546875 0.703125q-0.21875 0.390625 -0.34375 0.859375l-1.40625 -0.546875q0.1875 -0.578125 0.515625 -1.125q0.328125 -0.546875 0.8125 -0.96875q0.5 -0.4375 1.203125 -0.703125q0.703125 -0.265625 1.65625 -0.265625q0.953125 0 1.6875 0.28125q0.75 0.28125 1.25 0.796875q0.515625 0.5 0.78125 1.1875q0.265625 0.6875 0.265625 1.53125q0 0.765625 -0.21875 1.421875q-0.203125 0.640625 -0.578125 1.234375q-0.375 0.578125 -0.90625 1.140625q-0.53125 0.5625 -1.140625 1.125l-3.515625 3.15625l6.84375 0l0 1.375zm10.553101 -11.640625l-5.71875 0l-0.375 4.96875l0.140625 0q0.46875 -0.65625 1.046875 -1.046875q0.59375 -0.390625 1.609375 -0.390625q0.84375 0 1.546875 0.28125q0.71875 0.265625 1.234375 0.78125q0.53125 0.515625 0.8125 1.265625q0.296875 0.75 0.296875 1.703125q0 0.9375 -0.296875 1.734375q-0.296875 0.796875 -0.875 1.375q-0.5625 0.5625 -1.375 0.875q-0.8125 0.3125 -1.84375 0.3125q-0.8125 0 -1.4375 -0.1875q-0.625 -0.1875 -1.109375 -0.5q-0.484375 -0.3125 -0.859375 -0.703125q-0.359375 -0.390625 -0.65625 -0.828125l1.171875 -0.890625q0.25 0.390625 0.515625 0.71875q0.265625 0.3125 0.59375 0.53125q0.328125 0.21875 0.75 0.34375q0.4375 0.125 1.03125 0.125q1.34375 0 2.03125 -0.703125q0.703125 -0.71875 0.703125 -2.0l0 -0.1875q0 -1.296875 -0.703125 -2.0q-0.6875 -0.703125 -2.03125 -0.703125q-0.890625 0 -1.40625 0.328125q-0.515625 0.3125 -0.921875 0.765625l-1.328125 -0.1875l0.46875 -7.15625l6.984375 0l0 1.375zm7.5063477 11.859375q-1.0 0 -1.8125 -0.34375q-0.8125 -0.34375 -1.390625 -0.984375q-0.5625 -0.640625 -0.859375 -1.578125q-0.296875 -0.9375 -0.296875 -2.09375q0 -1.453125 0.421875 -2.71875q0.4375 -1.28125 1.109375 -2.328125q0.6875 -1.0625 1.5 -1.875q0.828125 -0.8125 1.609375 -1.3125l2.015625 0q-1.046875 0.765625 -1.875 1.5q-0.8125 0.71875 -1.421875 1.515625q-0.609375 0.78125 -1.046875 1.6875q-0.421875 0.90625 -0.6875 2.046875l0.09375 0.03125q0.46875 -0.796875 1.203125 -1.328125q0.734375 -0.53125 1.921875 -0.53125q0.84375 0 1.546875 0.28125q0.71875 0.28125 1.21875 0.796875q0.5 0.515625 0.78125 1.265625q0.296875 0.75 0.296875 1.671875q0 0.9375 -0.3125 1.734375q-0.296875 0.796875 -0.875 1.375q-0.5625 0.5625 -1.375 0.875q-0.796875 0.3125 -1.765625 0.3125zm-0.015625 -1.359375q1.296875 0 2.015625 -0.703125q0.71875 -0.71875 0.71875 -2.03125l0 -0.15625q0 -1.328125 -0.71875 -2.03125q-0.71875 -0.703125 -2.015625 -0.703125q-1.28125 0 -2.0 0.703125q-0.71875 0.703125 -0.71875 2.03125l0 0.15625q0 1.3125 0.71875 2.03125q0.71875 0.703125 2.0 0.703125zm16.612183 1.359375q-1.28125 0 -2.296875 -0.4375q-1.015625 -0.4375 -1.734375 -1.28125q-0.71875 -0.84375 -1.109375 -2.109375q-0.390625 -1.265625 -0.390625 -2.90625q0 -1.640625 0.390625 -2.890625q0.390625 -1.25 1.109375 -2.109375q0.71875 -0.859375 1.734375 -1.296875q1.015625 -0.4375 2.296875 -0.4375q1.25 0 2.265625 0.4375q1.03125 0.4375 1.75 1.296875q0.71875 0.859375 1.109375 2.109375q0.390625 1.25 0.390625 2.890625q0 1.640625 -0.390625 2.90625q-0.390625 1.265625 -1.109375 2.109375q-0.71875 0.84375 -1.75 1.28125q-1.015625 0.4375 -2.265625 0.4375zm0 -1.390625q0.828125 0 1.53125 -0.296875q0.71875 -0.296875 1.234375 -0.859375q0.515625 -0.5625 0.796875 -1.34375q0.28125 -0.78125 0.28125 -1.75l0 -2.171875q0 -0.96875 -0.28125 -1.75q-0.28125 -0.78125 -0.796875 -1.34375q-0.515625 -0.5625 -1.234375 -0.859375q-0.703125 -0.296875 -1.53125 -0.296875q-0.84375 0 -1.5625 0.296875q-0.703125 0.296875 -1.21875 0.859375q-0.5 0.5625 -0.78125 1.34375q-0.28125 0.78125 -0.28125 1.75l0 2.171875q0 0.96875 0.28125 1.75q0.28125 0.78125 0.78125 1.34375q0.515625 0.5625 1.21875 0.859375q0.71875 0.296875 1.5625 0.296875zm12.927368 1.390625q-2.484375 0 -3.875 -1.6875q-1.375 -1.6875 -1.375 -4.96875q0 -3.28125 1.375 -5.046875q1.390625 -1.765625 3.875 -1.765625q1.640625 0 2.75 0.75q1.109375 0.75 1.71875 2.109375l-1.265625 0.765625q-0.390625 -1.015625 -1.203125 -1.609375q-0.796875 -0.609375 -2.0 -0.609375q-0.84375 0 -1.515625 0.3125q-0.65625 0.3125 -1.109375 0.90625q-0.453125 0.59375 -0.703125 1.40625q-0.234375 0.8125 -0.234375 1.8125l0 1.9375q0 2.015625 0.921875 3.15625q0.9375 1.140625 2.640625 1.140625q1.25 0 2.078125 -0.640625q0.84375 -0.65625 1.234375 -1.71875l1.25 0.78125q-0.609375 1.390625 -1.765625 2.1875q-1.15625 0.78125 -2.796875 0.78125zm6.9918213 -13.234375l5.359375 0q1.625 0 2.546875 0.921875q0.921875 0.90625 0.921875 2.4375q0 0.71875 -0.203125 1.234375q-0.203125 0.5 -0.53125 0.828125q-0.3125 0.3125 -0.6875 0.484375q-0.375 0.15625 -0.6875 0.203125l0 0.109375q0.359375 0.03125 0.796875 0.203125q0.4375 0.15625 0.828125 0.53125q0.390625 0.359375 0.65625 0.921875q0.265625 0.5625 0.265625 1.375q0 0.796875 -0.25 1.5q-0.25 0.6875 -0.703125 1.1875q-0.4375 0.5 -1.0625 0.796875q-0.609375 0.28125 -1.328125 0.28125l-5.921875 0l0 -13.015625zm1.5625 11.640625l3.859375 0q1.015625 0 1.59375 -0.515625q0.578125 -0.515625 0.578125 -1.5l0 -0.640625q0 -0.984375 -0.578125 -1.5q-0.578125 -0.515625 -1.59375 -0.515625l-3.859375 0l0 4.671875zm0 -6.015625l3.609375 0q0.921875 0 1.4375 -0.46875q0.53125 -0.46875 0.53125 -1.34375l0 -0.625q0 -0.875 -0.53125 -1.34375q-0.515625 -0.46875 -1.4375 -0.46875l-3.609375 0l0 4.25z" fill-rule="nonzero"/><path fill="#f1f1f1" d="m1162.2539 526.71765l-0.09375 0l-1.109375 2.1875l-3.109375 5.671875l-3.125 -5.671875l-1.09375 -2.1875l-0.09375 0l0 10.96875l-1.53125 0l0 -13.015625l2.09375 0l3.734375 7.015625l0.09375 0l3.75 -7.015625l2.0 0l0 13.015625l-1.515625 0l0 -10.96875zm8.476929 11.1875q-0.96875 0 -1.765625 -0.34375q-0.796875 -0.359375 -1.375 -1.015625q-0.5625 -0.671875 -0.890625 -1.59375q-0.3125 -0.921875 -0.3125 -2.078125q0 -1.140625 0.3125 -2.0625q0.328125 -0.9375 0.890625 -1.59375q0.578125 -0.671875 1.375 -1.015625q0.796875 -0.359375 1.765625 -0.359375q0.96875 0 1.765625 0.359375q0.796875 0.34375 1.375 1.015625q0.578125 0.65625 0.890625 1.59375q0.328125 0.921875 0.328125 2.0625q0 1.15625 -0.328125 2.078125q-0.3125 0.921875 -0.890625 1.59375q-0.578125 0.65625 -1.375 1.015625q-0.796875 0.34375 -1.765625 0.34375zm0 -1.3125q1.21875 0 1.984375 -0.75q0.765625 -0.75 0.765625 -2.28125l0 -1.375q0 -1.53125 -0.765625 -2.28125q-0.765625 -0.75 -1.984375 -0.75q-1.203125 0 -1.96875 0.75q-0.765625 0.75 -0.765625 2.28125l0 1.375q0 1.53125 0.765625 2.28125q0.765625 0.75 1.96875 0.75zm12.97876 -0.46875l-0.078125 0q-0.875 1.78125 -2.828125 1.78125q-0.890625 0 -1.625 -0.34375q-0.71875 -0.359375 -1.234375 -1.015625q-0.515625 -0.65625 -0.78125 -1.578125q-0.265625 -0.9375 -0.265625 -2.09375q0 -1.15625 0.265625 -2.078125q0.265625 -0.9375 0.78125 -1.59375q0.515625 -0.65625 1.234375 -1.0q0.734375 -0.359375 1.625 -0.359375q1.015625 0 1.734375 0.4375q0.71875 0.4375 1.09375 1.34375l0.078125 0l0 -5.75l1.484375 0l0 13.8125l-1.484375 0l0 -1.5625zm-2.484375 0.4375q0.5 0 0.953125 -0.125q0.453125 -0.125 0.78125 -0.375q0.34375 -0.265625 0.546875 -0.625q0.203125 -0.359375 0.203125 -0.828125l0 -3.578125q0 -0.390625 -0.203125 -0.734375q-0.203125 -0.359375 -0.546875 -0.59375q-0.328125 -0.25 -0.78125 -0.375q-0.453125 -0.140625 -0.953125 -0.140625q-1.265625 0 -2.0 0.796875q-0.734375 0.78125 -0.734375 2.0625l0 1.640625q0 1.296875 0.734375 2.09375q0.734375 0.78125 2.0 0.78125zm10.758179 1.34375q-0.984375 0 -1.78125 -0.34375q-0.796875 -0.359375 -1.359375 -1.015625q-0.5625 -0.671875 -0.875 -1.59375q-0.3125 -0.921875 -0.3125 -2.078125q0 -1.140625 0.3125 -2.0625q0.3125 -0.9375 0.875 -1.59375q0.5625 -0.671875 1.359375 -1.015625q0.796875 -0.359375 1.78125 -0.359375q0.96875 0 1.734375 0.359375q0.765625 0.34375 1.296875 0.96875q0.546875 0.625 0.828125 1.484375q0.296875 0.859375 0.296875 1.875l0 0.71875l-6.921875 0l0 0.4375q0 0.625 0.1875 1.15625q0.203125 0.53125 0.5625 0.921875q0.375 0.390625 0.90625 0.625q0.53125 0.21875 1.203125 0.21875q0.921875 0 1.59375 -0.421875q0.6875 -0.4375 1.0625 -1.25l1.0625 0.765625q-0.46875 1.0 -1.46875 1.609375q-0.984375 0.59375 -2.34375 0.59375zm0 -8.8125q-0.609375 0 -1.125 0.21875q-0.5 0.203125 -0.859375 0.59375q-0.359375 0.390625 -0.578125 0.921875q-0.203125 0.53125 -0.203125 1.171875l0 0.125l5.328125 0l0 -0.203125q0 -1.28125 -0.703125 -2.046875q-0.703125 -0.78125 -1.859375 -0.78125z" fill-rule="nonzero"/><path fill="#000000" fill-opacity="0.0" d="m1173.6929 384.57742l0 86.4252" fill-rule="evenodd"/><path stroke="#000000" stroke-width="2.0" stroke-linejoin="round" stroke-linecap="butt" d="m1173.6929 384.57742l0 74.4252" fill-rule="evenodd"/><path fill="#000000" stroke="#000000" stroke-width="2.0" stroke-linecap="butt" d="m1170.3894 459.00262l3.3034668 9.076202l3.3034668 -9.076202z" fill-rule="evenodd"/><path fill="#000000" fill-opacity="0.0" d="m972.6365 519.7664l104.12598 0" fill-rule="evenodd"/><path stroke="#000000" stroke-width="2.0" stroke-linejoin="round" stroke-linecap="butt" d="m972.6365 519.7664l92.12598 0" fill-rule="evenodd"/><path fill="#000000" stroke="#000000" stroke-width="2.0" stroke-linecap="butt" d="m1064.7625 523.0699l9.076172 -3.3034668l-9.076172 -3.3034668z" fill-rule="evenodd"/><path fill="#ff8500" d="m279.60367 651.0105l193.88977 0l0 97.51184l-193.88977 0z" fill-rule="evenodd"/><path stroke="#20272b" stroke-width="1.0" stroke-linejoin="round" stroke-linecap="butt" d="m279.60367 651.0105l193.88977 0l0 97.51184l-193.88977 0z" fill-rule="evenodd"/><path fill="#000000" d="m306.8451 706.6864l0 -13.015625l7.953125 0l0 1.375l-6.390625 0l0 4.359375l6.015625 0l0 1.390625l-6.015625 0l0 4.515625l6.390625 0l0 1.375l-7.953125 0zm10.720367 0l0 -9.625l1.5 0l0 1.5625l0.078125 0q0.34375 -0.8125 0.984375 -1.296875q0.65625 -0.484375 1.734375 -0.484375q1.5 0 2.359375 0.96875q0.875 0.953125 0.875 2.703125l0 6.171875l-1.5 0l0 -5.90625q0 -2.59375 -2.1875 -2.59375q-0.4375 0 -0.859375 0.109375q-0.421875 0.109375 -0.765625 0.34375q-0.328125 0.21875 -0.53125 0.5625q-0.1875 0.34375 -0.1875 0.8125l0 6.671875l-1.5 0zm14.190491 0.21875q-1.015625 0 -1.8125 -0.34375q-0.796875 -0.359375 -1.359375 -1.015625q-0.546875 -0.65625 -0.84375 -1.578125q-0.28125 -0.9375 -0.28125 -2.09375q0 -1.15625 0.28125 -2.078125q0.296875 -0.9375 0.84375 -1.59375q0.5625 -0.65625 1.359375 -1.0q0.796875 -0.359375 1.8125 -0.359375q1.4375 0 2.296875 0.625q0.875 0.625 1.296875 1.625l-1.25 0.640625q-0.265625 -0.75 -0.859375 -1.15625q-0.59375 -0.421875 -1.484375 -0.421875q-0.671875 0 -1.1875 0.21875q-0.5 0.21875 -0.84375 0.609375q-0.328125 0.375 -0.5 0.90625q-0.15625 0.53125 -0.15625 1.15625l0 1.640625q0 1.28125 0.671875 2.09375q0.6875 0.8125 2.015625 0.8125q1.8125 0 2.609375 -1.6875l1.078125 0.734375q-0.46875 1.046875 -1.390625 1.65625q-0.921875 0.609375 -2.296875 0.609375zm5.790344 -0.21875l0 -9.625l1.5 0l0 1.765625l0.09375 0q0.265625 -0.6875 0.9375 -1.21875q0.671875 -0.546875 1.84375 -0.546875l0.578125 0l0 1.484375l-0.875 0q-1.21875 0 -1.90625 0.46875q-0.671875 0.453125 -0.671875 1.140625l0 6.53125l-1.5 0zm12.971008 -9.625l1.484375 0l-4.3125 11.859375q-0.171875 0.4375 -0.34375 0.71875q-0.171875 0.296875 -0.421875 0.453125q-0.234375 0.171875 -0.59375 0.25q-0.359375 0.078125 -0.890625 0.078125l-0.765625 0l0 -1.3125l1.515625 0l0.734375 -2.046875l-3.609375 -10.0l1.5 0l2.3125 6.546875l0.453125 1.5625l0.09375 0l0.515625 -1.5625l2.328125 -6.546875zm3.3719788 0l1.5 0l0 1.5625l0.078125 0q0.375 -0.90625 1.09375 -1.34375q0.71875 -0.4375 1.71875 -0.4375q0.890625 0 1.625 0.359375q0.734375 0.34375 1.234375 1.0q0.515625 0.65625 0.78125 1.59375q0.28125 0.921875 0.28125 2.078125q0 1.15625 -0.28125 2.09375q-0.265625 0.921875 -0.78125 1.578125q-0.5 0.65625 -1.234375 1.015625q-0.734375 0.34375 -1.625 0.34375q-1.953125 0 -2.8125 -1.78125l-0.078125 0l0 5.296875l-1.5 0l0 -13.359375zm3.984375 8.5q1.265625 0 1.984375 -0.78125q0.734375 -0.796875 0.734375 -2.09375l0 -1.640625q0 -1.28125 -0.734375 -2.0625q-0.71875 -0.796875 -1.984375 -0.796875q-0.5 0 -0.96875 0.140625q-0.453125 0.125 -0.796875 0.375q-0.328125 0.234375 -0.53125 0.59375q-0.1875 0.34375 -0.1875 0.734375l0 3.578125q0 0.46875 0.1875 0.828125q0.203125 0.359375 0.53125 0.625q0.34375 0.25 0.796875 0.375q0.46875 0.125 0.96875 0.125zm8.864868 1.125q-0.796875 0 -1.203125 -0.4375q-0.390625 -0.4375 -0.390625 -1.140625l0 -6.75l-1.578125 0l0 -1.296875l0.890625 0q0.484375 0 0.65625 -0.1875q0.1875 -0.203125 0.1875 -0.6875l0 -1.796875l1.34375 0l0 2.671875l2.109375 0l0 1.296875l-2.109375 0l0 7.015625l1.953125 0l0 1.3125l-1.859375 0zm7.958069 0.21875q-0.984375 0 -1.78125 -0.34375q-0.796875 -0.359375 -1.359375 -1.015625q-0.5625 -0.671875 -0.875 -1.59375q-0.3125 -0.921875 -0.3125 -2.078125q0 -1.140625 0.3125 -2.0625q0.3125 -0.9375 0.875 -1.59375q0.5625 -0.671875 1.359375 -1.015625q0.796875 -0.359375 1.78125 -0.359375q0.96875 0 1.734375 0.359375q0.765625 0.34375 1.296875 0.96875q0.546875 0.625 0.828125 1.484375q0.296875 0.859375 0.296875 1.875l0 0.71875l-6.921875 0l0 0.4375q0 0.625 0.1875 1.15625q0.203125 0.53125 0.5625 0.921875q0.375 0.390625 0.90625 0.625q0.53125 0.21875 1.203125 0.21875q0.921875 0 1.59375 -0.421875q0.6875 -0.4375 1.0625 -1.25l1.0625 0.765625q-0.46875 1.0 -1.46875 1.609375q-0.984375 0.59375 -2.34375 0.59375zm0 -8.8125q-0.609375 0 -1.125 0.21875q-0.5 0.203125 -0.859375 0.59375q-0.359375 0.390625 -0.578125 0.921875q-0.203125 0.53125 -0.203125 1.171875l0 0.125l5.328125 0l0 -0.203125q0 -1.28125 -0.703125 -2.046875q-0.703125 -0.78125 -1.859375 -0.78125zm12.789154 7.03125l-0.078125 0q-0.875 1.78125 -2.828125 1.78125q-0.890625 0 -1.625 -0.34375q-0.71875 -0.359375 -1.234375 -1.015625q-0.515625 -0.65625 -0.78125 -1.578125q-0.265625 -0.9375 -0.265625 -2.09375q0 -1.15625 0.265625 -2.078125q0.265625 -0.9375 0.78125 -1.59375q0.515625 -0.65625 1.234375 -1.0q0.734375 -0.359375 1.625 -0.359375q1.015625 0 1.734375 0.4375q0.71875 0.4375 1.09375 1.34375l0.078125 0l0 -5.75l1.484375 0l0 13.8125l-1.484375 0l0 -1.5625zm-2.484375 0.4375q0.5 0 0.953125 -0.125q0.453125 -0.125 0.78125 -0.375q0.34375 -0.265625 0.546875 -0.625q0.203125 -0.359375 0.203125 -0.828125l0 -3.578125q0 -0.390625 -0.203125 -0.734375q-0.203125 -0.359375 -0.546875 -0.59375q-0.328125 -0.25 -0.78125 -0.375q-0.453125 -0.140625 -0.953125 -0.140625q-1.265625 0 -2.0 0.796875q-0.734375 0.78125 -0.734375 2.0625l0 1.640625q0 1.296875 0.734375 2.09375q0.734375 0.78125 2.0 0.78125z" fill-rule="nonzero"/><path fill="#000000" d="m399.59988 706.90515q-1.4375 0 -2.625 -0.546875q-1.1875 -0.5625 -1.8125 -1.78125l1.15625 -0.84375q0.578125 1.0 1.421875 1.40625q0.84375 0.40625 1.90625 0.40625q0.8125 0 1.4375 -0.203125q0.640625 -0.21875 1.0625 -0.59375q0.421875 -0.390625 0.640625 -0.890625q0.21875 -0.515625 0.21875 -1.09375q0 -0.828125 -0.46875 -1.328125q-0.46875 -0.515625 -1.515625 -0.71875l-1.25 -0.25q-1.375 -0.25 -2.125 -1.078125q-0.734375 -0.84375 -0.734375 -2.109375q0 -0.78125 0.296875 -1.46875q0.3125 -0.703125 0.875 -1.21875q0.5625 -0.53125 1.40625 -0.84375q0.84375 -0.3125 1.921875 -0.3125q1.515625 0 2.53125 0.5625q1.015625 0.5625 1.671875 1.453125l-1.109375 0.921875q-0.53125 -0.734375 -1.296875 -1.15625q-0.765625 -0.421875 -1.890625 -0.421875q-1.328125 0 -2.109375 0.625q-0.78125 0.609375 -0.78125 1.75q0 1.640625 1.984375 2.03125l1.25 0.25q1.375 0.25 2.109375 1.078125q0.734375 0.828125 0.734375 2.15625q0 0.890625 -0.328125 1.65625q-0.3125 0.765625 -0.9375 1.34375q-0.625 0.578125 -1.546875 0.90625q-0.90625 0.3125 -2.09375 0.3125z" fill-rule="nonzero"/><path fill="#20272b" d="m409.42703 713.84265q-0.640625 0 -1.203125 -0.21875q-0.546875 -0.21875 -0.953125 -0.640625q-0.40625 -0.4375 -0.640625 -1.0625q-0.21875 -0.640625 -0.21875 -1.46875q0 -1.078125 0.296875 -2.078125q0.296875 -1.015625 0.859375 -1.796875q0.578125 -0.78125 1.390625 -1.25q0.8125 -0.46875 1.859375 -0.46875q0.640625 0 1.1875 0.21875q0.5625 0.21875 0.96875 0.65625q0.40625 0.421875 0.625 1.0625q0.234375 0.625 0.234375 1.4375q0 1.09375 -0.296875 2.109375q-0.296875 1.0 -0.875 1.78125q-0.5625 0.765625 -1.390625 1.25q-0.8125 0.46875 -1.84375 0.46875zm0.109375 -0.921875q1.15625 0 1.921875 -0.75q0.765625 -0.765625 1.046875 -2.125l0.25 -1.25q0.046875 -0.234375 0.0625 -0.453125q0.015625 -0.21875 0.015625 -0.40625q0 -0.984375 -0.5625 -1.578125q-0.546875 -0.59375 -1.5625 -0.59375q-1.15625 0 -1.9375 0.765625q-0.765625 0.765625 -1.03125 2.125l-0.25 1.234375q-0.046875 0.234375 -0.078125 0.453125q-0.015625 0.21875 -0.015625 0.40625q0 1.0 0.5625 1.59375q0.5625 0.578125 1.578125 0.578125z" fill-rule="nonzero"/><path fill="#20272b" d="m420.50928 704.4989q0.453125 0 0.703125 0.1875q0.25 0.1875 0.25 0.5625q0 0.125 -0.015625 0.28125q-0.015625 0.15625 -0.0625 0.296875q-0.0625 0.359375 -0.234375 0.796875q-0.171875 0.4375 -0.453125 0.875q-0.265625 0.453125 -0.640625 0.890625q-0.359375 0.4375 -0.828125 0.78125l-1.21875 0q0.6875 -0.59375 1.109375 -1.171875q0.421875 -0.5625 0.71875 -1.203125q-0.609375 -0.140625 -0.609375 -0.6875q0 -0.125 0.015625 -0.265625q0.015625 -0.15625 0.0625 -0.3125q0.0625 -0.375 0.3125 -0.703125q0.265625 -0.328125 0.890625 -0.328125zm12.964783 -4.21875l-2.328125 2.1875l-0.84375 4.21875l-1.5 0l2.609375 -13.015625l1.5 0l-1.3125 6.640625l0.09375 0l2.21875 -2.15625l4.640625 -4.484375l1.921875 0l-5.84375 5.640625l3.6875 7.375l-1.65625 0l-3.1875 -6.40625z" fill-rule="nonzero"/><path fill="#20272b" d="m443.24454 713.84265q-0.640625 0 -1.203125 -0.21875q-0.546875 -0.21875 -0.953125 -0.640625q-0.40625 -0.4375 -0.640625 -1.0625q-0.21875 -0.640625 -0.21875 -1.46875q0 -1.078125 0.296875 -2.078125q0.296875 -1.015625 0.859375 -1.796875q0.578125 -0.78125 1.390625 -1.25q0.8125 -0.46875 1.859375 -0.46875q0.640625 0 1.1875 0.21875q0.5625 0.21875 0.96875 0.65625q0.40625 0.421875 0.625 1.0625q0.234375 0.625 0.234375 1.4375q0 1.09375 -0.296875 2.109375q-0.296875 1.0 -0.875 1.78125q-0.5625 0.765625 -1.390625 1.25q-0.8125 0.46875 -1.84375 0.46875zm0.109375 -0.921875q1.15625 0 1.921875 -0.75q0.765625 -0.765625 1.046875 -2.125l0.25 -1.25q0.046875 -0.234375 0.0625 -0.453125q0.015625 -0.21875 0.015625 -0.40625q0 -0.984375 -0.5625 -1.578125q-0.546875 -0.59375 -1.5625 -0.59375q-1.15625 0 -1.9375 0.765625q-0.765625 0.765625 -1.03125 2.125l-0.25 1.234375q-0.046875 0.234375 -0.078125 0.453125q-0.015625 0.21875 -0.015625 0.40625q0 1.0 0.5625 1.59375q0.5625 0.578125 1.578125 0.578125z" fill-rule="nonzero"/><path fill="#ff8500" d="m1076.7795 651.0105l193.88977 0l0 97.51184l-193.88977 0z" fill-rule="evenodd"/><path stroke="#000000" stroke-width="1.0" stroke-linejoin="round" stroke-linecap="butt" d="m1076.7795 651.0105l193.88977 0l0 97.51184l-193.88977 0z" fill-rule="evenodd"/><path fill="#000000" d="m1124.2975 695.6864l-1.3125 -3.84375l-5.25 0l-1.3125 3.84375l-1.59375 0l4.5625 -13.015625l2.0 0l4.546875 13.015625l-1.640625 0zm-3.90625 -11.5625l-0.09375 0l-2.203125 6.34375l4.5 0l-2.203125 -6.34375zm13.48999 10.0l-0.078125 0q-0.140625 0.328125 -0.359375 0.65625q-0.21875 0.328125 -0.53125 0.578125q-0.3125 0.25 -0.765625 0.390625q-0.453125 0.15625 -1.046875 0.15625q-1.484375 0 -2.359375 -0.953125q-0.875 -0.96875 -0.875 -2.71875l0 -6.171875l1.484375 0l0 5.90625q0 2.59375 2.203125 2.59375q0.453125 0 0.859375 -0.109375q0.421875 -0.109375 0.75 -0.328125q0.328125 -0.234375 0.515625 -0.578125q0.203125 -0.34375 0.203125 -0.828125l0 -6.65625l1.5 0l0 9.625l-1.5 0l0 -1.5625zm6.7998047 1.5625q-0.796875 0 -1.203125 -0.4375q-0.390625 -0.4375 -0.390625 -1.140625l0 -6.75l-1.578125 0l0 -1.296875l0.890625 0q0.484375 0 0.65625 -0.1875q0.1875 -0.203125 0.1875 -0.6875l0 -1.796875l1.34375 0l0 2.671875l2.109375 0l0 1.296875l-2.109375 0l0 7.015625l1.953125 0l0 1.3125l-1.859375 0zm4.407715 -13.8125l1.5 0l0 5.75l0.078125 0q0.34375 -0.8125 0.984375 -1.296875q0.65625 -0.484375 1.734375 -0.484375q1.5 0 2.359375 0.96875q0.875 0.953125 0.875 2.703125l0 6.171875l-1.5 0l0 -5.90625q0 -2.59375 -2.1875 -2.59375q-0.4375 0 -0.859375 0.109375q-0.421875 0.109375 -0.765625 0.34375q-0.328125 0.21875 -0.53125 0.5625q-0.1875 0.34375 -0.1875 0.8125l0 6.671875l-1.5 0l0 -13.8125zm14.221802 14.03125q-0.984375 0 -1.78125 -0.34375q-0.796875 -0.359375 -1.359375 -1.015625q-0.5625 -0.671875 -0.875 -1.59375q-0.3125 -0.921875 -0.3125 -2.078125q0 -1.140625 0.3125 -2.0625q0.3125 -0.9375 0.875 -1.59375q0.5625 -0.671875 1.359375 -1.015625q0.796875 -0.359375 1.78125 -0.359375q0.96875 0 1.734375 0.359375q0.765625 0.34375 1.296875 0.96875q0.546875 0.625 0.828125 1.484375q0.296875 0.859375 0.296875 1.875l0 0.71875l-6.921875 0l0 0.4375q0 0.625 0.1875 1.15625q0.203125 0.53125 0.5625 0.921875q0.375 0.390625 0.90625 0.625q0.53125 0.21875 1.203125 0.21875q0.921875 0 1.59375 -0.421875q0.6875 -0.4375 1.0625 -1.25l1.0625 0.765625q-0.46875 1.0 -1.46875 1.609375q-0.984375 0.59375 -2.34375 0.59375zm0 -8.8125q-0.609375 0 -1.125 0.21875q-0.5 0.203125 -0.859375 0.59375q-0.359375 0.390625 -0.578125 0.921875q-0.203125 0.53125 -0.203125 1.171875l0 0.125l5.328125 0l0 -0.203125q0 -1.28125 -0.703125 -2.046875q-0.703125 -0.78125 -1.859375 -0.78125zm6.6173096 8.59375l0 -9.625l1.5 0l0 1.5625l0.078125 0q0.34375 -0.8125 0.984375 -1.296875q0.65625 -0.484375 1.734375 -0.484375q1.5 0 2.359375 0.96875q0.875 0.953125 0.875 2.703125l0 6.171875l-1.5 0l0 -5.90625q0 -2.59375 -2.1875 -2.59375q-0.4375 0 -0.859375 0.109375q-0.421875 0.109375 -0.765625 0.34375q-0.328125 0.21875 -0.53125 0.5625q-0.1875 0.34375 -0.1875 0.8125l0 6.671875l-1.5 0zm12.737305 0q-0.796875 0 -1.203125 -0.4375q-0.390625 -0.4375 -0.390625 -1.140625l0 -6.75l-1.578125 0l0 -1.296875l0.890625 0q0.484375 0 0.65625 -0.1875q0.1875 -0.203125 0.1875 -0.6875l0 -1.796875l1.34375 0l0 2.671875l2.109375 0l0 1.296875l-2.109375 0l0 7.015625l1.953125 0l0 1.3125l-1.859375 0zm5.157715 -11.890625q-0.484375 0 -0.703125 -0.21875q-0.203125 -0.234375 -0.203125 -0.609375l0 -0.25q0 -0.375 0.203125 -0.609375q0.21875 -0.234375 0.703125 -0.234375q0.484375 0 0.703125 0.234375q0.21875 0.234375 0.21875 0.609375l0 0.25q0 0.375 -0.21875 0.609375q-0.21875 0.21875 -0.703125 0.21875zm-0.75 2.265625l1.5 0l0 9.625l-1.5 0l0 -9.625zm8.2578125 9.84375q-1.015625 0 -1.8125 -0.34375q-0.796875 -0.359375 -1.359375 -1.015625q-0.546875 -0.65625 -0.84375 -1.578125q-0.28125 -0.9375 -0.28125 -2.09375q0 -1.15625 0.28125 -2.078125q0.296875 -0.9375 0.84375 -1.59375q0.5625 -0.65625 1.359375 -1.0q0.796875 -0.359375 1.8125 -0.359375q1.4375 0 2.296875 0.625q0.875 0.625 1.296875 1.625l-1.25 0.640625q-0.265625 -0.75 -0.859375 -1.15625q-0.59375 -0.421875 -1.484375 -0.421875q-0.671875 0 -1.1875 0.21875q-0.5 0.21875 -0.84375 0.609375q-0.328125 0.375 -0.5 0.90625q-0.15625 0.53125 -0.15625 1.15625l0 1.640625q0 1.28125 0.671875 2.09375q0.6875 0.8125 2.015625 0.8125q1.8125 0 2.609375 -1.6875l1.078125 0.734375q-0.46875 1.046875 -1.390625 1.65625q-0.921875 0.609375 -2.296875 0.609375zm12.790405 -0.21875q-0.828125 0 -1.203125 -0.4375q-0.359375 -0.453125 -0.453125 -1.125l-0.09375 0q-0.3125 0.890625 -1.046875 1.34375q-0.71875 0.4375 -1.734375 0.4375q-1.53125 0 -2.375 -0.78125q-0.84375 -0.78125 -0.84375 -2.125q0 -1.359375 0.984375 -2.078125q1.0 -0.734375 3.109375 -0.734375l1.90625 0l0 -0.953125q0 -1.03125 -0.5625 -1.5625q-0.5625 -0.546875 -1.71875 -0.546875q-0.875 0 -1.46875 0.390625q-0.578125 0.390625 -0.96875 1.046875l-0.890625 -0.84375q0.390625 -0.78125 1.25 -1.328125q0.859375 -0.546875 2.15625 -0.546875q1.75 0 2.71875 0.859375q0.984375 0.84375 0.984375 2.375l0 5.296875l1.09375 0l0 1.3125l-0.84375 0zm-4.28125 -1.046875q0.546875 0 1.015625 -0.125q0.46875 -0.140625 0.796875 -0.375q0.34375 -0.25 0.53125 -0.5625q0.1875 -0.3125 0.1875 -0.6875l0 -1.59375l-1.984375 0q-1.28125 0 -1.875 0.375q-0.578125 0.375 -0.578125 1.09375l0 0.390625q0 0.703125 0.515625 1.09375q0.515625 0.390625 1.390625 0.390625zm9.384277 1.046875q-0.796875 0 -1.203125 -0.4375q-0.390625 -0.4375 -0.390625 -1.140625l0 -6.75l-1.578125 0l0 -1.296875l0.890625 0q0.484375 0 0.65625 -0.1875q0.1875 -0.203125 0.1875 -0.6875l0 -1.796875l1.34375 0l0 2.671875l2.109375 0l0 1.296875l-2.109375 0l0 7.015625l1.953125 0l0 1.3125l-1.859375 0zm7.958008 0.21875q-0.984375 0 -1.78125 -0.34375q-0.796875 -0.359375 -1.359375 -1.015625q-0.5625 -0.671875 -0.875 -1.59375q-0.3125 -0.921875 -0.3125 -2.078125q0 -1.140625 0.3125 -2.0625q0.3125 -0.9375 0.875 -1.59375q0.5625 -0.671875 1.359375 -1.015625q0.796875 -0.359375 1.78125 -0.359375q0.96875 0 1.734375 0.359375q0.765625 0.34375 1.296875 0.96875q0.546875 0.625 0.828125 1.484375q0.296875 0.859375 0.296875 1.875l0 0.71875l-6.921875 0l0 0.4375q0 0.625 0.1875 1.15625q0.203125 0.53125 0.5625 0.921875q0.375 0.390625 0.90625 0.625q0.53125 0.21875 1.203125 0.21875q0.921875 0 1.59375 -0.421875q0.6875 -0.4375 1.0625 -1.25l1.0625 0.765625q-0.46875 1.0 -1.46875 1.609375q-0.984375 0.59375 -2.34375 0.59375zm0 -8.8125q-0.609375 0 -1.125 0.21875q-0.5 0.203125 -0.859375 0.59375q-0.359375 0.390625 -0.578125 0.921875q-0.203125 0.53125 -0.203125 1.171875l0 0.125l5.328125 0l0 -0.203125q0 -1.28125 -0.703125 -2.046875q-0.703125 -0.78125 -1.859375 -0.78125zm12.789185 7.03125l-0.078125 0q-0.875 1.78125 -2.828125 1.78125q-0.890625 0 -1.625 -0.34375q-0.71875 -0.359375 -1.234375 -1.015625q-0.515625 -0.65625 -0.78125 -1.578125q-0.265625 -0.9375 -0.265625 -2.09375q0 -1.15625 0.265625 -2.078125q0.265625 -0.9375 0.78125 -1.59375q0.515625 -0.65625 1.234375 -1.0q0.734375 -0.359375 1.625 -0.359375q1.015625 0 1.734375 0.4375q0.71875 0.4375 1.09375 1.34375l0.078125 0l0 -5.75l1.484375 0l0 13.8125l-1.484375 0l0 -1.5625zm-2.484375 0.4375q0.5 0 0.953125 -0.125q0.453125 -0.125 0.78125 -0.375q0.34375 -0.265625 0.546875 -0.625q0.203125 -0.359375 0.203125 -0.828125l0 -3.578125q0 -0.390625 -0.203125 -0.734375q-0.203125 -0.359375 -0.546875 -0.59375q-0.328125 -0.25 -0.78125 -0.375q-0.453125 -0.140625 -0.953125 -0.140625q-1.265625 0 -2.0 0.796875q-0.734375 0.78125 -0.734375 2.0625l0 1.640625q0 1.296875 0.734375 2.09375q0.734375 0.78125 2.0 0.78125z" fill-rule="nonzero"/><path fill="#000000" d="m1130.4087 717.90515q-2.484375 0 -3.875 -1.6875q-1.375 -1.6875 -1.375 -4.96875q0 -3.28125 1.375 -5.046875q1.390625 -1.765625 3.875 -1.765625q1.640625 0 2.75 0.75q1.109375 0.75 1.71875 2.109375l-1.265625 0.765625q-0.390625 -1.015625 -1.203125 -1.609375q-0.796875 -0.609375 -2.0 -0.609375q-0.84375 0 -1.515625 0.3125q-0.65625 0.3125 -1.109375 0.90625q-0.453125 0.59375 -0.703125 1.40625q-0.234375 0.8125 -0.234375 1.8125l0 1.9375q0 2.015625 0.921875 3.15625q0.9375 1.140625 2.640625 1.140625q1.25 0 2.078125 -0.640625q0.84375 -0.65625 1.234375 -1.71875l1.25 0.78125q-0.609375 1.390625 -1.765625 2.1875q-1.15625 0.78125 -2.796875 0.78125zm12.772949 -9.84375l1.484375 0l-4.3125 11.859375q-0.171875 0.4375 -0.34375 0.71875q-0.171875 0.296875 -0.421875 0.453125q-0.234375 0.171875 -0.59375 0.25q-0.359375 0.078125 -0.890625 0.078125l-0.765625 0l0 -1.3125l1.515625 0l0.734375 -2.046875l-3.609375 -10.0l1.5 0l2.3125 6.546875l0.453125 1.5625l0.09375 0l0.515625 -1.5625l2.328125 -6.546875zm3.3720703 0l1.5 0l0 1.5625l0.078125 0q0.375 -0.90625 1.09375 -1.34375q0.71875 -0.4375 1.71875 -0.4375q0.890625 0 1.625 0.359375q0.734375 0.34375 1.234375 1.0q0.515625 0.65625 0.78125 1.59375q0.28125 0.921875 0.28125 2.078125q0 1.15625 -0.28125 2.09375q-0.265625 0.921875 -0.78125 1.578125q-0.5 0.65625 -1.234375 1.015625q-0.734375 0.34375 -1.625 0.34375q-1.953125 0 -2.8125 -1.78125l-0.078125 0l0 5.296875l-1.5 0l0 -13.359375zm3.984375 8.5q1.265625 0 1.984375 -0.78125q0.734375 -0.796875 0.734375 -2.09375l0 -1.640625q0 -1.28125 -0.734375 -2.0625q-0.71875 -0.796875 -1.984375 -0.796875q-0.5 0 -0.96875 0.140625q-0.453125 0.125 -0.796875 0.375q-0.328125 0.234375 -0.53125 0.59375q-0.1875 0.34375 -0.1875 0.734375l0 3.578125q0 0.46875 0.1875 0.828125q0.203125 0.359375 0.53125 0.625q0.34375 0.25 0.796875 0.375q0.46875 0.125 0.96875 0.125zm6.8361816 -12.6875l1.5 0l0 5.75l0.078125 0q0.34375 -0.8125 0.984375 -1.296875q0.65625 -0.484375 1.734375 -0.484375q1.5 0 2.359375 0.96875q0.875 0.953125 0.875 2.703125l0 6.171875l-1.5 0l0 -5.90625q0 -2.59375 -2.1875 -2.59375q-0.4375 0 -0.859375 0.109375q-0.421875 0.109375 -0.765625 0.34375q-0.328125 0.21875 -0.53125 0.5625q-0.1875 0.34375 -0.1875 0.8125l0 6.671875l-1.5 0l0 -13.8125zm14.221802 14.03125q-0.984375 0 -1.78125 -0.34375q-0.796875 -0.359375 -1.359375 -1.015625q-0.5625 -0.671875 -0.875 -1.59375q-0.3125 -0.921875 -0.3125 -2.078125q0 -1.140625 0.3125 -2.0625q0.3125 -0.9375 0.875 -1.59375q0.5625 -0.671875 1.359375 -1.015625q0.796875 -0.359375 1.78125 -0.359375q0.96875 0 1.734375 0.359375q0.765625 0.34375 1.296875 0.96875q0.546875 0.625 0.828125 1.484375q0.296875 0.859375 0.296875 1.875l0 0.71875l-6.921875 0l0 0.4375q0 0.625 0.1875 1.15625q0.203125 0.53125 0.5625 0.921875q0.375 0.390625 0.90625 0.625q0.53125 0.21875 1.203125 0.21875q0.921875 0 1.59375 -0.421875q0.6875 -0.4375 1.0625 -1.25l1.0625 0.765625q-0.46875 1.0 -1.46875 1.609375q-0.984375 0.59375 -2.34375 0.59375zm0 -8.8125q-0.609375 0 -1.125 0.21875q-0.5 0.203125 -0.859375 0.59375q-0.359375 0.390625 -0.578125 0.921875q-0.203125 0.53125 -0.203125 1.171875l0 0.125l5.328125 0l0 -0.203125q0 -1.28125 -0.703125 -2.046875q-0.703125 -0.78125 -1.859375 -0.78125zm6.6173096 8.59375l0 -9.625l1.5 0l0 1.765625l0.09375 0q0.265625 -0.6875 0.9375 -1.21875q0.671875 -0.546875 1.84375 -0.546875l0.578125 0l0 1.484375l-0.875 0q-1.21875 0 -1.90625 0.46875q-0.671875 0.453125 -0.671875 1.140625l0 6.53125l-1.5 0zm15.796509 -11.640625l0 11.640625l-1.578125 0l0 -11.640625l-4.140625 0l0 -1.375l9.859375 0l0 1.375l-4.140625 0zm8.536255 11.859375q-0.984375 0 -1.78125 -0.34375q-0.796875 -0.359375 -1.359375 -1.015625q-0.5625 -0.671875 -0.875 -1.59375q-0.3125 -0.921875 -0.3125 -2.078125q0 -1.140625 0.3125 -2.0625q0.3125 -0.9375 0.875 -1.59375q0.5625 -0.671875 1.359375 -1.015625q0.796875 -0.359375 1.78125 -0.359375q0.96875 0 1.734375 0.359375q0.765625 0.34375 1.296875 0.96875q0.546875 0.625 0.828125 1.484375q0.296875 0.859375 0.296875 1.875l0 0.71875l-6.921875 0l0 0.4375q0 0.625 0.1875 1.15625q0.203125 0.53125 0.5625 0.921875q0.375 0.390625 0.90625 0.625q0.53125 0.21875 1.203125 0.21875q0.921875 0 1.59375 -0.421875q0.6875 -0.4375 1.0625 -1.25l1.0625 0.765625q-0.46875 1.0 -1.46875 1.609375q-0.984375 0.59375 -2.34375 0.59375zm0 -8.8125q-0.609375 0 -1.125 0.21875q-0.5 0.203125 -0.859375 0.59375q-0.359375 0.390625 -0.578125 0.921875q-0.203125 0.53125 -0.203125 1.171875l0 0.125l5.328125 0l0 -0.203125q0 -1.28125 -0.703125 -2.046875q-0.703125 -0.78125 -1.859375 -0.78125zm5.2056885 8.59375l3.5625 -4.84375l-3.40625 -4.78125l1.75 0l2.4375 3.578125l0.0625 0l2.53125 -3.578125l1.671875 0l-3.40625 4.65625l3.46875 4.96875l-1.75 0l-2.5 -3.765625l-0.0625 0l-2.703125 3.765625l-1.65625 0zm12.786865 0q-0.796875 0 -1.203125 -0.4375q-0.390625 -0.4375 -0.390625 -1.140625l0 -6.75l-1.578125 0l0 -1.296875l0.890625 0q0.484375 0 0.65625 -0.1875q0.1875 -0.203125 0.1875 -0.6875l0 -1.796875l1.34375 0l0 2.671875l2.109375 0l0 1.296875l-2.109375 0l0 7.015625l1.953125 0l0 1.3125l-1.859375 0z" fill-rule="nonzero"/><path fill="#000000" fill-opacity="0.0" d="m1173.6929 568.52234l0.03149414 82.48816" fill-rule="evenodd"/><path stroke="#5654e5" stroke-width="2.0" stroke-linejoin="round" stroke-linecap="butt" d="m1173.6929 568.52234l0.026977539 70.48816" fill-rule="evenodd"/><path fill="#5654e5" stroke="#5654e5" stroke-width="2.0" stroke-linecap="butt" d="m1170.4164 639.0118l3.3068848 9.07489l3.3000488 -9.077454z" fill-rule="evenodd"/><path fill="#000000" fill-opacity="0.0" d="m376.23358 568.52234l0.31497192 82.48816" fill-rule="evenodd"/><path stroke="#5654e5" stroke-width="2.0" stroke-linejoin="round" stroke-linecap="butt" d="m376.23358 568.52234l0.26916504 70.48822" fill-rule="evenodd"/><path fill="#5654e5" stroke="#5654e5" stroke-width="2.0" stroke-linecap="butt" d="m373.1993 639.0232l3.3380737 9.063538l3.2687988 -9.088745z" fill-rule="evenodd"/><path fill="#000000" fill-opacity="0.0" d="m972.6063 218.48557l180.78735 0" fill-rule="evenodd"/><path stroke="#000000" stroke-width="2.0" stroke-linejoin="round" stroke-linecap="butt" d="m972.6063 218.48557l168.78735 0" fill-rule="evenodd"/><path fill="#000000" stroke="#000000" stroke-width="2.0" stroke-linecap="butt" d="m1141.3937 221.78903l9.076172 -3.3034668l-9.076172 -3.3034668z" fill-rule="evenodd"/><path fill="#000000" fill-opacity="0.0" d="m1153.3937 218.48557l0 0c0 -11.837158 9.102417 -21.433075 20.330688 -21.433075l0 0c5.39209 0 10.563232 2.2581177 14.375977 6.277603c3.8127441 4.0194855 5.954834 9.471069 5.954834 15.155472l0 0c0 11.837158 -9.102417 21.433075 -20.33081 21.433075l0 0c-11.2282715 0 -20.330688 -9.595917 -20.330688 -21.433075z" fill-rule="evenodd"/><path fill="#000000" fill-opacity="0.0" d="m1173.7244 197.05249l0 42.86615m-20.330688 -21.433075l40.6615 0" fill-rule="evenodd"/><path fill="#000000" fill-opacity="0.0" d="m1153.3937 218.48557l0 0c0 -11.837158 9.102417 -21.433075 20.330688 -21.433075l0 0c5.39209 0 10.563232 2.2581177 14.375977 6.277603c3.8127441 4.0194855 5.954834 9.471069 5.954834 15.155472l0 0c0 11.837158 -9.102417 21.433075 -20.33081 21.433075l0 0c-11.2282715 0 -20.330688 -9.595917 -20.330688 -21.433075z" fill-rule="evenodd"/><path stroke="#000000" stroke-width="4.0" stroke-linejoin="round" stroke-linecap="butt" d="m1173.7244 197.05249l0 42.86615m-20.330688 -21.433075l40.6615 0" fill-rule="evenodd"/><path stroke="#000000" stroke-width="4.0" stroke-linejoin="round" stroke-linecap="butt" d="m1153.3937 218.48557l0 0c0 -11.837158 9.102417 -21.433075 20.330688 -21.433075l0 0c5.39209 0 10.563232 2.2581177 14.375977 6.277603c3.8127441 4.0194855 5.954834 9.471069 5.954834 15.155472l0 0c0 11.837158 -9.102417 21.433075 -20.33081 21.433075l0 0c-11.2282715 0 -20.330688 -9.595917 -20.330688 -21.433075z" fill-rule="evenodd"/></g></svg>