<svg  width="65%" height="65%" version="1.1" viewBox="0.0 0.0 503.49343832021 444.7690288713911" fill="none" stroke="none" stroke-linecap="square" stroke-miterlimit="10" xmlns:xlink="http://www.w3.org/1999/xlink" xmlns="http://www.w3.org/2000/svg"><clipPath id="p.0"><path d="m0 0l503.49344 0l0 444.76904l-503.49344 0l0 -444.76904z" clip-rule="nonzero"/></clipPath><g clip-path="url(#p.0)"><path fill="#000000" fill-opacity="0.0" d="m0 0l503.49344 0l0 444.76904l-503.49344 0z" fill-rule="evenodd"/><path fill="#20272b" d="m0 113.15997l155.14961 0l0 77.98425l-155.14961 0z" fill-rule="evenodd"/><path stroke="#000000" stroke-width="1.0" stroke-linejoin="round" stroke-linecap="butt" d="m0 113.15997l155.14961 0l0 77.98425l-155.14961 0z" fill-rule="evenodd"/><path fill="#f1f1f1" d="m42.257942 159.0721l0 -13.015625l5.1875 0q1.75 0 2.6875 1.0q0.953125 0.984375 0.953125 2.71875q0 1.734375 -0.953125 2.734375q-0.9375 1.0 -2.6875 1.0l-3.625 0l0 5.5625l-1.5625 0zm1.5625 -6.9375l3.625 0q0.9375 0 1.4375 -0.484375q0.515625 -0.484375 0.515625 -1.390625l0 -0.96875q0 -0.890625 -0.515625 -1.375q-0.5 -0.484375 -1.4375 -0.484375l-3.625 0l0 4.703125zm11.180695 6.9375q-0.78125 0 -1.1875 -0.4375q-0.40625 -0.4375 -0.40625 -1.109375l0 -12.265625l1.5 0l0 12.5l1.421875 0l0 1.3125l-1.328125 0zm10.480759 0q-0.828125 0 -1.203125 -0.4375q-0.359375 -0.453125 -0.453125 -1.125l-0.09375 0q-0.3125 0.890625 -1.046875 1.34375q-0.71875 0.4375 -1.734375 0.4375q-1.53125 0 -2.375 -0.78125q-0.84375 -0.78125 -0.84375 -2.125q0 -1.359375 0.984375 -2.078125q1.0 -0.734375 3.109375 -0.734375l1.90625 0l0 -0.953125q0 -1.03125 -0.5625 -1.5625q-0.5625 -0.546875 -1.71875 -0.546875q-0.875 0 -1.46875 0.390625q-0.578125 0.390625 -0.96875 1.046875l-0.890625 -0.84375q0.390625 -0.78125 1.25 -1.328125q0.859375 -0.546875 2.15625 -0.546875q1.75 0 2.71875 0.859375q0.984375 0.84375 0.984375 2.375l0 5.296875l1.09375 0l0 1.3125l-0.84375 0zm-4.28125 -1.046875q0.546875 0 1.015625 -0.125q0.46875 -0.140625 0.796875 -0.375q0.34375 -0.25 0.53125 -0.5625q0.1875 -0.3125 0.1875 -0.6875l0 -1.59375l-1.984375 0q-1.28125 0 -1.875 0.375q-0.578125 0.375 -0.578125 1.09375l0 0.390625q0 0.703125 0.515625 1.09375q0.515625 0.390625 1.390625 0.390625zm7.993683 -10.84375q-0.484375 0 -0.703125 -0.21875q-0.203125 -0.234375 -0.203125 -0.609375l0 -0.25q0 -0.375 0.203125 -0.609375q0.21875 -0.234375 0.703125 -0.234375q0.484375 0 0.703125 0.234375q0.21875 0.234375 0.21875 0.609375l0 0.25q0 0.375 -0.21875 0.609375q-0.21875 0.21875 -0.703125 0.21875zm-0.75 2.265625l1.5 0l0 9.625l-1.5 0l0 -9.625zm4.6640625 9.625l0 -9.625l1.5 0l0 1.5625l0.078125 0q0.34375 -0.8125 0.984375 -1.296875q0.65625 -0.484375 1.734375 -0.484375q1.5 0 2.359375 0.96875q0.875 0.953125 0.875 2.703125l0 6.171875l-1.5 0l0 -5.90625q0 -2.59375 -2.1875 -2.59375q-0.4375 0 -0.859375 0.109375q-0.421875 0.109375 -0.765625 0.34375q-0.328125 0.21875 -0.53125 0.5625q-0.1875 0.34375 -0.1875 0.8125l0 6.671875l-1.5 0zm12.737381 0q-0.796875 0 -1.203125 -0.4375q-0.390625 -0.4375 -0.390625 -1.140625l0 -6.75l-1.578125 0l0 -1.296875l0.890625 0q0.484375 0 0.65625 -0.1875q0.1875 -0.203125 0.1875 -0.6875l0 -1.796875l1.34375 0l0 2.671875l2.109375 0l0 1.296875l-2.109375 0l0 7.015625l1.953125 0l0 1.3125l-1.859375 0zm7.9580536 0.21875q-0.984375 0 -1.78125 -0.34375q-0.796875 -0.359375 -1.359375 -1.015625q-0.5625 -0.671875 -0.875 -1.59375q-0.3125 -0.921875 -0.3125 -2.078125q0 -1.140625 0.3125 -2.0625q0.3125 -0.9375 0.875 -1.59375q0.5625 -0.671875 1.359375 -1.015625q0.796875 -0.359375 1.78125 -0.359375q0.96875 0 1.734375 0.359375q0.765625 0.34375 1.296875 0.96875q0.546875 0.625 0.828125 1.484375q0.296875 0.859375 0.296875 1.875l0 0.71875l-6.921875 0l0 0.4375q0 0.625 0.1875 1.15625q0.203125 0.53125 0.5625 0.921875q0.375 0.390625 0.90625 0.625q0.53125 0.21875 1.203125 0.21875q0.921875 0 1.59375 -0.421875q0.6875 -0.4375 1.0625 -1.25l1.0625 0.765625q-0.46875 1.0 -1.46875 1.609375q-0.984375 0.59375 -2.34375 0.59375zm0 -8.8125q-0.609375 0 -1.125 0.21875q-0.5 0.203125 -0.859375 0.59375q-0.359375 0.390625 -0.578125 0.921875q-0.203125 0.53125 -0.203125 1.171875l0 0.125l5.328125 0l0 -0.203125q0 -1.28125 -0.703125 -2.046875q-0.703125 -0.78125 -1.859375 -0.78125zm5.20578 8.59375l3.5625 -4.84375l-3.40625 -4.78125l1.75 0l2.4375 3.578125l0.0625 0l2.53125 -3.578125l1.671875 0l-3.40625 4.65625l3.46875 4.96875l-1.75 0l-2.5 -3.765625l-0.0625 0l-2.703125 3.765625l-1.65625 0zm12.78685 0q-0.796875 0 -1.203125 -0.4375q-0.390625 -0.4375 -0.390625 -1.140625l0 -6.75l-1.578125 0l0 -1.296875l0.890625 0q0.484375 0 0.65625 -0.1875q0.1875 -0.203125 0.1875 -0.6875l0 -1.796875l1.34375 0l0 2.671875l2.109375 0l0 1.296875l-2.109375 0l0 7.015625l1.953125 0l0 1.3125l-1.859375 0z" fill-rule="nonzero"/><path fill="#20272b" d="m173.07642 0l155.1496 0l0 77.98425l-155.1496 0z" fill-rule="evenodd"/><path stroke="#000000" stroke-width="1.0" stroke-linejoin="round" stroke-linecap="butt" d="m173.07642 0l155.1496 0l0 77.98425l-155.1496 0z" fill-rule="evenodd"/><path fill="#f1f1f1" d="m197.80338 35.130875q-1.28125 0 -2.296875 -0.4375q-1.015625 -0.4375 -1.734375 -1.28125q-0.71875 -0.84375 -1.109375 -2.109375q-0.390625 -1.265625 -0.390625 -2.90625q0 -1.640625 0.390625 -2.890625q0.390625 -1.25 1.109375 -2.109375q0.71875 -0.859375 1.734375 -1.296875q1.015625 -0.4375 2.296875 -0.4375q1.25 0 2.265625 0.4375q1.03125 0.4375 1.75 1.296875q0.71875 0.859375 1.109375 2.109375q0.390625 1.25 0.390625 2.890625q0 1.640625 -0.390625 2.90625q-0.390625 1.265625 -1.109375 2.109375q-0.71875 0.84375 -1.75 1.28125q-1.015625 0.4375 -2.265625 0.4375zm0 -1.390625q0.828125 0 1.53125 -0.296875q0.71875 -0.296875 1.234375 -0.859375q0.515625 -0.5625 0.796875 -1.34375q0.28125 -0.78125 0.28125 -1.75l0 -2.171875q0 -0.96875 -0.28125 -1.75q-0.28125 -0.78125 -0.796875 -1.34375q-0.515625 -0.5625 -1.234375 -0.859375q-0.703125 -0.296875 -1.53125 -0.296875q-0.84375 0 -1.5625 0.296875q-0.703125 0.296875 -1.21875 0.859375q-0.5 0.5625 -0.78125 1.34375q-0.28125 0.78125 -0.28125 1.75l0 2.171875q0 0.96875 0.28125 1.75q0.28125 0.78125 0.78125 1.34375q0.515625 0.5625 1.21875 0.859375q0.71875 0.296875 1.5625 0.296875zm8.177383 1.171875l0 -9.625l1.5 0l0 1.5625l0.078125 0q0.34375 -0.8125 0.984375 -1.296875q0.65625 -0.484375 1.734375 -0.484375q1.5 0 2.359375 0.96875q0.875 0.953125 0.875 2.703125l0 6.171875l-1.5 0l0 -5.90625q0 -2.59375 -2.1875 -2.59375q-0.4375 0 -0.859375 0.109375q-0.421875 0.109375 -0.765625 0.34375q-0.328125 0.21875 -0.53125 0.5625q-0.1875 0.34375 -0.1875 0.8125l0 6.671875l-1.5 0zm14.221756 0.21875q-0.984375 0 -1.78125 -0.34375q-0.796875 -0.359375 -1.359375 -1.015625q-0.5625 -0.671875 -0.875 -1.59375q-0.3125 -0.921875 -0.3125 -2.078125q0 -1.140625 0.3125 -2.0625q0.3125 -0.9375 0.875 -1.59375q0.5625 -0.671875 1.359375 -1.015625q0.796875 -0.359375 1.78125 -0.359375q0.96875 0 1.734375 0.359375q0.765625 0.34375 1.296875 0.96875q0.546875 0.625 0.828125 1.484375q0.296875 0.859375 0.296875 1.875l0 0.71875l-6.921875 0l0 0.4375q0 0.625 0.1875 1.15625q0.203125 0.53125 0.5625 0.921875q0.375 0.390625 0.90625 0.625q0.53125 0.21875 1.203125 0.21875q0.921875 0 1.59375 -0.421875q0.6875 -0.4375 1.0625 -1.25l1.0625 0.765625q-0.46875 1.0 -1.46875 1.609375q-0.984375 0.59375 -2.34375 0.59375zm0 -8.8125q-0.609375 0 -1.125 0.21875q-0.5 0.203125 -0.859375 0.59375q-0.359375 0.390625 -0.578125 0.921875q-0.203125 0.53125 -0.203125 1.171875l0 0.125l5.328125 0l0 -0.203125q0 -1.28125 -0.703125 -2.046875q-0.703125 -0.78125 -1.859375 -0.78125zm6.507065 3.71875l0 -1.59375l4.875 0l0 1.59375l-4.875 0zm11.354263 -6.765625l0 11.640625l-1.578125 0l0 -11.640625l-4.140625 0l0 -1.375l9.859375 0l0 1.375l-4.140625 0zm6.8744965 -0.25q-0.484375 0 -0.703125 -0.21875q-0.203125 -0.234375 -0.203125 -0.609375l0 -0.25q0 -0.375 0.203125 -0.609375q0.21875 -0.234375 0.703125 -0.234375q0.484375 0 0.703125 0.234375q0.21875 0.234375 0.21875 0.609375l0 0.25q0 0.375 -0.21875 0.609375q-0.21875 0.21875 -0.703125 0.21875zm-0.75 2.265625l1.5 0l0 9.625l-1.5 0l0 -9.625zm4.6640625 9.625l0 -9.625l1.5 0l0 1.5625l0.078125 0q0.171875 -0.375 0.375 -0.6875q0.21875 -0.328125 0.515625 -0.578125q0.3125 -0.25 0.71875 -0.375q0.421875 -0.140625 0.984375 -0.140625q0.953125 0 1.75 0.453125q0.796875 0.453125 1.1875 1.5l0.04689026 0q0.265625 -0.78125 0.96875 -1.359375q0.71875 -0.59375 1.953125 -0.59375q1.484375 0 2.3125 0.96875q0.828125 0.953125 0.828125 2.703125l0 6.171875l-1.5 0l0 -5.90625q0 -1.296875 -0.5 -1.9375q-0.5 -0.65625 -1.609375 -0.65625q-0.4375 0 -0.84375 0.109375q-0.40625 0.109375 -0.71875 0.34375q-0.3125 0.21875 -0.5 0.5625q-0.1875 0.34375 -0.1875 0.8125l0 6.671875l-1.5000153 0l0 -5.90625q0 -1.296875 -0.5 -1.9375q-0.5 -0.65625 -1.5625 -0.65625q-0.453125 0 -0.859375 0.109375q-0.40625 0.109375 -0.734375 0.34375q-0.3125 0.21875 -0.515625 0.5625q-0.1875 0.34375 -0.1875 0.8125l0 6.671875l-1.5 0zm19.911911 0.21875q-0.984375 0 -1.78125 -0.34375q-0.796875 -0.359375 -1.359375 -1.015625q-0.5625 -0.671875 -0.875 -1.59375q-0.3125 -0.921875 -0.3125 -2.078125q0 -1.140625 0.3125 -2.0625q0.3125 -0.9375 0.875 -1.59375q0.5625 -0.671875 1.359375 -1.015625q0.796875 -0.359375 1.78125 -0.359375q0.96875 0 1.734375 0.359375q0.765625 0.34375 1.296875 0.96875q0.546875 0.625 0.828125 1.484375q0.296875 0.859375 0.296875 1.875l0 0.71875l-6.921875 0l0 0.4375q0 0.625 0.1875 1.15625q0.203125 0.53125 0.5625 0.921875q0.375 0.390625 0.90625 0.625q0.53125 0.21875 1.203125 0.21875q0.921875 0 1.59375 -0.421875q0.6875 -0.4375 1.0625 -1.25l1.0625 0.765625q-0.46875 1.0 -1.46875 1.609375q-0.984375 0.59375 -2.34375 0.59375zm0 -8.8125q-0.609375 0 -1.125 0.21875q-0.5 0.203125 -0.859375 0.59375q-0.359375 0.390625 -0.578125 0.921875q-0.203125 0.53125 -0.203125 1.171875l0 0.125l5.328125 0l0 -0.203125q0 -1.28125 -0.703125 -2.046875q-0.703125 -0.78125 -1.859375 -0.78125zm11.176422 8.59375l0 -13.015625l5.1875 0q1.75 0 2.6875 1.0q0.953125 0.984375 0.953125 2.71875q0 1.734375 -0.953125 2.734375q-0.9375 1.0 -2.6875 1.0l-3.625 0l0 5.5625l-1.5625 0zm1.5625 -6.9375l3.625 0q0.9375 0 1.4375 -0.484375q0.515625 -0.484375 0.515625 -1.390625l0 -0.96875q0 -0.890625 -0.515625 -1.375q-0.5 -0.484375 -1.4375 -0.484375l-3.625 0l0 4.703125zm16.400269 6.9375q-0.828125 0 -1.203125 -0.4375q-0.359375 -0.453125 -0.453125 -1.125l-0.09375 0q-0.3125 0.890625 -1.046875 1.34375q-0.71875 0.4375 -1.734375 0.4375q-1.53125 0 -2.375 -0.78125q-0.84375 -0.78125 -0.84375 -2.125q0 -1.359375 0.984375 -2.078125q1.0 -0.734375 3.109375 -0.734375l1.90625 0l0 -0.953125q0 -1.03125 -0.5625 -1.5625q-0.5625 -0.546875 -1.71875 -0.546875q-0.875 0 -1.46875 0.390625q-0.578125 0.390625 -0.96875 1.046875l-0.890625 -0.84375q0.390625 -0.78125 1.25 -1.328125q0.859375 -0.546875 2.15625 -0.546875q1.75 0 2.71875 0.859375q0.984375 0.84375 0.984375 2.375l0 5.296875l1.09375 0l0 1.3125l-0.84375 0zm-4.28125 -1.046875q0.546875 0 1.015625 -0.125q0.46875 -0.140625 0.796875 -0.375q0.34375 -0.25 0.53125 -0.5625q0.1875 -0.3125 0.1875 -0.6875l0 -1.59375l-1.984375 0q-1.28125 0 -1.875 0.375q-0.578125 0.375 -0.578125 1.09375l0 0.390625q0 0.703125 0.515625 1.09375q0.515625 0.390625 1.390625 0.390625zm13.415558 -0.515625l-0.078125 0q-0.875 1.78125 -2.828125 1.78125q-0.890625 0 -1.625 -0.34375q-0.71875 -0.359375 -1.234375 -1.015625q-0.515625 -0.65625 -0.78125 -1.578125q-0.265625 -0.9375 -0.265625 -2.09375q0 -1.15625 0.265625 -2.078125q0.265625 -0.9375 0.78125 -1.59375q0.515625 -0.65625 1.234375 -1.0q0.734375 -0.359375 1.625 -0.359375q1.015625 0 1.734375 0.4375q0.71875 0.4375 1.09375 1.34375l0.078125 0l0 -5.75l1.484375 0l0 13.8125l-1.484375 0l0 -1.5625zm-2.484375 0.4375q0.5 0 0.953125 -0.125q0.453125 -0.125 0.78125 -0.375q0.34375 -0.265625 0.546875 -0.625q0.203125 -0.359375 0.203125 -0.828125l0 -3.578125q0 -0.390625 -0.203125 -0.734375q-0.203125 -0.359375 -0.546875 -0.59375q-0.328125 -0.25 -0.78125 -0.375q-0.453125 -0.140625 -0.953125 -0.140625q-1.265625 0 -2.0 0.796875q-0.734375 0.78125 -0.734375 2.0625l0 1.640625q0 1.296875 0.734375 2.09375q0.734375 0.78125 2.0 0.78125z" fill-rule="nonzero"/><path fill="#f1f1f1" d="m237.74289 43.099625l1.5 0l0 8.75l0.078125 0l1.46875 -1.640625l2.71875 -2.921875l1.8125 0l-3.5625 3.796875l3.921875 5.828125l-1.8125 0l-3.1875 -4.90625l-1.4375 1.46875l0 3.4375l-1.5 0l0 -13.8125zm13.139511 14.03125q-0.984375 0 -1.78125 -0.34375q-0.796875 -0.359375 -1.359375 -1.015625q-0.5625 -0.671875 -0.875 -1.59375q-0.3125 -0.921875 -0.3125 -2.078125q0 -1.140625 0.3125 -2.0625q0.3125 -0.9375 0.875 -1.59375q0.5625 -0.671875 1.359375 -1.015625q0.796875 -0.359375 1.78125 -0.359375q0.96875 0 1.734375 0.359375q0.765625 0.34375 1.296875 0.96875q0.546875 0.625 0.828125 1.484375q0.296875 0.859375 0.296875 1.875l0 0.71875l-6.921875 0l0 0.4375q0 0.625 0.1875 1.15625q0.203125 0.53125 0.5625 0.921875q0.375 0.390625 0.90625 0.625q0.53125 0.21875 1.203125 0.21875q0.921875 0 1.59375 -0.421875q0.6875 -0.4375 1.0625 -1.25l1.0625 0.765625q-0.46875 1.0 -1.46875 1.609375q-0.984375 0.59375 -2.34375 0.59375zm0 -8.8125q-0.609375 0 -1.125 0.21875q-0.5 0.203125 -0.859375 0.59375q-0.359375 0.390625 -0.578125 0.921875q-0.203125 0.53125 -0.203125 1.171875l0 0.125l5.328125 0l0 -0.203125q0 -1.28125 -0.703125 -2.046875q-0.703125 -0.78125 -1.859375 -0.78125zm12.461441 -1.03125l1.484375 0l-4.3125 11.859375q-0.171875 0.4375 -0.34375 0.71875q-0.171875 0.296875 -0.421875 0.453125q-0.234375 0.171875 -0.59375 0.25q-0.359375 0.078125 -0.890625 0.078125l-0.765625 0l0 -1.3125l1.515625 0l0.734375 -2.046875l-3.609375 -10.0l1.5 0l2.3125 6.546875l0.453125 1.5625l0.09375 0l0.515625 -1.5625l2.328125 -6.546875z" fill-rule="nonzero"/><path fill="#20272b" d="m0 250.80025l155.14961 0l0 77.98427l-155.14961 0z" fill-rule="evenodd"/><path stroke="#000000" stroke-width="1.0" stroke-linejoin="round" stroke-linecap="butt" d="m0 250.80025l155.14961 0l0 77.98427l-155.14961 0z" fill-rule="evenodd"/><path fill="#f1f1f1" d="m35.942726 272.69675l4.359375 0q1.21875 0 2.203125 0.40625q1.0 0.40625 1.6875 1.21875q0.703125 0.8125 1.078125 2.03125q0.375 1.21875 0.375 2.84375q0 1.625 -0.375 2.859375q-0.375 1.21875 -1.078125 2.03125q-0.6875 0.796875 -1.6875 1.21875q-0.984375 0.40625 -2.203125 0.40625l-4.359375 0l0 -13.015625zm4.359375 11.640625q0.8125 0 1.484375 -0.265625q0.671875 -0.28125 1.15625 -0.796875q0.484375 -0.53125 0.75 -1.28125q0.265625 -0.765625 0.265625 -1.734375l0 -2.125q0 -0.96875 -0.265625 -1.71875q-0.265625 -0.765625 -0.75 -1.28125q-0.484375 -0.515625 -1.15625 -0.78125q-0.671875 -0.28125 -1.484375 -0.28125l-2.796875 0l0 10.265625l2.796875 0zm11.627716 1.59375q-0.984375 0 -1.78125 -0.34375q-0.796875 -0.359375 -1.359375 -1.015625q-0.5625 -0.671875 -0.875 -1.59375q-0.3125 -0.921875 -0.3125 -2.078125q0 -1.140625 0.3125 -2.0625q0.3125 -0.9375 0.875 -1.59375q0.5625 -0.671875 1.359375 -1.015625q0.796875 -0.359375 1.78125 -0.359375q0.96875 0 1.734375 0.359375q0.765625 0.34375 1.296875 0.96875q0.546875 0.625 0.828125 1.484375q0.296875 0.859375 0.296875 1.875l0 0.71875l-6.921875 0l0 0.4375q0 0.625 0.1875 1.15625q0.203125 0.53125 0.5625 0.921875q0.375 0.390625 0.90625 0.625q0.53125 0.21875 1.203125 0.21875q0.921875 0 1.59375 -0.421875q0.6875 -0.4375 1.0625 -1.25l1.0625 0.765625q-0.46875 1.0 -1.46875 1.609375q-0.984375 0.59375 -2.34375 0.59375zm0 -8.8125q-0.609375 0 -1.125 0.21875q-0.5 0.203125 -0.859375 0.59375q-0.359375 0.390625 -0.578125 0.921875q-0.203125 0.53125 -0.203125 1.171875l0 0.125l5.328125 0l0 -0.203125q0 -1.28125 -0.703125 -2.046875q-0.703125 -0.78125 -1.859375 -0.78125zm10.211029 8.8125q-1.015625 0 -1.8125 -0.34375q-0.796875 -0.359375 -1.359375 -1.015625q-0.546875 -0.65625 -0.84375 -1.578125q-0.28125 -0.9375 -0.28125 -2.09375q0 -1.15625 0.28125 -2.078125q0.296875 -0.9375 0.84375 -1.59375q0.5625 -0.65625 1.359375 -1.0q0.796875 -0.359375 1.8125 -0.359375q1.4375 0 2.296875 0.625q0.875 0.625 1.296875 1.625l-1.25 0.640625q-0.265625 -0.75 -0.859375 -1.15625q-0.59375 -0.421875 -1.484375 -0.421875q-0.671875 0 -1.1875 0.21875q-0.5 0.21875 -0.84375 0.609375q-0.328125 0.375 -0.5 0.90625q-0.15625 0.53125 -0.15625 1.15625l0 1.640625q0 1.28125 0.671875 2.09375q0.6875 0.8125 2.015625 0.8125q1.8125 0 2.609375 -1.6875l1.078125 0.734375q-0.46875 1.046875 -1.390625 1.65625q-0.921875 0.609375 -2.296875 0.609375zm5.790344 -0.21875l0 -9.625l1.5 0l0 1.765625l0.09375 0q0.265625 -0.6875 0.9375 -1.21875q0.671875 -0.546875 1.84375 -0.546875l0.578125 0l0 1.484375l-0.875 0q-1.21875 0 -1.90625 0.46875q-0.671875 0.453125 -0.671875 1.140625l0 6.53125l-1.5 0zm12.971008 -9.625l1.484375 0l-4.3125 11.859375q-0.171875 0.4375 -0.34375 0.71875q-0.171875 0.296875 -0.421875 0.453125q-0.234375 0.171875 -0.59375 0.25q-0.359375 0.078125 -0.890625 0.078125l-0.765625 0l0 -1.3125l1.515625 0l0.734375 -2.046875l-3.609375 -10.0l1.5 0l2.3125 6.546875l0.453125 1.5625l0.09375 0l0.515625 -1.5625l2.328125 -6.546875zm3.3719635 0l1.5 0l0 1.5625l0.078125 0q0.375 -0.90625 1.09375 -1.34375q0.71875 -0.4375 1.71875 -0.4375q0.890625 0 1.625 0.359375q0.734375 0.34375 1.234375 1.0q0.515625 0.65625 0.78125 1.59375q0.28125 0.921875 0.28125 2.078125q0 1.15625 -0.28125 2.09375q-0.265625 0.921875 -0.78125 1.578125q-0.5 0.65625 -1.234375 1.015625q-0.734375 0.34375 -1.625 0.34375q-1.953125 0 -2.8125 -1.78125l-0.078125 0l0 5.296875l-1.5 0l0 -13.359375zm3.984375 8.5q1.265625 0 1.984375 -0.78125q0.734375 -0.796875 0.734375 -2.09375l0 -1.640625q0 -1.28125 -0.734375 -2.0625q-0.71875 -0.796875 -1.984375 -0.796875q-0.5 0 -0.96875 0.140625q-0.453125 0.125 -0.796875 0.375q-0.328125 0.234375 -0.53125 0.59375q-0.1875 0.34375 -0.1875 0.734375l0 3.578125q0 0.46875 0.1875 0.828125q0.203125 0.359375 0.53125 0.625q0.34375 0.25 0.796875 0.375q0.46875 0.125 0.96875 0.125zm8.864883 1.125q-0.796875 0 -1.203125 -0.4375q-0.390625 -0.4375 -0.390625 -1.140625l0 -6.75l-1.578125 0l0 -1.296875l0.890625 0q0.484375 0 0.65625 -0.1875q0.1875 -0.203125 0.1875 -0.6875l0 -1.796875l1.34375 0l0 2.671875l2.109375 0l0 1.296875l-2.109375 0l0 7.015625l1.953125 0l0 1.3125l-1.859375 0zm7.9580536 0.21875q-0.984375 0 -1.78125 -0.34375q-0.796875 -0.359375 -1.359375 -1.015625q-0.5625 -0.671875 -0.875 -1.59375q-0.3125 -0.921875 -0.3125 -2.078125q0 -1.140625 0.3125 -2.0625q0.3125 -0.9375 0.875 -1.59375q0.5625 -0.671875 1.359375 -1.015625q0.796875 -0.359375 1.78125 -0.359375q0.96875 0 1.734375 0.359375q0.765625 0.34375 1.296875 0.96875q0.546875 0.625 0.828125 1.484375q0.296875 0.859375 0.296875 1.875l0 0.71875l-6.921875 0l0 0.4375q0 0.625 0.1875 1.15625q0.203125 0.53125 0.5625 0.921875q0.375 0.390625 0.90625 0.625q0.53125 0.21875 1.203125 0.21875q0.921875 0 1.59375 -0.421875q0.6875 -0.4375 1.0625 -1.25l1.0625 0.765625q-0.46875 1.0 -1.46875 1.609375q-0.984375 0.59375 -2.34375 0.59375zm0 -8.8125q-0.609375 0 -1.125 0.21875q-0.5 0.203125 -0.859375 0.59375q-0.359375 0.390625 -0.578125 0.921875q-0.203125 0.53125 -0.203125 1.171875l0 0.125l5.328125 0l0 -0.203125q0 -1.28125 -0.703125 -2.046875q-0.703125 -0.78125 -1.859375 -0.78125zm12.789154 7.03125l-0.078125 0q-0.875 1.78125 -2.828125 1.78125q-0.890625 0 -1.625 -0.34375q-0.71875 -0.359375 -1.234375 -1.015625q-0.515625 -0.65625 -0.78125 -1.578125q-0.265625 -0.9375 -0.265625 -2.09375q0 -1.15625 0.265625 -2.078125q0.265625 -0.9375 0.78125 -1.59375q0.515625 -0.65625 1.234375 -1.0q0.734375 -0.359375 1.625 -0.359375q1.015625 0 1.734375 0.4375q0.71875 0.4375 1.09375 1.34375l0.078125 0l0 -5.75l1.484375 0l0 13.8125l-1.484375 0l0 -1.5625zm-2.484375 0.4375q0.5 0 0.953125 -0.125q0.453125 -0.125 0.78125 -0.375q0.34375 -0.265625 0.546875 -0.625q0.203125 -0.359375 0.203125 -0.828125l0 -3.578125q0 -0.390625 -0.203125 -0.734375q-0.203125 -0.359375 -0.546875 -0.59375q-0.328125 -0.25 -0.78125 -0.375q-0.453125 -0.140625 -0.953125 -0.140625q-1.265625 0 -2.0 0.796875q-0.734375 0.78125 -0.734375 2.0625l0 1.640625q0 1.296875 0.734375 2.09375q0.734375 0.78125 2.0 0.78125z" fill-rule="nonzero"/><path fill="#f1f1f1" d="m42.257942 307.71237l0 -13.015625l5.1875 0q1.75 0 2.6875 1.0q0.953125 0.984375 0.953125 2.71875q0 1.734375 -0.953125 2.734375q-0.9375 1.0 -2.6875 1.0l-3.625 0l0 5.5625l-1.5625 0zm1.5625 -6.9375l3.625 0q0.9375 0 1.4375 -0.484375q0.515625 -0.484375 0.515625 -1.390625l0 -0.96875q0 -0.890625 -0.515625 -1.375q-0.5 -0.484375 -1.4375 -0.484375l-3.625 0l0 4.703125zm11.180695 6.9375q-0.78125 0 -1.1875 -0.4375q-0.40625 -0.4375 -0.40625 -1.109375l0 -12.265625l1.5 0l0 12.5l1.421875 0l0 1.3125l-1.328125 0zm10.480759 0q-0.828125 0 -1.203125 -0.4375q-0.359375 -0.453125 -0.453125 -1.125l-0.09375 0q-0.3125 0.890625 -1.046875 1.34375q-0.71875 0.4375 -1.734375 0.4375q-1.53125 0 -2.375 -0.78125q-0.84375 -0.78125 -0.84375 -2.125q0 -1.359375 0.984375 -2.078125q1.0 -0.734375 3.109375 -0.734375l1.90625 0l0 -0.953125q0 -1.03125 -0.5625 -1.5625q-0.5625 -0.546875 -1.71875 -0.546875q-0.875 0 -1.46875 0.390625q-0.578125 0.390625 -0.96875 1.046875l-0.890625 -0.84375q0.390625 -0.78125 1.25 -1.328125q0.859375 -0.546875 2.15625 -0.546875q1.75 0 2.71875 0.859375q0.984375 0.84375 0.984375 2.375l0 5.296875l1.09375 0l0 1.3125l-0.84375 0zm-4.28125 -1.046875q0.546875 0 1.015625 -0.125q0.46875 -0.140625 0.796875 -0.375q0.34375 -0.25 0.53125 -0.5625q0.1875 -0.3125 0.1875 -0.6875l0 -1.59375l-1.984375 0q-1.28125 0 -1.875 0.375q-0.578125 0.375 -0.578125 1.09375l0 0.390625q0 0.703125 0.515625 1.09375q0.515625 0.390625 1.390625 0.390625zm7.993683 -10.84375q-0.484375 0 -0.703125 -0.21875q-0.203125 -0.234375 -0.203125 -0.609375l0 -0.25q0 -0.375 0.203125 -0.609375q0.21875 -0.234375 0.703125 -0.234375q0.484375 0 0.703125 0.234375q0.21875 0.234375 0.21875 0.609375l0 0.25q0 0.375 -0.21875 0.609375q-0.21875 0.21875 -0.703125 0.21875zm-0.75 2.265625l1.5 0l0 9.625l-1.5 0l0 -9.625zm4.6640625 9.625l0 -9.625l1.5 0l0 1.5625l0.078125 0q0.34375 -0.8125 0.984375 -1.296875q0.65625 -0.484375 1.734375 -0.484375q1.5 0 2.359375 0.96875q0.875 0.953125 0.875 2.703125l0 6.171875l-1.5 0l0 -5.90625q0 -2.59375 -2.1875 -2.59375q-0.4375 0 -0.859375 0.109375q-0.421875 0.109375 -0.765625 0.34375q-0.328125 0.21875 -0.53125 0.5625q-0.1875 0.34375 -0.1875 0.8125l0 6.671875l-1.5 0zm12.737381 0q-0.796875 0 -1.203125 -0.4375q-0.390625 -0.4375 -0.390625 -1.140625l0 -6.75l-1.578125 0l0 -1.296875l0.890625 0q0.484375 0 0.65625 -0.1875q0.1875 -0.203125 0.1875 -0.6875l0 -1.796875l1.34375 0l0 2.671875l2.109375 0l0 1.296875l-2.109375 0l0 7.015625l1.953125 0l0 1.3125l-1.859375 0zm7.9580536 0.21875q-0.984375 0 -1.78125 -0.34375q-0.796875 -0.359375 -1.359375 -1.015625q-0.5625 -0.671875 -0.875 -1.59375q-0.3125 -0.921875 -0.3125 -2.078125q0 -1.140625 0.3125 -2.0625q0.3125 -0.9375 0.875 -1.59375q0.5625 -0.671875 1.359375 -1.015625q0.796875 -0.359375 1.78125 -0.359375q0.96875 0 1.734375 0.359375q0.765625 0.34375 1.296875 0.96875q0.546875 0.625 0.828125 1.484375q0.296875 0.859375 0.296875 1.875l0 0.71875l-6.921875 0l0 0.4375q0 0.625 0.1875 1.15625q0.203125 0.53125 0.5625 0.921875q0.375 0.390625 0.90625 0.625q0.53125 0.21875 1.203125 0.21875q0.921875 0 1.59375 -0.421875q0.6875 -0.4375 1.0625 -1.25l1.0625 0.765625q-0.46875 1.0 -1.46875 1.609375q-0.984375 0.59375 -2.34375 0.59375zm0 -8.8125q-0.609375 0 -1.125 0.21875q-0.5 0.203125 -0.859375 0.59375q-0.359375 0.390625 -0.578125 0.921875q-0.203125 0.53125 -0.203125 1.171875l0 0.125l5.328125 0l0 -0.203125q0 -1.28125 -0.703125 -2.046875q-0.703125 -0.78125 -1.859375 -0.78125zm5.20578 8.59375l3.5625 -4.84375l-3.40625 -4.78125l1.75 0l2.4375 3.578125l0.0625 0l2.53125 -3.578125l1.671875 0l-3.40625 4.65625l3.46875 4.96875l-1.75 0l-2.5 -3.765625l-0.0625 0l-2.703125 3.765625l-1.65625 0zm12.78685 0q-0.796875 0 -1.203125 -0.4375q-0.390625 -0.4375 -0.390625 -1.140625l0 -6.75l-1.578125 0l0 -1.296875l0.890625 0q0.484375 0 0.65625 -0.1875q0.1875 -0.203125 0.1875 -0.6875l0 -1.796875l1.34375 0l0 2.671875l2.109375 0l0 1.296875l-2.109375 0l0 7.015625l1.953125 0l0 1.3125l-1.859375 0z" fill-rule="nonzero"/><path fill="#20272b" d="m347.86612 113.15997l155.1496 0l0 77.98425l-155.1496 0z" fill-rule="evenodd"/><path stroke="#000000" stroke-width="1.0" stroke-linejoin="round" stroke-linecap="butt" d="m347.86612 113.15997l155.1496 0l0 77.98425l-155.1496 0z" fill-rule="evenodd"/><path fill="#f1f1f1" d="m385.78143 159.29085q-2.484375 0 -3.875 -1.6875q-1.375 -1.6875 -1.375 -4.96875q0 -3.28125 1.375 -5.046875q1.390625 -1.765625 3.875 -1.765625q1.640625 0 2.75 0.75q1.109375 0.75 1.71875 2.109375l-1.265625 0.765625q-0.390625 -1.015625 -1.203125 -1.609375q-0.796875 -0.609375 -2.0 -0.609375q-0.84375 0 -1.515625 0.3125q-0.65625 0.3125 -1.109375 0.90625q-0.453125 0.59375 -0.703125 1.40625q-0.234375 0.8125 -0.234375 1.8125l0 1.9375q0 2.015625 0.921875 3.15625q0.9375 1.140625 2.640625 1.140625q1.25 0 2.078125 -0.640625q0.84375 -0.65625 1.234375 -1.71875l1.25 0.78125q-0.609375 1.390625 -1.765625 2.1875q-1.15625 0.78125 -2.796875 0.78125zm12.773041 -9.84375l1.484375 0l-4.3125 11.859375q-0.171875 0.4375 -0.34375 0.71875q-0.171875 0.296875 -0.421875 0.453125q-0.234375 0.171875 -0.59375 0.25q-0.359375 0.078125 -0.890625 0.078125l-0.765625 0l0 -1.3125l1.515625 0l0.734375 -2.046875l-3.609375 -10.0l1.5 0l2.3125 6.546875l0.453125 1.5625l0.09375 0l0.515625 -1.5625l2.328125 -6.546875zm3.3719788 0l1.5 0l0 1.5625l0.078125 0q0.375 -0.90625 1.09375 -1.34375q0.71875 -0.4375 1.71875 -0.4375q0.890625 0 1.625 0.359375q0.734375 0.34375 1.234375 1.0q0.515625 0.65625 0.78125 1.59375q0.28125 0.921875 0.28125 2.078125q0 1.15625 -0.28125 2.09375q-0.265625 0.921875 -0.78125 1.578125q-0.5 0.65625 -1.234375 1.015625q-0.734375 0.34375 -1.625 0.34375q-1.953125 0 -2.8125 -1.78125l-0.078125 0l0 5.296875l-1.5 0l0 -13.359375zm3.984375 8.5q1.265625 0 1.984375 -0.78125q0.734375 -0.796875 0.734375 -2.09375l0 -1.640625q0 -1.28125 -0.734375 -2.0625q-0.71875 -0.796875 -1.984375 -0.796875q-0.5 0 -0.96875 0.140625q-0.453125 0.125 -0.796875 0.375q-0.328125 0.234375 -0.53125 0.59375q-0.1875 0.34375 -0.1875 0.734375l0 3.578125q0 0.46875 0.1875 0.828125q0.203125 0.359375 0.53125 0.625q0.34375 0.25 0.796875 0.375q0.46875 0.125 0.96875 0.125zm6.8362427 -12.6875l1.5 0l0 5.75l0.078125 0q0.34375 -0.8125 0.984375 -1.296875q0.65625 -0.484375 1.734375 -0.484375q1.5 0 2.359375 0.96875q0.875 0.953125 0.875 2.703125l0 6.171875l-1.5 0l0 -5.90625q0 -2.59375 -2.1875 -2.59375q-0.4375 0 -0.859375 0.109375q-0.421875 0.109375 -0.765625 0.34375q-0.328125 0.21875 -0.53125 0.5625q-0.1875 0.34375 -0.1875 0.8125l0 6.671875l-1.5 0l0 -13.8125zm14.221771 14.03125q-0.984375 0 -1.78125 -0.34375q-0.796875 -0.359375 -1.359375 -1.015625q-0.5625 -0.671875 -0.875 -1.59375q-0.3125 -0.921875 -0.3125 -2.078125q0 -1.140625 0.3125 -2.0625q0.3125 -0.9375 0.875 -1.59375q0.5625 -0.671875 1.359375 -1.015625q0.796875 -0.359375 1.78125 -0.359375q0.96875 0 1.734375 0.359375q0.765625 0.34375 1.296875 0.96875q0.546875 0.625 0.828125 1.484375q0.296875 0.859375 0.296875 1.875l0 0.71875l-6.921875 0l0 0.4375q0 0.625 0.1875 1.15625q0.203125 0.53125 0.5625 0.921875q0.375 0.390625 0.90625 0.625q0.53125 0.21875 1.203125 0.21875q0.921875 0 1.59375 -0.421875q0.6875 -0.4375 1.0625 -1.25l1.0625 0.765625q-0.46875 1.0 -1.46875 1.609375q-0.984375 0.59375 -2.34375 0.59375zm0 -8.8125q-0.609375 0 -1.125 0.21875q-0.5 0.203125 -0.859375 0.59375q-0.359375 0.390625 -0.578125 0.921875q-0.203125 0.53125 -0.203125 1.171875l0 0.125l5.328125 0l0 -0.203125q0 -1.28125 -0.703125 -2.046875q-0.703125 -0.78125 -1.859375 -0.78125zm6.617279 8.59375l0 -9.625l1.5 0l0 1.765625l0.09375 0q0.265625 -0.6875 0.9375 -1.21875q0.671875 -0.546875 1.84375 -0.546875l0.578125 0l0 1.484375l-0.875 0q-1.21875 0 -1.90625 0.46875q-0.671875 0.453125 -0.671875 1.140625l0 6.53125l-1.5 0zm9.062134 0q-0.796875 0 -1.203125 -0.4375q-0.390625 -0.4375 -0.390625 -1.140625l0 -6.75l-1.578125 0l0 -1.296875l0.890625 0q0.484375 0 0.65625 -0.1875q0.1875 -0.203125 0.1875 -0.6875l0 -1.796875l1.34375 0l0 2.671875l2.109375 0l0 1.296875l-2.109375 0l0 7.015625l1.953125 0l0 1.3125l-1.859375 0zm7.9580383 0.21875q-0.984375 0 -1.78125 -0.34375q-0.796875 -0.359375 -1.359375 -1.015625q-0.5625 -0.671875 -0.875 -1.59375q-0.3125 -0.921875 -0.3125 -2.078125q0 -1.140625 0.3125 -2.0625q0.3125 -0.9375 0.875 -1.59375q0.5625 -0.671875 1.359375 -1.015625q0.796875 -0.359375 1.78125 -0.359375q0.96875 0 1.734375 0.359375q0.765625 0.34375 1.296875 0.96875q0.546875 0.625 0.828125 1.484375q0.296875 0.859375 0.296875 1.875l0 0.71875l-6.921875 0l0 0.4375q0 0.625 0.1875 1.15625q0.203125 0.53125 0.5625 0.921875q0.375 0.390625 0.90625 0.625q0.53125 0.21875 1.203125 0.21875q0.921875 0 1.59375 -0.421875q0.6875 -0.4375 1.0625 -1.25l1.0625 0.765625q-0.46875 1.0 -1.46875 1.609375q-0.984375 0.59375 -2.34375 0.59375zm0 -8.8125q-0.609375 0 -1.125 0.21875q-0.5 0.203125 -0.859375 0.59375q-0.359375 0.390625 -0.578125 0.921875q-0.203125 0.53125 -0.203125 1.171875l0 0.125l5.328125 0l0 -0.203125q0 -1.28125 -0.703125 -2.046875q-0.703125 -0.78125 -1.859375 -0.78125zm5.20578 8.59375l3.5625 -4.84375l-3.40625 -4.78125l1.75 0l2.4375 3.578125l0.0625 0l2.53125 -3.578125l1.671875 0l-3.40625 4.65625l3.46875 4.96875l-1.75 0l-2.5 -3.765625l-0.0625 0l-2.703125 3.765625l-1.65625 0zm12.786865 0q-0.796875 0 -1.203125 -0.4375q-0.390625 -0.4375 -0.390625 -1.140625l0 -6.75l-1.578125 0l0 -1.296875l0.890625 0q0.484375 0 0.65625 -0.1875q0.1875 -0.203125 0.1875 -0.6875l0 -1.796875l1.34375 0l0 2.671875l2.109375 0l0 1.296875l-2.109375 0l0 7.015625l1.953125 0l0 1.3125l-1.859375 0z" fill-rule="nonzero"/><path fill="#20272b" d="m173.07642 365.6065l155.1496 0l0 77.98425l-155.1496 0z" fill-rule="evenodd"/><path stroke="#000000" stroke-width="1.0" stroke-linejoin="round" stroke-linecap="butt" d="m173.07642 365.6065l155.1496 0l0 77.98425l-155.1496 0z" fill-rule="evenodd"/><path fill="#f1f1f1" d="m190.60092 411.51865l-1.5625 0l0 -13.015625l5.1875 0q1.71875 0 2.671875 0.953125q0.96875 0.9375 0.96875 2.734375q0 1.4375 -0.671875 2.359375q-0.65625 0.921875 -1.9375 1.21875l2.984375 5.75l-1.78125 0l-2.8125 -5.59375l-3.046875 0l0 5.59375zm3.625 -6.9375q0.9375 0 1.4375 -0.484375q0.515625 -0.484375 0.515625 -1.390625l0 -0.96875q0 -0.890625 -0.515625 -1.375q-0.5 -0.484375 -1.4375 -0.484375l-3.625 0l0 4.703125l3.625 0zm13.409592 6.9375q-0.828125 0 -1.203125 -0.4375q-0.359375 -0.453125 -0.453125 -1.125l-0.09375 0q-0.3125 0.890625 -1.046875 1.34375q-0.71875 0.4375 -1.734375 0.4375q-1.53125 0 -2.375 -0.78125q-0.84375 -0.78125 -0.84375 -2.125q0 -1.359375 0.984375 -2.078125q1.0 -0.734375 3.109375 -0.734375l1.90625 0l0 -0.953125q0 -1.03125 -0.5625 -1.5625q-0.5625 -0.546875 -1.71875 -0.546875q-0.875 0 -1.46875 0.390625q-0.578125 0.390625 -0.96875 1.046875l-0.890625 -0.84375q0.390625 -0.78125 1.25 -1.328125q0.859375 -0.546875 2.15625 -0.546875q1.75 0 2.71875 0.859375q0.984375 0.84375 0.984375 2.375l0 5.296875l1.09375 0l0 1.3125l-0.84375 0zm-4.28125 -1.046875q0.546875 0 1.015625 -0.125q0.46875 -0.140625 0.796875 -0.375q0.34375 -0.25 0.53125 -0.5625q0.1875 -0.3125 0.1875 -0.6875l0 -1.59375l-1.984375 0q-1.28125 0 -1.875 0.375q-0.578125 0.375 -0.578125 1.09375l0 0.390625q0 0.703125 0.515625 1.09375q0.515625 0.390625 1.390625 0.390625zm7.243683 1.046875l0 -9.625l1.5 0l0 1.5625l0.078125 0q0.34375 -0.8125 0.984375 -1.296875q0.65625 -0.484375 1.734375 -0.484375q1.5 0 2.359375 0.96875q0.875 0.953125 0.875 2.703125l0 6.171875l-1.5 0l0 -5.90625q0 -2.59375 -2.1875 -2.59375q-0.4375 0 -0.859375 0.109375q-0.421875 0.109375 -0.765625 0.34375q-0.328125 0.21875 -0.53125 0.5625q-0.1875 0.34375 -0.1875 0.8125l0 6.671875l-1.5 0zm16.768631 -1.5625l-0.078125 0q-0.875 1.78125 -2.828125 1.78125q-0.890625 0 -1.625 -0.34375q-0.71875 -0.359375 -1.234375 -1.015625q-0.515625 -0.65625 -0.78125 -1.578125q-0.265625 -0.9375 -0.265625 -2.09375q0 -1.15625 0.265625 -2.078125q0.265625 -0.9375 0.78125 -1.59375q0.515625 -0.65625 1.234375 -1.0q0.734375 -0.359375 1.625 -0.359375q1.015625 0 1.734375 0.4375q0.71875 0.4375 1.09375 1.34375l0.078125 0l0 -5.75l1.484375 0l0 13.8125l-1.484375 0l0 -1.5625zm-2.484375 0.4375q0.5 0 0.953125 -0.125q0.453125 -0.125 0.78125 -0.375q0.34375 -0.265625 0.546875 -0.625q0.203125 -0.359375 0.203125 -0.828125l0 -3.578125q0 -0.390625 -0.203125 -0.734375q-0.203125 -0.359375 -0.546875 -0.59375q-0.328125 -0.25 -0.78125 -0.375q-0.453125 -0.140625 -0.953125 -0.140625q-1.265625 0 -2.0 0.796875q-0.734375 0.78125 -0.734375 2.0625l0 1.640625q0 1.296875 0.734375 2.09375q0.734375 0.78125 2.0 0.78125zm10.773758 1.34375q-0.96875 0 -1.765625 -0.34375q-0.796875 -0.359375 -1.375 -1.015625q-0.5625 -0.671875 -0.890625 -1.59375q-0.3125 -0.921875 -0.3125 -2.078125q0 -1.140625 0.3125 -2.0625q0.328125 -0.9375 0.890625 -1.59375q0.578125 -0.671875 1.375 -1.015625q0.796875 -0.359375 1.765625 -0.359375q0.96875 0 1.765625 0.359375q0.796875 0.34375 1.375 1.015625q0.578125 0.65625 0.890625 1.59375q0.328125 0.921875 0.328125 2.0625q0 1.15625 -0.328125 2.078125q-0.3125 0.921875 -0.890625 1.59375q-0.578125 0.65625 -1.375 1.015625q-0.796875 0.34375 -1.765625 0.34375zm0 -1.3125q1.21875 0 1.984375 -0.75q0.765625 -0.75 0.765625 -2.28125l0 -1.375q0 -1.53125 -0.765625 -2.28125q-0.765625 -0.75 -1.984375 -0.75q-1.203125 0 -1.96875 0.75q-0.765625 0.75 -0.765625 2.28125l0 1.375q0 1.53125 0.765625 2.28125q0.765625 0.75 1.96875 0.75zm6.806885 1.09375l0 -9.625l1.5 0l0 1.5625l0.078125 0q0.171875 -0.375 0.375 -0.6875q0.21875 -0.328125 0.515625 -0.578125q0.3125 -0.25 0.71875 -0.375q0.421875 -0.140625 0.984375 -0.140625q0.953125 0 1.75 0.453125q0.796875 0.453125 1.1875 1.5l0.046875 0q0.265625 -0.78125 0.96875 -1.359375q0.71875 -0.59375 1.953125 -0.59375q1.484375 0 2.3125 0.96875q0.828125 0.953125 0.828125 2.703125l0 6.171875l-1.5 0l0 -5.90625q0 -1.296875 -0.5 -1.9375q-0.5 -0.65625 -1.609375 -0.65625q-0.4375 0 -0.84375 0.109375q-0.40625 0.109375 -0.71875 0.34375q-0.3125 0.21875 -0.5 0.5625q-0.1875 0.34375 -0.1875 0.8125l0 6.671875l-1.5 0l0 -5.90625q0 -1.296875 -0.5 -1.9375q-0.5 -0.65625 -1.5625 -0.65625q-0.453125 0 -0.859375 0.109375q-0.40625 0.109375 -0.734375 0.34375q-0.3125 0.21875 -0.515625 0.5625q-0.1875 0.34375 -0.1875 0.8125l0 6.671875l-1.5 0zm20.846054 0l0 -13.015625l5.1875 0q1.75 0 2.6875 1.0q0.953125 0.984375 0.953125 2.71875q0 1.734375 -0.953125 2.734375q-0.9375 1.0 -2.6875 1.0l-3.625 0l0 5.5625l-1.5625 0zm1.5625 -6.9375l3.625 0q0.9375 0 1.4375 -0.484375q0.515625 -0.484375 0.515625 -1.390625l0 -0.96875q0 -0.890625 -0.515625 -1.375q-0.5 -0.484375 -1.4375 -0.484375l-3.625 0l0 4.703125zm12.854218 7.15625q-0.96875 0 -1.765625 -0.34375q-0.796875 -0.359375 -1.375 -1.015625q-0.5625 -0.671875 -0.890625 -1.59375q-0.3125 -0.921875 -0.3125 -2.078125q0 -1.140625 0.3125 -2.0625q0.328125 -0.9375 0.890625 -1.59375q0.578125 -0.671875 1.375 -1.015625q0.796875 -0.359375 1.765625 -0.359375q0.96875 0 1.765625 0.359375q0.796875 0.34375 1.375 1.015625q0.578125 0.65625 0.890625 1.59375q0.328125 0.921875 0.328125 2.0625q0 1.15625 -0.328125 2.078125q-0.3125 0.921875 -0.890625 1.59375q-0.578125 0.65625 -1.375 1.015625q-0.796875 0.34375 -1.765625 0.34375zm0 -1.3125q1.21875 0 1.984375 -0.75q0.765625 -0.75 0.765625 -2.28125l0 -1.375q0 -1.53125 -0.765625 -2.28125q-0.765625 -0.75 -1.984375 -0.75q-1.203125 0 -1.96875 0.75q-0.765625 0.75 -0.765625 2.28125l0 1.375q0 1.53125 0.765625 2.28125q0.765625 0.75 1.96875 0.75zm10.44751 1.3125q-0.96875 0 -1.765625 -0.34375q-0.796875 -0.359375 -1.375 -1.015625q-0.5625 -0.671875 -0.890625 -1.59375q-0.3125 -0.921875 -0.3125 -2.078125q0 -1.140625 0.3125 -2.0625q0.328125 -0.9375 0.890625 -1.59375q0.578125 -0.671875 1.375 -1.015625q0.796875 -0.359375 1.765625 -0.359375q0.96875 0 1.765625 0.359375q0.796875 0.34375 1.375 1.015625q0.578125 0.65625 0.890625 1.59375q0.328125 0.921875 0.328125 2.0625q0 1.15625 -0.328125 2.078125q-0.3125 0.921875 -0.890625 1.59375q-0.578125 0.65625 -1.375 1.015625q-0.796875 0.34375 -1.765625 0.34375zm0 -1.3125q1.21875 0 1.984375 -0.75q0.765625 -0.75 0.765625 -2.28125l0 -1.375q0 -1.53125 -0.765625 -2.28125q-0.765625 -0.75 -1.984375 -0.75q-1.203125 0 -1.96875 0.75q-0.765625 0.75 -0.765625 2.28125l0 1.375q0 1.53125 0.765625 2.28125q0.765625 0.75 1.96875 0.75zm8.400635 1.09375q-0.78125 0 -1.1875 -0.4375q-0.40625 -0.4375 -0.40625 -1.109375l0 -12.265625l1.5 0l0 12.5l1.421875 0l0 1.3125l-1.328125 0z" fill-rule="nonzero"/><path fill="#f1f1f1" d="m312.36365 411.51865l-1.59375 0l-2.234375 -5.328125l-0.078125 0l-4.296875 5.328125l-1.75 0l5.375 -6.671875l-2.671875 -6.34375l1.59375 0l2.21875 5.34375l0.078125 0l4.296875 -5.34375l1.765625 0l-5.46875 6.609375l2.765625 6.40625z" fill-rule="nonzero"/><path fill="#000000" fill-opacity="0.0" d="m235.22041 152.04326l0 0c0 -9.401886 7.269211 -17.02362 16.236221 -17.02362l0 0c4.3061066 0 8.435852 1.7935486 11.480743 4.9860992c3.0448914 3.1925507 4.7554626 7.5225677 4.7554626 12.037521l0 0c0 9.401886 -7.2691956 17.02362 -16.236206 17.02362l0 0c-8.9670105 0 -16.236221 -7.6217346 -16.236221 -17.02362z" fill-rule="evenodd"/><path fill="#000000" fill-opacity="0.0" d="m251.45663 135.01964l0 34.04724m-16.236221 -17.02362l32.472427 0" fill-rule="evenodd"/><path fill="#000000" fill-opacity="0.0" d="m235.22041 152.04326l0 0c0 -9.401886 7.269211 -17.02362 16.236221 -17.02362l0 0c4.3061066 0 8.435852 1.7935486 11.480743 4.9860992c3.0448914 3.1925507 4.7554626 7.5225677 4.7554626 12.037521l0 0c0 9.401886 -7.2691956 17.02362 -16.236206 17.02362l0 0c-8.9670105 0 -16.236221 -7.6217346 -16.236221 -17.02362z" fill-rule="evenodd"/><path stroke="#000000" stroke-width="4.0" stroke-linejoin="round" stroke-linecap="butt" d="m251.45663 135.01964l0 34.04724m-16.236221 -17.02362l32.472427 0" fill-rule="evenodd"/><path stroke="#000000" stroke-width="4.0" stroke-linejoin="round" stroke-linecap="butt" d="m235.22041 152.04326l0 0c0 -9.401886 7.269211 -17.02362 16.236221 -17.02362l0 0c4.3061066 0 8.435852 1.7935486 11.480743 4.9860992c3.0448914 3.1925507 4.7554626 7.5225677 4.7554626 12.037521l0 0c0 9.401886 -7.2691956 17.02362 -16.236206 17.02362l0 0c-8.9670105 0 -16.236221 -7.6217346 -16.236221 -17.02362z" fill-rule="evenodd"/><path fill="#000000" fill-opacity="0.0" d="m234.36377 289.68353l0 0c0 -9.401886 7.269211 -17.02362 16.236221 -17.02362l0 0c4.306122 0 8.435867 1.7935486 11.480759 4.9861145c3.0448608 3.1925354 4.7554626 7.5225525 4.7554626 12.037506l0 0c0 9.401886 -7.2691956 17.02362 -16.236221 17.02362l0 0c-8.9670105 0 -16.236221 -7.6217346 -16.236221 -17.02362z" fill-rule="evenodd"/><path fill="#000000" fill-opacity="0.0" d="m250.59999 272.6599l0 34.04724m-16.236221 -17.02362l32.472443 0" fill-rule="evenodd"/><path fill="#000000" fill-opacity="0.0" d="m234.36377 289.68353l0 0c0 -9.401886 7.269211 -17.02362 16.236221 -17.02362l0 0c4.306122 0 8.435867 1.7935486 11.480759 4.9861145c3.0448608 3.1925354 4.7554626 7.5225525 4.7554626 12.037506l0 0c0 9.401886 -7.2691956 17.02362 -16.236221 17.02362l0 0c-8.9670105 0 -16.236221 -7.6217346 -16.236221 -17.02362z" fill-rule="evenodd"/><path stroke="#000000" stroke-width="4.0" stroke-linejoin="round" stroke-linecap="butt" d="m250.59999 272.6599l0 34.04724m-16.236221 -17.02362l32.472443 0" fill-rule="evenodd"/><path stroke="#000000" stroke-width="4.0" stroke-linejoin="round" stroke-linecap="butt" d="m234.36377 289.68353l0 0c0 -9.401886 7.269211 -17.02362 16.236221 -17.02362l0 0c4.306122 0 8.435867 1.7935486 11.480759 4.9861145c3.0448608 3.1925354 4.7554626 7.5225525 4.7554626 12.037506l0 0c0 9.401886 -7.2691956 17.02362 -16.236221 17.02362l0 0c-8.9670105 0 -16.236221 -7.6217346 -16.236221 -17.02362z" fill-rule="evenodd"/><path fill="#000000" fill-opacity="0.0" d="m155.14961 152.1521l80.06299 -0.09448242" fill-rule="evenodd"/><path stroke="#000000" stroke-width="1.0" stroke-linejoin="round" stroke-linecap="butt" d="m155.14961 152.1521l74.06299 -0.087402344" fill-rule="evenodd"/><path fill="#000000" stroke="#000000" stroke-width="1.0" stroke-linecap="butt" d="m229.21455 153.71642l4.536148 -1.657074l-4.5400543 -1.6463776z" fill-rule="evenodd"/><path fill="#000000" fill-opacity="0.0" d="m267.69284 152.04326l80.188995 0.09448242" fill-rule="evenodd"/><path stroke="#000000" stroke-width="1.0" stroke-linejoin="round" stroke-linecap="butt" d="m267.69284 152.04326l74.188995 0.0874176" fill-rule="evenodd"/><path fill="#000000" stroke="#000000" stroke-width="1.0" stroke-linecap="butt" d="m341.8799 153.78241l4.540039 -1.6463928l-4.5361633 -1.657074z" fill-rule="evenodd"/><path fill="#000000" fill-opacity="0.0" d="m251.48392 78.02072l-1.0708618 56.755905" fill-rule="evenodd"/><path stroke="#000000" stroke-width="1.0" stroke-linejoin="round" stroke-linecap="butt" d="m251.48392 78.02073l-0.9576721 50.756966" fill-rule="evenodd"/><path fill="#000000" stroke="#000000" stroke-width="1.0" stroke-linecap="butt" d="m248.8748 128.74654l1.5658417 4.568451l1.7370453 -4.506134z" fill-rule="evenodd"/><path fill="#000000" fill-opacity="0.0" d="m250.65123 365.6065l-0.06300354 -58.897614" fill-rule="evenodd"/><path stroke="#000000" stroke-width="1.0" stroke-linejoin="round" stroke-linecap="butt" d="m250.65123 365.6065l-0.05657959 -52.897614" fill-rule="evenodd"/><path fill="#000000" stroke="#000000" stroke-width="1.0" stroke-linecap="butt" d="m252.24638 312.70712l-1.6565857 -4.5363464l-1.6468811 4.5398865z" fill-rule="evenodd"/><path fill="#000000" fill-opacity="0.0" d="m234.36377 289.68353l-79.212585 0.09448242" fill-rule="evenodd"/><path stroke="#000000" stroke-width="1.0" stroke-linejoin="round" stroke-linecap="butt" d="m234.36378 289.68353l-73.212616 0.08734131" fill-rule="evenodd"/><path fill="#000000" stroke="#000000" stroke-width="1.0" stroke-linecap="butt" d="m161.1492 288.11914l-4.5361176 1.657135l4.5400543 1.6463318z" fill-rule="evenodd"/><path fill="#000000" fill-opacity="0.0" d="m425.44092 191.14423l0 98.55118l-158.61417 0" fill-rule="evenodd"/><path stroke="#000000" stroke-width="1.0" stroke-linejoin="round" stroke-linecap="butt" d="m425.44092 191.14424l0 98.55116l-152.61417 0" fill-rule="evenodd"/><path fill="#000000" stroke="#000000" stroke-width="1.0" stroke-linecap="butt" d="m272.82675 288.04367l-4.538086 1.6517334l4.538086 1.6517334z" fill-rule="evenodd"/><path fill="#000000" fill-opacity="0.0" d="m37.49048 86.85488l80.0 0l0 29.6063l-80.0 0z" fill-rule="evenodd"/><path fill="#000000" d="m54.516388 106.55988l1.3125 -0.109375q0.09375 0.78125 0.421875 1.296875q0.34375 0.5 1.0625 0.8125q0.71875 0.3125 1.609375 0.3125q0.796875 0 1.40625 -0.234375q0.609375 -0.234375 0.90625 -0.640625q0.296875 -0.421875 0.296875 -0.90625q0 -0.5 -0.296875 -0.859375q-0.28125 -0.375 -0.9375 -0.625q-0.421875 -0.171875 -1.875 -0.515625q-1.4375 -0.34375 -2.015625 -0.65625q-0.75 -0.390625 -1.125 -0.96875q-0.359375 -0.59375 -0.359375 -1.3125q0 -0.796875 0.4375 -1.484375q0.453125 -0.6875 1.3125 -1.046875q0.875 -0.359375 1.9375 -0.359375q1.171875 0 2.0625 0.375q0.890625 0.375 1.359375 1.109375q0.484375 0.734375 0.515625 1.65625l-1.328125 0.09375q-0.109375 -1.0 -0.734375 -1.5q-0.609375 -0.515625 -1.8125 -0.515625q-1.265625 0 -1.84375 0.46875q-0.578125 0.46875 -0.578125 1.109375q0 0.5625 0.421875 0.9375q0.390625 0.359375 2.078125 0.75q1.703125 0.375 2.328125 0.65625q0.921875 0.421875 1.359375 1.078125q0.4375 0.640625 0.4375 1.484375q0 0.84375 -0.484375 1.59375q-0.484375 0.734375 -1.390625 1.140625q-0.890625 0.40625 -2.015625 0.40625q-1.421875 0 -2.390625 -0.40625q-0.953125 -0.421875 -1.5 -1.25q-0.546875 -0.828125 -0.578125 -1.890625zm15.291229 0.921875l1.328125 0.171875q-0.3125 1.171875 -1.171875 1.8125q-0.84375 0.640625 -2.171875 0.640625q-1.671875 0 -2.65625 -1.015625q-0.96875 -1.03125 -0.96875 -2.890625q0 -1.921875 0.984375 -2.96875q1.0 -1.0625 2.578125 -1.0625q1.515625 0 2.484375 1.03125q0.96875 1.03125 0.96875 2.921875q0 0.109375 -0.015625 0.34375l-5.65625 0q0.0625 1.25 0.703125 1.921875q0.640625 0.65625 1.59375 0.65625q0.703125 0 1.203125 -0.359375q0.5 -0.375 0.796875 -1.203125zm-4.234375 -2.078125l4.25 0q-0.09375 -0.953125 -0.484375 -1.4375q-0.625 -0.75 -1.609375 -0.75q-0.875 0 -1.484375 0.59375q-0.609375 0.59375 -0.671875 1.59375zm7.182358 4.53125l0 -7.59375l1.15625 0l0 1.078125q0.84375 -1.25 2.421875 -1.25q0.6875 0 1.265625 0.25q0.578125 0.234375 0.859375 0.640625q0.28125 0.40625 0.40625 0.953125q0.0625 0.359375 0.0625 1.25l0 4.671875l-1.28125 0l0 -4.625q0 -0.78125 -0.15625 -1.171875q-0.15625 -0.390625 -0.546875 -0.625q-0.375 -0.234375 -0.890625 -0.234375q-0.8125 0 -1.421875 0.53125q-0.59375 0.515625 -0.59375 1.96875l0 4.15625l-1.28125 0zm13.072983 0l0 -0.953125q-0.71875 1.125 -2.125 1.125q-0.90625 0 -1.671875 -0.5q-0.75 -0.5 -1.171875 -1.390625q-0.421875 -0.90625 -0.421875 -2.078125q0 -1.140625 0.375 -2.0625q0.390625 -0.921875 1.140625 -1.40625q0.765625 -0.5 1.703125 -0.5q0.6875 0 1.21875 0.296875q0.53125 0.28125 0.875 0.734375l0 -3.75l1.28125 0l0 10.484375l-1.203125 0zm-4.0625 -3.796875q0 1.46875 0.609375 2.1875q0.625 0.71875 1.453125 0.71875q0.84375 0 1.4375 -0.6875q0.59375 -0.6875 0.59375 -2.109375q0 -1.5625 -0.609375 -2.28125q-0.59375 -0.734375 -1.484375 -0.734375q-0.84375 0 -1.421875 0.703125q-0.578125 0.703125 -0.578125 2.203125zm12.494858 1.34375l1.328125 0.171875q-0.3125 1.171875 -1.171875 1.8125q-0.84375 0.640625 -2.171875 0.640625q-1.671875 0 -2.65625 -1.015625q-0.96875 -1.03125 -0.96875 -2.890625q0 -1.921875 0.984375 -2.96875q1.0 -1.0625 2.578125 -1.0625q1.515625 0 2.484375 1.03125q0.96875 1.03125 0.96875 2.921875q0 0.109375 -0.015625 0.34375l-5.65625 0q0.0625 1.25 0.703125 1.921875q0.640625 0.65625 1.59375 0.65625q0.703125 0 1.203125 -0.359375q0.5 -0.375 0.796875 -1.203125zm-4.234375 -2.078125l4.25 0q-0.09375 -0.953125 -0.484375 -1.4375q-0.625 -0.75 -1.609375 -0.75q-0.875 0 -1.484375 0.59375q-0.609375 0.59375 -0.671875 1.59375zm7.166733 4.53125l0 -7.59375l1.15625 0l0 1.140625q0.453125 -0.796875 0.828125 -1.046875q0.375 -0.265625 0.8125 -0.265625q0.65625 0 1.328125 0.40625l-0.4375 1.203125q-0.46875 -0.28125 -0.953125 -0.28125q-0.421875 0 -0.765625 0.25q-0.328125 0.25 -0.46875 0.703125q-0.21875 0.6875 -0.21875 1.5l0 3.984375l-1.28125 0z" fill-rule="nonzero"/><path fill="#000000" fill-opacity="0.0" d="m37.49048 225.6207l80.0 0l0 29.606293l-80.0 0z" fill-rule="evenodd"/><path fill="#000000" d="m49.731407 248.70068l0 -10.484375l4.640625 0q1.40625 0 2.140625 0.28125q0.734375 0.28125 1.171875 1.0q0.4375 0.703125 0.4375 1.578125q0 1.109375 -0.734375 1.875q-0.71875 0.765625 -2.234375 0.984375q0.5625 0.25 0.84375 0.515625q0.609375 0.5625 1.15625 1.390625l1.8125 2.859375l-1.734375 0l-1.390625 -2.1875q-0.609375 -0.9375 -1.0 -1.4375q-0.390625 -0.5 -0.703125 -0.703125q-0.3125 -0.203125 -0.640625 -0.28125q-0.234375 -0.046875 -0.765625 -0.046875l-1.609375 0l0 4.65625l-1.390625 0zm1.390625 -5.859375l2.984375 0q0.9375 0 1.46875 -0.1875q0.546875 -0.203125 0.828125 -0.640625q0.28125 -0.4375 0.28125 -0.9375q0 -0.75 -0.546875 -1.21875q-0.53125 -0.484375 -1.703125 -0.484375l-3.3125 0l0 3.46875zm14.209274 3.40625l1.328125 0.171875q-0.3125 1.171875 -1.171875 1.8125q-0.84375 0.640625 -2.171875 0.640625q-1.671875 0 -2.65625 -1.015625q-0.96875 -1.03125 -0.96875 -2.890625q0 -1.921875 0.984375 -2.96875q1.0 -1.0625 2.578125 -1.0625q1.515625 0 2.484375 1.03125q0.96875 1.03125 0.96875 2.921875q0 0.109375 -0.015625 0.34375l-5.65625 0q0.0625 1.25 0.703125 1.921875q0.640625 0.65625 1.59375 0.65625q0.703125 0 1.203125 -0.359375q0.5 -0.375 0.796875 -1.203125zm-4.234375 -2.078125l4.25 0q-0.09375 -0.953125 -0.484375 -1.4375q-0.625 -0.75 -1.609375 -0.75q-0.875 0 -1.484375 0.59375q-0.609375 0.59375 -0.671875 1.59375zm12.135483 1.75l1.265625 0.15625q-0.203125 1.3125 -1.0625 2.0625q-0.84375 0.734375 -2.09375 0.734375q-1.5625 0 -2.515625 -1.015625q-0.9375 -1.03125 -0.9375 -2.921875q0 -1.234375 0.40625 -2.15625q0.40625 -0.921875 1.234375 -1.375q0.84375 -0.46875 1.8125 -0.46875q1.25 0 2.03125 0.625q0.78125 0.625 1.015625 1.765625l-1.265625 0.203125q-0.171875 -0.765625 -0.625 -1.15625q-0.453125 -0.390625 -1.09375 -0.390625q-0.984375 0 -1.59375 0.703125q-0.609375 0.703125 -0.609375 2.203125q0 1.53125 0.578125 2.234375q0.59375 0.6875 1.546875 0.6875q0.75 0 1.265625 -0.453125q0.515625 -0.46875 0.640625 -1.4375zm7.578125 0.328125l1.328125 0.171875q-0.3125 1.171875 -1.171875 1.8125q-0.84375 0.640625 -2.171875 0.640625q-1.671875 0 -2.65625 -1.015625q-0.96875 -1.03125 -0.96875 -2.890625q0 -1.921875 0.984375 -2.96875q1.0 -1.0625 2.578125 -1.0625q1.515625 0 2.484375 1.03125q0.96875 1.03125 0.96875 2.921875q0 0.109375 -0.015625 0.34375l-5.65625 0q0.0625 1.25 0.703125 1.921875q0.640625 0.65625 1.59375 0.65625q0.703125 0 1.203125 -0.359375q0.5 -0.375 0.796875 -1.203125zm-4.234375 -2.078125l4.25 0q-0.09375 -0.953125 -0.484375 -1.4375q-0.625 -0.75 -1.609375 -0.75q-0.875 0 -1.484375 0.59375q-0.609375 0.59375 -0.671875 1.59375zm7.182358 -4.484375l0 -1.46875l1.296875 0l0 1.46875l-1.296875 0zm0 9.015625l0 -7.59375l1.296875 0l0 7.59375l-1.296875 0zm5.3655243 0l-2.890625 -7.59375l1.359375 0l1.625 4.546875q0.265625 0.734375 0.5 1.53125q0.15625 -0.609375 0.46875 -1.453125l1.6875 -4.625l1.328125 0l-2.875 7.59375l-1.203125 0zm10.421875 -2.453125l1.328125 0.171875q-0.3125 1.171875 -1.171875 1.8125q-0.84375 0.640625 -2.171875 0.640625q-1.671875 0 -2.65625 -1.015625q-0.96875 -1.03125 -0.96875 -2.890625q0 -1.921875 0.984375 -2.96875q1.0 -1.0625 2.578125 -1.0625q1.515625 0 2.484375 1.03125q0.96875 1.03125 0.96875 2.921875q0 0.109375 -0.015625 0.34375l-5.65625 0q0.0625 1.25 0.703125 1.921875q0.640625 0.65625 1.59375 0.65625q0.703125 0 1.203125 -0.359375q0.5 -0.375 0.796875 -1.203125zm-4.234375 -2.078125l4.25 0q-0.09375 -0.953125 -0.484375 -1.4375q-0.625 -0.75 -1.609375 -0.75q-0.875 0 -1.484375 0.59375q-0.609375 0.59375 -0.671875 1.59375zm7.166733 4.53125l0 -7.59375l1.15625 0l0 1.140625q0.453125 -0.796875 0.828125 -1.046875q0.375 -0.265625 0.8125 -0.265625q0.65625 0 1.328125 0.40625l-0.4375 1.203125q-0.46875 -0.28125 -0.953125 -0.28125q-0.421875 0 -0.765625 0.25q-0.328125 0.25 -0.46875 0.703125q-0.21875 0.6875 -0.21875 1.5l0 3.984375l-1.28125 0z" fill-rule="nonzero"/></g></svg>