<svg version="1.1" viewBox="0.0 0.0 554.8083989501313 214.2755905511811" fill="none" stroke="none" stroke-linecap="square" stroke-miterlimit="10" xmlns:xlink="http://www.w3.org/1999/xlink" xmlns="http://www.w3.org/2000/svg"><clipPath id="p.0"><path d="m0 0l554.8084 0l0 214.27559l-554.8084 0l0 -214.27559z" clip-rule="nonzero"/></clipPath><g clip-path="url(#p.0)"><path fill="#000000" fill-opacity="0.0" d="m0 0l554.8084 0l0 214.27559l-554.8084 0z" fill-rule="evenodd"/><path fill="#20272b" d="m0 135.73024l154.99213 0l0 78.078735l-154.99213 0z" fill-rule="evenodd"/><path stroke="#000000" stroke-width="1.0" stroke-linejoin="round" stroke-linecap="butt" d="m0 135.73024l154.99213 0l0 78.078735l-154.99213 0z" fill-rule="evenodd"/><path fill="#f1f1f1" d="m54.230682 181.90836q-1.578125 0 -2.703125 -0.59375q-1.125 -0.609375 -1.90625 -1.671875l1.15625 -0.96875q0.6875 0.90625 1.53125 1.390625q0.84375 0.46875 1.984375 0.46875q1.390625 0 2.125 -0.671875q0.75 -0.671875 0.75 -1.796875q0 -0.921875 -0.5625 -1.421875q-0.5625 -0.515625 -1.859375 -0.8125l-1.0625 -0.234375q-1.78125 -0.421875 -2.734375 -1.25q-0.9375 -0.828125 -0.9375 -2.34375q0 -0.859375 0.3125 -1.53125q0.328125 -0.671875 0.890625 -1.109375q0.578125 -0.453125 1.359375 -0.6875q0.796875 -0.234375 1.75 -0.234375q1.46875 0 2.515625 0.546875q1.0625 0.546875 1.796875 1.578125l-1.171875 0.859375q-0.546875 -0.734375 -1.3125 -1.15625q-0.765625 -0.4375 -1.90625 -0.4375q-1.25 0 -1.96875 0.53125q-0.71875 0.53125 -0.71875 1.59375q0 0.921875 0.609375 1.40625q0.609375 0.46875 1.84375 0.75l1.0625 0.25q1.921875 0.421875 2.78125 1.296875q0.859375 0.875 0.859375 2.34375q0 0.890625 -0.3125 1.625q-0.3125 0.71875 -0.890625 1.234375q-0.578125 0.5 -1.40625 0.78125q-0.828125 0.265625 -1.875 0.265625zm10.651779 0q-0.984375 0 -1.78125 -0.34375q-0.796875 -0.359375 -1.359375 -1.015625q-0.5625 -0.671875 -0.875 -1.59375q-0.3125 -0.921875 -0.3125 -2.078125q0 -1.140625 0.3125 -2.0625q0.3125 -0.9375 0.875 -1.59375q0.5625 -0.671875 1.359375 -1.015625q0.796875 -0.359375 1.78125 -0.359375q0.96875 0 1.734375 0.359375q0.765625 0.34375 1.296875 0.96875q0.546875 0.625 0.828125 1.484375q0.296875 0.859375 0.296875 1.875l0 0.71875l-6.921875 0l0 0.4375q0 0.625 0.1875 1.15625q0.203125 0.53125 0.5625 0.921875q0.375 0.390625 0.90625 0.625q0.53125 0.21875 1.203125 0.21875q0.921875 0 1.59375 -0.421875q0.6875 -0.4375 1.0625 -1.25l1.0625 0.765625q-0.46875 1.0 -1.46875 1.609375q-0.984375 0.59375 -2.34375 0.59375zm0 -8.8125q-0.609375 0 -1.125 0.21875q-0.5 0.203125 -0.859375 0.59375q-0.359375 0.390625 -0.578125 0.921875q-0.203125 0.53125 -0.203125 1.171875l0 0.125l5.328125 0l0 -0.203125q0 -1.28125 -0.703125 -2.046875q-0.703125 -0.78125 -1.859375 -0.78125zm10.242279 8.8125q-0.984375 0 -1.78125 -0.34375q-0.796875 -0.359375 -1.359375 -1.015625q-0.5625 -0.671875 -0.875 -1.59375q-0.3125 -0.921875 -0.3125 -2.078125q0 -1.140625 0.3125 -2.0625q0.3125 -0.9375 0.875 -1.59375q0.5625 -0.671875 1.359375 -1.015625q0.796875 -0.359375 1.78125 -0.359375q0.96875 0 1.734375 0.359375q0.765625 0.34375 1.296875 0.96875q0.546875 0.625 0.828125 1.484375q0.296875 0.859375 0.296875 1.875l0 0.71875l-6.921875 0l0 0.4375q0 0.625 0.1875 1.15625q0.203125 0.53125 0.5625 0.921875q0.375 0.390625 0.90625 0.625q0.53125 0.21875 1.203125 0.21875q0.921875 0 1.59375 -0.421875q0.6875 -0.4375 1.0625 -1.25l1.0625 0.765625q-0.46875 1.0 -1.46875 1.609375q-0.984375 0.59375 -2.34375 0.59375zm0 -8.8125q-0.609375 0 -1.125 0.21875q-0.5 0.203125 -0.859375 0.59375q-0.359375 0.390625 -0.578125 0.921875q-0.203125 0.53125 -0.203125 1.171875l0 0.125l5.328125 0l0 -0.203125q0 -1.28125 -0.703125 -2.046875q-0.703125 -0.78125 -1.859375 -0.78125zm12.789154 7.03125l-0.078125 0q-0.875 1.78125 -2.828125 1.78125q-0.890625 0 -1.625 -0.34375q-0.71875 -0.359375 -1.234375 -1.015625q-0.515625 -0.65625 -0.78125 -1.578125q-0.265625 -0.9375 -0.265625 -2.09375q0 -1.15625 0.265625 -2.078125q0.265625 -0.9375 0.78125 -1.59375q0.515625 -0.65625 1.234375 -1.0q0.734375 -0.359375 1.625 -0.359375q1.015625 0 1.734375 0.4375q0.71875 0.4375 1.09375 1.34375l0.078125 0l0 -5.75l1.484375 0l0 13.8125l-1.484375 0l0 -1.5625zm-2.484375 0.4375q0.5 0 0.953125 -0.125q0.453125 -0.125 0.78125 -0.375q0.34375 -0.265625 0.546875 -0.625q0.203125 -0.359375 0.203125 -0.828125l0 -3.578125q0 -0.390625 -0.203125 -0.734375q-0.203125 -0.359375 -0.546875 -0.59375q-0.328125 -0.25 -0.78125 -0.375q-0.453125 -0.140625 -0.953125 -0.140625q-1.265625 0 -2.0 0.796875q-0.734375 0.78125 -0.734375 2.0625l0 1.640625q0 1.296875 0.734375 2.09375q0.734375 0.78125 2.0 0.78125z" fill-rule="nonzero"/><path fill="#f1f1f1" d="m100.02803 181.90836q-1.4375 0 -2.625 -0.546875q-1.1875 -0.5625 -1.8125 -1.78125l1.15625 -0.84375q0.578125 1.0 1.421875 1.40625q0.84375 0.40625 1.90625 0.40625q0.8125 0 1.4375 -0.203125q0.640625 -0.21875 1.0625 -0.59375q0.421875 -0.390625 0.640625 -0.890625q0.21875 -0.515625 0.21875 -1.09375q0 -0.828125 -0.46875 -1.328125q-0.46875 -0.515625 -1.515625 -0.71875l-1.25 -0.25q-1.375 -0.25 -2.125 -1.078125q-0.734375 -0.84375 -0.734375 -2.109375q0 -0.78125 0.296875 -1.46875q0.3125 -0.703125 0.875 -1.21875q0.5625 -0.53125 1.40625 -0.84375q0.84375 -0.3125 1.921875 -0.3125q1.515625 0 2.53125 0.5625q1.015625 0.5625 1.671875 1.453125l-1.109375 0.921875q-0.53125 -0.734375 -1.296875 -1.15625q-0.765625 -0.421875 -1.890625 -0.421875q-1.328125 0 -2.109375 0.625q-0.78125 0.609375 -0.78125 1.75q0 1.640625 1.984375 2.03125l1.25 0.25q1.375 0.25 2.109375 1.078125q0.734375 0.828125 0.734375 2.15625q0 0.890625 -0.328125 1.65625q-0.3125 0.765625 -0.9375 1.34375q-0.625 0.578125 -1.546875 0.90625q-0.90625 0.3125 -2.09375 0.3125z" fill-rule="nonzero"/><path fill="#20272b" d="m199.7122 135.73024l154.99211 0l0 78.078735l-154.99211 0z" fill-rule="evenodd"/><path stroke="#000000" stroke-width="1.0" stroke-linejoin="round" stroke-linecap="butt" d="m199.7122 135.73024l154.99211 0l0 78.078735l-154.99211 0z" fill-rule="evenodd"/><path fill="#f1f1f1" d="m251.38731 168.67398l5.3593903 0q1.625 0 2.546875 0.921875q0.921875 0.90625 0.921875 2.4375q0 0.71875 -0.203125 1.234375q-0.203125 0.5 -0.53125 0.828125q-0.3125 0.3125 -0.6875 0.484375q-0.375 0.15625 -0.6875 0.203125l0 0.109375q0.359375 0.03125 0.796875 0.203125q0.4375 0.15625 0.828125 0.53125q0.390625 0.359375 0.65625 0.921875q0.265625 0.5625 0.265625 1.375q0 0.796875 -0.25 1.5q-0.25 0.6875 -0.703125 1.1875q-0.4375 0.5 -1.0625 0.796875q-0.609375 0.28125 -1.328125 0.28125l-5.9218903 0l0 -13.015625zm1.5625 11.640625l3.8593903 0q1.015625 0 1.59375 -0.515625q0.578125 -0.515625 0.578125 -1.5l0 -0.640625q0 -0.984375 -0.578125 -1.5q-0.578125 -0.515625 -1.59375 -0.515625l-3.8593903 0l0 4.671875zm0 -6.015625l3.6093903 0q0.921875 0 1.4375 -0.46875q0.53125 -0.46875 0.53125 -1.34375l0 -0.625q0 -0.875 -0.53125 -1.34375q-0.515625 -0.46875 -1.4375 -0.46875l-3.6093903 0l0 4.25zm10.620041 7.390625l0 -13.015625l1.5625 0l0 11.640625l5.546875 0l0 1.375l-7.109375 0zm17.857697 0l-1.3125 -3.84375l-5.25 0l-1.3125 3.84375l-1.59375 0l4.5625 -13.015625l2.0 0l4.546875 13.015625l-1.640625 0zm-3.90625 -11.5625l-0.09375 0l-2.203125 6.34375l4.5 0l-2.203125 -6.34375zm11.364929 11.78125q-1.578125 0 -2.703125 -0.59375q-1.125 -0.609375 -1.90625 -1.671875l1.15625 -0.96875q0.6875 0.90625 1.53125 1.390625q0.84375 0.46875 1.984375 0.46875q1.390625 0 2.125 -0.671875q0.75 -0.671875 0.75 -1.796875q0 -0.921875 -0.5625 -1.421875q-0.5625 -0.515625 -1.859375 -0.8125l-1.0625 -0.234375q-1.78125 -0.421875 -2.734375 -1.25q-0.9375 -0.828125 -0.9375 -2.34375q0 -0.859375 0.3125 -1.53125q0.328125 -0.671875 0.890625 -1.109375q0.578125 -0.453125 1.359375 -0.6875q0.796875 -0.234375 1.75 -0.234375q1.46875 0 2.515625 0.546875q1.0625 0.546875 1.796875 1.578125l-1.171875 0.859375q-0.546875 -0.734375 -1.3125 -1.15625q-0.765625 -0.4375 -1.90625 -0.4375q-1.25 0 -1.96875 0.53125q-0.71875 0.53125 -0.71875 1.59375q0 0.921875 0.609375 1.40625q0.609375 0.46875 1.84375 0.75l1.0625 0.25q1.921875 0.421875 2.78125 1.296875q0.859375 0.875 0.859375 2.34375q0 0.890625 -0.3125 1.625q-0.3125 0.71875 -0.890625 1.234375q-0.578125 0.5 -1.40625 0.78125q-0.828125 0.265625 -1.875 0.265625zm11.330994 -11.859375l0 11.640625l-1.578125 0l0 -11.640625l-4.140625 0l0 -1.375l9.859375 0l0 1.375l-4.140625 0z" fill-rule="nonzero"/><path fill="#000000" fill-opacity="0.0" d="m154.99213 174.7696l42.204727 0" fill-rule="evenodd"/><path stroke="#000000" stroke-width="2.0" stroke-linejoin="round" stroke-linecap="butt" d="m154.99213 174.7696l30.204727 0" fill-rule="evenodd"/><path fill="#000000" stroke="#000000" stroke-width="2.0" stroke-linecap="butt" d="m185.19685 178.07307l9.076187 -3.3034668l-9.076187 -3.3034668z" fill-rule="evenodd"/><path fill="#20272b" d="m199.7122 0l154.99211 0l0 78.07874l-154.99211 0z" fill-rule="evenodd"/><path stroke="#000000" stroke-width="1.0" stroke-linejoin="round" stroke-linecap="butt" d="m199.7122 0l154.99211 0l0 78.07874l-154.99211 0z" fill-rule="evenodd"/><path fill="#f1f1f1" d="m217.15796 45.959366l-1.5625 0l0 -13.015625l5.1875 0q1.71875 0 2.671875 0.953125q0.96875 0.9375 0.96875 2.734375q0 1.4375 -0.671875 2.359375q-0.65625 0.921875 -1.9375 1.21875l2.984375 5.75l-1.78125 0l-2.8125 -5.59375l-3.046875 0l0 5.59375zm3.625 -6.9375q0.9375 0 1.4375 -0.484375q0.515625 -0.484375 0.515625 -1.390625l0 -0.96875q0 -0.890625 -0.515625 -1.375q-0.5 -0.484375 -1.4375 -0.484375l-3.625 0l0 4.703125l3.625 0zm13.409592 6.9375q-0.828125 0 -1.203125 -0.4375q-0.359375 -0.453125 -0.453125 -1.125l-0.09375 0q-0.3125 0.890625 -1.046875 1.34375q-0.71875 0.4375 -1.734375 0.4375q-1.53125 0 -2.375 -0.78125q-0.84375 -0.78125 -0.84375 -2.125q0 -1.359375 0.984375 -2.078125q1.0 -0.734375 3.109375 -0.734375l1.90625 0l0 -0.953125q0 -1.03125 -0.5625 -1.5625q-0.5625 -0.546875 -1.71875 -0.546875q-0.875 0 -1.46875 0.390625q-0.578125 0.390625 -0.96875 1.046875l-0.890625 -0.84375q0.390625 -0.78125 1.25 -1.328125q0.859375 -0.546875 2.15625 -0.546875q1.75 0 2.71875 0.859375q0.984375 0.84375 0.984375 2.375l0 5.296875l1.09375 0l0 1.3125l-0.84375 0zm-4.28125 -1.046875q0.546875 0 1.015625 -0.125q0.46875 -0.140625 0.796875 -0.375q0.34375 -0.25 0.53125 -0.5625q0.1875 -0.3125 0.1875 -0.6875l0 -1.59375l-1.984375 0q-1.28125 0 -1.875 0.375q-0.578125 0.375 -0.578125 1.09375l0 0.390625q0 0.703125 0.515625 1.09375q0.515625 0.390625 1.390625 0.390625zm7.243683 1.046875l0 -9.625l1.5 0l0 1.5625l0.078125 0q0.34375 -0.8125 0.984375 -1.296875q0.65625 -0.484375 1.734375 -0.484375q1.5 0 2.359375 0.96875q0.875 0.953125 0.875 2.703125l0 6.171875l-1.5 0l0 -5.90625q0 -2.59375 -2.1875 -2.59375q-0.4375 0 -0.859375 0.109375q-0.421875 0.109375 -0.765625 0.34375q-0.328125 0.21875 -0.53125 0.5625q-0.1875 0.34375 -0.1875 0.8125l0 6.671875l-1.5 0zm16.768631 -1.5625l-0.078125 0q-0.875 1.78125 -2.828125 1.78125q-0.890625 0 -1.625 -0.34375q-0.71875 -0.359375 -1.234375 -1.015625q-0.515625 -0.65625 -0.78125 -1.578125q-0.265625 -0.9375 -0.265625 -2.09375q0 -1.15625 0.265625 -2.078125q0.265625 -0.9375 0.78125 -1.59375q0.515625 -0.65625 1.234375 -1.0q0.734375 -0.359375 1.625 -0.359375q1.015625 0 1.734375 0.4375q0.71875 0.4375 1.09375 1.34375l0.078125 0l0 -5.75l1.484375 0l0 13.8125l-1.484375 0l0 -1.5625zm-2.484375 0.4375q0.5 0 0.953125 -0.125q0.453125 -0.125 0.78125 -0.375q0.34375 -0.265625 0.546875 -0.625q0.203125 -0.359375 0.203125 -0.828125l0 -3.578125q0 -0.390625 -0.203125 -0.734375q-0.203125 -0.359375 -0.546875 -0.59375q-0.328125 -0.25 -0.78125 -0.375q-0.453125 -0.140625 -0.953125 -0.140625q-1.265625 0 -2.0 0.796875q-0.734375 0.78125 -0.734375 2.0625l0 1.640625q0 1.296875 0.734375 2.09375q0.734375 0.78125 2.0 0.78125zm10.773773 1.34375q-0.96875 0 -1.765625 -0.34375q-0.796875 -0.359375 -1.375 -1.015625q-0.5625 -0.671875 -0.890625 -1.59375q-0.3125 -0.921875 -0.3125 -2.078125q0 -1.140625 0.3125 -2.0625q0.328125 -0.9375 0.890625 -1.59375q0.578125 -0.671875 1.375 -1.015625q0.796875 -0.359375 1.765625 -0.359375q0.96875 0 1.765625 0.359375q0.796875 0.34375 1.375 1.015625q0.578125 0.65625 0.890625 1.59375q0.328125 0.921875 0.328125 2.0625q0 1.15625 -0.328125 2.078125q-0.3125 0.921875 -0.890625 1.59375q-0.578125 0.65625 -1.375 1.015625q-0.796875 0.34375 -1.765625 0.34375zm0 -1.3125q1.21875 0 1.984375 -0.75q0.765625 -0.75 0.765625 -2.28125l0 -1.375q0 -1.53125 -0.765625 -2.28125q-0.765625 -0.75 -1.984375 -0.75q-1.203125 0 -1.96875 0.75q-0.765625 0.75 -0.765625 2.28125l0 1.375q0 1.53125 0.765625 2.28125q0.765625 0.75 1.96875 0.75zm6.806885 1.09375l0 -9.625l1.5 0l0 1.5625l0.078125 0q0.171875 -0.375 0.375 -0.6875q0.21875 -0.328125 0.515625 -0.578125q0.3125 -0.25 0.71875 -0.375q0.421875 -0.140625 0.984375 -0.140625q0.953125 0 1.75 0.453125q0.796875 0.453125 1.1875 1.5l0.046875 0q0.265625 -0.78125 0.96875 -1.359375q0.71875 -0.59375 1.953125 -0.59375q1.484375 0 2.3125 0.96875q0.828125 0.953125 0.828125 2.703125l0 6.171875l-1.5 0l0 -5.90625q0 -1.296875 -0.5 -1.9375q-0.5 -0.65625 -1.609375 -0.65625q-0.4375 0 -0.84375 0.109375q-0.40625 0.109375 -0.71875 0.34375q-0.3125 0.21875 -0.5 0.5625q-0.1875 0.34375 -0.1875 0.8125l0 6.671875l-1.5 0l0 -5.90625q0 -1.296875 -0.5 -1.9375q-0.5 -0.65625 -1.5625 -0.65625q-0.453125 0 -0.859375 0.109375q-0.40625 0.109375 -0.734375 0.34375q-0.3125 0.21875 -0.515625 0.5625q-0.1875 0.34375 -0.1875 0.8125l0 6.671875l-1.5 0zm20.846039 0l0 -13.015625l5.1875 0q1.75 0 2.6875 1.0q0.953125 0.984375 0.953125 2.71875q0 1.734375 -0.953125 2.734375q-0.9375 1.0 -2.6875 1.0l-3.625 0l0 5.5625l-1.5625 0zm1.5625 -6.9375l3.625 0q0.9375 0 1.4375 -0.484375q0.515625 -0.484375 0.515625 -1.390625l0 -0.96875q0 -0.890625 -0.515625 -1.375q-0.5 -0.484375 -1.4375 -0.484375l-3.625 0l0 4.703125zm12.854218 7.15625q-0.96875 0 -1.765625 -0.34375q-0.796875 -0.359375 -1.375 -1.015625q-0.5625 -0.671875 -0.890625 -1.59375q-0.3125 -0.921875 -0.3125 -2.078125q0 -1.140625 0.3125 -2.0625q0.328125 -0.9375 0.890625 -1.59375q0.578125 -0.671875 1.375 -1.015625q0.796875 -0.359375 1.765625 -0.359375q0.96875 0 1.765625 0.359375q0.796875 0.34375 1.375 1.015625q0.578125 0.65625 0.890625 1.59375q0.328125 0.921875 0.328125 2.0625q0 1.15625 -0.328125 2.078125q-0.3125 0.921875 -0.890625 1.59375q-0.578125 0.65625 -1.375 1.015625q-0.796875 0.34375 -1.765625 0.34375zm0 -1.3125q1.21875 0 1.984375 -0.75q0.765625 -0.75 0.765625 -2.28125l0 -1.375q0 -1.53125 -0.765625 -2.28125q-0.765625 -0.75 -1.984375 -0.75q-1.203125 0 -1.96875 0.75q-0.765625 0.75 -0.765625 2.28125l0 1.375q0 1.53125 0.765625 2.28125q0.765625 0.75 1.96875 0.75zm10.44751 1.3125q-0.96875 0 -1.765625 -0.34375q-0.796875 -0.359375 -1.375 -1.015625q-0.5625 -0.671875 -0.890625 -1.59375q-0.3125 -0.921875 -0.3125 -2.078125q0 -1.140625 0.3125 -2.0625q0.328125 -0.9375 0.890625 -1.59375q0.578125 -0.671875 1.375 -1.015625q0.796875 -0.359375 1.765625 -0.359375q0.96875 0 1.765625 0.359375q0.796875 0.34375 1.375 1.015625q0.578125 0.65625 0.890625 1.59375q0.328125 0.921875 0.328125 2.0625q0 1.15625 -0.328125 2.078125q-0.3125 0.921875 -0.890625 1.59375q-0.578125 0.65625 -1.375 1.015625q-0.796875 0.34375 -1.765625 0.34375zm0 -1.3125q1.21875 0 1.984375 -0.75q0.765625 -0.75 0.765625 -2.28125l0 -1.375q0 -1.53125 -0.765625 -2.28125q-0.765625 -0.75 -1.984375 -0.75q-1.203125 0 -1.96875 0.75q-0.765625 0.75 -0.765625 2.28125l0 1.375q0 1.53125 0.765625 2.28125q0.765625 0.75 1.96875 0.75zm8.400635 1.09375q-0.78125 0 -1.1875 -0.4375q-0.40625 -0.4375 -0.40625 -1.109375l0 -12.265625l1.5 0l0 12.5l1.421875 0l0 1.3125l-1.328125 0z" fill-rule="nonzero"/><path fill="#f1f1f1" d="m338.9207 45.959366l-1.59375 0l-2.234375 -5.328125l-0.078125 0l-4.296875 5.328125l-1.75 0l5.375 -6.671875l-2.671875 -6.34375l1.59375 0l2.21875 5.34375l0.078125 0l4.296875 -5.34375l1.765625 0l-5.46875 6.609375l2.765625 6.40625z" fill-rule="nonzero"/><path fill="#20272b" d="m399.4244 135.73024l154.9921 0l0 78.078735l-154.9921 0z" fill-rule="evenodd"/><path stroke="#000000" stroke-width="1.0" stroke-linejoin="round" stroke-linecap="butt" d="m399.4244 135.73024l154.9921 0l0 78.078735l-154.9921 0z" fill-rule="evenodd"/><path fill="#f1f1f1" d="m417.18826 181.90836q-1.28125 0 -2.296875 -0.4375q-1.015625 -0.4375 -1.734375 -1.28125q-0.71875 -0.84375 -1.109375 -2.109375q-0.390625 -1.265625 -0.390625 -2.90625q0 -1.640625 0.390625 -2.890625q0.390625 -1.25 1.109375 -2.109375q0.71875 -0.859375 1.734375 -1.296875q1.015625 -0.4375 2.296875 -0.4375q1.25 0 2.265625 0.4375q1.03125 0.4375 1.75 1.296875q0.71875 0.859375 1.109375 2.109375q0.390625 1.25 0.390625 2.890625q0 1.640625 -0.390625 2.90625q-0.390625 1.265625 -1.109375 2.109375q-0.71875 0.84375 -1.75 1.28125q-1.015625 0.4375 -2.265625 0.4375zm0 -1.390625q0.828125 0 1.53125 -0.296875q0.71875 -0.296875 1.234375 -0.859375q0.515625 -0.5625 0.796875 -1.34375q0.28125 -0.78125 0.28125 -1.75l0 -2.171875q0 -0.96875 -0.28125 -1.75q-0.28125 -0.78125 -0.796875 -1.34375q-0.515625 -0.5625 -1.234375 -0.859375q-0.703125 -0.296875 -1.53125 -0.296875q-0.84375 0 -1.5625 0.296875q-0.703125 0.296875 -1.21875 0.859375q-0.5 0.5625 -0.78125 1.34375q-0.28125 0.78125 -0.28125 1.75l0 2.171875q0 0.96875 0.28125 1.75q0.28125 0.78125 0.78125 1.34375q0.515625 0.5625 1.21875 0.859375q0.71875 0.296875 1.5625 0.296875zm8.177368 1.171875l0 -9.625l1.5 0l0 1.5625l0.078125 0q0.34375 -0.8125 0.984375 -1.296875q0.65625 -0.484375 1.734375 -0.484375q1.5 0 2.359375 0.96875q0.875 0.953125 0.875 2.703125l0 6.171875l-1.5 0l0 -5.90625q0 -2.59375 -2.1875 -2.59375q-0.4375 0 -0.859375 0.109375q-0.421875 0.109375 -0.765625 0.34375q-0.328125 0.21875 -0.53125 0.5625q-0.1875 0.34375 -0.1875 0.8125l0 6.671875l-1.5 0zm14.221771 0.21875q-0.984375 0 -1.78125 -0.34375q-0.796875 -0.359375 -1.359375 -1.015625q-0.5625 -0.671875 -0.875 -1.59375q-0.3125 -0.921875 -0.3125 -2.078125q0 -1.140625 0.3125 -2.0625q0.3125 -0.9375 0.875 -1.59375q0.5625 -0.671875 1.359375 -1.015625q0.796875 -0.359375 1.78125 -0.359375q0.96875 0 1.734375 0.359375q0.765625 0.34375 1.296875 0.96875q0.546875 0.625 0.828125 1.484375q0.296875 0.859375 0.296875 1.875l0 0.71875l-6.921875 0l0 0.4375q0 0.625 0.1875 1.15625q0.203125 0.53125 0.5625 0.921875q0.375 0.390625 0.90625 0.625q0.53125 0.21875 1.203125 0.21875q0.921875 0 1.59375 -0.421875q0.6875 -0.4375 1.0625 -1.25l1.0625 0.765625q-0.46875 1.0 -1.46875 1.609375q-0.984375 0.59375 -2.34375 0.59375zm0 -8.8125q-0.609375 0 -1.125 0.21875q-0.5 0.203125 -0.859375 0.59375q-0.359375 0.390625 -0.578125 0.921875q-0.203125 0.53125 -0.203125 1.171875l0 0.125l5.328125 0l0 -0.203125q0 -1.28125 -0.703125 -2.046875q-0.703125 -0.78125 -1.859375 -0.78125zm15.567017 -3.046875l0 11.640625l-1.578125 0l0 -11.640625l-4.140625 0l0 -1.375l9.859375 0l0 1.375l-4.140625 0zm6.8745117 -0.25q-0.484375 0 -0.703125 -0.21875q-0.203125 -0.234375 -0.203125 -0.609375l0 -0.25q0 -0.375 0.203125 -0.609375q0.21875 -0.234375 0.703125 -0.234375q0.484375 0 0.703125 0.234375q0.21875 0.234375 0.21875 0.609375l0 0.25q0 0.375 -0.21875 0.609375q-0.21875 0.21875 -0.703125 0.21875zm-0.75 2.265625l1.5 0l0 9.625l-1.5 0l0 -9.625zm4.6640625 9.625l0 -9.625l1.5 0l0 1.5625l0.078125 0q0.171875 -0.375 0.375 -0.6875q0.21875 -0.328125 0.515625 -0.578125q0.3125 -0.25 0.71875 -0.375q0.421875 -0.140625 0.984375 -0.140625q0.953125 0 1.75 0.453125q0.796875 0.453125 1.1875 1.5l0.046875 0q0.265625 -0.78125 0.96875 -1.359375q0.71875 -0.59375 1.953125 -0.59375q1.484375 0 2.3125 0.96875q0.828125 0.953125 0.828125 2.703125l0 6.171875l-1.5 0l0 -5.90625q0 -1.296875 -0.5 -1.9375q-0.5 -0.65625 -1.609375 -0.65625q-0.4375 0 -0.84375 0.109375q-0.40625 0.109375 -0.71875 0.34375q-0.3125 0.21875 -0.5 0.5625q-0.1875 0.34375 -0.1875 0.8125l0 6.671875l-1.5 0l0 -5.90625q0 -1.296875 -0.5 -1.9375q-0.5 -0.65625 -1.5625 -0.65625q-0.453125 0 -0.859375 0.109375q-0.40625 0.109375 -0.734375 0.34375q-0.3125 0.21875 -0.515625 0.5625q-0.1875 0.34375 -0.1875 0.8125l0 6.671875l-1.5 0zm19.911896 0.21875q-0.984375 0 -1.78125 -0.34375q-0.796875 -0.359375 -1.359375 -1.015625q-0.5625 -0.671875 -0.875 -1.59375q-0.3125 -0.921875 -0.3125 -2.078125q0 -1.140625 0.3125 -2.0625q0.3125 -0.9375 0.875 -1.59375q0.5625 -0.671875 1.359375 -1.015625q0.796875 -0.359375 1.78125 -0.359375q0.96875 0 1.734375 0.359375q0.765625 0.34375 1.296875 0.96875q0.546875 0.625 0.828125 1.484375q0.296875 0.859375 0.296875 1.875l0 0.71875l-6.921875 0l0 0.4375q0 0.625 0.1875 1.15625q0.203125 0.53125 0.5625 0.921875q0.375 0.390625 0.90625 0.625q0.53125 0.21875 1.203125 0.21875q0.921875 0 1.59375 -0.421875q0.6875 -0.4375 1.0625 -1.25l1.0625 0.765625q-0.46875 1.0 -1.46875 1.609375q-0.984375 0.59375 -2.34375 0.59375zm0 -8.8125q-0.609375 0 -1.125 0.21875q-0.5 0.203125 -0.859375 0.59375q-0.359375 0.390625 -0.578125 0.921875q-0.203125 0.53125 -0.203125 1.171875l0 0.125l5.328125 0l0 -0.203125q0 -1.28125 -0.703125 -2.046875q-0.703125 -0.78125 -1.859375 -0.78125zm11.176422 8.59375l0 -13.015625l5.1875 0q1.75 0 2.6875 1.0q0.953125 0.984375 0.953125 2.71875q0 1.734375 -0.953125 2.734375q-0.9375 1.0 -2.6875 1.0l-3.625 0l0 5.5625l-1.5625 0zm1.5625 -6.9375l3.625 0q0.9375 0 1.4375 -0.484375q0.515625 -0.484375 0.515625 -1.390625l0 -0.96875q0 -0.890625 -0.515625 -1.375q-0.5 -0.484375 -1.4375 -0.484375l-3.625 0l0 4.703125zm16.400269 6.9375q-0.828125 0 -1.203125 -0.4375q-0.359375 -0.453125 -0.453125 -1.125l-0.09375 0q-0.3125 0.890625 -1.046875 1.34375q-0.71875 0.4375 -1.734375 0.4375q-1.53125 0 -2.375 -0.78125q-0.84375 -0.78125 -0.84375 -2.125q0 -1.359375 0.984375 -2.078125q1.0 -0.734375 3.109375 -0.734375l1.90625 0l0 -0.953125q0 -1.03125 -0.5625 -1.5625q-0.5625 -0.546875 -1.71875 -0.546875q-0.875 0 -1.46875 0.390625q-0.578125 0.390625 -0.96875 1.046875l-0.890625 -0.84375q0.390625 -0.78125 1.25 -1.328125q0.859375 -0.546875 2.15625 -0.546875q1.75 0 2.71875 0.859375q0.984375 0.84375 0.984375 2.375l0 5.296875l1.09375 0l0 1.3125l-0.84375 0zm-4.28125 -1.046875q0.546875 0 1.015625 -0.125q0.46875 -0.140625 0.796875 -0.375q0.34375 -0.25 0.53125 -0.5625q0.1875 -0.3125 0.1875 -0.6875l0 -1.59375l-1.984375 0q-1.28125 0 -1.875 0.375q-0.578125 0.375 -0.578125 1.09375l0 0.390625q0 0.703125 0.515625 1.09375q0.515625 0.390625 1.390625 0.390625zm13.415588 -0.515625l-0.078125 0q-0.875 1.78125 -2.828125 1.78125q-0.890625 0 -1.625 -0.34375q-0.71875 -0.359375 -1.234375 -1.015625q-0.515625 -0.65625 -0.78125 -1.578125q-0.265625 -0.9375 -0.265625 -2.09375q0 -1.15625 0.265625 -2.078125q0.265625 -0.9375 0.78125 -1.59375q0.515625 -0.65625 1.234375 -1.0q0.734375 -0.359375 1.625 -0.359375q1.015625 0 1.734375 0.4375q0.71875 0.4375 1.09375 1.34375l0.078125 0l0 -5.75l1.484375 0l0 13.8125l-1.484375 0l0 -1.5625zm-2.484375 0.4375q0.5 0 0.953125 -0.125q0.453125 -0.125 0.78125 -0.375q0.34375 -0.265625 0.546875 -0.625q0.203125 -0.359375 0.203125 -0.828125l0 -3.578125q0 -0.390625 -0.203125 -0.734375q-0.203125 -0.359375 -0.546875 -0.59375q-0.328125 -0.25 -0.78125 -0.375q-0.453125 -0.140625 -0.953125 -0.140625q-1.265625 0 -2.0 0.796875q-0.734375 0.78125 -0.734375 2.0625l0 1.640625q0 1.296875 0.734375 2.09375q0.734375 0.78125 2.0 0.78125z" fill-rule="nonzero"/><path fill="#f1f1f1" d="m533.83624 181.6896l-1.5 0l2.609375 -13.015625l4.640625 0q0.859375 0 1.46875 0.234375q0.625 0.21875 1.015625 0.640625q0.390625 0.421875 0.5625 1.0q0.1875 0.5625 0.1875 1.234375q0 0.75 -0.25 1.4375q-0.234375 0.6875 -0.6875 1.25q-0.4375 0.546875 -1.078125 0.9375q-0.625 0.390625 -1.40625 0.53125l1.90625 5.75l-1.625 0l-1.765625 -5.59375l-2.953125 0l-1.125 5.59375zm4.84375 -6.921875q0.921875 0 1.53125 -0.46875q0.625 -0.484375 0.8125 -1.390625q0.125 -0.640625 0.171875 -0.890625q0.046875 -0.265625 0.046875 -0.5q0 -0.671875 -0.390625 -1.078125q-0.390625 -0.421875 -1.375 -0.421875l-3.296875 0l-0.9375 4.75l3.4375 0z" fill-rule="nonzero"/><path fill="#000000" fill-opacity="0.0" d="m354.86633 174.71658l42.204712 0" fill-rule="evenodd"/><path stroke="#000000" stroke-width="2.0" stroke-linejoin="round" stroke-linecap="butt" d="m354.8663 174.7166l30.204742 0" fill-rule="evenodd"/><path fill="#000000" stroke="#000000" stroke-width="2.0" stroke-linecap="butt" d="m385.07104 178.02007l9.076172 -3.3034668l-9.076172 -3.3034668z" fill-rule="evenodd"/><path fill="#000000" fill-opacity="0.0" d="m277.20825 78.07874l0 57.637794" fill-rule="evenodd"/><path stroke="#000000" stroke-width="2.0" stroke-linejoin="round" stroke-linecap="butt" d="m277.20828 78.07874l0 45.637794" fill-rule="evenodd"/><path fill="#000000" stroke="#000000" stroke-width="2.0" stroke-linecap="butt" d="m273.90482 123.71654l3.3034668 9.076187l3.3034668 -9.076187z" fill-rule="evenodd"/></g></svg>